<?xml version="1.0" encoding="utf-8" standalone="no"?>
<!DOCTYPE svg PUBLIC "-//W3C//DTD SVG 1.1//EN"
  "http://www.w3.org/Graphics/SVG/1.1/DTD/svg11.dtd">
<svg height="345.6pt" version="1.1" viewBox="0 0 460.8 345.6" width="460.8pt" xmlns="http://www.w3.org/2000/svg" xmlns:xlink="http://www.w3.org/1999/xlink">
 <metadata>
  <rdf:RDF xmlns:cc="http://creativecommons.org/ns#" xmlns:dc="http://purl.org/dc/elements/1.1/" xmlns:rdf="http://www.w3.org/1999/02/22-rdf-syntax-ns#">
   <cc:Work>
    <dc:type rdf:resource="http://purl.org/dc/dcmitype/StillImage"/>
    <dc:date>2023-05-02T16:00:06.098065</dc:date>
    <dc:format>image/svg+xml</dc:format>
    <dc:creator>
     <cc:Agent>
      <dc:title>Matplotlib v3.4.2, https://matplotlib.org/</dc:title>
     </cc:Agent>
    </dc:creator>
   </cc:Work>
  </rdf:RDF>
 </metadata>
 <defs>
  <style type="text/css">*{stroke-linecap:butt;stroke-linejoin:round;}</style>
 </defs>
 <g id="figure_1">
  <g id="patch_1">
   <path d="M 0 345.6 
L 460.8 345.6 
L 460.8 0 
L 0 0 
z
" style="fill:#ffffff;"/>
  </g>
  <g id="axes_1">
   <g id="patch_2">
    <path d="M 57.6 307.584 
L 414.72 307.584 
L 414.72 41.472 
L 57.6 41.472 
z
" style="fill:#ffffff;"/>
   </g>
   <g id="matplotlib.axis_1">
    <g id="xtick_1">
     <g id="line2d_1">
      <defs>
       <path d="M 0 0 
L 0 3.5 
" id="m63b4a38bfc" style="stroke:#000000;stroke-width:0.8;"/>
      </defs>
      <g>
       <use style="stroke:#000000;stroke-width:0.8;" x="75.456" xlink:href="#m63b4a38bfc" y="307.584"/>
      </g>
     </g>
     <g id="text_1">
      <!-- 0.04000000000000001 -->
      <g transform="translate(16.604438 322.182437)scale(0.1 -0.1)">
       <defs>
        <path d="M 2034 4250 
Q 1547 4250 1301 3770 
Q 1056 3291 1056 2328 
Q 1056 1369 1301 889 
Q 1547 409 2034 409 
Q 2525 409 2770 889 
Q 3016 1369 3016 2328 
Q 3016 3291 2770 3770 
Q 2525 4250 2034 4250 
z
M 2034 4750 
Q 2819 4750 3233 4129 
Q 3647 3509 3647 2328 
Q 3647 1150 3233 529 
Q 2819 -91 2034 -91 
Q 1250 -91 836 529 
Q 422 1150 422 2328 
Q 422 3509 836 4129 
Q 1250 4750 2034 4750 
z
" id="DejaVuSans-30" transform="scale(0.015625)"/>
        <path d="M 684 794 
L 1344 794 
L 1344 0 
L 684 0 
L 684 794 
z
" id="DejaVuSans-2e" transform="scale(0.015625)"/>
        <path d="M 2419 4116 
L 825 1625 
L 2419 1625 
L 2419 4116 
z
M 2253 4666 
L 3047 4666 
L 3047 1625 
L 3713 1625 
L 3713 1100 
L 3047 1100 
L 3047 0 
L 2419 0 
L 2419 1100 
L 313 1100 
L 313 1709 
L 2253 4666 
z
" id="DejaVuSans-34" transform="scale(0.015625)"/>
        <path d="M 794 531 
L 1825 531 
L 1825 4091 
L 703 3866 
L 703 4441 
L 1819 4666 
L 2450 4666 
L 2450 531 
L 3481 531 
L 3481 0 
L 794 0 
L 794 531 
z
" id="DejaVuSans-31" transform="scale(0.015625)"/>
       </defs>
       <use xlink:href="#DejaVuSans-30"/>
       <use x="63.623047" xlink:href="#DejaVuSans-2e"/>
       <use x="95.410156" xlink:href="#DejaVuSans-30"/>
       <use x="159.033203" xlink:href="#DejaVuSans-34"/>
       <use x="222.65625" xlink:href="#DejaVuSans-30"/>
       <use x="286.279297" xlink:href="#DejaVuSans-30"/>
       <use x="349.902344" xlink:href="#DejaVuSans-30"/>
       <use x="413.525391" xlink:href="#DejaVuSans-30"/>
       <use x="477.148438" xlink:href="#DejaVuSans-30"/>
       <use x="540.771484" xlink:href="#DejaVuSans-30"/>
       <use x="604.394531" xlink:href="#DejaVuSans-30"/>
       <use x="668.017578" xlink:href="#DejaVuSans-30"/>
       <use x="731.640625" xlink:href="#DejaVuSans-30"/>
       <use x="795.263672" xlink:href="#DejaVuSans-30"/>
       <use x="858.886719" xlink:href="#DejaVuSans-30"/>
       <use x="922.509766" xlink:href="#DejaVuSans-30"/>
       <use x="986.132812" xlink:href="#DejaVuSans-30"/>
       <use x="1049.755859" xlink:href="#DejaVuSans-30"/>
       <use x="1113.378906" xlink:href="#DejaVuSans-31"/>
      </g>
     </g>
    </g>
    <g id="xtick_2">
     <g id="line2d_2">
      <g>
       <use style="stroke:#000000;stroke-width:0.8;" x="111.168" xlink:href="#m63b4a38bfc" y="307.584"/>
      </g>
     </g>
     <g id="text_2">
      <!-- 0.06304234400596948 -->
      <g transform="translate(52.316438 322.182437)scale(0.1 -0.1)">
       <defs>
        <path d="M 2113 2584 
Q 1688 2584 1439 2293 
Q 1191 2003 1191 1497 
Q 1191 994 1439 701 
Q 1688 409 2113 409 
Q 2538 409 2786 701 
Q 3034 994 3034 1497 
Q 3034 2003 2786 2293 
Q 2538 2584 2113 2584 
z
M 3366 4563 
L 3366 3988 
Q 3128 4100 2886 4159 
Q 2644 4219 2406 4219 
Q 1781 4219 1451 3797 
Q 1122 3375 1075 2522 
Q 1259 2794 1537 2939 
Q 1816 3084 2150 3084 
Q 2853 3084 3261 2657 
Q 3669 2231 3669 1497 
Q 3669 778 3244 343 
Q 2819 -91 2113 -91 
Q 1303 -91 875 529 
Q 447 1150 447 2328 
Q 447 3434 972 4092 
Q 1497 4750 2381 4750 
Q 2619 4750 2861 4703 
Q 3103 4656 3366 4563 
z
" id="DejaVuSans-36" transform="scale(0.015625)"/>
        <path d="M 2597 2516 
Q 3050 2419 3304 2112 
Q 3559 1806 3559 1356 
Q 3559 666 3084 287 
Q 2609 -91 1734 -91 
Q 1441 -91 1130 -33 
Q 819 25 488 141 
L 488 750 
Q 750 597 1062 519 
Q 1375 441 1716 441 
Q 2309 441 2620 675 
Q 2931 909 2931 1356 
Q 2931 1769 2642 2001 
Q 2353 2234 1838 2234 
L 1294 2234 
L 1294 2753 
L 1863 2753 
Q 2328 2753 2575 2939 
Q 2822 3125 2822 3475 
Q 2822 3834 2567 4026 
Q 2313 4219 1838 4219 
Q 1578 4219 1281 4162 
Q 984 4106 628 3988 
L 628 4550 
Q 988 4650 1302 4700 
Q 1616 4750 1894 4750 
Q 2613 4750 3031 4423 
Q 3450 4097 3450 3541 
Q 3450 3153 3228 2886 
Q 3006 2619 2597 2516 
z
" id="DejaVuSans-33" transform="scale(0.015625)"/>
        <path d="M 1228 531 
L 3431 531 
L 3431 0 
L 469 0 
L 469 531 
Q 828 903 1448 1529 
Q 2069 2156 2228 2338 
Q 2531 2678 2651 2914 
Q 2772 3150 2772 3378 
Q 2772 3750 2511 3984 
Q 2250 4219 1831 4219 
Q 1534 4219 1204 4116 
Q 875 4013 500 3803 
L 500 4441 
Q 881 4594 1212 4672 
Q 1544 4750 1819 4750 
Q 2544 4750 2975 4387 
Q 3406 4025 3406 3419 
Q 3406 3131 3298 2873 
Q 3191 2616 2906 2266 
Q 2828 2175 2409 1742 
Q 1991 1309 1228 531 
z
" id="DejaVuSans-32" transform="scale(0.015625)"/>
        <path d="M 691 4666 
L 3169 4666 
L 3169 4134 
L 1269 4134 
L 1269 2991 
Q 1406 3038 1543 3061 
Q 1681 3084 1819 3084 
Q 2600 3084 3056 2656 
Q 3513 2228 3513 1497 
Q 3513 744 3044 326 
Q 2575 -91 1722 -91 
Q 1428 -91 1123 -41 
Q 819 9 494 109 
L 494 744 
Q 775 591 1075 516 
Q 1375 441 1709 441 
Q 2250 441 2565 725 
Q 2881 1009 2881 1497 
Q 2881 1984 2565 2268 
Q 2250 2553 1709 2553 
Q 1456 2553 1204 2497 
Q 953 2441 691 2322 
L 691 4666 
z
" id="DejaVuSans-35" transform="scale(0.015625)"/>
        <path d="M 703 97 
L 703 672 
Q 941 559 1184 500 
Q 1428 441 1663 441 
Q 2288 441 2617 861 
Q 2947 1281 2994 2138 
Q 2813 1869 2534 1725 
Q 2256 1581 1919 1581 
Q 1219 1581 811 2004 
Q 403 2428 403 3163 
Q 403 3881 828 4315 
Q 1253 4750 1959 4750 
Q 2769 4750 3195 4129 
Q 3622 3509 3622 2328 
Q 3622 1225 3098 567 
Q 2575 -91 1691 -91 
Q 1453 -91 1209 -44 
Q 966 3 703 97 
z
M 1959 2075 
Q 2384 2075 2632 2365 
Q 2881 2656 2881 3163 
Q 2881 3666 2632 3958 
Q 2384 4250 1959 4250 
Q 1534 4250 1286 3958 
Q 1038 3666 1038 3163 
Q 1038 2656 1286 2365 
Q 1534 2075 1959 2075 
z
" id="DejaVuSans-39" transform="scale(0.015625)"/>
        <path d="M 2034 2216 
Q 1584 2216 1326 1975 
Q 1069 1734 1069 1313 
Q 1069 891 1326 650 
Q 1584 409 2034 409 
Q 2484 409 2743 651 
Q 3003 894 3003 1313 
Q 3003 1734 2745 1975 
Q 2488 2216 2034 2216 
z
M 1403 2484 
Q 997 2584 770 2862 
Q 544 3141 544 3541 
Q 544 4100 942 4425 
Q 1341 4750 2034 4750 
Q 2731 4750 3128 4425 
Q 3525 4100 3525 3541 
Q 3525 3141 3298 2862 
Q 3072 2584 2669 2484 
Q 3125 2378 3379 2068 
Q 3634 1759 3634 1313 
Q 3634 634 3220 271 
Q 2806 -91 2034 -91 
Q 1263 -91 848 271 
Q 434 634 434 1313 
Q 434 1759 690 2068 
Q 947 2378 1403 2484 
z
M 1172 3481 
Q 1172 3119 1398 2916 
Q 1625 2713 2034 2713 
Q 2441 2713 2670 2916 
Q 2900 3119 2900 3481 
Q 2900 3844 2670 4047 
Q 2441 4250 2034 4250 
Q 1625 4250 1398 4047 
Q 1172 3844 1172 3481 
z
" id="DejaVuSans-38" transform="scale(0.015625)"/>
       </defs>
       <use xlink:href="#DejaVuSans-30"/>
       <use x="63.623047" xlink:href="#DejaVuSans-2e"/>
       <use x="95.410156" xlink:href="#DejaVuSans-30"/>
       <use x="159.033203" xlink:href="#DejaVuSans-36"/>
       <use x="222.65625" xlink:href="#DejaVuSans-33"/>
       <use x="286.279297" xlink:href="#DejaVuSans-30"/>
       <use x="349.902344" xlink:href="#DejaVuSans-34"/>
       <use x="413.525391" xlink:href="#DejaVuSans-32"/>
       <use x="477.148438" xlink:href="#DejaVuSans-33"/>
       <use x="540.771484" xlink:href="#DejaVuSans-34"/>
       <use x="604.394531" xlink:href="#DejaVuSans-34"/>
       <use x="668.017578" xlink:href="#DejaVuSans-30"/>
       <use x="731.640625" xlink:href="#DejaVuSans-30"/>
       <use x="795.263672" xlink:href="#DejaVuSans-35"/>
       <use x="858.886719" xlink:href="#DejaVuSans-39"/>
       <use x="922.509766" xlink:href="#DejaVuSans-36"/>
       <use x="986.132812" xlink:href="#DejaVuSans-39"/>
       <use x="1049.755859" xlink:href="#DejaVuSans-34"/>
       <use x="1113.378906" xlink:href="#DejaVuSans-38"/>
      </g>
     </g>
    </g>
    <g id="xtick_3">
     <g id="line2d_3">
      <g>
       <use style="stroke:#000000;stroke-width:0.8;" x="146.88" xlink:href="#m63b4a38bfc" y="307.584"/>
      </g>
     </g>
     <g id="text_3">
      <!-- 0.09935842844417496 -->
      <g transform="translate(88.028437 322.182437)scale(0.1 -0.1)">
       <defs>
        <path d="M 525 4666 
L 3525 4666 
L 3525 4397 
L 1831 0 
L 1172 0 
L 2766 4134 
L 525 4134 
L 525 4666 
z
" id="DejaVuSans-37" transform="scale(0.015625)"/>
       </defs>
       <use xlink:href="#DejaVuSans-30"/>
       <use x="63.623047" xlink:href="#DejaVuSans-2e"/>
       <use x="95.410156" xlink:href="#DejaVuSans-30"/>
       <use x="159.033203" xlink:href="#DejaVuSans-39"/>
       <use x="222.65625" xlink:href="#DejaVuSans-39"/>
       <use x="286.279297" xlink:href="#DejaVuSans-33"/>
       <use x="349.902344" xlink:href="#DejaVuSans-35"/>
       <use x="413.525391" xlink:href="#DejaVuSans-38"/>
       <use x="477.148438" xlink:href="#DejaVuSans-34"/>
       <use x="540.771484" xlink:href="#DejaVuSans-32"/>
       <use x="604.394531" xlink:href="#DejaVuSans-38"/>
       <use x="668.017578" xlink:href="#DejaVuSans-34"/>
       <use x="731.640625" xlink:href="#DejaVuSans-34"/>
       <use x="795.263672" xlink:href="#DejaVuSans-34"/>
       <use x="858.886719" xlink:href="#DejaVuSans-31"/>
       <use x="922.509766" xlink:href="#DejaVuSans-37"/>
       <use x="986.132812" xlink:href="#DejaVuSans-34"/>
       <use x="1049.755859" xlink:href="#DejaVuSans-39"/>
       <use x="1113.378906" xlink:href="#DejaVuSans-36"/>
      </g>
     </g>
    </g>
    <g id="xtick_4">
     <g id="line2d_4">
      <g>
       <use style="stroke:#000000;stroke-width:0.8;" x="182.592" xlink:href="#m63b4a38bfc" y="307.584"/>
      </g>
     </g>
     <g id="text_4">
      <!-- 0.15659470564675454 -->
      <g transform="translate(123.740438 322.182437)scale(0.1 -0.1)">
       <use xlink:href="#DejaVuSans-30"/>
       <use x="63.623047" xlink:href="#DejaVuSans-2e"/>
       <use x="95.410156" xlink:href="#DejaVuSans-31"/>
       <use x="159.033203" xlink:href="#DejaVuSans-35"/>
       <use x="222.65625" xlink:href="#DejaVuSans-36"/>
       <use x="286.279297" xlink:href="#DejaVuSans-35"/>
       <use x="349.902344" xlink:href="#DejaVuSans-39"/>
       <use x="413.525391" xlink:href="#DejaVuSans-34"/>
       <use x="477.148438" xlink:href="#DejaVuSans-37"/>
       <use x="540.771484" xlink:href="#DejaVuSans-30"/>
       <use x="604.394531" xlink:href="#DejaVuSans-35"/>
       <use x="668.017578" xlink:href="#DejaVuSans-36"/>
       <use x="731.640625" xlink:href="#DejaVuSans-34"/>
       <use x="795.263672" xlink:href="#DejaVuSans-36"/>
       <use x="858.886719" xlink:href="#DejaVuSans-37"/>
       <use x="922.509766" xlink:href="#DejaVuSans-35"/>
       <use x="986.132812" xlink:href="#DejaVuSans-34"/>
       <use x="1049.755859" xlink:href="#DejaVuSans-35"/>
       <use x="1113.378906" xlink:href="#DejaVuSans-34"/>
      </g>
     </g>
    </g>
    <g id="xtick_5">
     <g id="line2d_5">
      <g>
       <use style="stroke:#000000;stroke-width:0.8;" x="218.304" xlink:href="#m63b4a38bfc" y="307.584"/>
      </g>
     </g>
     <g id="text_5">
      <!-- 0.24680243257240583 -->
      <g transform="translate(159.452438 322.182437)scale(0.1 -0.1)">
       <use xlink:href="#DejaVuSans-30"/>
       <use x="63.623047" xlink:href="#DejaVuSans-2e"/>
       <use x="95.410156" xlink:href="#DejaVuSans-32"/>
       <use x="159.033203" xlink:href="#DejaVuSans-34"/>
       <use x="222.65625" xlink:href="#DejaVuSans-36"/>
       <use x="286.279297" xlink:href="#DejaVuSans-38"/>
       <use x="349.902344" xlink:href="#DejaVuSans-30"/>
       <use x="413.525391" xlink:href="#DejaVuSans-32"/>
       <use x="477.148438" xlink:href="#DejaVuSans-34"/>
       <use x="540.771484" xlink:href="#DejaVuSans-33"/>
       <use x="604.394531" xlink:href="#DejaVuSans-32"/>
       <use x="668.017578" xlink:href="#DejaVuSans-35"/>
       <use x="731.640625" xlink:href="#DejaVuSans-37"/>
       <use x="795.263672" xlink:href="#DejaVuSans-32"/>
       <use x="858.886719" xlink:href="#DejaVuSans-34"/>
       <use x="922.509766" xlink:href="#DejaVuSans-30"/>
       <use x="986.132812" xlink:href="#DejaVuSans-35"/>
       <use x="1049.755859" xlink:href="#DejaVuSans-38"/>
       <use x="1113.378906" xlink:href="#DejaVuSans-33"/>
      </g>
     </g>
    </g>
    <g id="xtick_6">
     <g id="line2d_6">
      <g>
       <use style="stroke:#000000;stroke-width:0.8;" x="254.016" xlink:href="#m63b4a38bfc" y="307.584"/>
      </g>
     </g>
     <g id="text_6">
      <!-- 0.38897509639349254 -->
      <g transform="translate(195.164438 322.182437)scale(0.1 -0.1)">
       <use xlink:href="#DejaVuSans-30"/>
       <use x="63.623047" xlink:href="#DejaVuSans-2e"/>
       <use x="95.410156" xlink:href="#DejaVuSans-33"/>
       <use x="159.033203" xlink:href="#DejaVuSans-38"/>
       <use x="222.65625" xlink:href="#DejaVuSans-38"/>
       <use x="286.279297" xlink:href="#DejaVuSans-39"/>
       <use x="349.902344" xlink:href="#DejaVuSans-37"/>
       <use x="413.525391" xlink:href="#DejaVuSans-35"/>
       <use x="477.148438" xlink:href="#DejaVuSans-30"/>
       <use x="540.771484" xlink:href="#DejaVuSans-39"/>
       <use x="604.394531" xlink:href="#DejaVuSans-36"/>
       <use x="668.017578" xlink:href="#DejaVuSans-33"/>
       <use x="731.640625" xlink:href="#DejaVuSans-39"/>
       <use x="795.263672" xlink:href="#DejaVuSans-33"/>
       <use x="858.886719" xlink:href="#DejaVuSans-34"/>
       <use x="922.509766" xlink:href="#DejaVuSans-39"/>
       <use x="986.132812" xlink:href="#DejaVuSans-32"/>
       <use x="1049.755859" xlink:href="#DejaVuSans-35"/>
       <use x="1113.378906" xlink:href="#DejaVuSans-34"/>
      </g>
     </g>
    </g>
    <g id="xtick_7">
     <g id="line2d_7">
      <g>
       <use style="stroke:#000000;stroke-width:0.8;" x="289.728" xlink:href="#m63b4a38bfc" y="307.584"/>
      </g>
     </g>
     <g id="text_7">
      <!-- 0.6130475459148425 -->
      <g transform="translate(234.057688 322.182437)scale(0.1 -0.1)">
       <use xlink:href="#DejaVuSans-30"/>
       <use x="63.623047" xlink:href="#DejaVuSans-2e"/>
       <use x="95.410156" xlink:href="#DejaVuSans-36"/>
       <use x="159.033203" xlink:href="#DejaVuSans-31"/>
       <use x="222.65625" xlink:href="#DejaVuSans-33"/>
       <use x="286.279297" xlink:href="#DejaVuSans-30"/>
       <use x="349.902344" xlink:href="#DejaVuSans-34"/>
       <use x="413.525391" xlink:href="#DejaVuSans-37"/>
       <use x="477.148438" xlink:href="#DejaVuSans-35"/>
       <use x="540.771484" xlink:href="#DejaVuSans-34"/>
       <use x="604.394531" xlink:href="#DejaVuSans-35"/>
       <use x="668.017578" xlink:href="#DejaVuSans-39"/>
       <use x="731.640625" xlink:href="#DejaVuSans-31"/>
       <use x="795.263672" xlink:href="#DejaVuSans-34"/>
       <use x="858.886719" xlink:href="#DejaVuSans-38"/>
       <use x="922.509766" xlink:href="#DejaVuSans-34"/>
       <use x="986.132812" xlink:href="#DejaVuSans-32"/>
       <use x="1049.755859" xlink:href="#DejaVuSans-35"/>
      </g>
     </g>
    </g>
    <g id="xtick_8">
     <g id="line2d_8">
      <g>
       <use style="stroke:#000000;stroke-width:0.8;" x="325.44" xlink:href="#m63b4a38bfc" y="307.584"/>
      </g>
     </g>
     <g id="text_8">
      <!-- 0.9661988570394723 -->
      <g transform="translate(269.769688 322.182437)scale(0.1 -0.1)">
       <use xlink:href="#DejaVuSans-30"/>
       <use x="63.623047" xlink:href="#DejaVuSans-2e"/>
       <use x="95.410156" xlink:href="#DejaVuSans-39"/>
       <use x="159.033203" xlink:href="#DejaVuSans-36"/>
       <use x="222.65625" xlink:href="#DejaVuSans-36"/>
       <use x="286.279297" xlink:href="#DejaVuSans-31"/>
       <use x="349.902344" xlink:href="#DejaVuSans-39"/>
       <use x="413.525391" xlink:href="#DejaVuSans-38"/>
       <use x="477.148438" xlink:href="#DejaVuSans-38"/>
       <use x="540.771484" xlink:href="#DejaVuSans-35"/>
       <use x="604.394531" xlink:href="#DejaVuSans-37"/>
       <use x="668.017578" xlink:href="#DejaVuSans-30"/>
       <use x="731.640625" xlink:href="#DejaVuSans-33"/>
       <use x="795.263672" xlink:href="#DejaVuSans-39"/>
       <use x="858.886719" xlink:href="#DejaVuSans-34"/>
       <use x="922.509766" xlink:href="#DejaVuSans-37"/>
       <use x="986.132812" xlink:href="#DejaVuSans-32"/>
       <use x="1049.755859" xlink:href="#DejaVuSans-33"/>
      </g>
     </g>
    </g>
    <g id="xtick_9">
     <g id="line2d_9">
      <g>
       <use style="stroke:#000000;stroke-width:0.8;" x="361.152" xlink:href="#m63b4a38bfc" y="307.584"/>
      </g>
     </g>
     <g id="text_9">
      <!-- 1.5227860180914234 -->
      <g transform="translate(305.481688 322.182437)scale(0.1 -0.1)">
       <use xlink:href="#DejaVuSans-31"/>
       <use x="63.623047" xlink:href="#DejaVuSans-2e"/>
       <use x="95.410156" xlink:href="#DejaVuSans-35"/>
       <use x="159.033203" xlink:href="#DejaVuSans-32"/>
       <use x="222.65625" xlink:href="#DejaVuSans-32"/>
       <use x="286.279297" xlink:href="#DejaVuSans-37"/>
       <use x="349.902344" xlink:href="#DejaVuSans-38"/>
       <use x="413.525391" xlink:href="#DejaVuSans-36"/>
       <use x="477.148438" xlink:href="#DejaVuSans-30"/>
       <use x="540.771484" xlink:href="#DejaVuSans-31"/>
       <use x="604.394531" xlink:href="#DejaVuSans-38"/>
       <use x="668.017578" xlink:href="#DejaVuSans-30"/>
       <use x="731.640625" xlink:href="#DejaVuSans-39"/>
       <use x="795.263672" xlink:href="#DejaVuSans-31"/>
       <use x="858.886719" xlink:href="#DejaVuSans-34"/>
       <use x="922.509766" xlink:href="#DejaVuSans-32"/>
       <use x="986.132812" xlink:href="#DejaVuSans-33"/>
       <use x="1049.755859" xlink:href="#DejaVuSans-34"/>
      </g>
     </g>
    </g>
    <g id="xtick_10">
     <g id="line2d_10">
      <g>
       <use style="stroke:#000000;stroke-width:0.8;" x="396.864" xlink:href="#m63b4a38bfc" y="307.584"/>
      </g>
     </g>
     <g id="text_10">
      <!-- 2.4000000000000004 -->
      <g transform="translate(341.193688 322.182437)scale(0.1 -0.1)">
       <use xlink:href="#DejaVuSans-32"/>
       <use x="63.623047" xlink:href="#DejaVuSans-2e"/>
       <use x="95.410156" xlink:href="#DejaVuSans-34"/>
       <use x="159.033203" xlink:href="#DejaVuSans-30"/>
       <use x="222.65625" xlink:href="#DejaVuSans-30"/>
       <use x="286.279297" xlink:href="#DejaVuSans-30"/>
       <use x="349.902344" xlink:href="#DejaVuSans-30"/>
       <use x="413.525391" xlink:href="#DejaVuSans-30"/>
       <use x="477.148438" xlink:href="#DejaVuSans-30"/>
       <use x="540.771484" xlink:href="#DejaVuSans-30"/>
       <use x="604.394531" xlink:href="#DejaVuSans-30"/>
       <use x="668.017578" xlink:href="#DejaVuSans-30"/>
       <use x="731.640625" xlink:href="#DejaVuSans-30"/>
       <use x="795.263672" xlink:href="#DejaVuSans-30"/>
       <use x="858.886719" xlink:href="#DejaVuSans-30"/>
       <use x="922.509766" xlink:href="#DejaVuSans-30"/>
       <use x="986.132812" xlink:href="#DejaVuSans-30"/>
       <use x="1049.755859" xlink:href="#DejaVuSans-34"/>
      </g>
     </g>
    </g>
   </g>
   <g id="matplotlib.axis_2">
    <g id="ytick_1">
     <g id="line2d_11">
      <defs>
       <path d="M 0 0 
L -3.5 0 
" id="m2438a12717" style="stroke:#000000;stroke-width:0.8;"/>
      </defs>
      <g>
       <use style="stroke:#000000;stroke-width:0.8;" x="57.6" xlink:href="#m2438a12717" y="306.622393"/>
      </g>
     </g>
     <g id="text_11">
      <!-- 97.5 -->
      <g transform="translate(28.334375 310.421612)scale(0.1 -0.1)">
       <use xlink:href="#DejaVuSans-39"/>
       <use x="63.623047" xlink:href="#DejaVuSans-37"/>
       <use x="127.246094" xlink:href="#DejaVuSans-2e"/>
       <use x="159.033203" xlink:href="#DejaVuSans-35"/>
      </g>
     </g>
    </g>
    <g id="ytick_2">
     <g id="line2d_12">
      <g>
       <use style="stroke:#000000;stroke-width:0.8;" x="57.6" xlink:href="#m2438a12717" y="256.011515"/>
      </g>
     </g>
     <g id="text_12">
      <!-- 98.0 -->
      <g transform="translate(28.334375 259.810733)scale(0.1 -0.1)">
       <use xlink:href="#DejaVuSans-39"/>
       <use x="63.623047" xlink:href="#DejaVuSans-38"/>
       <use x="127.246094" xlink:href="#DejaVuSans-2e"/>
       <use x="159.033203" xlink:href="#DejaVuSans-30"/>
      </g>
     </g>
    </g>
    <g id="ytick_3">
     <g id="line2d_13">
      <g>
       <use style="stroke:#000000;stroke-width:0.8;" x="57.6" xlink:href="#m2438a12717" y="205.400636"/>
      </g>
     </g>
     <g id="text_13">
      <!-- 98.5 -->
      <g transform="translate(28.334375 209.199855)scale(0.1 -0.1)">
       <use xlink:href="#DejaVuSans-39"/>
       <use x="63.623047" xlink:href="#DejaVuSans-38"/>
       <use x="127.246094" xlink:href="#DejaVuSans-2e"/>
       <use x="159.033203" xlink:href="#DejaVuSans-35"/>
      </g>
     </g>
    </g>
    <g id="ytick_4">
     <g id="line2d_14">
      <g>
       <use style="stroke:#000000;stroke-width:0.8;" x="57.6" xlink:href="#m2438a12717" y="154.789757"/>
      </g>
     </g>
     <g id="text_14">
      <!-- 99.0 -->
      <g transform="translate(28.334375 158.588976)scale(0.1 -0.1)">
       <use xlink:href="#DejaVuSans-39"/>
       <use x="63.623047" xlink:href="#DejaVuSans-39"/>
       <use x="127.246094" xlink:href="#DejaVuSans-2e"/>
       <use x="159.033203" xlink:href="#DejaVuSans-30"/>
      </g>
     </g>
    </g>
    <g id="ytick_5">
     <g id="line2d_15">
      <g>
       <use style="stroke:#000000;stroke-width:0.8;" x="57.6" xlink:href="#m2438a12717" y="104.178879"/>
      </g>
     </g>
     <g id="text_15">
      <!-- 99.5 -->
      <g transform="translate(28.334375 107.978097)scale(0.1 -0.1)">
       <use xlink:href="#DejaVuSans-39"/>
       <use x="63.623047" xlink:href="#DejaVuSans-39"/>
       <use x="127.246094" xlink:href="#DejaVuSans-2e"/>
       <use x="159.033203" xlink:href="#DejaVuSans-35"/>
      </g>
     </g>
    </g>
    <g id="ytick_6">
     <g id="line2d_16">
      <g>
       <use style="stroke:#000000;stroke-width:0.8;" x="57.6" xlink:href="#m2438a12717" y="53.568"/>
      </g>
     </g>
     <g id="text_16">
      <!-- 100.0 -->
      <g transform="translate(21.971875 57.367219)scale(0.1 -0.1)">
       <use xlink:href="#DejaVuSans-31"/>
       <use x="63.623047" xlink:href="#DejaVuSans-30"/>
       <use x="127.246094" xlink:href="#DejaVuSans-30"/>
       <use x="190.869141" xlink:href="#DejaVuSans-2e"/>
       <use x="222.65625" xlink:href="#DejaVuSans-30"/>
      </g>
     </g>
    </g>
   </g>
   <g id="line2d_17">
    <path clip-path="url(#pabed7504bc)" d="M 66.528 226.657205 
L 84.384 226.657205 
L 84.384 63.690176 
L 66.528 63.690176 
L 66.528 226.657205 
" style="fill:none;stroke:#000000;stroke-linecap:square;"/>
   </g>
   <g id="line2d_18">
    <path clip-path="url(#pabed7504bc)" d="M 75.456 226.657205 
L 75.456 295.488 
" style="fill:none;stroke:#000000;stroke-linecap:square;"/>
   </g>
   <g id="line2d_19">
    <path clip-path="url(#pabed7504bc)" d="M 75.456 63.690176 
L 75.456 53.568 
" style="fill:none;stroke:#000000;stroke-linecap:square;"/>
   </g>
   <g id="line2d_20">
    <path clip-path="url(#pabed7504bc)" d="M 70.992 295.488 
L 79.92 295.488 
" style="fill:none;stroke:#000000;stroke-linecap:square;"/>
   </g>
   <g id="line2d_21">
    <path clip-path="url(#pabed7504bc)" d="M 70.992 53.568 
L 79.92 53.568 
" style="fill:none;stroke:#000000;stroke-linecap:square;"/>
   </g>
   <g id="line2d_22"/>
   <g id="line2d_23">
    <path clip-path="url(#pabed7504bc)" d="M 102.24 141.377874 
L 120.096 141.377874 
L 120.096 53.568 
L 102.24 53.568 
L 102.24 141.377874 
" style="fill:none;stroke:#000000;stroke-linecap:square;"/>
   </g>
   <g id="line2d_24">
    <path clip-path="url(#pabed7504bc)" d="M 111.168 141.377874 
L 111.168 203.376201 
" style="fill:none;stroke:#000000;stroke-linecap:square;"/>
   </g>
   <g id="line2d_25">
    <path clip-path="url(#pabed7504bc)" d="M 111.168 53.568 
L 111.168 53.568 
" style="fill:none;stroke:#000000;stroke-linecap:square;"/>
   </g>
   <g id="line2d_26">
    <path clip-path="url(#pabed7504bc)" d="M 106.704 203.376201 
L 115.632 203.376201 
" style="fill:none;stroke:#000000;stroke-linecap:square;"/>
   </g>
   <g id="line2d_27">
    <path clip-path="url(#pabed7504bc)" d="M 106.704 53.568 
L 115.632 53.568 
" style="fill:none;stroke:#000000;stroke-linecap:square;"/>
   </g>
   <g id="line2d_28"/>
   <g id="line2d_29">
    <path clip-path="url(#pabed7504bc)" d="M 137.952 78.367331 
L 155.808 78.367331 
L 155.808 53.568 
L 137.952 53.568 
L 137.952 78.367331 
" style="fill:none;stroke:#000000;stroke-linecap:square;"/>
   </g>
   <g id="line2d_30">
    <path clip-path="url(#pabed7504bc)" d="M 146.88 78.367331 
L 146.88 102.154444 
" style="fill:none;stroke:#000000;stroke-linecap:square;"/>
   </g>
   <g id="line2d_31">
    <path clip-path="url(#pabed7504bc)" d="M 146.88 53.568 
L 146.88 53.568 
" style="fill:none;stroke:#000000;stroke-linecap:square;"/>
   </g>
   <g id="line2d_32">
    <path clip-path="url(#pabed7504bc)" d="M 142.416 102.154444 
L 151.344 102.154444 
" style="fill:none;stroke:#000000;stroke-linecap:square;"/>
   </g>
   <g id="line2d_33">
    <path clip-path="url(#pabed7504bc)" d="M 142.416 53.568 
L 151.344 53.568 
" style="fill:none;stroke:#000000;stroke-linecap:square;"/>
   </g>
   <g id="line2d_34">
    <defs>
     <path d="M 0 3 
C 0.795609 3 1.55874 2.683901 2.12132 2.12132 
C 2.683901 1.55874 3 0.795609 3 0 
C 3 -0.795609 2.683901 -1.55874 2.12132 -2.12132 
C 1.55874 -2.683901 0.795609 -3 0 -3 
C -0.795609 -3 -1.55874 -2.683901 -2.12132 -2.12132 
C -2.683901 -1.55874 -3 -0.795609 -3 0 
C -3 0.795609 -2.683901 1.55874 -2.12132 2.12132 
C -1.55874 2.683901 -0.795609 3 0 3 
z
" id="m8e4f2c1928" style="stroke:#000000;"/>
    </defs>
    <g clip-path="url(#pabed7504bc)">
     <use style="fill-opacity:0;stroke:#000000;" x="146.88" xlink:href="#m8e4f2c1928" y="234.754946"/>
     <use style="fill-opacity:0;stroke:#000000;" x="146.88" xlink:href="#m8e4f2c1928" y="206.412854"/>
    </g>
   </g>
   <g id="line2d_35">
    <path clip-path="url(#pabed7504bc)" d="M 173.664 90.260887 
L 191.52 90.260887 
L 191.52 53.568 
L 173.664 53.568 
L 173.664 90.260887 
" style="fill:none;stroke:#000000;stroke-linecap:square;"/>
   </g>
   <g id="line2d_36">
    <path clip-path="url(#pabed7504bc)" d="M 182.592 90.260887 
L 182.592 125.435448 
" style="fill:none;stroke:#000000;stroke-linecap:square;"/>
   </g>
   <g id="line2d_37">
    <path clip-path="url(#pabed7504bc)" d="M 182.592 53.568 
L 182.592 53.568 
" style="fill:none;stroke:#000000;stroke-linecap:square;"/>
   </g>
   <g id="line2d_38">
    <path clip-path="url(#pabed7504bc)" d="M 178.128 125.435448 
L 187.056 125.435448 
" style="fill:none;stroke:#000000;stroke-linecap:square;"/>
   </g>
   <g id="line2d_39">
    <path clip-path="url(#pabed7504bc)" d="M 178.128 53.568 
L 187.056 53.568 
" style="fill:none;stroke:#000000;stroke-linecap:square;"/>
   </g>
   <g id="line2d_40">
    <g clip-path="url(#pabed7504bc)">
     <use style="fill-opacity:0;stroke:#000000;" x="182.592" xlink:href="#m8e4f2c1928" y="184.144067"/>
    </g>
   </g>
   <g id="line2d_41">
    <path clip-path="url(#pabed7504bc)" d="M 209.376 74.065406 
L 227.232 74.065406 
L 227.232 53.568 
L 209.376 53.568 
L 209.376 74.065406 
" style="fill:none;stroke:#000000;stroke-linecap:square;"/>
   </g>
   <g id="line2d_42">
    <path clip-path="url(#pabed7504bc)" d="M 218.304 74.065406 
L 218.304 83.934527 
" style="fill:none;stroke:#000000;stroke-linecap:square;"/>
   </g>
   <g id="line2d_43">
    <path clip-path="url(#pabed7504bc)" d="M 218.304 53.568 
L 218.304 53.568 
" style="fill:none;stroke:#000000;stroke-linecap:square;"/>
   </g>
   <g id="line2d_44">
    <path clip-path="url(#pabed7504bc)" d="M 213.84 83.934527 
L 222.768 83.934527 
" style="fill:none;stroke:#000000;stroke-linecap:square;"/>
   </g>
   <g id="line2d_45">
    <path clip-path="url(#pabed7504bc)" d="M 213.84 53.568 
L 222.768 53.568 
" style="fill:none;stroke:#000000;stroke-linecap:square;"/>
   </g>
   <g id="line2d_46">
    <g clip-path="url(#pabed7504bc)">
     <use style="fill-opacity:0;stroke:#000000;" x="218.304" xlink:href="#m8e4f2c1928" y="108.227749"/>
    </g>
   </g>
   <g id="line2d_47">
    <path clip-path="url(#pabed7504bc)" d="M 245.088 62.677958 
L 262.944 62.677958 
L 262.944 53.568 
L 245.088 53.568 
L 245.088 62.677958 
" style="fill:none;stroke:#000000;stroke-linecap:square;"/>
   </g>
   <g id="line2d_48">
    <path clip-path="url(#pabed7504bc)" d="M 254.016 62.677958 
L 254.016 74.824569 
" style="fill:none;stroke:#000000;stroke-linecap:square;"/>
   </g>
   <g id="line2d_49">
    <path clip-path="url(#pabed7504bc)" d="M 254.016 53.568 
L 254.016 53.568 
" style="fill:none;stroke:#000000;stroke-linecap:square;"/>
   </g>
   <g id="line2d_50">
    <path clip-path="url(#pabed7504bc)" d="M 249.552 74.824569 
L 258.48 74.824569 
" style="fill:none;stroke:#000000;stroke-linecap:square;"/>
   </g>
   <g id="line2d_51">
    <path clip-path="url(#pabed7504bc)" d="M 249.552 53.568 
L 258.48 53.568 
" style="fill:none;stroke:#000000;stroke-linecap:square;"/>
   </g>
   <g id="line2d_52">
    <g clip-path="url(#pabed7504bc)">
     <use style="fill-opacity:0;stroke:#000000;" x="254.016" xlink:href="#m8e4f2c1928" y="76.849004"/>
     <use style="fill-opacity:0;stroke:#000000;" x="254.016" xlink:href="#m8e4f2c1928" y="84.946745"/>
    </g>
   </g>
   <g id="line2d_53">
    <path clip-path="url(#pabed7504bc)" d="M 280.8 60.653523 
L 298.656 60.653523 
L 298.656 53.568 
L 280.8 53.568 
L 280.8 60.653523 
" style="fill:none;stroke:#000000;stroke-linecap:square;"/>
   </g>
   <g id="line2d_54">
    <path clip-path="url(#pabed7504bc)" d="M 289.728 60.653523 
L 289.728 69.763481 
" style="fill:none;stroke:#000000;stroke-linecap:square;"/>
   </g>
   <g id="line2d_55">
    <path clip-path="url(#pabed7504bc)" d="M 289.728 53.568 
L 289.728 53.568 
" style="fill:none;stroke:#000000;stroke-linecap:square;"/>
   </g>
   <g id="line2d_56">
    <path clip-path="url(#pabed7504bc)" d="M 285.264 69.763481 
L 294.192 69.763481 
" style="fill:none;stroke:#000000;stroke-linecap:square;"/>
   </g>
   <g id="line2d_57">
    <path clip-path="url(#pabed7504bc)" d="M 285.264 53.568 
L 294.192 53.568 
" style="fill:none;stroke:#000000;stroke-linecap:square;"/>
   </g>
   <g id="line2d_58">
    <g clip-path="url(#pabed7504bc)">
     <use style="fill-opacity:0;stroke:#000000;" x="289.728" xlink:href="#m8e4f2c1928" y="75.836787"/>
     <use style="fill-opacity:0;stroke:#000000;" x="289.728" xlink:href="#m8e4f2c1928" y="82.92231"/>
    </g>
   </g>
   <g id="line2d_59">
    <path clip-path="url(#pabed7504bc)" d="M 316.512 64.955448 
L 334.368 64.955448 
L 334.368 55.339381 
L 316.512 55.339381 
L 316.512 64.955448 
" style="fill:none;stroke:#000000;stroke-linecap:square;"/>
   </g>
   <g id="line2d_60">
    <path clip-path="url(#pabed7504bc)" d="M 325.44 64.955448 
L 325.44 75.836787 
" style="fill:none;stroke:#000000;stroke-linecap:square;"/>
   </g>
   <g id="line2d_61">
    <path clip-path="url(#pabed7504bc)" d="M 325.44 55.339381 
L 325.44 53.568 
" style="fill:none;stroke:#000000;stroke-linecap:square;"/>
   </g>
   <g id="line2d_62">
    <path clip-path="url(#pabed7504bc)" d="M 320.976 75.836787 
L 329.904 75.836787 
" style="fill:none;stroke:#000000;stroke-linecap:square;"/>
   </g>
   <g id="line2d_63">
    <path clip-path="url(#pabed7504bc)" d="M 320.976 53.568 
L 329.904 53.568 
" style="fill:none;stroke:#000000;stroke-linecap:square;"/>
   </g>
   <g id="line2d_64"/>
   <g id="line2d_65">
    <path clip-path="url(#pabed7504bc)" d="M 352.224 58.882142 
L 370.08 58.882142 
L 370.08 53.568 
L 352.224 53.568 
L 352.224 58.882142 
" style="fill:none;stroke:#000000;stroke-linecap:square;"/>
   </g>
   <g id="line2d_66">
    <path clip-path="url(#pabed7504bc)" d="M 361.152 58.882142 
L 361.152 66.726828 
" style="fill:none;stroke:#000000;stroke-linecap:square;"/>
   </g>
   <g id="line2d_67">
    <path clip-path="url(#pabed7504bc)" d="M 361.152 53.568 
L 361.152 53.568 
" style="fill:none;stroke:#000000;stroke-linecap:square;"/>
   </g>
   <g id="line2d_68">
    <path clip-path="url(#pabed7504bc)" d="M 356.688 66.726828 
L 365.616 66.726828 
" style="fill:none;stroke:#000000;stroke-linecap:square;"/>
   </g>
   <g id="line2d_69">
    <path clip-path="url(#pabed7504bc)" d="M 356.688 53.568 
L 365.616 53.568 
" style="fill:none;stroke:#000000;stroke-linecap:square;"/>
   </g>
   <g id="line2d_70"/>
   <g id="line2d_71">
    <path clip-path="url(#pabed7504bc)" d="M 387.936 56.604653 
L 405.792 56.604653 
L 405.792 53.568 
L 387.936 53.568 
L 387.936 56.604653 
" style="fill:none;stroke:#000000;stroke-linecap:square;"/>
   </g>
   <g id="line2d_72">
    <path clip-path="url(#pabed7504bc)" d="M 396.864 56.604653 
L 396.864 59.641305 
" style="fill:none;stroke:#000000;stroke-linecap:square;"/>
   </g>
   <g id="line2d_73">
    <path clip-path="url(#pabed7504bc)" d="M 396.864 53.568 
L 396.864 53.568 
" style="fill:none;stroke:#000000;stroke-linecap:square;"/>
   </g>
   <g id="line2d_74">
    <path clip-path="url(#pabed7504bc)" d="M 392.4 59.641305 
L 401.328 59.641305 
" style="fill:none;stroke:#000000;stroke-linecap:square;"/>
   </g>
   <g id="line2d_75">
    <path clip-path="url(#pabed7504bc)" d="M 392.4 53.568 
L 401.328 53.568 
" style="fill:none;stroke:#000000;stroke-linecap:square;"/>
   </g>
   <g id="line2d_76">
    <g clip-path="url(#pabed7504bc)">
     <use style="fill-opacity:0;stroke:#000000;" x="396.864" xlink:href="#m8e4f2c1928" y="61.665741"/>
    </g>
   </g>
   <g id="line2d_77">
    <path clip-path="url(#pabed7504bc)" d="M 66.528 136.569841 
L 84.384 136.569841 
" style="fill:none;stroke:#ff7f0e;stroke-linecap:square;"/>
   </g>
   <g id="line2d_78">
    <path clip-path="url(#pabed7504bc)" d="M 102.24 63.690176 
L 120.096 63.690176 
" style="fill:none;stroke:#ff7f0e;stroke-linecap:square;"/>
   </g>
   <g id="line2d_79">
    <path clip-path="url(#pabed7504bc)" d="M 137.952 53.568 
L 155.808 53.568 
" style="fill:none;stroke:#ff7f0e;stroke-linecap:square;"/>
   </g>
   <g id="line2d_80">
    <path clip-path="url(#pabed7504bc)" d="M 173.664 57.61687 
L 191.52 57.61687 
" style="fill:none;stroke:#ff7f0e;stroke-linecap:square;"/>
   </g>
   <g id="line2d_81">
    <path clip-path="url(#pabed7504bc)" d="M 209.376 56.098544 
L 227.232 56.098544 
" style="fill:none;stroke:#ff7f0e;stroke-linecap:square;"/>
   </g>
   <g id="line2d_82">
    <path clip-path="url(#pabed7504bc)" d="M 245.088 53.568 
L 262.944 53.568 
" style="fill:none;stroke:#ff7f0e;stroke-linecap:square;"/>
   </g>
   <g id="line2d_83">
    <path clip-path="url(#pabed7504bc)" d="M 280.8 56.604653 
L 298.656 56.604653 
" style="fill:none;stroke:#ff7f0e;stroke-linecap:square;"/>
   </g>
   <g id="line2d_84">
    <path clip-path="url(#pabed7504bc)" d="M 316.512 59.641305 
L 334.368 59.641305 
" style="fill:none;stroke:#ff7f0e;stroke-linecap:square;"/>
   </g>
   <g id="line2d_85">
    <path clip-path="url(#pabed7504bc)" d="M 352.224 55.592435 
L 370.08 55.592435 
" style="fill:none;stroke:#ff7f0e;stroke-linecap:square;"/>
   </g>
   <g id="line2d_86">
    <path clip-path="url(#pabed7504bc)" d="M 387.936 54.580218 
L 405.792 54.580218 
" style="fill:none;stroke:#ff7f0e;stroke-linecap:square;"/>
   </g>
   <g id="patch_3">
    <path d="M 57.6 307.584 
L 57.6 41.472 
" style="fill:none;stroke:#000000;stroke-linecap:square;stroke-linejoin:miter;stroke-width:0.8;"/>
   </g>
   <g id="patch_4">
    <path d="M 414.72 307.584 
L 414.72 41.472 
" style="fill:none;stroke:#000000;stroke-linecap:square;stroke-linejoin:miter;stroke-width:0.8;"/>
   </g>
   <g id="patch_5">
    <path d="M 57.6 307.584 
L 414.72 307.584 
" style="fill:none;stroke:#000000;stroke-linecap:square;stroke-linejoin:miter;stroke-width:0.8;"/>
   </g>
   <g id="patch_6">
    <path d="M 57.6 41.472 
L 414.72 41.472 
" style="fill:none;stroke:#000000;stroke-linecap:square;stroke-linejoin:miter;stroke-width:0.8;"/>
   </g>
  </g>
 </g>
 <defs>
  <clipPath id="pabed7504bc">
   <rect height="266.112" width="357.12" x="57.6" y="41.472"/>
  </clipPath>
 </defs>
</svg>
