<?xml version="1.0" encoding="utf-8" standalone="no"?>
<!DOCTYPE svg PUBLIC "-//W3C//DTD SVG 1.1//EN"
  "http://www.w3.org/Graphics/SVG/1.1/DTD/svg11.dtd">
<svg xmlns:xlink="http://www.w3.org/1999/xlink" width="170.07874pt" height="141.732283pt" viewBox="0 0 170.07874 141.732283" xmlns="http://www.w3.org/2000/svg" version="1.1">
 <metadata>
  <rdf:RDF xmlns:dc="http://purl.org/dc/elements/1.1/" xmlns:cc="http://creativecommons.org/ns#" xmlns:rdf="http://www.w3.org/1999/02/22-rdf-syntax-ns#">
   <cc:Work>
    <dc:type rdf:resource="http://purl.org/dc/dcmitype/StillImage"/>
    <dc:date>2024-03-18T01:19:10.307801</dc:date>
    <dc:format>image/svg+xml</dc:format>
    <dc:creator>
     <cc:Agent>
      <dc:title>Matplotlib v3.8.2, https://matplotlib.org/</dc:title>
     </cc:Agent>
    </dc:creator>
   </cc:Work>
  </rdf:RDF>
 </metadata>
 <defs>
  <style type="text/css">*{stroke-linejoin: round; stroke-linecap: butt}</style>
 </defs>
 <g id="figure_1">
  <g id="patch_1">
   <path d="M 0 141.732283 
L 170.07874 141.732283 
L 170.07874 0 
L 0 0 
z
" style="fill: #ffffff"/>
  </g>
  <g id="axes_1">
   <g id="patch_2">
    <path d="M 34.691719 113.284721 
L 162.51874 113.284721 
L 162.51874 26.076656 
L 34.691719 26.076656 
z
" style="fill: #ffffff"/>
   </g>
   <g id="matplotlib.axis_1">
    <g id="xtick_1">
     <g id="line2d_1">
      <defs>
       <path id="m2bb8ce8cd4" d="M 0 0 
L 0 3.5 
" style="stroke: #000000; stroke-width: 0.8"/>
      </defs>
      <g>
       <use xlink:href="#m2bb8ce8cd4" x="55.996222" y="113.284721" style="stroke: #000000; stroke-width: 0.8"/>
      </g>
     </g>
     <g id="text_1">
      <!-- sylph -->
      <g transform="translate(47.82591 125.29519) scale(0.07 -0.07)">
       <defs>
        <path id="ArialMT-73" d="M 197 991 
L 753 1078 
Q 800 744 1014 566 
Q 1228 388 1613 388 
Q 2000 388 2187 545 
Q 2375 703 2375 916 
Q 2375 1106 2209 1216 
Q 2094 1291 1634 1406 
Q 1016 1563 777 1677 
Q 538 1791 414 1992 
Q 291 2194 291 2438 
Q 291 2659 392 2848 
Q 494 3038 669 3163 
Q 800 3259 1026 3326 
Q 1253 3394 1513 3394 
Q 1903 3394 2198 3281 
Q 2494 3169 2634 2976 
Q 2775 2784 2828 2463 
L 2278 2388 
Q 2241 2644 2061 2787 
Q 1881 2931 1553 2931 
Q 1166 2931 1000 2803 
Q 834 2675 834 2503 
Q 834 2394 903 2306 
Q 972 2216 1119 2156 
Q 1203 2125 1616 2013 
Q 2213 1853 2448 1751 
Q 2684 1650 2818 1456 
Q 2953 1263 2953 975 
Q 2953 694 2789 445 
Q 2625 197 2315 61 
Q 2006 -75 1616 -75 
Q 969 -75 630 194 
Q 291 463 197 991 
z
" transform="scale(0.015625)"/>
        <path id="ArialMT-79" d="M 397 -1278 
L 334 -750 
Q 519 -800 656 -800 
Q 844 -800 956 -737 
Q 1069 -675 1141 -563 
Q 1194 -478 1313 -144 
Q 1328 -97 1363 -6 
L 103 3319 
L 709 3319 
L 1400 1397 
Q 1534 1031 1641 628 
Q 1738 1016 1872 1384 
L 2581 3319 
L 3144 3319 
L 1881 -56 
Q 1678 -603 1566 -809 
Q 1416 -1088 1222 -1217 
Q 1028 -1347 759 -1347 
Q 597 -1347 397 -1278 
z
" transform="scale(0.015625)"/>
        <path id="ArialMT-6c" d="M 409 0 
L 409 4581 
L 972 4581 
L 972 0 
L 409 0 
z
" transform="scale(0.015625)"/>
        <path id="ArialMT-70" d="M 422 -1272 
L 422 3319 
L 934 3319 
L 934 2888 
Q 1116 3141 1344 3267 
Q 1572 3394 1897 3394 
Q 2322 3394 2647 3175 
Q 2972 2956 3137 2557 
Q 3303 2159 3303 1684 
Q 3303 1175 3120 767 
Q 2938 359 2589 142 
Q 2241 -75 1856 -75 
Q 1575 -75 1351 44 
Q 1128 163 984 344 
L 984 -1272 
L 422 -1272 
z
M 931 1641 
Q 931 1000 1190 694 
Q 1450 388 1819 388 
Q 2194 388 2461 705 
Q 2728 1022 2728 1688 
Q 2728 2322 2467 2637 
Q 2206 2953 1844 2953 
Q 1484 2953 1207 2617 
Q 931 2281 931 1641 
z
" transform="scale(0.015625)"/>
        <path id="ArialMT-68" d="M 422 0 
L 422 4581 
L 984 4581 
L 984 2938 
Q 1378 3394 1978 3394 
Q 2347 3394 2619 3248 
Q 2891 3103 3008 2847 
Q 3125 2591 3125 2103 
L 3125 0 
L 2563 0 
L 2563 2103 
Q 2563 2525 2380 2717 
Q 2197 2909 1863 2909 
Q 1613 2909 1392 2779 
Q 1172 2650 1078 2428 
Q 984 2206 984 1816 
L 984 0 
L 422 0 
z
" transform="scale(0.015625)"/>
       </defs>
       <use xlink:href="#ArialMT-73"/>
       <use xlink:href="#ArialMT-79" x="50"/>
       <use xlink:href="#ArialMT-6c" x="100"/>
       <use xlink:href="#ArialMT-70" x="122.216797"/>
       <use xlink:href="#ArialMT-68" x="177.832031"/>
      </g>
      <!-- MetaPhlAn4 -->
      <g transform="translate(36.929972 132.781033) scale(0.07 -0.07)">
       <defs>
        <path id="ArialMT-4d" d="M 475 0 
L 475 4581 
L 1388 4581 
L 2472 1338 
Q 2622 884 2691 659 
Q 2769 909 2934 1394 
L 4031 4581 
L 4847 4581 
L 4847 0 
L 4263 0 
L 4263 3834 
L 2931 0 
L 2384 0 
L 1059 3900 
L 1059 0 
L 475 0 
z
" transform="scale(0.015625)"/>
        <path id="ArialMT-65" d="M 2694 1069 
L 3275 997 
Q 3138 488 2766 206 
Q 2394 -75 1816 -75 
Q 1088 -75 661 373 
Q 234 822 234 1631 
Q 234 2469 665 2931 
Q 1097 3394 1784 3394 
Q 2450 3394 2872 2941 
Q 3294 2488 3294 1666 
Q 3294 1616 3291 1516 
L 816 1516 
Q 847 969 1125 678 
Q 1403 388 1819 388 
Q 2128 388 2347 550 
Q 2566 713 2694 1069 
z
M 847 1978 
L 2700 1978 
Q 2663 2397 2488 2606 
Q 2219 2931 1791 2931 
Q 1403 2931 1139 2672 
Q 875 2413 847 1978 
z
" transform="scale(0.015625)"/>
        <path id="ArialMT-74" d="M 1650 503 
L 1731 6 
Q 1494 -44 1306 -44 
Q 1000 -44 831 53 
Q 663 150 594 308 
Q 525 466 525 972 
L 525 2881 
L 113 2881 
L 113 3319 
L 525 3319 
L 525 4141 
L 1084 4478 
L 1084 3319 
L 1650 3319 
L 1650 2881 
L 1084 2881 
L 1084 941 
Q 1084 700 1114 631 
Q 1144 563 1211 522 
Q 1278 481 1403 481 
Q 1497 481 1650 503 
z
" transform="scale(0.015625)"/>
        <path id="ArialMT-61" d="M 2588 409 
Q 2275 144 1986 34 
Q 1697 -75 1366 -75 
Q 819 -75 525 192 
Q 231 459 231 875 
Q 231 1119 342 1320 
Q 453 1522 633 1644 
Q 813 1766 1038 1828 
Q 1203 1872 1538 1913 
Q 2219 1994 2541 2106 
Q 2544 2222 2544 2253 
Q 2544 2597 2384 2738 
Q 2169 2928 1744 2928 
Q 1347 2928 1158 2789 
Q 969 2650 878 2297 
L 328 2372 
Q 403 2725 575 2942 
Q 747 3159 1072 3276 
Q 1397 3394 1825 3394 
Q 2250 3394 2515 3294 
Q 2781 3194 2906 3042 
Q 3031 2891 3081 2659 
Q 3109 2516 3109 2141 
L 3109 1391 
Q 3109 606 3145 398 
Q 3181 191 3288 0 
L 2700 0 
Q 2613 175 2588 409 
z
M 2541 1666 
Q 2234 1541 1622 1453 
Q 1275 1403 1131 1340 
Q 988 1278 909 1158 
Q 831 1038 831 891 
Q 831 666 1001 516 
Q 1172 366 1500 366 
Q 1825 366 2078 508 
Q 2331 650 2450 897 
Q 2541 1088 2541 1459 
L 2541 1666 
z
" transform="scale(0.015625)"/>
        <path id="ArialMT-50" d="M 494 0 
L 494 4581 
L 2222 4581 
Q 2678 4581 2919 4538 
Q 3256 4481 3484 4323 
Q 3713 4166 3852 3881 
Q 3991 3597 3991 3256 
Q 3991 2672 3619 2267 
Q 3247 1863 2275 1863 
L 1100 1863 
L 1100 0 
L 494 0 
z
M 1100 2403 
L 2284 2403 
Q 2872 2403 3119 2622 
Q 3366 2841 3366 3238 
Q 3366 3525 3220 3729 
Q 3075 3934 2838 4000 
Q 2684 4041 2272 4041 
L 1100 4041 
L 1100 2403 
z
" transform="scale(0.015625)"/>
        <path id="ArialMT-41" d="M -9 0 
L 1750 4581 
L 2403 4581 
L 4278 0 
L 3588 0 
L 3053 1388 
L 1138 1388 
L 634 0 
L -9 0 
z
M 1313 1881 
L 2866 1881 
L 2388 3150 
Q 2169 3728 2063 4100 
Q 1975 3659 1816 3225 
L 1313 1881 
z
" transform="scale(0.015625)"/>
        <path id="ArialMT-6e" d="M 422 0 
L 422 3319 
L 928 3319 
L 928 2847 
Q 1294 3394 1984 3394 
Q 2284 3394 2536 3286 
Q 2788 3178 2913 3003 
Q 3038 2828 3088 2588 
Q 3119 2431 3119 2041 
L 3119 0 
L 2556 0 
L 2556 2019 
Q 2556 2363 2490 2533 
Q 2425 2703 2258 2804 
Q 2091 2906 1866 2906 
Q 1506 2906 1245 2678 
Q 984 2450 984 1813 
L 984 0 
L 422 0 
z
" transform="scale(0.015625)"/>
        <path id="ArialMT-34" d="M 2069 0 
L 2069 1097 
L 81 1097 
L 81 1613 
L 2172 4581 
L 2631 4581 
L 2631 1613 
L 3250 1613 
L 3250 1097 
L 2631 1097 
L 2631 0 
L 2069 0 
z
M 2069 1613 
L 2069 3678 
L 634 1613 
L 2069 1613 
z
" transform="scale(0.015625)"/>
       </defs>
       <use xlink:href="#ArialMT-4d"/>
       <use xlink:href="#ArialMT-65" x="83.300781"/>
       <use xlink:href="#ArialMT-74" x="138.916016"/>
       <use xlink:href="#ArialMT-61" x="166.699219"/>
       <use xlink:href="#ArialMT-50" x="222.314453"/>
       <use xlink:href="#ArialMT-68" x="289.013672"/>
       <use xlink:href="#ArialMT-6c" x="344.628906"/>
       <use xlink:href="#ArialMT-41" x="366.845703"/>
       <use xlink:href="#ArialMT-6e" x="433.544922"/>
       <use xlink:href="#ArialMT-34" x="489.160156"/>
      </g>
     </g>
    </g>
    <g id="xtick_2">
     <g id="line2d_2">
      <g>
       <use xlink:href="#m2bb8ce8cd4" x="98.605229" y="113.284721" style="stroke: #000000; stroke-width: 0.8"/>
      </g>
     </g>
     <g id="text_2">
      <!-- sylph -->
      <g transform="translate(90.434917 125.29519) scale(0.07 -0.07)">
       <use xlink:href="#ArialMT-73"/>
       <use xlink:href="#ArialMT-79" x="50"/>
       <use xlink:href="#ArialMT-6c" x="100"/>
       <use xlink:href="#ArialMT-70" x="122.216797"/>
       <use xlink:href="#ArialMT-68" x="177.832031"/>
      </g>
      <!-- mOTUs3 -->
      <g transform="translate(84.605776 132.781033) scale(0.07 -0.07)">
       <defs>
        <path id="ArialMT-6d" d="M 422 0 
L 422 3319 
L 925 3319 
L 925 2853 
Q 1081 3097 1340 3245 
Q 1600 3394 1931 3394 
Q 2300 3394 2536 3241 
Q 2772 3088 2869 2813 
Q 3263 3394 3894 3394 
Q 4388 3394 4653 3120 
Q 4919 2847 4919 2278 
L 4919 0 
L 4359 0 
L 4359 2091 
Q 4359 2428 4304 2576 
Q 4250 2725 4106 2815 
Q 3963 2906 3769 2906 
Q 3419 2906 3187 2673 
Q 2956 2441 2956 1928 
L 2956 0 
L 2394 0 
L 2394 2156 
Q 2394 2531 2256 2718 
Q 2119 2906 1806 2906 
Q 1569 2906 1367 2781 
Q 1166 2656 1075 2415 
Q 984 2175 984 1722 
L 984 0 
L 422 0 
z
" transform="scale(0.015625)"/>
        <path id="ArialMT-4f" d="M 309 2231 
Q 309 3372 921 4017 
Q 1534 4663 2503 4663 
Q 3138 4663 3647 4359 
Q 4156 4056 4423 3514 
Q 4691 2972 4691 2284 
Q 4691 1588 4409 1038 
Q 4128 488 3612 205 
Q 3097 -78 2500 -78 
Q 1853 -78 1343 234 
Q 834 547 571 1087 
Q 309 1628 309 2231 
z
M 934 2222 
Q 934 1394 1379 917 
Q 1825 441 2497 441 
Q 3181 441 3623 922 
Q 4066 1403 4066 2288 
Q 4066 2847 3877 3264 
Q 3688 3681 3323 3911 
Q 2959 4141 2506 4141 
Q 1863 4141 1398 3698 
Q 934 3256 934 2222 
z
" transform="scale(0.015625)"/>
        <path id="ArialMT-54" d="M 1659 0 
L 1659 4041 
L 150 4041 
L 150 4581 
L 3781 4581 
L 3781 4041 
L 2266 4041 
L 2266 0 
L 1659 0 
z
" transform="scale(0.015625)"/>
        <path id="ArialMT-55" d="M 3500 4581 
L 4106 4581 
L 4106 1934 
Q 4106 1244 3950 837 
Q 3794 431 3386 176 
Q 2978 -78 2316 -78 
Q 1672 -78 1262 144 
Q 853 366 678 786 
Q 503 1206 503 1934 
L 503 4581 
L 1109 4581 
L 1109 1938 
Q 1109 1341 1220 1058 
Q 1331 775 1601 622 
Q 1872 469 2263 469 
Q 2931 469 3215 772 
Q 3500 1075 3500 1938 
L 3500 4581 
z
" transform="scale(0.015625)"/>
        <path id="ArialMT-33" d="M 269 1209 
L 831 1284 
Q 928 806 1161 595 
Q 1394 384 1728 384 
Q 2125 384 2398 659 
Q 2672 934 2672 1341 
Q 2672 1728 2419 1979 
Q 2166 2231 1775 2231 
Q 1616 2231 1378 2169 
L 1441 2663 
Q 1497 2656 1531 2656 
Q 1891 2656 2178 2843 
Q 2466 3031 2466 3422 
Q 2466 3731 2256 3934 
Q 2047 4138 1716 4138 
Q 1388 4138 1169 3931 
Q 950 3725 888 3313 
L 325 3413 
Q 428 3978 793 4289 
Q 1159 4600 1703 4600 
Q 2078 4600 2393 4439 
Q 2709 4278 2876 4000 
Q 3044 3722 3044 3409 
Q 3044 3113 2884 2869 
Q 2725 2625 2413 2481 
Q 2819 2388 3044 2092 
Q 3269 1797 3269 1353 
Q 3269 753 2831 336 
Q 2394 -81 1725 -81 
Q 1122 -81 723 278 
Q 325 638 269 1209 
z
" transform="scale(0.015625)"/>
       </defs>
       <use xlink:href="#ArialMT-6d"/>
       <use xlink:href="#ArialMT-4f" x="83.300781"/>
       <use xlink:href="#ArialMT-54" x="161.083984"/>
       <use xlink:href="#ArialMT-55" x="222.167969"/>
       <use xlink:href="#ArialMT-73" x="294.384766"/>
       <use xlink:href="#ArialMT-33" x="344.384766"/>
      </g>
     </g>
    </g>
    <g id="xtick_3">
     <g id="line2d_3">
      <g>
       <use xlink:href="#m2bb8ce8cd4" x="141.214237" y="113.284721" style="stroke: #000000; stroke-width: 0.8"/>
      </g>
     </g>
     <g id="text_3">
      <!-- mOTUs3 -->
      <g transform="translate(127.214783 125.29519) scale(0.07 -0.07)">
       <use xlink:href="#ArialMT-6d"/>
       <use xlink:href="#ArialMT-4f" x="83.300781"/>
       <use xlink:href="#ArialMT-54" x="161.083984"/>
       <use xlink:href="#ArialMT-55" x="222.167969"/>
       <use xlink:href="#ArialMT-73" x="294.384766"/>
       <use xlink:href="#ArialMT-33" x="344.384766"/>
      </g>
      <!-- MetaPhlAn4 -->
      <g transform="translate(122.147987 132.699002) scale(0.07 -0.07)">
       <use xlink:href="#ArialMT-4d"/>
       <use xlink:href="#ArialMT-65" x="83.300781"/>
       <use xlink:href="#ArialMT-74" x="138.916016"/>
       <use xlink:href="#ArialMT-61" x="166.699219"/>
       <use xlink:href="#ArialMT-50" x="222.314453"/>
       <use xlink:href="#ArialMT-68" x="289.013672"/>
       <use xlink:href="#ArialMT-6c" x="344.628906"/>
       <use xlink:href="#ArialMT-41" x="366.845703"/>
       <use xlink:href="#ArialMT-6e" x="433.544922"/>
       <use xlink:href="#ArialMT-34" x="489.160156"/>
      </g>
     </g>
    </g>
   </g>
   <g id="matplotlib.axis_2">
    <g id="ytick_1">
     <g id="line2d_4">
      <defs>
       <path id="m9e78c9134e" d="M 0 0 
L -3.5 0 
" style="stroke: #000000; stroke-width: 0.8"/>
      </defs>
      <g>
       <use xlink:href="#m9e78c9134e" x="34.691719" y="111.079995" style="stroke: #000000; stroke-width: 0.8"/>
      </g>
     </g>
     <g id="text_4">
      <!-- 0.0 -->
      <g transform="translate(17.961719 113.58523) scale(0.07 -0.07)">
       <defs>
        <path id="ArialMT-30" d="M 266 2259 
Q 266 3072 433 3567 
Q 600 4063 929 4331 
Q 1259 4600 1759 4600 
Q 2128 4600 2406 4451 
Q 2684 4303 2865 4023 
Q 3047 3744 3150 3342 
Q 3253 2941 3253 2259 
Q 3253 1453 3087 958 
Q 2922 463 2592 192 
Q 2263 -78 1759 -78 
Q 1097 -78 719 397 
Q 266 969 266 2259 
z
M 844 2259 
Q 844 1131 1108 757 
Q 1372 384 1759 384 
Q 2147 384 2411 759 
Q 2675 1134 2675 2259 
Q 2675 3391 2411 3762 
Q 2147 4134 1753 4134 
Q 1366 4134 1134 3806 
Q 844 3388 844 2259 
z
" transform="scale(0.015625)"/>
        <path id="ArialMT-2e" d="M 581 0 
L 581 641 
L 1222 641 
L 1222 0 
L 581 0 
z
" transform="scale(0.015625)"/>
       </defs>
       <use xlink:href="#ArialMT-30"/>
       <use xlink:href="#ArialMT-2e" x="55.615234"/>
       <use xlink:href="#ArialMT-30" x="83.398438"/>
      </g>
     </g>
    </g>
    <g id="ytick_2">
     <g id="line2d_5">
      <g>
       <use xlink:href="#m9e78c9134e" x="34.691719" y="94.866712" style="stroke: #000000; stroke-width: 0.8"/>
      </g>
     </g>
     <g id="text_5">
      <!-- 0.2 -->
      <g transform="translate(17.961719 97.371946) scale(0.07 -0.07)">
       <defs>
        <path id="ArialMT-32" d="M 3222 541 
L 3222 0 
L 194 0 
Q 188 203 259 391 
Q 375 700 629 1000 
Q 884 1300 1366 1694 
Q 2113 2306 2375 2664 
Q 2638 3022 2638 3341 
Q 2638 3675 2398 3904 
Q 2159 4134 1775 4134 
Q 1369 4134 1125 3890 
Q 881 3647 878 3216 
L 300 3275 
Q 359 3922 746 4261 
Q 1134 4600 1788 4600 
Q 2447 4600 2831 4234 
Q 3216 3869 3216 3328 
Q 3216 3053 3103 2787 
Q 2991 2522 2730 2228 
Q 2469 1934 1863 1422 
Q 1356 997 1212 845 
Q 1069 694 975 541 
L 3222 541 
z
" transform="scale(0.015625)"/>
       </defs>
       <use xlink:href="#ArialMT-30"/>
       <use xlink:href="#ArialMT-2e" x="55.615234"/>
       <use xlink:href="#ArialMT-32" x="83.398438"/>
      </g>
     </g>
    </g>
    <g id="ytick_3">
     <g id="line2d_6">
      <g>
       <use xlink:href="#m9e78c9134e" x="34.691719" y="78.653428" style="stroke: #000000; stroke-width: 0.8"/>
      </g>
     </g>
     <g id="text_6">
      <!-- 0.4 -->
      <g transform="translate(17.961719 81.158662) scale(0.07 -0.07)">
       <use xlink:href="#ArialMT-30"/>
       <use xlink:href="#ArialMT-2e" x="55.615234"/>
       <use xlink:href="#ArialMT-34" x="83.398438"/>
      </g>
     </g>
    </g>
    <g id="ytick_4">
     <g id="line2d_7">
      <g>
       <use xlink:href="#m9e78c9134e" x="34.691719" y="62.440144" style="stroke: #000000; stroke-width: 0.8"/>
      </g>
     </g>
     <g id="text_7">
      <!-- 0.6 -->
      <g transform="translate(17.961719 64.945379) scale(0.07 -0.07)">
       <defs>
        <path id="ArialMT-36" d="M 3184 3459 
L 2625 3416 
Q 2550 3747 2413 3897 
Q 2184 4138 1850 4138 
Q 1581 4138 1378 3988 
Q 1113 3794 959 3422 
Q 806 3050 800 2363 
Q 1003 2672 1297 2822 
Q 1591 2972 1913 2972 
Q 2475 2972 2870 2558 
Q 3266 2144 3266 1488 
Q 3266 1056 3080 686 
Q 2894 316 2569 119 
Q 2244 -78 1831 -78 
Q 1128 -78 684 439 
Q 241 956 241 2144 
Q 241 3472 731 4075 
Q 1159 4600 1884 4600 
Q 2425 4600 2770 4297 
Q 3116 3994 3184 3459 
z
M 888 1484 
Q 888 1194 1011 928 
Q 1134 663 1356 523 
Q 1578 384 1822 384 
Q 2178 384 2434 671 
Q 2691 959 2691 1453 
Q 2691 1928 2437 2201 
Q 2184 2475 1800 2475 
Q 1419 2475 1153 2201 
Q 888 1928 888 1484 
z
" transform="scale(0.015625)"/>
       </defs>
       <use xlink:href="#ArialMT-30"/>
       <use xlink:href="#ArialMT-2e" x="55.615234"/>
       <use xlink:href="#ArialMT-36" x="83.398438"/>
      </g>
     </g>
    </g>
    <g id="ytick_5">
     <g id="line2d_8">
      <g>
       <use xlink:href="#m9e78c9134e" x="34.691719" y="46.226861" style="stroke: #000000; stroke-width: 0.8"/>
      </g>
     </g>
     <g id="text_8">
      <!-- 0.8 -->
      <g transform="translate(17.961719 48.732095) scale(0.07 -0.07)">
       <defs>
        <path id="ArialMT-38" d="M 1131 2484 
Q 781 2613 612 2850 
Q 444 3088 444 3419 
Q 444 3919 803 4259 
Q 1163 4600 1759 4600 
Q 2359 4600 2725 4251 
Q 3091 3903 3091 3403 
Q 3091 3084 2923 2848 
Q 2756 2613 2416 2484 
Q 2838 2347 3058 2040 
Q 3278 1734 3278 1309 
Q 3278 722 2862 322 
Q 2447 -78 1769 -78 
Q 1091 -78 675 323 
Q 259 725 259 1325 
Q 259 1772 486 2073 
Q 713 2375 1131 2484 
z
M 1019 3438 
Q 1019 3113 1228 2906 
Q 1438 2700 1772 2700 
Q 2097 2700 2305 2904 
Q 2513 3109 2513 3406 
Q 2513 3716 2298 3927 
Q 2084 4138 1766 4138 
Q 1444 4138 1231 3931 
Q 1019 3725 1019 3438 
z
M 838 1322 
Q 838 1081 952 856 
Q 1066 631 1291 507 
Q 1516 384 1775 384 
Q 2178 384 2440 643 
Q 2703 903 2703 1303 
Q 2703 1709 2433 1975 
Q 2163 2241 1756 2241 
Q 1359 2241 1098 1978 
Q 838 1716 838 1322 
z
" transform="scale(0.015625)"/>
       </defs>
       <use xlink:href="#ArialMT-30"/>
       <use xlink:href="#ArialMT-2e" x="55.615234"/>
       <use xlink:href="#ArialMT-38" x="83.398438"/>
      </g>
     </g>
    </g>
    <g id="ytick_6">
     <g id="line2d_9">
      <g>
       <use xlink:href="#m9e78c9134e" x="34.691719" y="30.013577" style="stroke: #000000; stroke-width: 0.8"/>
      </g>
     </g>
     <g id="text_9">
      <!-- 1.0 -->
      <g transform="translate(17.961719 32.518812) scale(0.07 -0.07)">
       <defs>
        <path id="ArialMT-31" d="M 2384 0 
L 1822 0 
L 1822 3584 
Q 1619 3391 1289 3197 
Q 959 3003 697 2906 
L 697 3450 
Q 1169 3672 1522 3987 
Q 1875 4303 2022 4600 
L 2384 4600 
L 2384 0 
z
" transform="scale(0.015625)"/>
       </defs>
       <use xlink:href="#ArialMT-31"/>
       <use xlink:href="#ArialMT-2e" x="55.615234"/>
       <use xlink:href="#ArialMT-30" x="83.398438"/>
      </g>
     </g>
    </g>
    <g id="text_10">
     <!-- Pearson correlation -->
     <g transform="translate(12.570469 100.028423) rotate(-90) scale(0.07 -0.07)">
      <defs>
       <path id="ArialMT-72" d="M 416 0 
L 416 3319 
L 922 3319 
L 922 2816 
Q 1116 3169 1280 3281 
Q 1444 3394 1641 3394 
Q 1925 3394 2219 3213 
L 2025 2691 
Q 1819 2813 1613 2813 
Q 1428 2813 1281 2702 
Q 1134 2591 1072 2394 
Q 978 2094 978 1738 
L 978 0 
L 416 0 
z
" transform="scale(0.015625)"/>
       <path id="ArialMT-6f" d="M 213 1659 
Q 213 2581 725 3025 
Q 1153 3394 1769 3394 
Q 2453 3394 2887 2945 
Q 3322 2497 3322 1706 
Q 3322 1066 3130 698 
Q 2938 331 2570 128 
Q 2203 -75 1769 -75 
Q 1072 -75 642 372 
Q 213 819 213 1659 
z
M 791 1659 
Q 791 1022 1069 705 
Q 1347 388 1769 388 
Q 2188 388 2466 706 
Q 2744 1025 2744 1678 
Q 2744 2294 2464 2611 
Q 2184 2928 1769 2928 
Q 1347 2928 1069 2612 
Q 791 2297 791 1659 
z
" transform="scale(0.015625)"/>
       <path id="ArialMT-20" transform="scale(0.015625)"/>
       <path id="ArialMT-63" d="M 2588 1216 
L 3141 1144 
Q 3050 572 2676 248 
Q 2303 -75 1759 -75 
Q 1078 -75 664 370 
Q 250 816 250 1647 
Q 250 2184 428 2587 
Q 606 2991 970 3192 
Q 1334 3394 1763 3394 
Q 2303 3394 2647 3120 
Q 2991 2847 3088 2344 
L 2541 2259 
Q 2463 2594 2264 2762 
Q 2066 2931 1784 2931 
Q 1359 2931 1093 2626 
Q 828 2322 828 1663 
Q 828 994 1084 691 
Q 1341 388 1753 388 
Q 2084 388 2306 591 
Q 2528 794 2588 1216 
z
" transform="scale(0.015625)"/>
       <path id="ArialMT-69" d="M 425 3934 
L 425 4581 
L 988 4581 
L 988 3934 
L 425 3934 
z
M 425 0 
L 425 3319 
L 988 3319 
L 988 0 
L 425 0 
z
" transform="scale(0.015625)"/>
      </defs>
      <use xlink:href="#ArialMT-50"/>
      <use xlink:href="#ArialMT-65" x="66.699219"/>
      <use xlink:href="#ArialMT-61" x="122.314453"/>
      <use xlink:href="#ArialMT-72" x="177.929688"/>
      <use xlink:href="#ArialMT-73" x="211.230469"/>
      <use xlink:href="#ArialMT-6f" x="261.230469"/>
      <use xlink:href="#ArialMT-6e" x="316.845703"/>
      <use xlink:href="#ArialMT-20" x="372.460938"/>
      <use xlink:href="#ArialMT-63" x="400.244141"/>
      <use xlink:href="#ArialMT-6f" x="450.244141"/>
      <use xlink:href="#ArialMT-72" x="505.859375"/>
      <use xlink:href="#ArialMT-72" x="539.160156"/>
      <use xlink:href="#ArialMT-65" x="572.460938"/>
      <use xlink:href="#ArialMT-6c" x="628.076172"/>
      <use xlink:href="#ArialMT-61" x="650.292969"/>
      <use xlink:href="#ArialMT-74" x="705.908203"/>
      <use xlink:href="#ArialMT-69" x="733.691406"/>
      <use xlink:href="#ArialMT-6f" x="755.908203"/>
      <use xlink:href="#ArialMT-6e" x="811.523438"/>
     </g>
    </g>
   </g>
   <g id="patch_3">
    <path d="M 38.952619 35.969245 
L 73.039825 35.969245 
L 73.039825 30.413283 
L 38.952619 30.413283 
L 38.952619 35.969245 
z
" clip-path="url(#pa5f4790613)" style="fill: #cb6d67; opacity: 0.5; stroke: #5c5c5c; stroke-linejoin: miter"/>
   </g>
   <g id="line2d_10">
    <path d="M 55.996222 35.969245 
L 55.996222 42.183762 
" clip-path="url(#pa5f4790613)" style="fill: none; stroke: #5c5c5c"/>
   </g>
   <g id="line2d_11">
    <path d="M 55.996222 30.413283 
L 55.996222 30.040659 
" clip-path="url(#pa5f4790613)" style="fill: none; stroke: #5c5c5c"/>
   </g>
   <g id="line2d_12">
    <path d="M 47.474421 42.183762 
L 64.518024 42.183762 
" clip-path="url(#pa5f4790613)" style="fill: none; stroke: #5c5c5c; stroke-linecap: square"/>
   </g>
   <g id="line2d_13">
    <path d="M 47.474421 30.040659 
L 64.518024 30.040659 
" clip-path="url(#pa5f4790613)" style="fill: none; stroke: #5c5c5c; stroke-linecap: square"/>
   </g>
   <g id="patch_4">
    <path d="M 81.561627 51.154236 
L 115.648832 51.154236 
L 115.648832 33.850031 
L 81.561627 33.850031 
L 81.561627 51.154236 
z
" clip-path="url(#pa5f4790613)" style="fill: #67cb6d; opacity: 0.5; stroke: #5c5c5c; stroke-linejoin: miter"/>
   </g>
   <g id="line2d_14">
    <path d="M 98.605229 51.154236 
L 98.605229 69.362386 
" clip-path="url(#pa5f4790613)" style="fill: none; stroke: #5c5c5c"/>
   </g>
   <g id="line2d_15">
    <path d="M 98.605229 33.850031 
L 98.605229 30.176303 
" clip-path="url(#pa5f4790613)" style="fill: none; stroke: #5c5c5c"/>
   </g>
   <g id="line2d_16">
    <path d="M 90.083428 69.362386 
L 107.127031 69.362386 
" clip-path="url(#pa5f4790613)" style="fill: none; stroke: #5c5c5c; stroke-linecap: square"/>
   </g>
   <g id="line2d_17">
    <path d="M 90.083428 30.176303 
L 107.127031 30.176303 
" clip-path="url(#pa5f4790613)" style="fill: none; stroke: #5c5c5c; stroke-linecap: square"/>
   </g>
   <g id="patch_5">
    <path d="M 124.170634 72.62699 
L 158.257839 72.62699 
L 158.257839 33.268437 
L 124.170634 33.268437 
L 124.170634 72.62699 
z
" clip-path="url(#pa5f4790613)" style="fill: #6d67cb; opacity: 0.5; stroke: #5c5c5c; stroke-linejoin: miter"/>
   </g>
   <g id="line2d_18">
    <path d="M 141.214237 72.62699 
L 141.214237 109.312489 
" clip-path="url(#pa5f4790613)" style="fill: none; stroke: #5c5c5c"/>
   </g>
   <g id="line2d_19">
    <path d="M 141.214237 33.268437 
L 141.214237 30.054976 
" clip-path="url(#pa5f4790613)" style="fill: none; stroke: #5c5c5c"/>
   </g>
   <g id="line2d_20">
    <path d="M 132.692435 109.312489 
L 149.736038 109.312489 
" clip-path="url(#pa5f4790613)" style="fill: none; stroke: #5c5c5c; stroke-linecap: square"/>
   </g>
   <g id="line2d_21">
    <path d="M 132.692435 30.054976 
L 149.736038 30.054976 
" clip-path="url(#pa5f4790613)" style="fill: none; stroke: #5c5c5c; stroke-linecap: square"/>
   </g>
   <g id="line2d_22">
    <path d="M 38.952619 32.013121 
L 73.039825 32.013121 
" clip-path="url(#pa5f4790613)" style="fill: none; stroke: #5c5c5c"/>
   </g>
   <g id="line2d_23">
    <path d="M 81.561627 36.321659 
L 115.648832 36.321659 
" clip-path="url(#pa5f4790613)" style="fill: none; stroke: #5c5c5c"/>
   </g>
   <g id="line2d_24">
    <path d="M 124.170634 37.013365 
L 158.257839 37.013365 
" clip-path="url(#pa5f4790613)" style="fill: none; stroke: #5c5c5c"/>
   </g>
   <g id="patch_6">
    <path d="M 34.691719 113.284721 
L 34.691719 26.076656 
" style="fill: none; stroke: #000000; stroke-width: 0.8; stroke-linejoin: miter; stroke-linecap: square"/>
   </g>
   <g id="patch_7">
    <path d="M 34.691719 113.284721 
L 162.51874 113.284721 
" style="fill: none; stroke: #000000; stroke-width: 0.8; stroke-linejoin: miter; stroke-linecap: square"/>
   </g>
   <g id="PathCollection_1">
    <defs>
     <path id="C0_0_f7d508d6ba" d="M 0 1.5 
C 0.397805 1.5 0.77937 1.341951 1.06066 1.06066 
C 1.341951 0.77937 1.5 0.397805 1.5 -0 
C 1.5 -0.397805 1.341951 -0.77937 1.06066 -1.06066 
C 0.77937 -1.341951 0.397805 -1.5 0 -1.5 
C -0.397805 -1.5 -0.77937 -1.341951 -1.06066 -1.06066 
C -1.341951 -0.77937 -1.5 -0.397805 -1.5 0 
C -1.5 0.397805 -1.341951 0.77937 -1.06066 1.06066 
C -0.77937 1.341951 -0.397805 1.5 0 1.5 
z
"/>
    </defs>
    <g clip-path="url(#pa5f4790613)">
     <use xlink:href="#C0_0_f7d508d6ba" x="59.010712" y="39.141701" style="fill: #db5f57; fill-opacity: 0.8"/>
    </g>
    <g clip-path="url(#pa5f4790613)">
     <use xlink:href="#C0_0_f7d508d6ba" x="56.404032" y="31.159374" style="fill: #db5f57; fill-opacity: 0.8"/>
    </g>
    <g clip-path="url(#pa5f4790613)">
     <use xlink:href="#C0_0_f7d508d6ba" x="58.919285" y="30.383331" style="fill: #db5f57; fill-opacity: 0.8"/>
    </g>
    <g clip-path="url(#pa5f4790613)">
     <use xlink:href="#C0_0_f7d508d6ba" x="54.742082" y="30.400942" style="fill: #db5f57; fill-opacity: 0.8"/>
    </g>
    <g clip-path="url(#pa5f4790613)">
     <use xlink:href="#C0_0_f7d508d6ba" x="58.628194" y="42.183762" style="fill: #db5f57; fill-opacity: 0.8"/>
    </g>
    <g clip-path="url(#pa5f4790613)">
     <use xlink:href="#C0_0_f7d508d6ba" x="58.124477" y="30.237941" style="fill: #db5f57; fill-opacity: 0.8"/>
    </g>
    <g clip-path="url(#pa5f4790613)">
     <use xlink:href="#C0_0_f7d508d6ba" x="56.616757" y="30.546648" style="fill: #db5f57; fill-opacity: 0.8"/>
    </g>
    <g clip-path="url(#pa5f4790613)">
     <use xlink:href="#C0_0_f7d508d6ba" x="54.67408" y="30.040659" style="fill: #db5f57; fill-opacity: 0.8"/>
    </g>
    <g clip-path="url(#pa5f4790613)">
     <use xlink:href="#C0_0_f7d508d6ba" x="58.841447" y="31.216225" style="fill: #db5f57; fill-opacity: 0.8"/>
    </g>
    <g clip-path="url(#pa5f4790613)">
     <use xlink:href="#C0_0_f7d508d6ba" x="52.403629" y="30.145043" style="fill: #db5f57; fill-opacity: 0.8"/>
    </g>
    <g clip-path="url(#pa5f4790613)">
     <use xlink:href="#C0_0_f7d508d6ba" x="52.868704" y="36.643559" style="fill: #db5f57; fill-opacity: 0.8"/>
    </g>
    <g clip-path="url(#pa5f4790613)">
     <use xlink:href="#C0_0_f7d508d6ba" x="52.522754" y="96.028426" style="fill: #db5f57; fill-opacity: 0.8"/>
    </g>
    <g clip-path="url(#pa5f4790613)">
     <use xlink:href="#C0_0_f7d508d6ba" x="57.577296" y="30.045451" style="fill: #db5f57; fill-opacity: 0.8"/>
    </g>
    <g clip-path="url(#pa5f4790613)">
     <use xlink:href="#C0_0_f7d508d6ba" x="59.987628" y="34.594362" style="fill: #db5f57; fill-opacity: 0.8"/>
    </g>
    <g clip-path="url(#pa5f4790613)">
     <use xlink:href="#C0_0_f7d508d6ba" x="53.900926" y="79.930493" style="fill: #db5f57; fill-opacity: 0.8"/>
    </g>
    <g clip-path="url(#pa5f4790613)">
     <use xlink:href="#C0_0_f7d508d6ba" x="54.528094" y="30.428208" style="fill: #db5f57; fill-opacity: 0.8"/>
    </g>
    <g clip-path="url(#pa5f4790613)">
     <use xlink:href="#C0_0_f7d508d6ba" x="56.770822" y="30.356059" style="fill: #db5f57; fill-opacity: 0.8"/>
    </g>
    <g clip-path="url(#pa5f4790613)">
     <use xlink:href="#C0_0_f7d508d6ba" x="55.00359" y="32.156649" style="fill: #db5f57; fill-opacity: 0.8"/>
    </g>
    <g clip-path="url(#pa5f4790613)">
     <use xlink:href="#C0_0_f7d508d6ba" x="59.814382" y="39.891252" style="fill: #db5f57; fill-opacity: 0.8"/>
    </g>
    <g clip-path="url(#pa5f4790613)">
     <use xlink:href="#C0_0_f7d508d6ba" x="57.583204" y="32.587185" style="fill: #db5f57; fill-opacity: 0.8"/>
    </g>
    <g clip-path="url(#pa5f4790613)">
     <use xlink:href="#C0_0_f7d508d6ba" x="55.430705" y="32.182532" style="fill: #db5f57; fill-opacity: 0.8"/>
    </g>
    <g clip-path="url(#pa5f4790613)">
     <use xlink:href="#C0_0_f7d508d6ba" x="54.305326" y="34.691463" style="fill: #db5f57; fill-opacity: 0.8"/>
    </g>
    <g clip-path="url(#pa5f4790613)">
     <use xlink:href="#C0_0_f7d508d6ba" x="55.191637" y="30.133021" style="fill: #db5f57; fill-opacity: 0.8"/>
    </g>
    <g clip-path="url(#pa5f4790613)">
     <use xlink:href="#C0_0_f7d508d6ba" x="55.928127" y="35.294931" style="fill: #db5f57; fill-opacity: 0.8"/>
    </g>
    <g clip-path="url(#pa5f4790613)">
     <use xlink:href="#C0_0_f7d508d6ba" x="56.435558" y="31.766595" style="fill: #db5f57; fill-opacity: 0.8"/>
    </g>
    <g clip-path="url(#pa5f4790613)">
     <use xlink:href="#C0_0_f7d508d6ba" x="59.01834" y="32.013121" style="fill: #db5f57; fill-opacity: 0.8"/>
    </g>
    <g clip-path="url(#pa5f4790613)">
     <use xlink:href="#C0_0_f7d508d6ba" x="55.09859" y="109.320718" style="fill: #db5f57; fill-opacity: 0.8"/>
    </g>
    <g clip-path="url(#pa5f4790613)">
     <use xlink:href="#C0_0_f7d508d6ba" x="54.846709" y="58.215943" style="fill: #db5f57; fill-opacity: 0.8"/>
    </g>
    <g clip-path="url(#pa5f4790613)">
     <use xlink:href="#C0_0_f7d508d6ba" x="56.181646" y="30.112133" style="fill: #db5f57; fill-opacity: 0.8"/>
    </g>
    <g clip-path="url(#pa5f4790613)">
     <use xlink:href="#C0_0_f7d508d6ba" x="59.695836" y="30.851826" style="fill: #db5f57; fill-opacity: 0.8"/>
    </g>
    <g clip-path="url(#pa5f4790613)">
     <use xlink:href="#C0_0_f7d508d6ba" x="57.112885" y="31.717687" style="fill: #db5f57; fill-opacity: 0.8"/>
    </g>
    <g clip-path="url(#pa5f4790613)">
     <use xlink:href="#C0_0_f7d508d6ba" x="58.98662" y="30.365116" style="fill: #db5f57; fill-opacity: 0.8"/>
    </g>
    <g clip-path="url(#pa5f4790613)">
     <use xlink:href="#C0_0_f7d508d6ba" x="52.567352" y="92.496846" style="fill: #db5f57; fill-opacity: 0.8"/>
    </g>
    <g clip-path="url(#pa5f4790613)">
     <use xlink:href="#C0_0_f7d508d6ba" x="52.799288" y="99.97967" style="fill: #db5f57; fill-opacity: 0.8"/>
    </g>
    <g clip-path="url(#pa5f4790613)">
     <use xlink:href="#C0_0_f7d508d6ba" x="54.445315" y="31.704723" style="fill: #db5f57; fill-opacity: 0.8"/>
    </g>
    <g clip-path="url(#pa5f4790613)">
     <use xlink:href="#C0_0_f7d508d6ba" x="56.637185" y="31.276644" style="fill: #db5f57; fill-opacity: 0.8"/>
    </g>
    <g clip-path="url(#pa5f4790613)">
     <use xlink:href="#C0_0_f7d508d6ba" x="54.423139" y="38.734324" style="fill: #db5f57; fill-opacity: 0.8"/>
    </g>
    <g clip-path="url(#pa5f4790613)">
     <use xlink:href="#C0_0_f7d508d6ba" x="52.082549" y="34.831263" style="fill: #db5f57; fill-opacity: 0.8"/>
    </g>
    <g clip-path="url(#pa5f4790613)">
     <use xlink:href="#C0_0_f7d508d6ba" x="60.005709" y="32.083757" style="fill: #db5f57; fill-opacity: 0.8"/>
    </g>
    <g clip-path="url(#pa5f4790613)">
     <use xlink:href="#C0_0_f7d508d6ba" x="58.854929" y="30.098902" style="fill: #db5f57; fill-opacity: 0.8"/>
    </g>
    <g clip-path="url(#pa5f4790613)">
     <use xlink:href="#C0_0_f7d508d6ba" x="51.990922" y="33.603184" style="fill: #db5f57; fill-opacity: 0.8"/>
    </g>
    <g clip-path="url(#pa5f4790613)">
     <use xlink:href="#C0_0_f7d508d6ba" x="56.772374" y="33.821301" style="fill: #db5f57; fill-opacity: 0.8"/>
    </g>
    <g clip-path="url(#pa5f4790613)">
     <use xlink:href="#C0_0_f7d508d6ba" x="57.658156" y="30.425625" style="fill: #db5f57; fill-opacity: 0.8"/>
    </g>
   </g>
   <g id="PathCollection_2">
    <defs>
     <path id="C1_0_975f9fdbcf" d="M 0 1.5 
C 0.397805 1.5 0.77937 1.341951 1.06066 1.06066 
C 1.341951 0.77937 1.5 0.397805 1.5 -0 
C 1.5 -0.397805 1.341951 -0.77937 1.06066 -1.06066 
C 0.77937 -1.341951 0.397805 -1.5 0 -1.5 
C -0.397805 -1.5 -0.77937 -1.341951 -1.06066 -1.06066 
C -1.341951 -0.77937 -1.5 -0.397805 -1.5 0 
C -1.5 0.397805 -1.341951 0.77937 -1.06066 1.06066 
C -0.77937 1.341951 -0.397805 1.5 0 1.5 
z
"/>
    </defs>
    <g clip-path="url(#pa5f4790613)">
     <use xlink:href="#C1_0_975f9fdbcf" x="94.39527" y="50.748727" style="fill: #57db5f; fill-opacity: 0.8"/>
    </g>
    <g clip-path="url(#pa5f4790613)">
     <use xlink:href="#C1_0_975f9fdbcf" x="97.485972" y="36.321659" style="fill: #57db5f; fill-opacity: 0.8"/>
    </g>
    <g clip-path="url(#pa5f4790613)">
     <use xlink:href="#C1_0_975f9fdbcf" x="100.123495" y="66.508913" style="fill: #57db5f; fill-opacity: 0.8"/>
    </g>
    <g clip-path="url(#pa5f4790613)">
     <use xlink:href="#C1_0_975f9fdbcf" x="101.324796" y="33.332632" style="fill: #57db5f; fill-opacity: 0.8"/>
    </g>
    <g clip-path="url(#pa5f4790613)">
     <use xlink:href="#C1_0_975f9fdbcf" x="95.170997" y="80.909804" style="fill: #57db5f; fill-opacity: 0.8"/>
    </g>
    <g clip-path="url(#pa5f4790613)">
     <use xlink:href="#C1_0_975f9fdbcf" x="96.106298" y="32.429744" style="fill: #57db5f; fill-opacity: 0.8"/>
    </g>
    <g clip-path="url(#pa5f4790613)">
     <use xlink:href="#C1_0_975f9fdbcf" x="98.667157" y="43.161612" style="fill: #57db5f; fill-opacity: 0.8"/>
    </g>
    <g clip-path="url(#pa5f4790613)">
     <use xlink:href="#C1_0_975f9fdbcf" x="94.541475" y="52.620344" style="fill: #57db5f; fill-opacity: 0.8"/>
    </g>
    <g clip-path="url(#pa5f4790613)">
     <use xlink:href="#C1_0_975f9fdbcf" x="95.533654" y="108.620665" style="fill: #57db5f; fill-opacity: 0.8"/>
    </g>
    <g clip-path="url(#pa5f4790613)">
     <use xlink:href="#C1_0_975f9fdbcf" x="101.004599" y="35.240746" style="fill: #57db5f; fill-opacity: 0.8"/>
    </g>
    <g clip-path="url(#pa5f4790613)">
     <use xlink:href="#C1_0_975f9fdbcf" x="94.541511" y="33.017513" style="fill: #57db5f; fill-opacity: 0.8"/>
    </g>
    <g clip-path="url(#pa5f4790613)">
     <use xlink:href="#C1_0_975f9fdbcf" x="101.0153" y="31.27793" style="fill: #57db5f; fill-opacity: 0.8"/>
    </g>
    <g clip-path="url(#pa5f4790613)">
     <use xlink:href="#C1_0_975f9fdbcf" x="101.530561" y="40.808973" style="fill: #57db5f; fill-opacity: 0.8"/>
    </g>
    <g clip-path="url(#pa5f4790613)">
     <use xlink:href="#C1_0_975f9fdbcf" x="96.125802" y="40.277197" style="fill: #57db5f; fill-opacity: 0.8"/>
    </g>
    <g clip-path="url(#pa5f4790613)">
     <use xlink:href="#C1_0_975f9fdbcf" x="102.165805" y="31.436775" style="fill: #57db5f; fill-opacity: 0.8"/>
    </g>
    <g clip-path="url(#pa5f4790613)">
     <use xlink:href="#C1_0_975f9fdbcf" x="96.045294" y="33.880796" style="fill: #57db5f; fill-opacity: 0.8"/>
    </g>
    <g clip-path="url(#pa5f4790613)">
     <use xlink:href="#C1_0_975f9fdbcf" x="95.914619" y="35.840879" style="fill: #57db5f; fill-opacity: 0.8"/>
    </g>
    <g clip-path="url(#pa5f4790613)">
     <use xlink:href="#C1_0_975f9fdbcf" x="101.228771" y="41.166816" style="fill: #57db5f; fill-opacity: 0.8"/>
    </g>
    <g clip-path="url(#pa5f4790613)">
     <use xlink:href="#C1_0_975f9fdbcf" x="98.683216" y="38.221612" style="fill: #57db5f; fill-opacity: 0.8"/>
    </g>
    <g clip-path="url(#pa5f4790613)">
     <use xlink:href="#C1_0_975f9fdbcf" x="101.266388" y="35.863844" style="fill: #57db5f; fill-opacity: 0.8"/>
    </g>
    <g clip-path="url(#pa5f4790613)">
     <use xlink:href="#C1_0_975f9fdbcf" x="101.657687" y="37.896179" style="fill: #57db5f; fill-opacity: 0.8"/>
    </g>
    <g clip-path="url(#pa5f4790613)">
     <use xlink:href="#C1_0_975f9fdbcf" x="101.686667" y="30.272422" style="fill: #57db5f; fill-opacity: 0.8"/>
    </g>
    <g clip-path="url(#pa5f4790613)">
     <use xlink:href="#C1_0_975f9fdbcf" x="94.59007" y="33.850031" style="fill: #57db5f; fill-opacity: 0.8"/>
    </g>
    <g clip-path="url(#pa5f4790613)">
     <use xlink:href="#C1_0_975f9fdbcf" x="98.63994" y="36.669842" style="fill: #57db5f; fill-opacity: 0.8"/>
    </g>
    <g clip-path="url(#pa5f4790613)">
     <use xlink:href="#C1_0_975f9fdbcf" x="97.146625" y="30.176303" style="fill: #57db5f; fill-opacity: 0.8"/>
    </g>
    <g clip-path="url(#pa5f4790613)">
     <use xlink:href="#C1_0_975f9fdbcf" x="94.579405" y="55.290682" style="fill: #57db5f; fill-opacity: 0.8"/>
    </g>
    <g clip-path="url(#pa5f4790613)">
     <use xlink:href="#C1_0_975f9fdbcf" x="97.364926" y="31.845537" style="fill: #57db5f; fill-opacity: 0.8"/>
    </g>
    <g clip-path="url(#pa5f4790613)">
     <use xlink:href="#C1_0_975f9fdbcf" x="100.675697" y="35.198878" style="fill: #57db5f; fill-opacity: 0.8"/>
    </g>
    <g clip-path="url(#pa5f4790613)">
     <use xlink:href="#C1_0_975f9fdbcf" x="101.101167" y="69.362386" style="fill: #57db5f; fill-opacity: 0.8"/>
    </g>
    <g clip-path="url(#pa5f4790613)">
     <use xlink:href="#C1_0_975f9fdbcf" x="102.416433" y="84.885625" style="fill: #57db5f; fill-opacity: 0.8"/>
    </g>
    <g clip-path="url(#pa5f4790613)">
     <use xlink:href="#C1_0_975f9fdbcf" x="97.319471" y="35.735835" style="fill: #57db5f; fill-opacity: 0.8"/>
    </g>
    <g clip-path="url(#pa5f4790613)">
     <use xlink:href="#C1_0_975f9fdbcf" x="99.233352" y="83.109729" style="fill: #57db5f; fill-opacity: 0.8"/>
    </g>
    <g clip-path="url(#pa5f4790613)">
     <use xlink:href="#C1_0_975f9fdbcf" x="100.369716" y="87.844114" style="fill: #57db5f; fill-opacity: 0.8"/>
    </g>
    <g clip-path="url(#pa5f4790613)">
     <use xlink:href="#C1_0_975f9fdbcf" x="98.296524" y="35.538866" style="fill: #57db5f; fill-opacity: 0.8"/>
    </g>
    <g clip-path="url(#pa5f4790613)">
     <use xlink:href="#C1_0_975f9fdbcf" x="99.935505" y="30.831922" style="fill: #57db5f; fill-opacity: 0.8"/>
    </g>
    <g clip-path="url(#pa5f4790613)">
     <use xlink:href="#C1_0_975f9fdbcf" x="101.943503" y="35.040987" style="fill: #57db5f; fill-opacity: 0.8"/>
    </g>
    <g clip-path="url(#pa5f4790613)">
     <use xlink:href="#C1_0_975f9fdbcf" x="94.898859" y="51.154236" style="fill: #57db5f; fill-opacity: 0.8"/>
    </g>
    <g clip-path="url(#pa5f4790613)">
     <use xlink:href="#C1_0_975f9fdbcf" x="97.688327" y="89.736177" style="fill: #57db5f; fill-opacity: 0.8"/>
    </g>
    <g clip-path="url(#pa5f4790613)">
     <use xlink:href="#C1_0_975f9fdbcf" x="97.632428" y="39.063671" style="fill: #57db5f; fill-opacity: 0.8"/>
    </g>
    <g clip-path="url(#pa5f4790613)">
     <use xlink:href="#C1_0_975f9fdbcf" x="100.528274" y="35.268985" style="fill: #57db5f; fill-opacity: 0.8"/>
    </g>
    <g clip-path="url(#pa5f4790613)">
     <use xlink:href="#C1_0_975f9fdbcf" x="98.660839" y="32.624849" style="fill: #57db5f; fill-opacity: 0.8"/>
    </g>
   </g>
   <g id="PathCollection_3">
    <defs>
     <path id="C2_0_219c85233e" d="M 0 1.5 
C 0.397805 1.5 0.77937 1.341951 1.06066 1.06066 
C 1.341951 0.77937 1.5 0.397805 1.5 -0 
C 1.5 -0.397805 1.341951 -0.77937 1.06066 -1.06066 
C 0.77937 -1.341951 0.397805 -1.5 0 -1.5 
C -0.397805 -1.5 -0.77937 -1.341951 -1.06066 -1.06066 
C -1.341951 -0.77937 -1.5 -0.397805 -1.5 0 
C -1.5 0.397805 -1.341951 0.77937 -1.06066 1.06066 
C -0.77937 1.341951 -0.397805 1.5 0 1.5 
z
"/>
    </defs>
    <g clip-path="url(#pa5f4790613)">
     <use xlink:href="#C2_0_219c85233e" x="142.77092" y="53.00759" style="fill: #5f57db; fill-opacity: 0.8"/>
    </g>
    <g clip-path="url(#pa5f4790613)">
     <use xlink:href="#C2_0_219c85233e" x="141.555777" y="35.442374" style="fill: #5f57db; fill-opacity: 0.8"/>
    </g>
    <g clip-path="url(#pa5f4790613)">
     <use xlink:href="#C2_0_219c85233e" x="143.278623" y="66.137492" style="fill: #5f57db; fill-opacity: 0.8"/>
    </g>
    <g clip-path="url(#pa5f4790613)">
     <use xlink:href="#C2_0_219c85233e" x="138.006561" y="33.268437" style="fill: #5f57db; fill-opacity: 0.8"/>
    </g>
    <g clip-path="url(#pa5f4790613)">
     <use xlink:href="#C2_0_219c85233e" x="144.465621" y="76.887383" style="fill: #5f57db; fill-opacity: 0.8"/>
    </g>
    <g clip-path="url(#pa5f4790613)">
     <use xlink:href="#C2_0_219c85233e" x="143.85881" y="32.073486" style="fill: #5f57db; fill-opacity: 0.8"/>
    </g>
    <g clip-path="url(#pa5f4790613)">
     <use xlink:href="#C2_0_219c85233e" x="140.20924" y="40.868776" style="fill: #5f57db; fill-opacity: 0.8"/>
    </g>
    <g clip-path="url(#pa5f4790613)">
     <use xlink:href="#C2_0_219c85233e" x="143.795689" y="52.794037" style="fill: #5f57db; fill-opacity: 0.8"/>
    </g>
    <g clip-path="url(#pa5f4790613)">
     <use xlink:href="#C2_0_219c85233e" x="143.863108" y="108.109545" style="fill: #5f57db; fill-opacity: 0.8"/>
    </g>
    <g clip-path="url(#pa5f4790613)">
     <use xlink:href="#C2_0_219c85233e" x="139.748799" y="38.238849" style="fill: #5f57db; fill-opacity: 0.8"/>
    </g>
    <g clip-path="url(#pa5f4790613)">
     <use xlink:href="#C2_0_219c85233e" x="139.218739" y="91.435038" style="fill: #5f57db; fill-opacity: 0.8"/>
    </g>
    <g clip-path="url(#pa5f4790613)">
     <use xlink:href="#C2_0_219c85233e" x="140.017633" y="31.288106" style="fill: #5f57db; fill-opacity: 0.8"/>
    </g>
    <g clip-path="url(#pa5f4790613)">
     <use xlink:href="#C2_0_219c85233e" x="143.564618" y="37.013365" style="fill: #5f57db; fill-opacity: 0.8"/>
    </g>
    <g clip-path="url(#pa5f4790613)">
     <use xlink:href="#C2_0_219c85233e" x="142.112628" y="82.951438" style="fill: #5f57db; fill-opacity: 0.8"/>
    </g>
    <g clip-path="url(#pa5f4790613)">
     <use xlink:href="#C2_0_219c85233e" x="137.998233" y="30.865864" style="fill: #5f57db; fill-opacity: 0.8"/>
    </g>
    <g clip-path="url(#pa5f4790613)">
     <use xlink:href="#C2_0_219c85233e" x="144.664021" y="34.92316" style="fill: #5f57db; fill-opacity: 0.8"/>
    </g>
    <g clip-path="url(#pa5f4790613)">
     <use xlink:href="#C2_0_219c85233e" x="138.450138" y="33.351474" style="fill: #5f57db; fill-opacity: 0.8"/>
    </g>
    <g clip-path="url(#pa5f4790613)">
     <use xlink:href="#C2_0_219c85233e" x="142.453323" y="30.054976" style="fill: #5f57db; fill-opacity: 0.8"/>
    </g>
    <g clip-path="url(#pa5f4790613)">
     <use xlink:href="#C2_0_219c85233e" x="142.241332" y="35.847066" style="fill: #5f57db; fill-opacity: 0.8"/>
    </g>
    <g clip-path="url(#pa5f4790613)">
     <use xlink:href="#C2_0_219c85233e" x="142.790731" y="34.104627" style="fill: #5f57db; fill-opacity: 0.8"/>
    </g>
    <g clip-path="url(#pa5f4790613)">
     <use xlink:href="#C2_0_219c85233e" x="140.184832" y="35.672079" style="fill: #5f57db; fill-opacity: 0.8"/>
    </g>
    <g clip-path="url(#pa5f4790613)">
     <use xlink:href="#C2_0_219c85233e" x="139.396931" y="30.175815" style="fill: #5f57db; fill-opacity: 0.8"/>
    </g>
    <g clip-path="url(#pa5f4790613)">
     <use xlink:href="#C2_0_219c85233e" x="138.909865" y="32.260569" style="fill: #5f57db; fill-opacity: 0.8"/>
    </g>
    <g clip-path="url(#pa5f4790613)">
     <use xlink:href="#C2_0_219c85233e" x="143.210681" y="35.239858" style="fill: #5f57db; fill-opacity: 0.8"/>
    </g>
    <g clip-path="url(#pa5f4790613)">
     <use xlink:href="#C2_0_219c85233e" x="137.459275" y="109.312489" style="fill: #5f57db; fill-opacity: 0.8"/>
    </g>
    <g clip-path="url(#pa5f4790613)">
     <use xlink:href="#C2_0_219c85233e" x="143.109515" y="75.435533" style="fill: #5f57db; fill-opacity: 0.8"/>
    </g>
    <g clip-path="url(#pa5f4790613)">
     <use xlink:href="#C2_0_219c85233e" x="142.792078" y="31.542081" style="fill: #5f57db; fill-opacity: 0.8"/>
    </g>
    <g clip-path="url(#pa5f4790613)">
     <use xlink:href="#C2_0_219c85233e" x="140.514404" y="34.265206" style="fill: #5f57db; fill-opacity: 0.8"/>
    </g>
    <g clip-path="url(#pa5f4790613)">
     <use xlink:href="#C2_0_219c85233e" x="141.063086" y="72.62699" style="fill: #5f57db; fill-opacity: 0.8"/>
    </g>
    <g clip-path="url(#pa5f4790613)">
     <use xlink:href="#C2_0_219c85233e" x="142.554925" y="83.894234" style="fill: #5f57db; fill-opacity: 0.8"/>
    </g>
    <g clip-path="url(#pa5f4790613)">
     <use xlink:href="#C2_0_219c85233e" x="138.654258" y="91.424248" style="fill: #5f57db; fill-opacity: 0.8"/>
    </g>
    <g clip-path="url(#pa5f4790613)">
     <use xlink:href="#C2_0_219c85233e" x="141.421436" y="40.474581" style="fill: #5f57db; fill-opacity: 0.8"/>
    </g>
    <g clip-path="url(#pa5f4790613)">
     <use xlink:href="#C2_0_219c85233e" x="140.651411" y="83.626846" style="fill: #5f57db; fill-opacity: 0.8"/>
    </g>
    <g clip-path="url(#pa5f4790613)">
     <use xlink:href="#C2_0_219c85233e" x="138.733522" y="34.71635" style="fill: #5f57db; fill-opacity: 0.8"/>
    </g>
    <g clip-path="url(#pa5f4790613)">
     <use xlink:href="#C2_0_219c85233e" x="142.375529" y="37.697743" style="fill: #5f57db; fill-opacity: 0.8"/>
    </g>
    <g clip-path="url(#pa5f4790613)">
     <use xlink:href="#C2_0_219c85233e" x="141.578806" y="30.479018" style="fill: #5f57db; fill-opacity: 0.8"/>
    </g>
    <g clip-path="url(#pa5f4790613)">
     <use xlink:href="#C2_0_219c85233e" x="137.924187" y="54.821263" style="fill: #5f57db; fill-opacity: 0.8"/>
    </g>
    <g clip-path="url(#pa5f4790613)">
     <use xlink:href="#C2_0_219c85233e" x="142.061176" y="89.952916" style="fill: #5f57db; fill-opacity: 0.8"/>
    </g>
    <g clip-path="url(#pa5f4790613)">
     <use xlink:href="#C2_0_219c85233e" x="142.344519" y="39.81957" style="fill: #5f57db; fill-opacity: 0.8"/>
    </g>
    <g clip-path="url(#pa5f4790613)">
     <use xlink:href="#C2_0_219c85233e" x="139.702568" y="32.749595" style="fill: #5f57db; fill-opacity: 0.8"/>
    </g>
    <g clip-path="url(#pa5f4790613)">
     <use xlink:href="#C2_0_219c85233e" x="138.980847" y="32.888614" style="fill: #5f57db; fill-opacity: 0.8"/>
    </g>
   </g>
   <g id="text_11">
    <!-- 0.98 -->
    <g transform="translate(47.699692 27.769866) scale(0.07 -0.07)">
     <defs>
      <path id="ArialMT-39" d="M 350 1059 
L 891 1109 
Q 959 728 1153 556 
Q 1347 384 1650 384 
Q 1909 384 2104 503 
Q 2300 622 2425 820 
Q 2550 1019 2634 1356 
Q 2719 1694 2719 2044 
Q 2719 2081 2716 2156 
Q 2547 1888 2255 1720 
Q 1963 1553 1622 1553 
Q 1053 1553 659 1965 
Q 266 2378 266 3053 
Q 266 3750 677 4175 
Q 1088 4600 1706 4600 
Q 2153 4600 2523 4359 
Q 2894 4119 3086 3673 
Q 3278 3228 3278 2384 
Q 3278 1506 3087 986 
Q 2897 466 2520 194 
Q 2144 -78 1638 -78 
Q 1100 -78 759 220 
Q 419 519 350 1059 
z
M 2653 3081 
Q 2653 3566 2395 3850 
Q 2138 4134 1775 4134 
Q 1400 4134 1122 3828 
Q 844 3522 844 3034 
Q 844 2597 1108 2323 
Q 1372 2050 1759 2050 
Q 2150 2050 2401 2323 
Q 2653 2597 2653 3081 
z
" transform="scale(0.015625)"/>
     </defs>
     <use xlink:href="#ArialMT-30"/>
     <use xlink:href="#ArialMT-2e" x="55.615234"/>
     <use xlink:href="#ArialMT-39" x="83.398438"/>
     <use xlink:href="#ArialMT-38" x="139.013672"/>
    </g>
   </g>
   <g id="text_12">
    <!-- 0.92 -->
    <g transform="translate(90.308699 27.769866) scale(0.07 -0.07)">
     <use xlink:href="#ArialMT-30"/>
     <use xlink:href="#ArialMT-2e" x="55.615234"/>
     <use xlink:href="#ArialMT-39" x="83.398438"/>
     <use xlink:href="#ArialMT-32" x="139.013672"/>
    </g>
   </g>
   <g id="text_13">
    <!-- 0.91 -->
    <g transform="translate(132.917706 27.769866) scale(0.07 -0.07)">
     <use xlink:href="#ArialMT-30"/>
     <use xlink:href="#ArialMT-2e" x="55.615234"/>
     <use xlink:href="#ArialMT-39" x="83.398438"/>
     <use xlink:href="#ArialMT-31" x="139.013672"/>
    </g>
   </g>
   <g id="text_14">
    <!-- Abundance correlation between methods -->
    <g transform="translate(34.984526 12.570469) scale(0.07 -0.07)">
     <defs>
      <path id="ArialMT-62" d="M 941 0 
L 419 0 
L 419 4581 
L 981 4581 
L 981 2947 
Q 1338 3394 1891 3394 
Q 2197 3394 2470 3270 
Q 2744 3147 2920 2923 
Q 3097 2700 3197 2384 
Q 3297 2069 3297 1709 
Q 3297 856 2875 390 
Q 2453 -75 1863 -75 
Q 1275 -75 941 416 
L 941 0 
z
M 934 1684 
Q 934 1088 1097 822 
Q 1363 388 1816 388 
Q 2184 388 2453 708 
Q 2722 1028 2722 1663 
Q 2722 2313 2464 2622 
Q 2206 2931 1841 2931 
Q 1472 2931 1203 2611 
Q 934 2291 934 1684 
z
" transform="scale(0.015625)"/>
      <path id="ArialMT-75" d="M 2597 0 
L 2597 488 
Q 2209 -75 1544 -75 
Q 1250 -75 995 37 
Q 741 150 617 320 
Q 494 491 444 738 
Q 409 903 409 1263 
L 409 3319 
L 972 3319 
L 972 1478 
Q 972 1038 1006 884 
Q 1059 663 1231 536 
Q 1403 409 1656 409 
Q 1909 409 2131 539 
Q 2353 669 2445 892 
Q 2538 1116 2538 1541 
L 2538 3319 
L 3100 3319 
L 3100 0 
L 2597 0 
z
" transform="scale(0.015625)"/>
      <path id="ArialMT-64" d="M 2575 0 
L 2575 419 
Q 2259 -75 1647 -75 
Q 1250 -75 917 144 
Q 584 363 401 755 
Q 219 1147 219 1656 
Q 219 2153 384 2558 
Q 550 2963 881 3178 
Q 1213 3394 1622 3394 
Q 1922 3394 2156 3267 
Q 2391 3141 2538 2938 
L 2538 4581 
L 3097 4581 
L 3097 0 
L 2575 0 
z
M 797 1656 
Q 797 1019 1065 703 
Q 1334 388 1700 388 
Q 2069 388 2326 689 
Q 2584 991 2584 1609 
Q 2584 2291 2321 2609 
Q 2059 2928 1675 2928 
Q 1300 2928 1048 2622 
Q 797 2316 797 1656 
z
" transform="scale(0.015625)"/>
      <path id="ArialMT-77" d="M 1034 0 
L 19 3319 
L 600 3319 
L 1128 1403 
L 1325 691 
Q 1338 744 1497 1375 
L 2025 3319 
L 2603 3319 
L 3100 1394 
L 3266 759 
L 3456 1400 
L 4025 3319 
L 4572 3319 
L 3534 0 
L 2950 0 
L 2422 1988 
L 2294 2553 
L 1622 0 
L 1034 0 
z
" transform="scale(0.015625)"/>
     </defs>
     <use xlink:href="#ArialMT-41"/>
     <use xlink:href="#ArialMT-62" x="66.699219"/>
     <use xlink:href="#ArialMT-75" x="122.314453"/>
     <use xlink:href="#ArialMT-6e" x="177.929688"/>
     <use xlink:href="#ArialMT-64" x="233.544922"/>
     <use xlink:href="#ArialMT-61" x="289.160156"/>
     <use xlink:href="#ArialMT-6e" x="344.775391"/>
     <use xlink:href="#ArialMT-63" x="400.390625"/>
     <use xlink:href="#ArialMT-65" x="450.390625"/>
     <use xlink:href="#ArialMT-20" x="506.005859"/>
     <use xlink:href="#ArialMT-63" x="533.789062"/>
     <use xlink:href="#ArialMT-6f" x="583.789062"/>
     <use xlink:href="#ArialMT-72" x="639.404297"/>
     <use xlink:href="#ArialMT-72" x="672.705078"/>
     <use xlink:href="#ArialMT-65" x="706.005859"/>
     <use xlink:href="#ArialMT-6c" x="761.621094"/>
     <use xlink:href="#ArialMT-61" x="783.837891"/>
     <use xlink:href="#ArialMT-74" x="839.453125"/>
     <use xlink:href="#ArialMT-69" x="867.236328"/>
     <use xlink:href="#ArialMT-6f" x="889.453125"/>
     <use xlink:href="#ArialMT-6e" x="945.068359"/>
     <use xlink:href="#ArialMT-20" x="1000.683594"/>
     <use xlink:href="#ArialMT-62" x="1028.466797"/>
     <use xlink:href="#ArialMT-65" x="1084.082031"/>
     <use xlink:href="#ArialMT-74" x="1139.697266"/>
     <use xlink:href="#ArialMT-77" x="1167.480469"/>
     <use xlink:href="#ArialMT-65" x="1239.697266"/>
     <use xlink:href="#ArialMT-65" x="1295.3125"/>
     <use xlink:href="#ArialMT-6e" x="1350.927734"/>
     <use xlink:href="#ArialMT-20" x="1406.542969"/>
     <use xlink:href="#ArialMT-6d" x="1434.326172"/>
     <use xlink:href="#ArialMT-65" x="1517.626953"/>
     <use xlink:href="#ArialMT-74" x="1573.242188"/>
     <use xlink:href="#ArialMT-68" x="1601.025391"/>
     <use xlink:href="#ArialMT-6f" x="1656.640625"/>
     <use xlink:href="#ArialMT-64" x="1712.255859"/>
     <use xlink:href="#ArialMT-73" x="1767.871094"/>
    </g>
    <!-- (50 gut metagenomes) -->
    <g transform="translate(63.394683 20.076656) scale(0.07 -0.07)">
     <defs>
      <path id="ArialMT-28" d="M 1497 -1347 
Q 1031 -759 709 28 
Q 388 816 388 1659 
Q 388 2403 628 3084 
Q 909 3875 1497 4659 
L 1900 4659 
Q 1522 4009 1400 3731 
Q 1209 3300 1100 2831 
Q 966 2247 966 1656 
Q 966 153 1900 -1347 
L 1497 -1347 
z
" transform="scale(0.015625)"/>
      <path id="ArialMT-35" d="M 266 1200 
L 856 1250 
Q 922 819 1161 601 
Q 1400 384 1738 384 
Q 2144 384 2425 690 
Q 2706 997 2706 1503 
Q 2706 1984 2436 2262 
Q 2166 2541 1728 2541 
Q 1456 2541 1237 2417 
Q 1019 2294 894 2097 
L 366 2166 
L 809 4519 
L 3088 4519 
L 3088 3981 
L 1259 3981 
L 1013 2750 
Q 1425 3038 1878 3038 
Q 2478 3038 2890 2622 
Q 3303 2206 3303 1553 
Q 3303 931 2941 478 
Q 2500 -78 1738 -78 
Q 1113 -78 717 272 
Q 322 622 266 1200 
z
" transform="scale(0.015625)"/>
      <path id="ArialMT-67" d="M 319 -275 
L 866 -356 
Q 900 -609 1056 -725 
Q 1266 -881 1628 -881 
Q 2019 -881 2231 -725 
Q 2444 -569 2519 -288 
Q 2563 -116 2559 434 
Q 2191 0 1641 0 
Q 956 0 581 494 
Q 206 988 206 1678 
Q 206 2153 378 2554 
Q 550 2956 876 3175 
Q 1203 3394 1644 3394 
Q 2231 3394 2613 2919 
L 2613 3319 
L 3131 3319 
L 3131 450 
Q 3131 -325 2973 -648 
Q 2816 -972 2473 -1159 
Q 2131 -1347 1631 -1347 
Q 1038 -1347 672 -1080 
Q 306 -813 319 -275 
z
M 784 1719 
Q 784 1066 1043 766 
Q 1303 466 1694 466 
Q 2081 466 2343 764 
Q 2606 1063 2606 1700 
Q 2606 2309 2336 2618 
Q 2066 2928 1684 2928 
Q 1309 2928 1046 2623 
Q 784 2319 784 1719 
z
" transform="scale(0.015625)"/>
      <path id="ArialMT-29" d="M 791 -1347 
L 388 -1347 
Q 1322 153 1322 1656 
Q 1322 2244 1188 2822 
Q 1081 3291 891 3722 
Q 769 4003 388 4659 
L 791 4659 
Q 1378 3875 1659 3084 
Q 1900 2403 1900 1659 
Q 1900 816 1576 28 
Q 1253 -759 791 -1347 
z
" transform="scale(0.015625)"/>
     </defs>
     <use xlink:href="#ArialMT-28"/>
     <use xlink:href="#ArialMT-35" x="33.300781"/>
     <use xlink:href="#ArialMT-30" x="88.916016"/>
     <use xlink:href="#ArialMT-20" x="144.53125"/>
     <use xlink:href="#ArialMT-67" x="172.314453"/>
     <use xlink:href="#ArialMT-75" x="227.929688"/>
     <use xlink:href="#ArialMT-74" x="283.544922"/>
     <use xlink:href="#ArialMT-20" x="311.328125"/>
     <use xlink:href="#ArialMT-6d" x="339.111328"/>
     <use xlink:href="#ArialMT-65" x="422.412109"/>
     <use xlink:href="#ArialMT-74" x="478.027344"/>
     <use xlink:href="#ArialMT-61" x="505.810547"/>
     <use xlink:href="#ArialMT-67" x="561.425781"/>
     <use xlink:href="#ArialMT-65" x="617.041016"/>
     <use xlink:href="#ArialMT-6e" x="672.65625"/>
     <use xlink:href="#ArialMT-6f" x="728.271484"/>
     <use xlink:href="#ArialMT-6d" x="783.886719"/>
     <use xlink:href="#ArialMT-65" x="867.1875"/>
     <use xlink:href="#ArialMT-73" x="922.802734"/>
     <use xlink:href="#ArialMT-29" x="972.802734"/>
    </g>
   </g>
  </g>
 </g>
 <defs>
  <clipPath id="pa5f4790613">
   <rect x="34.691719" y="26.076656" width="127.827021" height="87.208065"/>
  </clipPath>
 </defs>
</svg>
