<?xml version="1.0" encoding="utf-8" standalone="no"?>
<!DOCTYPE svg PUBLIC "-//W3C//DTD SVG 1.1//EN"
  "http://www.w3.org/Graphics/SVG/1.1/DTD/svg11.dtd">
<svg xmlns:xlink="http://www.w3.org/1999/xlink" width="283.464567pt" height="170.07874pt" viewBox="0 0 283.464567 170.07874" xmlns="http://www.w3.org/2000/svg" version="1.1">
 <metadata>
  <rdf:RDF xmlns:dc="http://purl.org/dc/elements/1.1/" xmlns:cc="http://creativecommons.org/ns#" xmlns:rdf="http://www.w3.org/1999/02/22-rdf-syntax-ns#">
   <cc:Work>
    <dc:type rdf:resource="http://purl.org/dc/dcmitype/StillImage"/>
    <dc:date>2024-03-17T21:16:32.953152</dc:date>
    <dc:format>image/svg+xml</dc:format>
    <dc:creator>
     <cc:Agent>
      <dc:title>Matplotlib v3.8.2, https://matplotlib.org/</dc:title>
     </cc:Agent>
    </dc:creator>
   </cc:Work>
  </rdf:RDF>
 </metadata>
 <defs>
  <style type="text/css">*{stroke-linejoin: round; stroke-linecap: butt}</style>
 </defs>
 <g id="figure_1">
  <g id="patch_1">
   <path d="M 0 170.07874 
L 283.464567 170.07874 
L 283.464567 0 
L 0 0 
z
" style="fill: #ffffff"/>
  </g>
  <g id="axes_1">
   <g id="patch_2">
    <path d="M 36.74 138.55874 
L 275.904567 138.55874 
L 275.904567 19.35375 
L 36.74 19.35375 
z
" style="fill: #ffffff"/>
   </g>
   <g id="matplotlib.axis_1">
    <g id="xtick_1">
     <g id="line2d_1">
      <defs>
       <path id="m0afaa5f2ce" d="M 0 0 
L 0 3.5 
" style="stroke: #000000; stroke-width: 0.8"/>
      </defs>
      <g>
       <use xlink:href="#m0afaa5f2ce" x="47.611117" y="138.55874" style="stroke: #000000; stroke-width: 0.8"/>
      </g>
     </g>
     <g id="text_1">
      <!-- 0 -->
      <g transform="translate(45.664789 150.569209) scale(0.07 -0.07)">
       <defs>
        <path id="ArialMT-30" d="M 266 2259 
Q 266 3072 433 3567 
Q 600 4063 929 4331 
Q 1259 4600 1759 4600 
Q 2128 4600 2406 4451 
Q 2684 4303 2865 4023 
Q 3047 3744 3150 3342 
Q 3253 2941 3253 2259 
Q 3253 1453 3087 958 
Q 2922 463 2592 192 
Q 2263 -78 1759 -78 
Q 1097 -78 719 397 
Q 266 969 266 2259 
z
M 844 2259 
Q 844 1131 1108 757 
Q 1372 384 1759 384 
Q 2147 384 2411 759 
Q 2675 1134 2675 2259 
Q 2675 3391 2411 3762 
Q 2147 4134 1753 4134 
Q 1366 4134 1134 3806 
Q 844 3388 844 2259 
z
" transform="scale(0.015625)"/>
       </defs>
       <use xlink:href="#ArialMT-30"/>
      </g>
     </g>
    </g>
    <g id="xtick_2">
     <g id="line2d_2">
      <g>
       <use xlink:href="#m0afaa5f2ce" x="74.788908" y="138.55874" style="stroke: #000000; stroke-width: 0.8"/>
      </g>
     </g>
     <g id="text_2">
      <!-- 100 -->
      <g transform="translate(68.949924 150.569209) scale(0.07 -0.07)">
       <defs>
        <path id="ArialMT-31" d="M 2384 0 
L 1822 0 
L 1822 3584 
Q 1619 3391 1289 3197 
Q 959 3003 697 2906 
L 697 3450 
Q 1169 3672 1522 3987 
Q 1875 4303 2022 4600 
L 2384 4600 
L 2384 0 
z
" transform="scale(0.015625)"/>
       </defs>
       <use xlink:href="#ArialMT-31"/>
       <use xlink:href="#ArialMT-30" x="55.615234"/>
       <use xlink:href="#ArialMT-30" x="111.230469"/>
      </g>
     </g>
    </g>
    <g id="xtick_3">
     <g id="line2d_3">
      <g>
       <use xlink:href="#m0afaa5f2ce" x="101.9667" y="138.55874" style="stroke: #000000; stroke-width: 0.8"/>
      </g>
     </g>
     <g id="text_3">
      <!-- 200 -->
      <g transform="translate(96.127716 150.569209) scale(0.07 -0.07)">
       <defs>
        <path id="ArialMT-32" d="M 3222 541 
L 3222 0 
L 194 0 
Q 188 203 259 391 
Q 375 700 629 1000 
Q 884 1300 1366 1694 
Q 2113 2306 2375 2664 
Q 2638 3022 2638 3341 
Q 2638 3675 2398 3904 
Q 2159 4134 1775 4134 
Q 1369 4134 1125 3890 
Q 881 3647 878 3216 
L 300 3275 
Q 359 3922 746 4261 
Q 1134 4600 1788 4600 
Q 2447 4600 2831 4234 
Q 3216 3869 3216 3328 
Q 3216 3053 3103 2787 
Q 2991 2522 2730 2228 
Q 2469 1934 1863 1422 
Q 1356 997 1212 845 
Q 1069 694 975 541 
L 3222 541 
z
" transform="scale(0.015625)"/>
       </defs>
       <use xlink:href="#ArialMT-32"/>
       <use xlink:href="#ArialMT-30" x="55.615234"/>
       <use xlink:href="#ArialMT-30" x="111.230469"/>
      </g>
     </g>
    </g>
    <g id="xtick_4">
     <g id="line2d_4">
      <g>
       <use xlink:href="#m0afaa5f2ce" x="129.144492" y="138.55874" style="stroke: #000000; stroke-width: 0.8"/>
      </g>
     </g>
     <g id="text_4">
      <!-- 300 -->
      <g transform="translate(123.305507 150.569209) scale(0.07 -0.07)">
       <defs>
        <path id="ArialMT-33" d="M 269 1209 
L 831 1284 
Q 928 806 1161 595 
Q 1394 384 1728 384 
Q 2125 384 2398 659 
Q 2672 934 2672 1341 
Q 2672 1728 2419 1979 
Q 2166 2231 1775 2231 
Q 1616 2231 1378 2169 
L 1441 2663 
Q 1497 2656 1531 2656 
Q 1891 2656 2178 2843 
Q 2466 3031 2466 3422 
Q 2466 3731 2256 3934 
Q 2047 4138 1716 4138 
Q 1388 4138 1169 3931 
Q 950 3725 888 3313 
L 325 3413 
Q 428 3978 793 4289 
Q 1159 4600 1703 4600 
Q 2078 4600 2393 4439 
Q 2709 4278 2876 4000 
Q 3044 3722 3044 3409 
Q 3044 3113 2884 2869 
Q 2725 2625 2413 2481 
Q 2819 2388 3044 2092 
Q 3269 1797 3269 1353 
Q 3269 753 2831 336 
Q 2394 -81 1725 -81 
Q 1122 -81 723 278 
Q 325 638 269 1209 
z
" transform="scale(0.015625)"/>
       </defs>
       <use xlink:href="#ArialMT-33"/>
       <use xlink:href="#ArialMT-30" x="55.615234"/>
       <use xlink:href="#ArialMT-30" x="111.230469"/>
      </g>
     </g>
    </g>
    <g id="xtick_5">
     <g id="line2d_5">
      <g>
       <use xlink:href="#m0afaa5f2ce" x="156.322283" y="138.55874" style="stroke: #000000; stroke-width: 0.8"/>
      </g>
     </g>
     <g id="text_5">
      <!-- 400 -->
      <g transform="translate(150.483299 150.569209) scale(0.07 -0.07)">
       <defs>
        <path id="ArialMT-34" d="M 2069 0 
L 2069 1097 
L 81 1097 
L 81 1613 
L 2172 4581 
L 2631 4581 
L 2631 1613 
L 3250 1613 
L 3250 1097 
L 2631 1097 
L 2631 0 
L 2069 0 
z
M 2069 1613 
L 2069 3678 
L 634 1613 
L 2069 1613 
z
" transform="scale(0.015625)"/>
       </defs>
       <use xlink:href="#ArialMT-34"/>
       <use xlink:href="#ArialMT-30" x="55.615234"/>
       <use xlink:href="#ArialMT-30" x="111.230469"/>
      </g>
     </g>
    </g>
    <g id="xtick_6">
     <g id="line2d_6">
      <g>
       <use xlink:href="#m0afaa5f2ce" x="183.500075" y="138.55874" style="stroke: #000000; stroke-width: 0.8"/>
      </g>
     </g>
     <g id="text_6">
      <!-- 500 -->
      <g transform="translate(177.661091 150.569209) scale(0.07 -0.07)">
       <defs>
        <path id="ArialMT-35" d="M 266 1200 
L 856 1250 
Q 922 819 1161 601 
Q 1400 384 1738 384 
Q 2144 384 2425 690 
Q 2706 997 2706 1503 
Q 2706 1984 2436 2262 
Q 2166 2541 1728 2541 
Q 1456 2541 1237 2417 
Q 1019 2294 894 2097 
L 366 2166 
L 809 4519 
L 3088 4519 
L 3088 3981 
L 1259 3981 
L 1013 2750 
Q 1425 3038 1878 3038 
Q 2478 3038 2890 2622 
Q 3303 2206 3303 1553 
Q 3303 931 2941 478 
Q 2500 -78 1738 -78 
Q 1113 -78 717 272 
Q 322 622 266 1200 
z
" transform="scale(0.015625)"/>
       </defs>
       <use xlink:href="#ArialMT-35"/>
       <use xlink:href="#ArialMT-30" x="55.615234"/>
       <use xlink:href="#ArialMT-30" x="111.230469"/>
      </g>
     </g>
    </g>
    <g id="xtick_7">
     <g id="line2d_7">
      <g>
       <use xlink:href="#m0afaa5f2ce" x="210.677867" y="138.55874" style="stroke: #000000; stroke-width: 0.8"/>
      </g>
     </g>
     <g id="text_7">
      <!-- 600 -->
      <g transform="translate(204.838882 150.569209) scale(0.07 -0.07)">
       <defs>
        <path id="ArialMT-36" d="M 3184 3459 
L 2625 3416 
Q 2550 3747 2413 3897 
Q 2184 4138 1850 4138 
Q 1581 4138 1378 3988 
Q 1113 3794 959 3422 
Q 806 3050 800 2363 
Q 1003 2672 1297 2822 
Q 1591 2972 1913 2972 
Q 2475 2972 2870 2558 
Q 3266 2144 3266 1488 
Q 3266 1056 3080 686 
Q 2894 316 2569 119 
Q 2244 -78 1831 -78 
Q 1128 -78 684 439 
Q 241 956 241 2144 
Q 241 3472 731 4075 
Q 1159 4600 1884 4600 
Q 2425 4600 2770 4297 
Q 3116 3994 3184 3459 
z
M 888 1484 
Q 888 1194 1011 928 
Q 1134 663 1356 523 
Q 1578 384 1822 384 
Q 2178 384 2434 671 
Q 2691 959 2691 1453 
Q 2691 1928 2437 2201 
Q 2184 2475 1800 2475 
Q 1419 2475 1153 2201 
Q 888 1928 888 1484 
z
" transform="scale(0.015625)"/>
       </defs>
       <use xlink:href="#ArialMT-36"/>
       <use xlink:href="#ArialMT-30" x="55.615234"/>
       <use xlink:href="#ArialMT-30" x="111.230469"/>
      </g>
     </g>
    </g>
    <g id="xtick_8">
     <g id="line2d_8">
      <g>
       <use xlink:href="#m0afaa5f2ce" x="237.855659" y="138.55874" style="stroke: #000000; stroke-width: 0.8"/>
      </g>
     </g>
     <g id="text_8">
      <!-- 700 -->
      <g transform="translate(232.016674 150.569209) scale(0.07 -0.07)">
       <defs>
        <path id="ArialMT-37" d="M 303 3981 
L 303 4522 
L 3269 4522 
L 3269 4084 
Q 2831 3619 2401 2847 
Q 1972 2075 1738 1259 
Q 1569 684 1522 0 
L 944 0 
Q 953 541 1156 1306 
Q 1359 2072 1739 2783 
Q 2119 3494 2547 3981 
L 303 3981 
z
" transform="scale(0.015625)"/>
       </defs>
       <use xlink:href="#ArialMT-37"/>
       <use xlink:href="#ArialMT-30" x="55.615234"/>
       <use xlink:href="#ArialMT-30" x="111.230469"/>
      </g>
     </g>
    </g>
    <g id="xtick_9">
     <g id="line2d_9">
      <g>
       <use xlink:href="#m0afaa5f2ce" x="265.03345" y="138.55874" style="stroke: #000000; stroke-width: 0.8"/>
      </g>
     </g>
     <g id="text_9">
      <!-- 800 -->
      <g transform="translate(259.194466 150.569209) scale(0.07 -0.07)">
       <defs>
        <path id="ArialMT-38" d="M 1131 2484 
Q 781 2613 612 2850 
Q 444 3088 444 3419 
Q 444 3919 803 4259 
Q 1163 4600 1759 4600 
Q 2359 4600 2725 4251 
Q 3091 3903 3091 3403 
Q 3091 3084 2923 2848 
Q 2756 2613 2416 2484 
Q 2838 2347 3058 2040 
Q 3278 1734 3278 1309 
Q 3278 722 2862 322 
Q 2447 -78 1769 -78 
Q 1091 -78 675 323 
Q 259 725 259 1325 
Q 259 1772 486 2073 
Q 713 2375 1131 2484 
z
M 1019 3438 
Q 1019 3113 1228 2906 
Q 1438 2700 1772 2700 
Q 2097 2700 2305 2904 
Q 2513 3109 2513 3406 
Q 2513 3716 2298 3927 
Q 2084 4138 1766 4138 
Q 1444 4138 1231 3931 
Q 1019 3725 1019 3438 
z
M 838 1322 
Q 838 1081 952 856 
Q 1066 631 1291 507 
Q 1516 384 1775 384 
Q 2178 384 2440 643 
Q 2703 903 2703 1303 
Q 2703 1709 2433 1975 
Q 2163 2241 1756 2241 
Q 1359 2241 1098 1978 
Q 838 1716 838 1322 
z
" transform="scale(0.015625)"/>
       </defs>
       <use xlink:href="#ArialMT-38"/>
       <use xlink:href="#ArialMT-30" x="55.615234"/>
       <use xlink:href="#ArialMT-30" x="111.230469"/>
      </g>
     </g>
    </g>
    <g id="text_10">
     <!-- MetaPhlAn4/mOTUs3 species detected -->
     <g transform="translate(95.04658 161.060615) scale(0.07 -0.07)">
      <defs>
       <path id="ArialMT-4d" d="M 475 0 
L 475 4581 
L 1388 4581 
L 2472 1338 
Q 2622 884 2691 659 
Q 2769 909 2934 1394 
L 4031 4581 
L 4847 4581 
L 4847 0 
L 4263 0 
L 4263 3834 
L 2931 0 
L 2384 0 
L 1059 3900 
L 1059 0 
L 475 0 
z
" transform="scale(0.015625)"/>
       <path id="ArialMT-65" d="M 2694 1069 
L 3275 997 
Q 3138 488 2766 206 
Q 2394 -75 1816 -75 
Q 1088 -75 661 373 
Q 234 822 234 1631 
Q 234 2469 665 2931 
Q 1097 3394 1784 3394 
Q 2450 3394 2872 2941 
Q 3294 2488 3294 1666 
Q 3294 1616 3291 1516 
L 816 1516 
Q 847 969 1125 678 
Q 1403 388 1819 388 
Q 2128 388 2347 550 
Q 2566 713 2694 1069 
z
M 847 1978 
L 2700 1978 
Q 2663 2397 2488 2606 
Q 2219 2931 1791 2931 
Q 1403 2931 1139 2672 
Q 875 2413 847 1978 
z
" transform="scale(0.015625)"/>
       <path id="ArialMT-74" d="M 1650 503 
L 1731 6 
Q 1494 -44 1306 -44 
Q 1000 -44 831 53 
Q 663 150 594 308 
Q 525 466 525 972 
L 525 2881 
L 113 2881 
L 113 3319 
L 525 3319 
L 525 4141 
L 1084 4478 
L 1084 3319 
L 1650 3319 
L 1650 2881 
L 1084 2881 
L 1084 941 
Q 1084 700 1114 631 
Q 1144 563 1211 522 
Q 1278 481 1403 481 
Q 1497 481 1650 503 
z
" transform="scale(0.015625)"/>
       <path id="ArialMT-61" d="M 2588 409 
Q 2275 144 1986 34 
Q 1697 -75 1366 -75 
Q 819 -75 525 192 
Q 231 459 231 875 
Q 231 1119 342 1320 
Q 453 1522 633 1644 
Q 813 1766 1038 1828 
Q 1203 1872 1538 1913 
Q 2219 1994 2541 2106 
Q 2544 2222 2544 2253 
Q 2544 2597 2384 2738 
Q 2169 2928 1744 2928 
Q 1347 2928 1158 2789 
Q 969 2650 878 2297 
L 328 2372 
Q 403 2725 575 2942 
Q 747 3159 1072 3276 
Q 1397 3394 1825 3394 
Q 2250 3394 2515 3294 
Q 2781 3194 2906 3042 
Q 3031 2891 3081 2659 
Q 3109 2516 3109 2141 
L 3109 1391 
Q 3109 606 3145 398 
Q 3181 191 3288 0 
L 2700 0 
Q 2613 175 2588 409 
z
M 2541 1666 
Q 2234 1541 1622 1453 
Q 1275 1403 1131 1340 
Q 988 1278 909 1158 
Q 831 1038 831 891 
Q 831 666 1001 516 
Q 1172 366 1500 366 
Q 1825 366 2078 508 
Q 2331 650 2450 897 
Q 2541 1088 2541 1459 
L 2541 1666 
z
" transform="scale(0.015625)"/>
       <path id="ArialMT-50" d="M 494 0 
L 494 4581 
L 2222 4581 
Q 2678 4581 2919 4538 
Q 3256 4481 3484 4323 
Q 3713 4166 3852 3881 
Q 3991 3597 3991 3256 
Q 3991 2672 3619 2267 
Q 3247 1863 2275 1863 
L 1100 1863 
L 1100 0 
L 494 0 
z
M 1100 2403 
L 2284 2403 
Q 2872 2403 3119 2622 
Q 3366 2841 3366 3238 
Q 3366 3525 3220 3729 
Q 3075 3934 2838 4000 
Q 2684 4041 2272 4041 
L 1100 4041 
L 1100 2403 
z
" transform="scale(0.015625)"/>
       <path id="ArialMT-68" d="M 422 0 
L 422 4581 
L 984 4581 
L 984 2938 
Q 1378 3394 1978 3394 
Q 2347 3394 2619 3248 
Q 2891 3103 3008 2847 
Q 3125 2591 3125 2103 
L 3125 0 
L 2563 0 
L 2563 2103 
Q 2563 2525 2380 2717 
Q 2197 2909 1863 2909 
Q 1613 2909 1392 2779 
Q 1172 2650 1078 2428 
Q 984 2206 984 1816 
L 984 0 
L 422 0 
z
" transform="scale(0.015625)"/>
       <path id="ArialMT-6c" d="M 409 0 
L 409 4581 
L 972 4581 
L 972 0 
L 409 0 
z
" transform="scale(0.015625)"/>
       <path id="ArialMT-41" d="M -9 0 
L 1750 4581 
L 2403 4581 
L 4278 0 
L 3588 0 
L 3053 1388 
L 1138 1388 
L 634 0 
L -9 0 
z
M 1313 1881 
L 2866 1881 
L 2388 3150 
Q 2169 3728 2063 4100 
Q 1975 3659 1816 3225 
L 1313 1881 
z
" transform="scale(0.015625)"/>
       <path id="ArialMT-6e" d="M 422 0 
L 422 3319 
L 928 3319 
L 928 2847 
Q 1294 3394 1984 3394 
Q 2284 3394 2536 3286 
Q 2788 3178 2913 3003 
Q 3038 2828 3088 2588 
Q 3119 2431 3119 2041 
L 3119 0 
L 2556 0 
L 2556 2019 
Q 2556 2363 2490 2533 
Q 2425 2703 2258 2804 
Q 2091 2906 1866 2906 
Q 1506 2906 1245 2678 
Q 984 2450 984 1813 
L 984 0 
L 422 0 
z
" transform="scale(0.015625)"/>
       <path id="ArialMT-2f" d="M 0 -78 
L 1328 4659 
L 1778 4659 
L 453 -78 
L 0 -78 
z
" transform="scale(0.015625)"/>
       <path id="ArialMT-6d" d="M 422 0 
L 422 3319 
L 925 3319 
L 925 2853 
Q 1081 3097 1340 3245 
Q 1600 3394 1931 3394 
Q 2300 3394 2536 3241 
Q 2772 3088 2869 2813 
Q 3263 3394 3894 3394 
Q 4388 3394 4653 3120 
Q 4919 2847 4919 2278 
L 4919 0 
L 4359 0 
L 4359 2091 
Q 4359 2428 4304 2576 
Q 4250 2725 4106 2815 
Q 3963 2906 3769 2906 
Q 3419 2906 3187 2673 
Q 2956 2441 2956 1928 
L 2956 0 
L 2394 0 
L 2394 2156 
Q 2394 2531 2256 2718 
Q 2119 2906 1806 2906 
Q 1569 2906 1367 2781 
Q 1166 2656 1075 2415 
Q 984 2175 984 1722 
L 984 0 
L 422 0 
z
" transform="scale(0.015625)"/>
       <path id="ArialMT-4f" d="M 309 2231 
Q 309 3372 921 4017 
Q 1534 4663 2503 4663 
Q 3138 4663 3647 4359 
Q 4156 4056 4423 3514 
Q 4691 2972 4691 2284 
Q 4691 1588 4409 1038 
Q 4128 488 3612 205 
Q 3097 -78 2500 -78 
Q 1853 -78 1343 234 
Q 834 547 571 1087 
Q 309 1628 309 2231 
z
M 934 2222 
Q 934 1394 1379 917 
Q 1825 441 2497 441 
Q 3181 441 3623 922 
Q 4066 1403 4066 2288 
Q 4066 2847 3877 3264 
Q 3688 3681 3323 3911 
Q 2959 4141 2506 4141 
Q 1863 4141 1398 3698 
Q 934 3256 934 2222 
z
" transform="scale(0.015625)"/>
       <path id="ArialMT-54" d="M 1659 0 
L 1659 4041 
L 150 4041 
L 150 4581 
L 3781 4581 
L 3781 4041 
L 2266 4041 
L 2266 0 
L 1659 0 
z
" transform="scale(0.015625)"/>
       <path id="ArialMT-55" d="M 3500 4581 
L 4106 4581 
L 4106 1934 
Q 4106 1244 3950 837 
Q 3794 431 3386 176 
Q 2978 -78 2316 -78 
Q 1672 -78 1262 144 
Q 853 366 678 786 
Q 503 1206 503 1934 
L 503 4581 
L 1109 4581 
L 1109 1938 
Q 1109 1341 1220 1058 
Q 1331 775 1601 622 
Q 1872 469 2263 469 
Q 2931 469 3215 772 
Q 3500 1075 3500 1938 
L 3500 4581 
z
" transform="scale(0.015625)"/>
       <path id="ArialMT-73" d="M 197 991 
L 753 1078 
Q 800 744 1014 566 
Q 1228 388 1613 388 
Q 2000 388 2187 545 
Q 2375 703 2375 916 
Q 2375 1106 2209 1216 
Q 2094 1291 1634 1406 
Q 1016 1563 777 1677 
Q 538 1791 414 1992 
Q 291 2194 291 2438 
Q 291 2659 392 2848 
Q 494 3038 669 3163 
Q 800 3259 1026 3326 
Q 1253 3394 1513 3394 
Q 1903 3394 2198 3281 
Q 2494 3169 2634 2976 
Q 2775 2784 2828 2463 
L 2278 2388 
Q 2241 2644 2061 2787 
Q 1881 2931 1553 2931 
Q 1166 2931 1000 2803 
Q 834 2675 834 2503 
Q 834 2394 903 2306 
Q 972 2216 1119 2156 
Q 1203 2125 1616 2013 
Q 2213 1853 2448 1751 
Q 2684 1650 2818 1456 
Q 2953 1263 2953 975 
Q 2953 694 2789 445 
Q 2625 197 2315 61 
Q 2006 -75 1616 -75 
Q 969 -75 630 194 
Q 291 463 197 991 
z
" transform="scale(0.015625)"/>
       <path id="ArialMT-20" transform="scale(0.015625)"/>
       <path id="ArialMT-70" d="M 422 -1272 
L 422 3319 
L 934 3319 
L 934 2888 
Q 1116 3141 1344 3267 
Q 1572 3394 1897 3394 
Q 2322 3394 2647 3175 
Q 2972 2956 3137 2557 
Q 3303 2159 3303 1684 
Q 3303 1175 3120 767 
Q 2938 359 2589 142 
Q 2241 -75 1856 -75 
Q 1575 -75 1351 44 
Q 1128 163 984 344 
L 984 -1272 
L 422 -1272 
z
M 931 1641 
Q 931 1000 1190 694 
Q 1450 388 1819 388 
Q 2194 388 2461 705 
Q 2728 1022 2728 1688 
Q 2728 2322 2467 2637 
Q 2206 2953 1844 2953 
Q 1484 2953 1207 2617 
Q 931 2281 931 1641 
z
" transform="scale(0.015625)"/>
       <path id="ArialMT-63" d="M 2588 1216 
L 3141 1144 
Q 3050 572 2676 248 
Q 2303 -75 1759 -75 
Q 1078 -75 664 370 
Q 250 816 250 1647 
Q 250 2184 428 2587 
Q 606 2991 970 3192 
Q 1334 3394 1763 3394 
Q 2303 3394 2647 3120 
Q 2991 2847 3088 2344 
L 2541 2259 
Q 2463 2594 2264 2762 
Q 2066 2931 1784 2931 
Q 1359 2931 1093 2626 
Q 828 2322 828 1663 
Q 828 994 1084 691 
Q 1341 388 1753 388 
Q 2084 388 2306 591 
Q 2528 794 2588 1216 
z
" transform="scale(0.015625)"/>
       <path id="ArialMT-69" d="M 425 3934 
L 425 4581 
L 988 4581 
L 988 3934 
L 425 3934 
z
M 425 0 
L 425 3319 
L 988 3319 
L 988 0 
L 425 0 
z
" transform="scale(0.015625)"/>
       <path id="ArialMT-64" d="M 2575 0 
L 2575 419 
Q 2259 -75 1647 -75 
Q 1250 -75 917 144 
Q 584 363 401 755 
Q 219 1147 219 1656 
Q 219 2153 384 2558 
Q 550 2963 881 3178 
Q 1213 3394 1622 3394 
Q 1922 3394 2156 3267 
Q 2391 3141 2538 2938 
L 2538 4581 
L 3097 4581 
L 3097 0 
L 2575 0 
z
M 797 1656 
Q 797 1019 1065 703 
Q 1334 388 1700 388 
Q 2069 388 2326 689 
Q 2584 991 2584 1609 
Q 2584 2291 2321 2609 
Q 2059 2928 1675 2928 
Q 1300 2928 1048 2622 
Q 797 2316 797 1656 
z
" transform="scale(0.015625)"/>
      </defs>
      <use xlink:href="#ArialMT-4d"/>
      <use xlink:href="#ArialMT-65" x="83.300781"/>
      <use xlink:href="#ArialMT-74" x="138.916016"/>
      <use xlink:href="#ArialMT-61" x="166.699219"/>
      <use xlink:href="#ArialMT-50" x="222.314453"/>
      <use xlink:href="#ArialMT-68" x="289.013672"/>
      <use xlink:href="#ArialMT-6c" x="344.628906"/>
      <use xlink:href="#ArialMT-41" x="366.845703"/>
      <use xlink:href="#ArialMT-6e" x="433.544922"/>
      <use xlink:href="#ArialMT-34" x="489.160156"/>
      <use xlink:href="#ArialMT-2f" x="544.775391"/>
      <use xlink:href="#ArialMT-6d" x="572.558594"/>
      <use xlink:href="#ArialMT-4f" x="655.859375"/>
      <use xlink:href="#ArialMT-54" x="733.642578"/>
      <use xlink:href="#ArialMT-55" x="794.726562"/>
      <use xlink:href="#ArialMT-73" x="866.943359"/>
      <use xlink:href="#ArialMT-33" x="916.943359"/>
      <use xlink:href="#ArialMT-20" x="972.558594"/>
      <use xlink:href="#ArialMT-73" x="1000.341797"/>
      <use xlink:href="#ArialMT-70" x="1050.341797"/>
      <use xlink:href="#ArialMT-65" x="1105.957031"/>
      <use xlink:href="#ArialMT-63" x="1161.572266"/>
      <use xlink:href="#ArialMT-69" x="1211.572266"/>
      <use xlink:href="#ArialMT-65" x="1233.789062"/>
      <use xlink:href="#ArialMT-73" x="1289.404297"/>
      <use xlink:href="#ArialMT-20" x="1339.404297"/>
      <use xlink:href="#ArialMT-64" x="1367.1875"/>
      <use xlink:href="#ArialMT-65" x="1422.802734"/>
      <use xlink:href="#ArialMT-74" x="1478.417969"/>
      <use xlink:href="#ArialMT-65" x="1506.201172"/>
      <use xlink:href="#ArialMT-63" x="1561.816406"/>
      <use xlink:href="#ArialMT-74" x="1611.816406"/>
      <use xlink:href="#ArialMT-65" x="1639.599609"/>
      <use xlink:href="#ArialMT-64" x="1695.214844"/>
     </g>
    </g>
   </g>
   <g id="matplotlib.axis_2">
    <g id="ytick_1">
     <g id="line2d_10">
      <defs>
       <path id="m3a172de6b6" d="M 0 0 
L -3.5 0 
" style="stroke: #000000; stroke-width: 0.8"/>
      </defs>
      <g>
       <use xlink:href="#m3a172de6b6" x="36.74" y="133.140332" style="stroke: #000000; stroke-width: 0.8"/>
      </g>
     </g>
     <g id="text_11">
      <!-- 0 -->
      <g transform="translate(25.847344 135.645566) scale(0.07 -0.07)">
       <use xlink:href="#ArialMT-30"/>
      </g>
     </g>
    </g>
    <g id="ytick_2">
     <g id="line2d_11">
      <g>
       <use xlink:href="#m3a172de6b6" x="36.74" y="106.048288" style="stroke: #000000; stroke-width: 0.8"/>
      </g>
     </g>
     <g id="text_12">
      <!-- 200 -->
      <g transform="translate(18.062031 108.553523) scale(0.07 -0.07)">
       <use xlink:href="#ArialMT-32"/>
       <use xlink:href="#ArialMT-30" x="55.615234"/>
       <use xlink:href="#ArialMT-30" x="111.230469"/>
      </g>
     </g>
    </g>
    <g id="ytick_3">
     <g id="line2d_12">
      <g>
       <use xlink:href="#m3a172de6b6" x="36.74" y="78.956245" style="stroke: #000000; stroke-width: 0.8"/>
      </g>
     </g>
     <g id="text_13">
      <!-- 400 -->
      <g transform="translate(18.062031 81.461479) scale(0.07 -0.07)">
       <use xlink:href="#ArialMT-34"/>
       <use xlink:href="#ArialMT-30" x="55.615234"/>
       <use xlink:href="#ArialMT-30" x="111.230469"/>
      </g>
     </g>
    </g>
    <g id="ytick_4">
     <g id="line2d_13">
      <g>
       <use xlink:href="#m3a172de6b6" x="36.74" y="51.864202" style="stroke: #000000; stroke-width: 0.8"/>
      </g>
     </g>
     <g id="text_14">
      <!-- 600 -->
      <g transform="translate(18.062031 54.369436) scale(0.07 -0.07)">
       <use xlink:href="#ArialMT-36"/>
       <use xlink:href="#ArialMT-30" x="55.615234"/>
       <use xlink:href="#ArialMT-30" x="111.230469"/>
      </g>
     </g>
    </g>
    <g id="ytick_5">
     <g id="line2d_14">
      <g>
       <use xlink:href="#m3a172de6b6" x="36.74" y="24.772159" style="stroke: #000000; stroke-width: 0.8"/>
      </g>
     </g>
     <g id="text_15">
      <!-- 800 -->
      <g transform="translate(18.062031 27.277393) scale(0.07 -0.07)">
       <use xlink:href="#ArialMT-38"/>
       <use xlink:href="#ArialMT-30" x="55.615234"/>
       <use xlink:href="#ArialMT-30" x="111.230469"/>
      </g>
     </g>
    </g>
    <g id="text_16">
     <!-- sylph species detected -->
     <g transform="translate(12.58875 114.364214) rotate(-90) scale(0.07 -0.07)">
      <defs>
       <path id="ArialMT-79" d="M 397 -1278 
L 334 -750 
Q 519 -800 656 -800 
Q 844 -800 956 -737 
Q 1069 -675 1141 -563 
Q 1194 -478 1313 -144 
Q 1328 -97 1363 -6 
L 103 3319 
L 709 3319 
L 1400 1397 
Q 1534 1031 1641 628 
Q 1738 1016 1872 1384 
L 2581 3319 
L 3144 3319 
L 1881 -56 
Q 1678 -603 1566 -809 
Q 1416 -1088 1222 -1217 
Q 1028 -1347 759 -1347 
Q 597 -1347 397 -1278 
z
" transform="scale(0.015625)"/>
      </defs>
      <use xlink:href="#ArialMT-73"/>
      <use xlink:href="#ArialMT-79" x="50"/>
      <use xlink:href="#ArialMT-6c" x="100"/>
      <use xlink:href="#ArialMT-70" x="122.216797"/>
      <use xlink:href="#ArialMT-68" x="177.832031"/>
      <use xlink:href="#ArialMT-20" x="233.447266"/>
      <use xlink:href="#ArialMT-73" x="261.230469"/>
      <use xlink:href="#ArialMT-70" x="311.230469"/>
      <use xlink:href="#ArialMT-65" x="366.845703"/>
      <use xlink:href="#ArialMT-63" x="422.460938"/>
      <use xlink:href="#ArialMT-69" x="472.460938"/>
      <use xlink:href="#ArialMT-65" x="494.677734"/>
      <use xlink:href="#ArialMT-73" x="550.292969"/>
      <use xlink:href="#ArialMT-20" x="600.292969"/>
      <use xlink:href="#ArialMT-64" x="628.076172"/>
      <use xlink:href="#ArialMT-65" x="683.691406"/>
      <use xlink:href="#ArialMT-74" x="739.306641"/>
      <use xlink:href="#ArialMT-65" x="767.089844"/>
      <use xlink:href="#ArialMT-63" x="822.705078"/>
      <use xlink:href="#ArialMT-74" x="872.705078"/>
      <use xlink:href="#ArialMT-65" x="900.488281"/>
      <use xlink:href="#ArialMT-64" x="956.103516"/>
     </g>
    </g>
   </g>
   <g id="line2d_15">
    <defs>
     <path id="m77b0eefd53" d="M -1.5 1.5 
L 1.5 -1.5 
M -1.5 -1.5 
L 1.5 1.5 
" style="stroke: #0000ff"/>
    </defs>
    <g clip-path="url(#pb7042ff6ce)">
     <use xlink:href="#m77b0eefd53" x="79.137355" y="125.148179" style="fill: #0000ff; stroke: #0000ff"/>
    </g>
   </g>
   <g id="line2d_16">
    <g clip-path="url(#pb7042ff6ce)">
     <use xlink:href="#m77b0eefd53" x="96.259364" y="115.665964" style="fill: #0000ff; stroke: #0000ff"/>
    </g>
   </g>
   <g id="line2d_17">
    <g clip-path="url(#pb7042ff6ce)">
     <use xlink:href="#m77b0eefd53" x="117.729819" y="101.713561" style="fill: #0000ff; stroke: #0000ff"/>
    </g>
   </g>
   <g id="line2d_18">
    <g clip-path="url(#pb7042ff6ce)">
     <use xlink:href="#m77b0eefd53" x="137.569607" y="94.263249" style="fill: #0000ff; stroke: #0000ff"/>
    </g>
   </g>
   <g id="line2d_19">
    <g clip-path="url(#pb7042ff6ce)">
     <use xlink:href="#m77b0eefd53" x="118.816931" y="102.526323" style="fill: #0000ff; stroke: #0000ff"/>
    </g>
   </g>
   <g id="line2d_20">
    <g clip-path="url(#pb7042ff6ce)">
     <use xlink:href="#m77b0eefd53" x="123.708933" y="100.358959" style="fill: #0000ff; stroke: #0000ff"/>
    </g>
   </g>
   <g id="line2d_21">
    <g clip-path="url(#pb7042ff6ce)">
     <use xlink:href="#m77b0eefd53" x="61.743568" y="128.670144" style="fill: #0000ff; stroke: #0000ff"/>
    </g>
   </g>
   <g id="line2d_22">
    <g clip-path="url(#pb7042ff6ce)">
     <use xlink:href="#m77b0eefd53" x="63.374236" y="126.502781" style="fill: #0000ff; stroke: #0000ff"/>
    </g>
   </g>
   <g id="line2d_23">
    <g clip-path="url(#pb7042ff6ce)">
     <use xlink:href="#m77b0eefd53" x="96.531142" y="117.020566" style="fill: #0000ff; stroke: #0000ff"/>
    </g>
   </g>
   <g id="line2d_24">
    <g clip-path="url(#pb7042ff6ce)">
     <use xlink:href="#m77b0eefd53" x="64.18957" y="125.554559" style="fill: #0000ff; stroke: #0000ff"/>
    </g>
   </g>
   <g id="line2d_25">
    <g clip-path="url(#pb7042ff6ce)">
     <use xlink:href="#m77b0eefd53" x="128.05738" y="95.617852" style="fill: #0000ff; stroke: #0000ff"/>
    </g>
   </g>
   <g id="line2d_26">
    <g clip-path="url(#pb7042ff6ce)">
     <use xlink:href="#m77b0eefd53" x="109.84826" y="109.163873" style="fill: #0000ff; stroke: #0000ff"/>
    </g>
   </g>
   <g id="line2d_27">
    <g clip-path="url(#pb7042ff6ce)">
     <use xlink:href="#m77b0eefd53" x="135.667162" y="95.753312" style="fill: #0000ff; stroke: #0000ff"/>
    </g>
   </g>
   <g id="line2d_28">
    <g clip-path="url(#pb7042ff6ce)">
     <use xlink:href="#m77b0eefd53" x="79.952689" y="118.104248" style="fill: #0000ff; stroke: #0000ff"/>
    </g>
   </g>
   <g id="line2d_29">
    <g clip-path="url(#pb7042ff6ce)">
     <use xlink:href="#m77b0eefd53" x="87.56247" y="116.749645" style="fill: #0000ff; stroke: #0000ff"/>
    </g>
   </g>
   <g id="line2d_30">
    <g clip-path="url(#pb7042ff6ce)">
     <use xlink:href="#m77b0eefd53" x="91.367361" y="113.36314" style="fill: #0000ff; stroke: #0000ff"/>
    </g>
   </g>
   <g id="line2d_31">
    <g clip-path="url(#pb7042ff6ce)">
     <use xlink:href="#m77b0eefd53" x="66.363793" y="125.82548" style="fill: #0000ff; stroke: #0000ff"/>
    </g>
   </g>
   <g id="line2d_32">
    <g clip-path="url(#pb7042ff6ce)">
     <use xlink:href="#m77b0eefd53" x="73.158241" y="122.980815" style="fill: #0000ff; stroke: #0000ff"/>
    </g>
   </g>
   <g id="line2d_33">
    <g clip-path="url(#pb7042ff6ce)">
     <use xlink:href="#m77b0eefd53" x="65.004903" y="126.502781" style="fill: #0000ff; stroke: #0000ff"/>
    </g>
   </g>
   <g id="line2d_34">
    <g clip-path="url(#pb7042ff6ce)">
     <use xlink:href="#m77b0eefd53" x="91.095583" y="117.020566" style="fill: #0000ff; stroke: #0000ff"/>
    </g>
   </g>
   <g id="line2d_35">
    <g clip-path="url(#pb7042ff6ce)">
     <use xlink:href="#m77b0eefd53" x="50.872452" y="131.650269" style="fill: #0000ff; stroke: #0000ff"/>
    </g>
   </g>
   <g id="line2d_36">
    <g clip-path="url(#pb7042ff6ce)">
     <use xlink:href="#m77b0eefd53" x="53.862009" y="131.108428" style="fill: #0000ff; stroke: #0000ff"/>
    </g>
   </g>
   <g id="line2d_37">
    <g clip-path="url(#pb7042ff6ce)">
     <use xlink:href="#m77b0eefd53" x="73.158241" y="123.522656" style="fill: #0000ff; stroke: #0000ff"/>
    </g>
   </g>
   <g id="line2d_38">
    <g clip-path="url(#pb7042ff6ce)">
     <use xlink:href="#m77b0eefd53" x="52.503119" y="131.108428" style="fill: #0000ff; stroke: #0000ff"/>
    </g>
   </g>
   <g id="line2d_39">
    <g clip-path="url(#pb7042ff6ce)">
     <use xlink:href="#m77b0eefd53" x="94.900474" y="112.956759" style="fill: #0000ff; stroke: #0000ff"/>
    </g>
   </g>
   <g id="line2d_40">
    <g clip-path="url(#pb7042ff6ce)">
     <use xlink:href="#m77b0eefd53" x="81.311578" y="119.59431" style="fill: #0000ff; stroke: #0000ff"/>
    </g>
   </g>
   <g id="line2d_41">
    <g clip-path="url(#pb7042ff6ce)">
     <use xlink:href="#m77b0eefd53" x="94.628696" y="113.904981" style="fill: #0000ff; stroke: #0000ff"/>
    </g>
   </g>
   <g id="line2d_42">
    <g clip-path="url(#pb7042ff6ce)">
     <use xlink:href="#m77b0eefd53" x="111.750705" y="99.139817" style="fill: #0000ff; stroke: #0000ff"/>
    </g>
   </g>
   <g id="line2d_43">
    <g clip-path="url(#pb7042ff6ce)">
     <use xlink:href="#m77b0eefd53" x="154.14806" y="85.458335" style="fill: #0000ff; stroke: #0000ff"/>
    </g>
   </g>
   <g id="line2d_44">
    <g clip-path="url(#pb7042ff6ce)">
     <use xlink:href="#m77b0eefd53" x="111.207149" y="105.641908" style="fill: #0000ff; stroke: #0000ff"/>
    </g>
   </g>
   <g id="line2d_45">
    <g clip-path="url(#pb7042ff6ce)">
     <use xlink:href="#m77b0eefd53" x="63.646014" y="126.638241" style="fill: #0000ff; stroke: #0000ff"/>
    </g>
   </g>
   <g id="line2d_46">
    <g clip-path="url(#pb7042ff6ce)">
     <use xlink:href="#m77b0eefd53" x="78.050243" y="119.052469" style="fill: #0000ff; stroke: #0000ff"/>
    </g>
   </g>
   <g id="line2d_47">
    <g clip-path="url(#pb7042ff6ce)">
     <use xlink:href="#m77b0eefd53" x="83.485802" y="118.917009" style="fill: #0000ff; stroke: #0000ff"/>
    </g>
   </g>
   <g id="line2d_48">
    <g clip-path="url(#pb7042ff6ce)">
     <use xlink:href="#m77b0eefd53" x="118.001597" y="97.649755" style="fill: #0000ff; stroke: #0000ff"/>
    </g>
   </g>
   <g id="line2d_49">
    <g clip-path="url(#pb7042ff6ce)">
     <use xlink:href="#m77b0eefd53" x="139.743831" y="86.135637" style="fill: #0000ff; stroke: #0000ff"/>
    </g>
   </g>
   <g id="line2d_50">
    <g clip-path="url(#pb7042ff6ce)">
     <use xlink:href="#m77b0eefd53" x="102.782034" y="108.080192" style="fill: #0000ff; stroke: #0000ff"/>
    </g>
   </g>
   <g id="line2d_51">
    <g clip-path="url(#pb7042ff6ce)">
     <use xlink:href="#m77b0eefd53" x="48.42645" y="132.733951" style="fill: #0000ff; stroke: #0000ff"/>
    </g>
   </g>
   <g id="line2d_52">
    <g clip-path="url(#pb7042ff6ce)">
     <use xlink:href="#m77b0eefd53" x="68.266238" y="124.335417" style="fill: #0000ff; stroke: #0000ff"/>
    </g>
   </g>
   <g id="line2d_53">
    <g clip-path="url(#pb7042ff6ce)">
     <use xlink:href="#m77b0eefd53" x="54.405565" y="130.160207" style="fill: #0000ff; stroke: #0000ff"/>
    </g>
   </g>
   <g id="line2d_54">
    <g clip-path="url(#pb7042ff6ce)">
     <use xlink:href="#m77b0eefd53" x="71.799351" y="124.199957" style="fill: #0000ff; stroke: #0000ff"/>
    </g>
   </g>
   <g id="line2d_55">
    <g clip-path="url(#pb7042ff6ce)">
     <use xlink:href="#m77b0eefd53" x="55.492676" y="129.889286" style="fill: #0000ff; stroke: #0000ff"/>
    </g>
   </g>
   <g id="line2d_56">
    <defs>
     <path id="m136697dc9d" d="M 0 1.5 
C 0.397805 1.5 0.77937 1.341951 1.06066 1.06066 
C 1.341951 0.77937 1.5 0.397805 1.5 0 
C 1.5 -0.397805 1.341951 -0.77937 1.06066 -1.06066 
C 0.77937 -1.341951 0.397805 -1.5 0 -1.5 
C -0.397805 -1.5 -0.77937 -1.341951 -1.06066 -1.06066 
C -1.341951 -0.77937 -1.5 -0.397805 -1.5 0 
C -1.5 0.397805 -1.341951 0.77937 -1.06066 1.06066 
C -0.77937 1.341951 -0.397805 1.5 0 1.5 
z
" style="stroke: #ff0000"/>
    </defs>
    <g clip-path="url(#pb7042ff6ce)">
     <use xlink:href="#m136697dc9d" x="74.51713" y="125.148179" style="fill: #ff0000; stroke: #ff0000"/>
    </g>
   </g>
   <g id="line2d_57">
    <g clip-path="url(#pb7042ff6ce)">
     <use xlink:href="#m136697dc9d" x="148.440724" y="96.972454" style="fill: #ff0000; stroke: #ff0000"/>
    </g>
   </g>
   <g id="line2d_58">
    <g clip-path="url(#pb7042ff6ce)">
     <use xlink:href="#m136697dc9d" x="146.266501" y="94.53417" style="fill: #ff0000; stroke: #ff0000"/>
    </g>
   </g>
   <g id="line2d_59">
    <g clip-path="url(#pb7042ff6ce)">
     <use xlink:href="#m136697dc9d" x="95.987586" y="115.665964" style="fill: #ff0000; stroke: #ff0000"/>
    </g>
   </g>
   <g id="line2d_60">
    <g clip-path="url(#pb7042ff6ce)">
     <use xlink:href="#m136697dc9d" x="130.503381" y="101.713561" style="fill: #ff0000; stroke: #ff0000"/>
    </g>
   </g>
   <g id="line2d_61">
    <g clip-path="url(#pb7042ff6ce)">
     <use xlink:href="#m136697dc9d" x="134.308272" y="94.263249" style="fill: #ff0000; stroke: #ff0000"/>
    </g>
   </g>
   <g id="line2d_62">
    <g clip-path="url(#pb7042ff6ce)">
     <use xlink:href="#m136697dc9d" x="113.381373" y="102.526323" style="fill: #ff0000; stroke: #ff0000"/>
    </g>
   </g>
   <g id="line2d_63">
    <g clip-path="url(#pb7042ff6ce)">
     <use xlink:href="#m136697dc9d" x="117.458041" y="100.358959" style="fill: #ff0000; stroke: #ff0000"/>
    </g>
   </g>
   <g id="line2d_64">
    <g clip-path="url(#pb7042ff6ce)">
     <use xlink:href="#m136697dc9d" x="57.395122" y="128.670144" style="fill: #ff0000; stroke: #ff0000"/>
    </g>
   </g>
   <g id="line2d_65">
    <g clip-path="url(#pb7042ff6ce)">
     <use xlink:href="#m136697dc9d" x="59.841123" y="126.502781" style="fill: #ff0000; stroke: #ff0000"/>
    </g>
   </g>
   <g id="line2d_66">
    <g clip-path="url(#pb7042ff6ce)">
     <use xlink:href="#m136697dc9d" x="91.095583" y="117.020566" style="fill: #ff0000; stroke: #ff0000"/>
    </g>
   </g>
   <g id="line2d_67">
    <g clip-path="url(#pb7042ff6ce)">
     <use xlink:href="#m136697dc9d" x="62.83068" y="125.554559" style="fill: #ff0000; stroke: #ff0000"/>
    </g>
   </g>
   <g id="line2d_68">
    <g clip-path="url(#pb7042ff6ce)">
     <use xlink:href="#m136697dc9d" x="124.252489" y="95.617852" style="fill: #ff0000; stroke: #ff0000"/>
    </g>
   </g>
   <g id="line2d_69">
    <g clip-path="url(#pb7042ff6ce)">
     <use xlink:href="#m136697dc9d" x="100.879588" y="109.163873" style="fill: #ff0000; stroke: #ff0000"/>
    </g>
   </g>
   <g id="line2d_70">
    <g clip-path="url(#pb7042ff6ce)">
     <use xlink:href="#m136697dc9d" x="135.395384" y="95.753312" style="fill: #ff0000; stroke: #ff0000"/>
    </g>
   </g>
   <g id="line2d_71">
    <g clip-path="url(#pb7042ff6ce)">
     <use xlink:href="#m136697dc9d" x="74.245353" y="118.104248" style="fill: #ff0000; stroke: #ff0000"/>
    </g>
   </g>
   <g id="line2d_72">
    <g clip-path="url(#pb7042ff6ce)">
     <use xlink:href="#m136697dc9d" x="83.214024" y="116.749645" style="fill: #ff0000; stroke: #ff0000"/>
    </g>
   </g>
   <g id="line2d_73">
    <g clip-path="url(#pb7042ff6ce)">
     <use xlink:href="#m136697dc9d" x="93.813363" y="113.36314" style="fill: #ff0000; stroke: #ff0000"/>
    </g>
   </g>
   <g id="line2d_74">
    <g clip-path="url(#pb7042ff6ce)">
     <use xlink:href="#m136697dc9d" x="61.200013" y="125.82548" style="fill: #ff0000; stroke: #ff0000"/>
    </g>
   </g>
   <g id="line2d_75">
    <g clip-path="url(#pb7042ff6ce)">
     <use xlink:href="#m136697dc9d" x="69.35335" y="122.980815" style="fill: #ff0000; stroke: #ff0000"/>
    </g>
   </g>
   <g id="line2d_76">
    <g clip-path="url(#pb7042ff6ce)">
     <use xlink:href="#m136697dc9d" x="63.374236" y="126.502781" style="fill: #ff0000; stroke: #ff0000"/>
    </g>
   </g>
   <g id="line2d_77">
    <g clip-path="url(#pb7042ff6ce)">
     <use xlink:href="#m136697dc9d" x="83.75758" y="117.020566" style="fill: #ff0000; stroke: #ff0000"/>
    </g>
   </g>
   <g id="line2d_78">
    <g clip-path="url(#pb7042ff6ce)">
     <use xlink:href="#m136697dc9d" x="49.241784" y="131.650269" style="fill: #ff0000; stroke: #ff0000"/>
    </g>
   </g>
   <g id="line2d_79">
    <g clip-path="url(#pb7042ff6ce)">
     <use xlink:href="#m136697dc9d" x="50.872452" y="131.108428" style="fill: #ff0000; stroke: #ff0000"/>
    </g>
   </g>
   <g id="line2d_80">
    <g clip-path="url(#pb7042ff6ce)">
     <use xlink:href="#m136697dc9d" x="65.820237" y="123.522656" style="fill: #ff0000; stroke: #ff0000"/>
    </g>
   </g>
   <g id="line2d_81">
    <g clip-path="url(#pb7042ff6ce)">
     <use xlink:href="#m136697dc9d" x="50.600674" y="131.108428" style="fill: #ff0000; stroke: #ff0000"/>
    </g>
   </g>
   <g id="line2d_82">
    <g clip-path="url(#pb7042ff6ce)">
     <use xlink:href="#m136697dc9d" x="92.182695" y="112.956759" style="fill: #ff0000; stroke: #ff0000"/>
    </g>
   </g>
   <g id="line2d_83">
    <g clip-path="url(#pb7042ff6ce)">
     <use xlink:href="#m136697dc9d" x="76.691354" y="119.59431" style="fill: #ff0000; stroke: #ff0000"/>
    </g>
   </g>
   <g id="line2d_84">
    <g clip-path="url(#pb7042ff6ce)">
     <use xlink:href="#m136697dc9d" x="88.92136" y="113.904981" style="fill: #ff0000; stroke: #ff0000"/>
    </g>
   </g>
   <g id="line2d_85">
    <g clip-path="url(#pb7042ff6ce)">
     <use xlink:href="#m136697dc9d" x="99.248921" y="99.139817" style="fill: #ff0000; stroke: #ff0000"/>
    </g>
   </g>
   <g id="line2d_86">
    <g clip-path="url(#pb7042ff6ce)">
     <use xlink:href="#m136697dc9d" x="152.789171" y="85.458335" style="fill: #ff0000; stroke: #ff0000"/>
    </g>
   </g>
   <g id="line2d_87">
    <g clip-path="url(#pb7042ff6ce)">
     <use xlink:href="#m136697dc9d" x="107.13048" y="105.641908" style="fill: #ff0000; stroke: #ff0000"/>
    </g>
   </g>
   <g id="line2d_88">
    <g clip-path="url(#pb7042ff6ce)">
     <use xlink:href="#m136697dc9d" x="63.917792" y="126.638241" style="fill: #ff0000; stroke: #ff0000"/>
    </g>
   </g>
   <g id="line2d_89">
    <g clip-path="url(#pb7042ff6ce)">
     <use xlink:href="#m136697dc9d" x="78.050243" y="119.052469" style="fill: #ff0000; stroke: #ff0000"/>
    </g>
   </g>
   <g id="line2d_90">
    <g clip-path="url(#pb7042ff6ce)">
     <use xlink:href="#m136697dc9d" x="77.23491" y="118.917009" style="fill: #ff0000; stroke: #ff0000"/>
    </g>
   </g>
   <g id="line2d_91">
    <g clip-path="url(#pb7042ff6ce)">
     <use xlink:href="#m136697dc9d" x="110.120038" y="97.649755" style="fill: #ff0000; stroke: #ff0000"/>
    </g>
   </g>
   <g id="line2d_92">
    <g clip-path="url(#pb7042ff6ce)">
     <use xlink:href="#m136697dc9d" x="133.764716" y="86.135637" style="fill: #ff0000; stroke: #ff0000"/>
    </g>
   </g>
   <g id="line2d_93">
    <g clip-path="url(#pb7042ff6ce)">
     <use xlink:href="#m136697dc9d" x="99.792477" y="108.080192" style="fill: #ff0000; stroke: #ff0000"/>
    </g>
   </g>
   <g id="line2d_94">
    <g clip-path="url(#pb7042ff6ce)">
     <use xlink:href="#m136697dc9d" x="48.42645" y="132.733951" style="fill: #ff0000; stroke: #ff0000"/>
    </g>
   </g>
   <g id="line2d_95">
    <g clip-path="url(#pb7042ff6ce)">
     <use xlink:href="#m136697dc9d" x="64.733125" y="124.335417" style="fill: #ff0000; stroke: #ff0000"/>
    </g>
   </g>
   <g id="line2d_96">
    <g clip-path="url(#pb7042ff6ce)">
     <use xlink:href="#m136697dc9d" x="53.318453" y="130.160207" style="fill: #ff0000; stroke: #ff0000"/>
    </g>
   </g>
   <g id="line2d_97">
    <g clip-path="url(#pb7042ff6ce)">
     <use xlink:href="#m136697dc9d" x="65.548459" y="124.199957" style="fill: #ff0000; stroke: #ff0000"/>
    </g>
   </g>
   <g id="line2d_98">
    <g clip-path="url(#pb7042ff6ce)">
     <use xlink:href="#m136697dc9d" x="54.133787" y="129.889286" style="fill: #ff0000; stroke: #ff0000"/>
    </g>
   </g>
   <g id="line2d_99">
    <g clip-path="url(#pb7042ff6ce)">
     <use xlink:href="#m77b0eefd53" x="228.071654" y="52.270583" style="fill: #0000ff; stroke: #0000ff"/>
    </g>
   </g>
   <g id="line2d_100">
    <g clip-path="url(#pb7042ff6ce)">
     <use xlink:href="#m77b0eefd53" x="215.841647" y="59.179054" style="fill: #0000ff; stroke: #0000ff"/>
    </g>
   </g>
   <g id="line2d_101">
    <g clip-path="url(#pb7042ff6ce)">
     <use xlink:href="#m77b0eefd53" x="265.03345" y="35.879896" style="fill: #0000ff; stroke: #0000ff"/>
    </g>
   </g>
   <g id="line2d_102">
    <g clip-path="url(#pb7042ff6ce)">
     <use xlink:href="#m77b0eefd53" x="191.109857" y="69.20311" style="fill: #0000ff; stroke: #0000ff"/>
    </g>
   </g>
   <g id="line2d_103">
    <g clip-path="url(#pb7042ff6ce)">
     <use xlink:href="#m77b0eefd53" x="263.131005" y="44.14297" style="fill: #0000ff; stroke: #0000ff"/>
    </g>
   </g>
   <g id="line2d_104">
    <g clip-path="url(#pb7042ff6ce)">
     <use xlink:href="#m136697dc9d" x="210.406089" y="52.270583" style="fill: #ff0000; stroke: #ff0000"/>
    </g>
   </g>
   <g id="line2d_105">
    <g clip-path="url(#pb7042ff6ce)">
     <use xlink:href="#m136697dc9d" x="199.263194" y="59.179054" style="fill: #ff0000; stroke: #ff0000"/>
    </g>
   </g>
   <g id="line2d_106">
    <g clip-path="url(#pb7042ff6ce)">
     <use xlink:href="#m136697dc9d" x="243.291217" y="35.879896" style="fill: #ff0000; stroke: #ff0000"/>
    </g>
   </g>
   <g id="line2d_107">
    <g clip-path="url(#pb7042ff6ce)">
     <use xlink:href="#m136697dc9d" x="177.792739" y="69.20311" style="fill: #ff0000; stroke: #ff0000"/>
    </g>
   </g>
   <g id="line2d_108">
    <g clip-path="url(#pb7042ff6ce)">
     <use xlink:href="#m136697dc9d" x="231.332989" y="44.14297" style="fill: #ff0000; stroke: #ff0000"/>
    </g>
   </g>
   <g id="line2d_109">
    <path d="M 47.611117 133.140332 
L 265.03345 24.772159 
" clip-path="url(#pb7042ff6ce)" style="fill: none; stroke-dasharray: 5.55,2.4; stroke-dashoffset: 0; stroke: #000000; stroke-width: 1.5"/>
   </g>
   <g id="patch_3">
    <path d="M 36.74 138.55874 
L 36.74 19.35375 
" style="fill: none; stroke: #000000; stroke-width: 0.8; stroke-linejoin: miter; stroke-linecap: square"/>
   </g>
   <g id="patch_4">
    <path d="M 36.74 138.55874 
L 275.904567 138.55874 
" style="fill: none; stroke: #000000; stroke-width: 0.8; stroke-linejoin: miter; stroke-linecap: square"/>
   </g>
   <g id="text_17">
    <!-- # detected species (50 real gut metagenomes) -->
    <g transform="translate(69.712377 13.35375) scale(0.084 -0.084)">
     <defs>
      <path id="ArialMT-23" d="M 322 -78 
L 594 1253 
L 66 1253 
L 66 1719 
L 688 1719 
L 919 2853 
L 66 2853 
L 66 3319 
L 1013 3319 
L 1284 4659 
L 1753 4659 
L 1481 3319 
L 2466 3319 
L 2738 4659 
L 3209 4659 
L 2938 3319 
L 3478 3319 
L 3478 2853 
L 2844 2853 
L 2609 1719 
L 3478 1719 
L 3478 1253 
L 2516 1253 
L 2244 -78 
L 1775 -78 
L 2044 1253 
L 1063 1253 
L 791 -78 
L 322 -78 
z
M 1156 1719 
L 2138 1719 
L 2372 2853 
L 1388 2853 
L 1156 1719 
z
" transform="scale(0.015625)"/>
      <path id="ArialMT-28" d="M 1497 -1347 
Q 1031 -759 709 28 
Q 388 816 388 1659 
Q 388 2403 628 3084 
Q 909 3875 1497 4659 
L 1900 4659 
Q 1522 4009 1400 3731 
Q 1209 3300 1100 2831 
Q 966 2247 966 1656 
Q 966 153 1900 -1347 
L 1497 -1347 
z
" transform="scale(0.015625)"/>
      <path id="ArialMT-72" d="M 416 0 
L 416 3319 
L 922 3319 
L 922 2816 
Q 1116 3169 1280 3281 
Q 1444 3394 1641 3394 
Q 1925 3394 2219 3213 
L 2025 2691 
Q 1819 2813 1613 2813 
Q 1428 2813 1281 2702 
Q 1134 2591 1072 2394 
Q 978 2094 978 1738 
L 978 0 
L 416 0 
z
" transform="scale(0.015625)"/>
      <path id="ArialMT-67" d="M 319 -275 
L 866 -356 
Q 900 -609 1056 -725 
Q 1266 -881 1628 -881 
Q 2019 -881 2231 -725 
Q 2444 -569 2519 -288 
Q 2563 -116 2559 434 
Q 2191 0 1641 0 
Q 956 0 581 494 
Q 206 988 206 1678 
Q 206 2153 378 2554 
Q 550 2956 876 3175 
Q 1203 3394 1644 3394 
Q 2231 3394 2613 2919 
L 2613 3319 
L 3131 3319 
L 3131 450 
Q 3131 -325 2973 -648 
Q 2816 -972 2473 -1159 
Q 2131 -1347 1631 -1347 
Q 1038 -1347 672 -1080 
Q 306 -813 319 -275 
z
M 784 1719 
Q 784 1066 1043 766 
Q 1303 466 1694 466 
Q 2081 466 2343 764 
Q 2606 1063 2606 1700 
Q 2606 2309 2336 2618 
Q 2066 2928 1684 2928 
Q 1309 2928 1046 2623 
Q 784 2319 784 1719 
z
" transform="scale(0.015625)"/>
      <path id="ArialMT-75" d="M 2597 0 
L 2597 488 
Q 2209 -75 1544 -75 
Q 1250 -75 995 37 
Q 741 150 617 320 
Q 494 491 444 738 
Q 409 903 409 1263 
L 409 3319 
L 972 3319 
L 972 1478 
Q 972 1038 1006 884 
Q 1059 663 1231 536 
Q 1403 409 1656 409 
Q 1909 409 2131 539 
Q 2353 669 2445 892 
Q 2538 1116 2538 1541 
L 2538 3319 
L 3100 3319 
L 3100 0 
L 2597 0 
z
" transform="scale(0.015625)"/>
      <path id="ArialMT-6f" d="M 213 1659 
Q 213 2581 725 3025 
Q 1153 3394 1769 3394 
Q 2453 3394 2887 2945 
Q 3322 2497 3322 1706 
Q 3322 1066 3130 698 
Q 2938 331 2570 128 
Q 2203 -75 1769 -75 
Q 1072 -75 642 372 
Q 213 819 213 1659 
z
M 791 1659 
Q 791 1022 1069 705 
Q 1347 388 1769 388 
Q 2188 388 2466 706 
Q 2744 1025 2744 1678 
Q 2744 2294 2464 2611 
Q 2184 2928 1769 2928 
Q 1347 2928 1069 2612 
Q 791 2297 791 1659 
z
" transform="scale(0.015625)"/>
      <path id="ArialMT-29" d="M 791 -1347 
L 388 -1347 
Q 1322 153 1322 1656 
Q 1322 2244 1188 2822 
Q 1081 3291 891 3722 
Q 769 4003 388 4659 
L 791 4659 
Q 1378 3875 1659 3084 
Q 1900 2403 1900 1659 
Q 1900 816 1576 28 
Q 1253 -759 791 -1347 
z
" transform="scale(0.015625)"/>
     </defs>
     <use xlink:href="#ArialMT-23"/>
     <use xlink:href="#ArialMT-20" x="55.615234"/>
     <use xlink:href="#ArialMT-64" x="83.398438"/>
     <use xlink:href="#ArialMT-65" x="139.013672"/>
     <use xlink:href="#ArialMT-74" x="194.628906"/>
     <use xlink:href="#ArialMT-65" x="222.412109"/>
     <use xlink:href="#ArialMT-63" x="278.027344"/>
     <use xlink:href="#ArialMT-74" x="328.027344"/>
     <use xlink:href="#ArialMT-65" x="355.810547"/>
     <use xlink:href="#ArialMT-64" x="411.425781"/>
     <use xlink:href="#ArialMT-20" x="467.041016"/>
     <use xlink:href="#ArialMT-73" x="494.824219"/>
     <use xlink:href="#ArialMT-70" x="544.824219"/>
     <use xlink:href="#ArialMT-65" x="600.439453"/>
     <use xlink:href="#ArialMT-63" x="656.054688"/>
     <use xlink:href="#ArialMT-69" x="706.054688"/>
     <use xlink:href="#ArialMT-65" x="728.271484"/>
     <use xlink:href="#ArialMT-73" x="783.886719"/>
     <use xlink:href="#ArialMT-20" x="833.886719"/>
     <use xlink:href="#ArialMT-28" x="861.669922"/>
     <use xlink:href="#ArialMT-35" x="894.970703"/>
     <use xlink:href="#ArialMT-30" x="950.585938"/>
     <use xlink:href="#ArialMT-20" x="1006.201172"/>
     <use xlink:href="#ArialMT-72" x="1033.984375"/>
     <use xlink:href="#ArialMT-65" x="1067.285156"/>
     <use xlink:href="#ArialMT-61" x="1122.900391"/>
     <use xlink:href="#ArialMT-6c" x="1178.515625"/>
     <use xlink:href="#ArialMT-20" x="1200.732422"/>
     <use xlink:href="#ArialMT-67" x="1228.515625"/>
     <use xlink:href="#ArialMT-75" x="1284.130859"/>
     <use xlink:href="#ArialMT-74" x="1339.746094"/>
     <use xlink:href="#ArialMT-20" x="1367.529297"/>
     <use xlink:href="#ArialMT-6d" x="1395.3125"/>
     <use xlink:href="#ArialMT-65" x="1478.613281"/>
     <use xlink:href="#ArialMT-74" x="1534.228516"/>
     <use xlink:href="#ArialMT-61" x="1562.011719"/>
     <use xlink:href="#ArialMT-67" x="1617.626953"/>
     <use xlink:href="#ArialMT-65" x="1673.242188"/>
     <use xlink:href="#ArialMT-6e" x="1728.857422"/>
     <use xlink:href="#ArialMT-6f" x="1784.472656"/>
     <use xlink:href="#ArialMT-6d" x="1840.087891"/>
     <use xlink:href="#ArialMT-65" x="1923.388672"/>
     <use xlink:href="#ArialMT-73" x="1979.003906"/>
     <use xlink:href="#ArialMT-29" x="2029.003906"/>
    </g>
   </g>
   <g id="legend_1">
    <g id="line2d_110">
     <g>
      <use xlink:href="#m77b0eefd53" x="50.04" y="28.214219" style="fill: #0000ff; stroke: #0000ff"/>
     </g>
    </g>
    <g id="text_18">
     <!-- mOTUs3 -->
     <g transform="translate(62.64 30.664219) scale(0.07 -0.07)">
      <use xlink:href="#ArialMT-6d"/>
      <use xlink:href="#ArialMT-4f" x="83.300781"/>
      <use xlink:href="#ArialMT-54" x="161.083984"/>
      <use xlink:href="#ArialMT-55" x="222.167969"/>
      <use xlink:href="#ArialMT-73" x="294.384766"/>
      <use xlink:href="#ArialMT-33" x="344.384766"/>
     </g>
    </g>
    <g id="line2d_111">
     <g>
      <use xlink:href="#m136697dc9d" x="50.04" y="38.115937" style="fill: #ff0000; stroke: #ff0000"/>
     </g>
    </g>
    <g id="text_19">
     <!-- MetaPhlAn4 -->
     <g transform="translate(62.64 40.565937) scale(0.07 -0.07)">
      <use xlink:href="#ArialMT-4d"/>
      <use xlink:href="#ArialMT-65" x="83.300781"/>
      <use xlink:href="#ArialMT-74" x="138.916016"/>
      <use xlink:href="#ArialMT-61" x="166.699219"/>
      <use xlink:href="#ArialMT-50" x="222.314453"/>
      <use xlink:href="#ArialMT-68" x="289.013672"/>
      <use xlink:href="#ArialMT-6c" x="344.628906"/>
      <use xlink:href="#ArialMT-41" x="366.845703"/>
      <use xlink:href="#ArialMT-6e" x="433.544922"/>
      <use xlink:href="#ArialMT-34" x="489.160156"/>
     </g>
    </g>
   </g>
  </g>
 </g>
 <defs>
  <clipPath id="pb7042ff6ce">
   <rect x="36.74" y="19.35375" width="239.164567" height="119.20499"/>
  </clipPath>
 </defs>
</svg>
