<?xml version="1.0" encoding="utf-8" standalone="no"?>
<!DOCTYPE svg PUBLIC "-//W3C//DTD SVG 1.1//EN"
  "http://www.w3.org/Graphics/SVG/1.1/DTD/svg11.dtd">
<svg xmlns:xlink="http://www.w3.org/1999/xlink" width="453.543307pt" height="141.732283pt" viewBox="0 0 453.543307 141.732283" xmlns="http://www.w3.org/2000/svg" version="1.1">
 <metadata>
  <rdf:RDF xmlns:dc="http://purl.org/dc/elements/1.1/" xmlns:cc="http://creativecommons.org/ns#" xmlns:rdf="http://www.w3.org/1999/02/22-rdf-syntax-ns#">
   <cc:Work>
    <dc:type rdf:resource="http://purl.org/dc/dcmitype/StillImage"/>
    <dc:date>2024-08-16T06:40:41.240077</dc:date>
    <dc:format>image/svg+xml</dc:format>
    <dc:creator>
     <cc:Agent>
      <dc:title>Matplotlib v3.8.0, https://matplotlib.org/</dc:title>
     </cc:Agent>
    </dc:creator>
   </cc:Work>
  </rdf:RDF>
 </metadata>
 <defs>
  <style type="text/css">*{stroke-linejoin: round; stroke-linecap: butt}</style>
 </defs>
 <g id="figure_1">
  <g id="patch_1">
   <path d="M 0 141.732283 
L 453.543307 141.732283 
L 453.543307 0 
L 0 0 
z
" style="fill: #ffffff"/>
  </g>
  <g id="axes_1">
   <g id="patch_2">
    <path d="M 24.29 86.050535 
L 110.091217 86.050535 
L 110.091217 22.655781 
L 24.29 22.655781 
z
" style="fill: #ffffff"/>
   </g>
   <g id="patch_3">
    <path d="M 25.72002 86.050535 
L 37.160182 86.050535 
L 37.160182 43.950068 
L 25.72002 43.950068 
z
" clip-path="url(#p2f815c7d56)" style="fill: #597dbf"/>
   </g>
   <g id="patch_4">
    <path d="M 40.020223 86.050535 
L 51.460385 86.050535 
L 51.460385 80.121535 
L 40.020223 80.121535 
z
" clip-path="url(#p2f815c7d56)" style="fill: #c76e6e"/>
   </g>
   <g id="patch_5">
    <path d="M 54.320426 86.050535 
L 65.760588 86.050535 
L 65.760588 50.099342 
L 54.320426 50.099342 
z
" clip-path="url(#p2f815c7d56)" style="fill: #9475ab"/>
   </g>
   <g id="patch_6">
    <path d="M 68.620629 86.050535 
L 80.060791 86.050535 
L 80.060791 64.30051 
L 68.620629 64.30051 
z
" clip-path="url(#p2f815c7d56)" style="fill: #8ec1d6"/>
   </g>
   <g id="patch_7">
    <path d="M 82.920831 86.050535 
L 94.360994 86.050535 
L 94.360994 53.739538 
L 82.920831 53.739538 
z
" clip-path="url(#p2f815c7d56)" style="fill: #826246"/>
   </g>
   <g id="patch_8">
    <path d="M 97.221034 86.050535 
L 108.661196 86.050535 
L 108.661196 46.342511 
L 97.221034 46.342511 
z
" clip-path="url(#p2f815c7d56)" style="fill: #d08abb"/>
   </g>
   <g id="matplotlib.axis_1">
    <g id="xtick_1">
     <g id="line2d_1">
      <defs>
       <path id="mc2e31cbb70" d="M 0 0 
L 0 3.5 
" style="stroke: #000000; stroke-width: 0.8"/>
      </defs>
      <g>
       <use xlink:href="#mc2e31cbb70" x="31.440101" y="86.050535" style="stroke: #000000; stroke-width: 0.8"/>
      </g>
     </g>
     <g id="text_1">
      <!-- sylph -->
      <g transform="translate(31.033799 110.131172) rotate(-75) scale(0.07 -0.07)">
       <defs>
        <path id="ArialMT-73" d="M 197 991 
L 753 1078 
Q 800 744 1014 566 
Q 1228 388 1613 388 
Q 2000 388 2187 545 
Q 2375 703 2375 916 
Q 2375 1106 2209 1216 
Q 2094 1291 1634 1406 
Q 1016 1563 777 1677 
Q 538 1791 414 1992 
Q 291 2194 291 2438 
Q 291 2659 392 2848 
Q 494 3038 669 3163 
Q 800 3259 1026 3326 
Q 1253 3394 1513 3394 
Q 1903 3394 2198 3281 
Q 2494 3169 2634 2976 
Q 2775 2784 2828 2463 
L 2278 2388 
Q 2241 2644 2061 2787 
Q 1881 2931 1553 2931 
Q 1166 2931 1000 2803 
Q 834 2675 834 2503 
Q 834 2394 903 2306 
Q 972 2216 1119 2156 
Q 1203 2125 1616 2013 
Q 2213 1853 2448 1751 
Q 2684 1650 2818 1456 
Q 2953 1263 2953 975 
Q 2953 694 2789 445 
Q 2625 197 2315 61 
Q 2006 -75 1616 -75 
Q 969 -75 630 194 
Q 291 463 197 991 
z
" transform="scale(0.015625)"/>
        <path id="ArialMT-79" d="M 397 -1278 
L 334 -750 
Q 519 -800 656 -800 
Q 844 -800 956 -737 
Q 1069 -675 1141 -563 
Q 1194 -478 1313 -144 
Q 1328 -97 1363 -6 
L 103 3319 
L 709 3319 
L 1400 1397 
Q 1534 1031 1641 628 
Q 1738 1016 1872 1384 
L 2581 3319 
L 3144 3319 
L 1881 -56 
Q 1678 -603 1566 -809 
Q 1416 -1088 1222 -1217 
Q 1028 -1347 759 -1347 
Q 597 -1347 397 -1278 
z
" transform="scale(0.015625)"/>
        <path id="ArialMT-6c" d="M 409 0 
L 409 4581 
L 972 4581 
L 972 0 
L 409 0 
z
" transform="scale(0.015625)"/>
        <path id="ArialMT-70" d="M 422 -1272 
L 422 3319 
L 934 3319 
L 934 2888 
Q 1116 3141 1344 3267 
Q 1572 3394 1897 3394 
Q 2322 3394 2647 3175 
Q 2972 2956 3137 2557 
Q 3303 2159 3303 1684 
Q 3303 1175 3120 767 
Q 2938 359 2589 142 
Q 2241 -75 1856 -75 
Q 1575 -75 1351 44 
Q 1128 163 984 344 
L 984 -1272 
L 422 -1272 
z
M 931 1641 
Q 931 1000 1190 694 
Q 1450 388 1819 388 
Q 2194 388 2461 705 
Q 2728 1022 2728 1688 
Q 2728 2322 2467 2637 
Q 2206 2953 1844 2953 
Q 1484 2953 1207 2617 
Q 931 2281 931 1641 
z
" transform="scale(0.015625)"/>
        <path id="ArialMT-68" d="M 422 0 
L 422 4581 
L 984 4581 
L 984 2938 
Q 1378 3394 1978 3394 
Q 2347 3394 2619 3248 
Q 2891 3103 3008 2847 
Q 3125 2591 3125 2103 
L 3125 0 
L 2563 0 
L 2563 2103 
Q 2563 2525 2380 2717 
Q 2197 2909 1863 2909 
Q 1613 2909 1392 2779 
Q 1172 2650 1078 2428 
Q 984 2206 984 1816 
L 984 0 
L 422 0 
z
" transform="scale(0.015625)"/>
       </defs>
       <use xlink:href="#ArialMT-73"/>
       <use xlink:href="#ArialMT-79" x="50"/>
       <use xlink:href="#ArialMT-6c" x="100"/>
       <use xlink:href="#ArialMT-70" x="122.216797"/>
       <use xlink:href="#ArialMT-68" x="177.832031"/>
      </g>
     </g>
    </g>
    <g id="xtick_2">
     <g id="line2d_2">
      <g>
       <use xlink:href="#mc2e31cbb70" x="45.740304" y="86.050535" style="stroke: #000000; stroke-width: 0.8"/>
      </g>
     </g>
     <g id="text_2">
      <!-- Bracken -->
      <g transform="translate(44.165279 119.150353) rotate(-75) scale(0.07 -0.07)">
       <defs>
        <path id="ArialMT-42" d="M 469 0 
L 469 4581 
L 2188 4581 
Q 2713 4581 3030 4442 
Q 3347 4303 3526 4014 
Q 3706 3725 3706 3409 
Q 3706 3116 3547 2856 
Q 3388 2597 3066 2438 
Q 3481 2316 3704 2022 
Q 3928 1728 3928 1328 
Q 3928 1006 3792 729 
Q 3656 453 3456 303 
Q 3256 153 2954 76 
Q 2653 0 2216 0 
L 469 0 
z
M 1075 2656 
L 2066 2656 
Q 2469 2656 2644 2709 
Q 2875 2778 2992 2937 
Q 3109 3097 3109 3338 
Q 3109 3566 3000 3739 
Q 2891 3913 2687 3977 
Q 2484 4041 1991 4041 
L 1075 4041 
L 1075 2656 
z
M 1075 541 
L 2216 541 
Q 2509 541 2628 563 
Q 2838 600 2978 687 
Q 3119 775 3209 942 
Q 3300 1109 3300 1328 
Q 3300 1584 3169 1773 
Q 3038 1963 2805 2039 
Q 2572 2116 2134 2116 
L 1075 2116 
L 1075 541 
z
" transform="scale(0.015625)"/>
        <path id="ArialMT-72" d="M 416 0 
L 416 3319 
L 922 3319 
L 922 2816 
Q 1116 3169 1280 3281 
Q 1444 3394 1641 3394 
Q 1925 3394 2219 3213 
L 2025 2691 
Q 1819 2813 1613 2813 
Q 1428 2813 1281 2702 
Q 1134 2591 1072 2394 
Q 978 2094 978 1738 
L 978 0 
L 416 0 
z
" transform="scale(0.015625)"/>
        <path id="ArialMT-61" d="M 2588 409 
Q 2275 144 1986 34 
Q 1697 -75 1366 -75 
Q 819 -75 525 192 
Q 231 459 231 875 
Q 231 1119 342 1320 
Q 453 1522 633 1644 
Q 813 1766 1038 1828 
Q 1203 1872 1538 1913 
Q 2219 1994 2541 2106 
Q 2544 2222 2544 2253 
Q 2544 2597 2384 2738 
Q 2169 2928 1744 2928 
Q 1347 2928 1158 2789 
Q 969 2650 878 2297 
L 328 2372 
Q 403 2725 575 2942 
Q 747 3159 1072 3276 
Q 1397 3394 1825 3394 
Q 2250 3394 2515 3294 
Q 2781 3194 2906 3042 
Q 3031 2891 3081 2659 
Q 3109 2516 3109 2141 
L 3109 1391 
Q 3109 606 3145 398 
Q 3181 191 3288 0 
L 2700 0 
Q 2613 175 2588 409 
z
M 2541 1666 
Q 2234 1541 1622 1453 
Q 1275 1403 1131 1340 
Q 988 1278 909 1158 
Q 831 1038 831 891 
Q 831 666 1001 516 
Q 1172 366 1500 366 
Q 1825 366 2078 508 
Q 2331 650 2450 897 
Q 2541 1088 2541 1459 
L 2541 1666 
z
" transform="scale(0.015625)"/>
        <path id="ArialMT-63" d="M 2588 1216 
L 3141 1144 
Q 3050 572 2676 248 
Q 2303 -75 1759 -75 
Q 1078 -75 664 370 
Q 250 816 250 1647 
Q 250 2184 428 2587 
Q 606 2991 970 3192 
Q 1334 3394 1763 3394 
Q 2303 3394 2647 3120 
Q 2991 2847 3088 2344 
L 2541 2259 
Q 2463 2594 2264 2762 
Q 2066 2931 1784 2931 
Q 1359 2931 1093 2626 
Q 828 2322 828 1663 
Q 828 994 1084 691 
Q 1341 388 1753 388 
Q 2084 388 2306 591 
Q 2528 794 2588 1216 
z
" transform="scale(0.015625)"/>
        <path id="ArialMT-6b" d="M 425 0 
L 425 4581 
L 988 4581 
L 988 1969 
L 2319 3319 
L 3047 3319 
L 1778 2088 
L 3175 0 
L 2481 0 
L 1384 1697 
L 988 1316 
L 988 0 
L 425 0 
z
" transform="scale(0.015625)"/>
        <path id="ArialMT-65" d="M 2694 1069 
L 3275 997 
Q 3138 488 2766 206 
Q 2394 -75 1816 -75 
Q 1088 -75 661 373 
Q 234 822 234 1631 
Q 234 2469 665 2931 
Q 1097 3394 1784 3394 
Q 2450 3394 2872 2941 
Q 3294 2488 3294 1666 
Q 3294 1616 3291 1516 
L 816 1516 
Q 847 969 1125 678 
Q 1403 388 1819 388 
Q 2128 388 2347 550 
Q 2566 713 2694 1069 
z
M 847 1978 
L 2700 1978 
Q 2663 2397 2488 2606 
Q 2219 2931 1791 2931 
Q 1403 2931 1139 2672 
Q 875 2413 847 1978 
z
" transform="scale(0.015625)"/>
        <path id="ArialMT-6e" d="M 422 0 
L 422 3319 
L 928 3319 
L 928 2847 
Q 1294 3394 1984 3394 
Q 2284 3394 2536 3286 
Q 2788 3178 2913 3003 
Q 3038 2828 3088 2588 
Q 3119 2431 3119 2041 
L 3119 0 
L 2556 0 
L 2556 2019 
Q 2556 2363 2490 2533 
Q 2425 2703 2258 2804 
Q 2091 2906 1866 2906 
Q 1506 2906 1245 2678 
Q 984 2450 984 1813 
L 984 0 
L 422 0 
z
" transform="scale(0.015625)"/>
       </defs>
       <use xlink:href="#ArialMT-42"/>
       <use xlink:href="#ArialMT-72" x="66.699219"/>
       <use xlink:href="#ArialMT-61" x="100"/>
       <use xlink:href="#ArialMT-63" x="155.615234"/>
       <use xlink:href="#ArialMT-6b" x="205.615234"/>
       <use xlink:href="#ArialMT-65" x="255.615234"/>
       <use xlink:href="#ArialMT-6e" x="311.230469"/>
      </g>
     </g>
    </g>
    <g id="xtick_3">
     <g id="line2d_3">
      <g>
       <use xlink:href="#mc2e31cbb70" x="60.040507" y="86.050535" style="stroke: #000000; stroke-width: 0.8"/>
      </g>
     </g>
     <g id="text_3">
      <!-- MetaPhlAn2 -->
      <g transform="translate(56.853747 131.180506) rotate(-75) scale(0.07 -0.07)">
       <defs>
        <path id="ArialMT-4d" d="M 475 0 
L 475 4581 
L 1388 4581 
L 2472 1338 
Q 2622 884 2691 659 
Q 2769 909 2934 1394 
L 4031 4581 
L 4847 4581 
L 4847 0 
L 4263 0 
L 4263 3834 
L 2931 0 
L 2384 0 
L 1059 3900 
L 1059 0 
L 475 0 
z
" transform="scale(0.015625)"/>
        <path id="ArialMT-74" d="M 1650 503 
L 1731 6 
Q 1494 -44 1306 -44 
Q 1000 -44 831 53 
Q 663 150 594 308 
Q 525 466 525 972 
L 525 2881 
L 113 2881 
L 113 3319 
L 525 3319 
L 525 4141 
L 1084 4478 
L 1084 3319 
L 1650 3319 
L 1650 2881 
L 1084 2881 
L 1084 941 
Q 1084 700 1114 631 
Q 1144 563 1211 522 
Q 1278 481 1403 481 
Q 1497 481 1650 503 
z
" transform="scale(0.015625)"/>
        <path id="ArialMT-50" d="M 494 0 
L 494 4581 
L 2222 4581 
Q 2678 4581 2919 4538 
Q 3256 4481 3484 4323 
Q 3713 4166 3852 3881 
Q 3991 3597 3991 3256 
Q 3991 2672 3619 2267 
Q 3247 1863 2275 1863 
L 1100 1863 
L 1100 0 
L 494 0 
z
M 1100 2403 
L 2284 2403 
Q 2872 2403 3119 2622 
Q 3366 2841 3366 3238 
Q 3366 3525 3220 3729 
Q 3075 3934 2838 4000 
Q 2684 4041 2272 4041 
L 1100 4041 
L 1100 2403 
z
" transform="scale(0.015625)"/>
        <path id="ArialMT-41" d="M -9 0 
L 1750 4581 
L 2403 4581 
L 4278 0 
L 3588 0 
L 3053 1388 
L 1138 1388 
L 634 0 
L -9 0 
z
M 1313 1881 
L 2866 1881 
L 2388 3150 
Q 2169 3728 2063 4100 
Q 1975 3659 1816 3225 
L 1313 1881 
z
" transform="scale(0.015625)"/>
        <path id="ArialMT-32" d="M 3222 541 
L 3222 0 
L 194 0 
Q 188 203 259 391 
Q 375 700 629 1000 
Q 884 1300 1366 1694 
Q 2113 2306 2375 2664 
Q 2638 3022 2638 3341 
Q 2638 3675 2398 3904 
Q 2159 4134 1775 4134 
Q 1369 4134 1125 3890 
Q 881 3647 878 3216 
L 300 3275 
Q 359 3922 746 4261 
Q 1134 4600 1788 4600 
Q 2447 4600 2831 4234 
Q 3216 3869 3216 3328 
Q 3216 3053 3103 2787 
Q 2991 2522 2730 2228 
Q 2469 1934 1863 1422 
Q 1356 997 1212 845 
Q 1069 694 975 541 
L 3222 541 
z
" transform="scale(0.015625)"/>
       </defs>
       <use xlink:href="#ArialMT-4d"/>
       <use xlink:href="#ArialMT-65" x="83.300781"/>
       <use xlink:href="#ArialMT-74" x="138.916016"/>
       <use xlink:href="#ArialMT-61" x="166.699219"/>
       <use xlink:href="#ArialMT-50" x="222.314453"/>
       <use xlink:href="#ArialMT-68" x="289.013672"/>
       <use xlink:href="#ArialMT-6c" x="344.628906"/>
       <use xlink:href="#ArialMT-41" x="366.845703"/>
       <use xlink:href="#ArialMT-6e" x="433.544922"/>
       <use xlink:href="#ArialMT-32" x="489.160156"/>
      </g>
     </g>
    </g>
    <g id="xtick_4">
     <g id="line2d_4">
      <g>
       <use xlink:href="#mc2e31cbb70" x="74.34071" y="86.050535" style="stroke: #000000; stroke-width: 0.8"/>
      </g>
     </g>
     <g id="text_4">
      <!-- mOTUs v2.5 -->
      <g transform="translate(71.005331 132.289812) rotate(-75) scale(0.07 -0.07)">
       <defs>
        <path id="ArialMT-6d" d="M 422 0 
L 422 3319 
L 925 3319 
L 925 2853 
Q 1081 3097 1340 3245 
Q 1600 3394 1931 3394 
Q 2300 3394 2536 3241 
Q 2772 3088 2869 2813 
Q 3263 3394 3894 3394 
Q 4388 3394 4653 3120 
Q 4919 2847 4919 2278 
L 4919 0 
L 4359 0 
L 4359 2091 
Q 4359 2428 4304 2576 
Q 4250 2725 4106 2815 
Q 3963 2906 3769 2906 
Q 3419 2906 3187 2673 
Q 2956 2441 2956 1928 
L 2956 0 
L 2394 0 
L 2394 2156 
Q 2394 2531 2256 2718 
Q 2119 2906 1806 2906 
Q 1569 2906 1367 2781 
Q 1166 2656 1075 2415 
Q 984 2175 984 1722 
L 984 0 
L 422 0 
z
" transform="scale(0.015625)"/>
        <path id="ArialMT-4f" d="M 309 2231 
Q 309 3372 921 4017 
Q 1534 4663 2503 4663 
Q 3138 4663 3647 4359 
Q 4156 4056 4423 3514 
Q 4691 2972 4691 2284 
Q 4691 1588 4409 1038 
Q 4128 488 3612 205 
Q 3097 -78 2500 -78 
Q 1853 -78 1343 234 
Q 834 547 571 1087 
Q 309 1628 309 2231 
z
M 934 2222 
Q 934 1394 1379 917 
Q 1825 441 2497 441 
Q 3181 441 3623 922 
Q 4066 1403 4066 2288 
Q 4066 2847 3877 3264 
Q 3688 3681 3323 3911 
Q 2959 4141 2506 4141 
Q 1863 4141 1398 3698 
Q 934 3256 934 2222 
z
" transform="scale(0.015625)"/>
        <path id="ArialMT-54" d="M 1659 0 
L 1659 4041 
L 150 4041 
L 150 4581 
L 3781 4581 
L 3781 4041 
L 2266 4041 
L 2266 0 
L 1659 0 
z
" transform="scale(0.015625)"/>
        <path id="ArialMT-55" d="M 3500 4581 
L 4106 4581 
L 4106 1934 
Q 4106 1244 3950 837 
Q 3794 431 3386 176 
Q 2978 -78 2316 -78 
Q 1672 -78 1262 144 
Q 853 366 678 786 
Q 503 1206 503 1934 
L 503 4581 
L 1109 4581 
L 1109 1938 
Q 1109 1341 1220 1058 
Q 1331 775 1601 622 
Q 1872 469 2263 469 
Q 2931 469 3215 772 
Q 3500 1075 3500 1938 
L 3500 4581 
z
" transform="scale(0.015625)"/>
        <path id="ArialMT-20" transform="scale(0.015625)"/>
        <path id="ArialMT-76" d="M 1344 0 
L 81 3319 
L 675 3319 
L 1388 1331 
Q 1503 1009 1600 663 
Q 1675 925 1809 1294 
L 2547 3319 
L 3125 3319 
L 1869 0 
L 1344 0 
z
" transform="scale(0.015625)"/>
        <path id="ArialMT-2e" d="M 581 0 
L 581 641 
L 1222 641 
L 1222 0 
L 581 0 
z
" transform="scale(0.015625)"/>
        <path id="ArialMT-35" d="M 266 1200 
L 856 1250 
Q 922 819 1161 601 
Q 1400 384 1738 384 
Q 2144 384 2425 690 
Q 2706 997 2706 1503 
Q 2706 1984 2436 2262 
Q 2166 2541 1728 2541 
Q 1456 2541 1237 2417 
Q 1019 2294 894 2097 
L 366 2166 
L 809 4519 
L 3088 4519 
L 3088 3981 
L 1259 3981 
L 1013 2750 
Q 1425 3038 1878 3038 
Q 2478 3038 2890 2622 
Q 3303 2206 3303 1553 
Q 3303 931 2941 478 
Q 2500 -78 1738 -78 
Q 1113 -78 717 272 
Q 322 622 266 1200 
z
" transform="scale(0.015625)"/>
       </defs>
       <use xlink:href="#ArialMT-6d"/>
       <use xlink:href="#ArialMT-4f" x="83.300781"/>
       <use xlink:href="#ArialMT-54" x="161.083984"/>
       <use xlink:href="#ArialMT-55" x="222.167969"/>
       <use xlink:href="#ArialMT-73" x="294.384766"/>
       <use xlink:href="#ArialMT-20" x="344.384766"/>
       <use xlink:href="#ArialMT-76" x="372.167969"/>
       <use xlink:href="#ArialMT-32" x="422.167969"/>
       <use xlink:href="#ArialMT-2e" x="477.783203"/>
       <use xlink:href="#ArialMT-35" x="505.566406"/>
      </g>
     </g>
    </g>
    <g id="xtick_5">
     <g id="line2d_5">
      <g>
       <use xlink:href="#mc2e31cbb70" x="88.640912" y="86.050535" style="stroke: #000000; stroke-width: 0.8"/>
      </g>
     </g>
     <g id="text_5">
      <!-- MetaPhlAn4* -->
      <g transform="translate(85.101572 133.812201) rotate(-75) scale(0.07 -0.07)">
       <defs>
        <path id="ArialMT-34" d="M 2069 0 
L 2069 1097 
L 81 1097 
L 81 1613 
L 2172 4581 
L 2631 4581 
L 2631 1613 
L 3250 1613 
L 3250 1097 
L 2631 1097 
L 2631 0 
L 2069 0 
z
M 2069 1613 
L 2069 3678 
L 634 1613 
L 2069 1613 
z
" transform="scale(0.015625)"/>
        <path id="ArialMT-2a" d="M 200 3741 
L 344 4184 
Q 841 4009 1066 3881 
Q 1006 4447 1003 4659 
L 1456 4659 
Q 1447 4350 1384 3884 
Q 1706 4047 2122 4184 
L 2266 3741 
Q 1869 3609 1488 3566 
Q 1678 3400 2025 2975 
L 1650 2709 
Q 1469 2956 1222 3381 
Q 991 2941 816 2709 
L 447 2975 
Q 809 3422 966 3566 
Q 563 3644 200 3741 
z
" transform="scale(0.015625)"/>
       </defs>
       <use xlink:href="#ArialMT-4d"/>
       <use xlink:href="#ArialMT-65" x="83.300781"/>
       <use xlink:href="#ArialMT-74" x="138.916016"/>
       <use xlink:href="#ArialMT-61" x="166.699219"/>
       <use xlink:href="#ArialMT-50" x="222.314453"/>
       <use xlink:href="#ArialMT-68" x="289.013672"/>
       <use xlink:href="#ArialMT-6c" x="344.628906"/>
       <use xlink:href="#ArialMT-41" x="366.845703"/>
       <use xlink:href="#ArialMT-6e" x="433.544922"/>
       <use xlink:href="#ArialMT-34" x="489.160156"/>
       <use xlink:href="#ArialMT-2a" x="544.775391"/>
      </g>
     </g>
    </g>
    <g id="xtick_6">
     <g id="line2d_6">
      <g>
       <use xlink:href="#mc2e31cbb70" x="102.941115" y="86.050535" style="stroke: #000000; stroke-width: 0.8"/>
      </g>
     </g>
     <g id="text_6">
      <!-- mOTUs v3* -->
      <g transform="translate(100.008564 129.283066) rotate(-75) scale(0.07 -0.07)">
       <defs>
        <path id="ArialMT-33" d="M 269 1209 
L 831 1284 
Q 928 806 1161 595 
Q 1394 384 1728 384 
Q 2125 384 2398 659 
Q 2672 934 2672 1341 
Q 2672 1728 2419 1979 
Q 2166 2231 1775 2231 
Q 1616 2231 1378 2169 
L 1441 2663 
Q 1497 2656 1531 2656 
Q 1891 2656 2178 2843 
Q 2466 3031 2466 3422 
Q 2466 3731 2256 3934 
Q 2047 4138 1716 4138 
Q 1388 4138 1169 3931 
Q 950 3725 888 3313 
L 325 3413 
Q 428 3978 793 4289 
Q 1159 4600 1703 4600 
Q 2078 4600 2393 4439 
Q 2709 4278 2876 4000 
Q 3044 3722 3044 3409 
Q 3044 3113 2884 2869 
Q 2725 2625 2413 2481 
Q 2819 2388 3044 2092 
Q 3269 1797 3269 1353 
Q 3269 753 2831 336 
Q 2394 -81 1725 -81 
Q 1122 -81 723 278 
Q 325 638 269 1209 
z
" transform="scale(0.015625)"/>
       </defs>
       <use xlink:href="#ArialMT-6d"/>
       <use xlink:href="#ArialMT-4f" x="83.300781"/>
       <use xlink:href="#ArialMT-54" x="161.083984"/>
       <use xlink:href="#ArialMT-55" x="222.167969"/>
       <use xlink:href="#ArialMT-73" x="294.384766"/>
       <use xlink:href="#ArialMT-20" x="344.384766"/>
       <use xlink:href="#ArialMT-76" x="372.167969"/>
       <use xlink:href="#ArialMT-33" x="422.167969"/>
       <use xlink:href="#ArialMT-2a" x="477.783203"/>
      </g>
     </g>
    </g>
   </g>
   <g id="matplotlib.axis_2">
    <g id="ytick_1">
     <g id="line2d_7">
      <defs>
       <path id="m4eabb5c908" d="M 0 0 
L -3.5 0 
" style="stroke: #000000; stroke-width: 0.8"/>
      </defs>
      <g>
       <use xlink:href="#m4eabb5c908" x="24.29" y="86.050535" style="stroke: #000000; stroke-width: 0.8"/>
      </g>
     </g>
     <g id="text_7">
      <!-- 0.00 -->
      <g transform="translate(3.667344 88.555769) scale(0.07 -0.07)">
       <defs>
        <path id="ArialMT-30" d="M 266 2259 
Q 266 3072 433 3567 
Q 600 4063 929 4331 
Q 1259 4600 1759 4600 
Q 2128 4600 2406 4451 
Q 2684 4303 2865 4023 
Q 3047 3744 3150 3342 
Q 3253 2941 3253 2259 
Q 3253 1453 3087 958 
Q 2922 463 2592 192 
Q 2263 -78 1759 -78 
Q 1097 -78 719 397 
Q 266 969 266 2259 
z
M 844 2259 
Q 844 1131 1108 757 
Q 1372 384 1759 384 
Q 2147 384 2411 759 
Q 2675 1134 2675 2259 
Q 2675 3391 2411 3762 
Q 2147 4134 1753 4134 
Q 1366 4134 1134 3806 
Q 844 3388 844 2259 
z
" transform="scale(0.015625)"/>
       </defs>
       <use xlink:href="#ArialMT-30"/>
       <use xlink:href="#ArialMT-2e" x="55.615234"/>
       <use xlink:href="#ArialMT-30" x="83.398438"/>
       <use xlink:href="#ArialMT-30" x="139.013672"/>
      </g>
     </g>
    </g>
    <g id="ytick_2">
     <g id="line2d_8">
      <g>
       <use xlink:href="#m4eabb5c908" x="24.29" y="70.201847" style="stroke: #000000; stroke-width: 0.8"/>
      </g>
     </g>
     <g id="text_8">
      <!-- 0.25 -->
      <g transform="translate(3.667344 72.707081) scale(0.07 -0.07)">
       <use xlink:href="#ArialMT-30"/>
       <use xlink:href="#ArialMT-2e" x="55.615234"/>
       <use xlink:href="#ArialMT-32" x="83.398438"/>
       <use xlink:href="#ArialMT-35" x="139.013672"/>
      </g>
     </g>
    </g>
    <g id="ytick_3">
     <g id="line2d_9">
      <g>
       <use xlink:href="#m4eabb5c908" x="24.29" y="54.353158" style="stroke: #000000; stroke-width: 0.8"/>
      </g>
     </g>
     <g id="text_9">
      <!-- 0.50 -->
      <g transform="translate(3.667344 56.858393) scale(0.07 -0.07)">
       <use xlink:href="#ArialMT-30"/>
       <use xlink:href="#ArialMT-2e" x="55.615234"/>
       <use xlink:href="#ArialMT-35" x="83.398438"/>
       <use xlink:href="#ArialMT-30" x="139.013672"/>
      </g>
     </g>
    </g>
    <g id="ytick_4">
     <g id="line2d_10">
      <g>
       <use xlink:href="#m4eabb5c908" x="24.29" y="38.50447" style="stroke: #000000; stroke-width: 0.8"/>
      </g>
     </g>
     <g id="text_10">
      <!-- 0.75 -->
      <g transform="translate(3.667344 41.009704) scale(0.07 -0.07)">
       <defs>
        <path id="ArialMT-37" d="M 303 3981 
L 303 4522 
L 3269 4522 
L 3269 4084 
Q 2831 3619 2401 2847 
Q 1972 2075 1738 1259 
Q 1569 684 1522 0 
L 944 0 
Q 953 541 1156 1306 
Q 1359 2072 1739 2783 
Q 2119 3494 2547 3981 
L 303 3981 
z
" transform="scale(0.015625)"/>
       </defs>
       <use xlink:href="#ArialMT-30"/>
       <use xlink:href="#ArialMT-2e" x="55.615234"/>
       <use xlink:href="#ArialMT-37" x="83.398438"/>
       <use xlink:href="#ArialMT-35" x="139.013672"/>
      </g>
     </g>
    </g>
    <g id="ytick_5">
     <g id="line2d_11">
      <g>
       <use xlink:href="#m4eabb5c908" x="24.29" y="22.655781" style="stroke: #000000; stroke-width: 0.8"/>
      </g>
     </g>
     <g id="text_11">
      <!-- 1.00 -->
      <g transform="translate(3.667344 25.161016) scale(0.07 -0.07)">
       <defs>
        <path id="ArialMT-31" d="M 2384 0 
L 1822 0 
L 1822 3584 
Q 1619 3391 1289 3197 
Q 959 3003 697 2906 
L 697 3450 
Q 1169 3672 1522 3987 
Q 1875 4303 2022 4600 
L 2384 4600 
L 2384 0 
z
" transform="scale(0.015625)"/>
       </defs>
       <use xlink:href="#ArialMT-31"/>
       <use xlink:href="#ArialMT-2e" x="55.615234"/>
       <use xlink:href="#ArialMT-30" x="83.398438"/>
       <use xlink:href="#ArialMT-30" x="139.013672"/>
      </g>
     </g>
    </g>
   </g>
   <g id="patch_9">
    <path d="M 24.29 86.050535 
L 24.29 22.655781 
" style="fill: none; stroke: #000000; stroke-width: 0.8; stroke-linejoin: miter; stroke-linecap: square"/>
   </g>
   <g id="patch_10">
    <path d="M 24.29 86.050535 
L 110.091217 86.050535 
" style="fill: none; stroke: #000000; stroke-width: 0.8; stroke-linejoin: miter; stroke-linecap: square"/>
   </g>
   <g id="text_12">
    <!-- 0.66 -->
    <g transform="translate(25.60182 41.489673) scale(0.06 -0.06)">
     <defs>
      <path id="ArialMT-36" d="M 3184 3459 
L 2625 3416 
Q 2550 3747 2413 3897 
Q 2184 4138 1850 4138 
Q 1581 4138 1378 3988 
Q 1113 3794 959 3422 
Q 806 3050 800 2363 
Q 1003 2672 1297 2822 
Q 1591 2972 1913 2972 
Q 2475 2972 2870 2558 
Q 3266 2144 3266 1488 
Q 3266 1056 3080 686 
Q 2894 316 2569 119 
Q 2244 -78 1831 -78 
Q 1128 -78 684 439 
Q 241 956 241 2144 
Q 241 3472 731 4075 
Q 1159 4600 1884 4600 
Q 2425 4600 2770 4297 
Q 3116 3994 3184 3459 
z
M 888 1484 
Q 888 1194 1011 928 
Q 1134 663 1356 523 
Q 1578 384 1822 384 
Q 2178 384 2434 671 
Q 2691 959 2691 1453 
Q 2691 1928 2437 2201 
Q 2184 2475 1800 2475 
Q 1419 2475 1153 2201 
Q 888 1928 888 1484 
z
" transform="scale(0.015625)"/>
     </defs>
     <use xlink:href="#ArialMT-30"/>
     <use xlink:href="#ArialMT-2e" x="55.615234"/>
     <use xlink:href="#ArialMT-36" x="83.398438"/>
     <use xlink:href="#ArialMT-36" x="139.013672"/>
    </g>
   </g>
   <g id="text_13">
    <!-- 0.09 -->
    <g transform="translate(39.902023 77.66114) scale(0.06 -0.06)">
     <defs>
      <path id="ArialMT-39" d="M 350 1059 
L 891 1109 
Q 959 728 1153 556 
Q 1347 384 1650 384 
Q 1909 384 2104 503 
Q 2300 622 2425 820 
Q 2550 1019 2634 1356 
Q 2719 1694 2719 2044 
Q 2719 2081 2716 2156 
Q 2547 1888 2255 1720 
Q 1963 1553 1622 1553 
Q 1053 1553 659 1965 
Q 266 2378 266 3053 
Q 266 3750 677 4175 
Q 1088 4600 1706 4600 
Q 2153 4600 2523 4359 
Q 2894 4119 3086 3673 
Q 3278 3228 3278 2384 
Q 3278 1506 3087 986 
Q 2897 466 2520 194 
Q 2144 -78 1638 -78 
Q 1100 -78 759 220 
Q 419 519 350 1059 
z
M 2653 3081 
Q 2653 3566 2395 3850 
Q 2138 4134 1775 4134 
Q 1400 4134 1122 3828 
Q 844 3522 844 3034 
Q 844 2597 1108 2323 
Q 1372 2050 1759 2050 
Q 2150 2050 2401 2323 
Q 2653 2597 2653 3081 
z
" transform="scale(0.015625)"/>
     </defs>
     <use xlink:href="#ArialMT-30"/>
     <use xlink:href="#ArialMT-2e" x="55.615234"/>
     <use xlink:href="#ArialMT-30" x="83.398438"/>
     <use xlink:href="#ArialMT-39" x="139.013672"/>
    </g>
   </g>
   <g id="text_14">
    <!-- 0.57 -->
    <g transform="translate(54.202226 47.638947) scale(0.06 -0.06)">
     <use xlink:href="#ArialMT-30"/>
     <use xlink:href="#ArialMT-2e" x="55.615234"/>
     <use xlink:href="#ArialMT-35" x="83.398438"/>
     <use xlink:href="#ArialMT-37" x="139.013672"/>
    </g>
   </g>
   <g id="text_15">
    <!-- 0.34 -->
    <g transform="translate(68.502428 61.840115) scale(0.06 -0.06)">
     <use xlink:href="#ArialMT-30"/>
     <use xlink:href="#ArialMT-2e" x="55.615234"/>
     <use xlink:href="#ArialMT-33" x="83.398438"/>
     <use xlink:href="#ArialMT-34" x="139.013672"/>
    </g>
   </g>
   <g id="text_16">
    <!-- 0.51 -->
    <g transform="translate(82.802631 51.279143) scale(0.06 -0.06)">
     <use xlink:href="#ArialMT-30"/>
     <use xlink:href="#ArialMT-2e" x="55.615234"/>
     <use xlink:href="#ArialMT-35" x="83.398438"/>
     <use xlink:href="#ArialMT-31" x="139.013672"/>
    </g>
   </g>
   <g id="text_17">
    <!-- 0.63 -->
    <g transform="translate(97.102834 43.882116) scale(0.06 -0.06)">
     <use xlink:href="#ArialMT-30"/>
     <use xlink:href="#ArialMT-2e" x="55.615234"/>
     <use xlink:href="#ArialMT-36" x="83.398438"/>
     <use xlink:href="#ArialMT-33" x="139.013672"/>
    </g>
   </g>
   <g id="text_18">
    <!-- F1 -->
    <g transform="translate(63.106546 12.655781) scale(0.07 -0.07)">
     <defs>
      <path id="ArialMT-46" d="M 525 0 
L 525 4581 
L 3616 4581 
L 3616 4041 
L 1131 4041 
L 1131 2622 
L 3281 2622 
L 3281 2081 
L 1131 2081 
L 1131 0 
L 525 0 
z
" transform="scale(0.015625)"/>
     </defs>
     <use xlink:href="#ArialMT-46"/>
     <use xlink:href="#ArialMT-31" x="61.083984"/>
    </g>
   </g>
  </g>
  <g id="axes_2">
   <g id="patch_11">
    <path d="M 135.785827 86.050535 
L 221.587043 86.050535 
L 221.587043 22.655781 
L 135.785827 22.655781 
z
" style="fill: #ffffff"/>
   </g>
   <g id="patch_12">
    <path d="M 137.215847 86.050535 
L 148.656009 86.050535 
L 148.656009 38.650484 
L 137.215847 38.650484 
z
" clip-path="url(#pd04a920bbe)" style="fill: #597dbf"/>
   </g>
   <g id="patch_13">
    <path d="M 151.51605 86.050535 
L 162.956212 86.050535 
L 162.956212 82.884332 
L 151.51605 82.884332 
z
" clip-path="url(#pd04a920bbe)" style="fill: #c76e6e"/>
   </g>
   <g id="patch_14">
    <path d="M 165.816253 86.050535 
L 177.256415 86.050535 
L 177.256415 54.860155 
L 165.816253 54.860155 
z
" clip-path="url(#pd04a920bbe)" style="fill: #9475ab"/>
   </g>
   <g id="patch_15">
    <path d="M 180.116455 86.050535 
L 191.556618 86.050535 
L 191.556618 50.748814 
L 180.116455 50.748814 
z
" clip-path="url(#pd04a920bbe)" style="fill: #8ec1d6"/>
   </g>
   <g id="patch_16">
    <path d="M 194.416658 86.050535 
L 205.85682 86.050535 
L 205.85682 48.215834 
L 194.416658 48.215834 
z
" clip-path="url(#pd04a920bbe)" style="fill: #826246"/>
   </g>
   <g id="patch_17">
    <path d="M 208.716861 86.050535 
L 220.157023 86.050535 
L 220.157023 42.838035 
L 208.716861 42.838035 
z
" clip-path="url(#pd04a920bbe)" style="fill: #d08abb"/>
   </g>
   <g id="matplotlib.axis_3">
    <g id="xtick_7">
     <g id="line2d_12">
      <g>
       <use xlink:href="#mc2e31cbb70" x="142.935928" y="86.050535" style="stroke: #000000; stroke-width: 0.8"/>
      </g>
     </g>
     <g id="text_19">
      <!-- sylph -->
      <g transform="translate(142.529626 110.131172) rotate(-75) scale(0.07 -0.07)">
       <use xlink:href="#ArialMT-73"/>
       <use xlink:href="#ArialMT-79" x="50"/>
       <use xlink:href="#ArialMT-6c" x="100"/>
       <use xlink:href="#ArialMT-70" x="122.216797"/>
       <use xlink:href="#ArialMT-68" x="177.832031"/>
      </g>
     </g>
    </g>
    <g id="xtick_8">
     <g id="line2d_13">
      <g>
       <use xlink:href="#mc2e31cbb70" x="157.236131" y="86.050535" style="stroke: #000000; stroke-width: 0.8"/>
      </g>
     </g>
     <g id="text_20">
      <!-- Bracken -->
      <g transform="translate(155.661106 119.150353) rotate(-75) scale(0.07 -0.07)">
       <use xlink:href="#ArialMT-42"/>
       <use xlink:href="#ArialMT-72" x="66.699219"/>
       <use xlink:href="#ArialMT-61" x="100"/>
       <use xlink:href="#ArialMT-63" x="155.615234"/>
       <use xlink:href="#ArialMT-6b" x="205.615234"/>
       <use xlink:href="#ArialMT-65" x="255.615234"/>
       <use xlink:href="#ArialMT-6e" x="311.230469"/>
      </g>
     </g>
    </g>
    <g id="xtick_9">
     <g id="line2d_14">
      <g>
       <use xlink:href="#mc2e31cbb70" x="171.536334" y="86.050535" style="stroke: #000000; stroke-width: 0.8"/>
      </g>
     </g>
     <g id="text_21">
      <!-- MetaPhlAn2 -->
      <g transform="translate(168.349573 131.180506) rotate(-75) scale(0.07 -0.07)">
       <use xlink:href="#ArialMT-4d"/>
       <use xlink:href="#ArialMT-65" x="83.300781"/>
       <use xlink:href="#ArialMT-74" x="138.916016"/>
       <use xlink:href="#ArialMT-61" x="166.699219"/>
       <use xlink:href="#ArialMT-50" x="222.314453"/>
       <use xlink:href="#ArialMT-68" x="289.013672"/>
       <use xlink:href="#ArialMT-6c" x="344.628906"/>
       <use xlink:href="#ArialMT-41" x="366.845703"/>
       <use xlink:href="#ArialMT-6e" x="433.544922"/>
       <use xlink:href="#ArialMT-32" x="489.160156"/>
      </g>
     </g>
    </g>
    <g id="xtick_10">
     <g id="line2d_15">
      <g>
       <use xlink:href="#mc2e31cbb70" x="185.836536" y="86.050535" style="stroke: #000000; stroke-width: 0.8"/>
      </g>
     </g>
     <g id="text_22">
      <!-- mOTUs v2.5 -->
      <g transform="translate(182.501157 132.289812) rotate(-75) scale(0.07 -0.07)">
       <use xlink:href="#ArialMT-6d"/>
       <use xlink:href="#ArialMT-4f" x="83.300781"/>
       <use xlink:href="#ArialMT-54" x="161.083984"/>
       <use xlink:href="#ArialMT-55" x="222.167969"/>
       <use xlink:href="#ArialMT-73" x="294.384766"/>
       <use xlink:href="#ArialMT-20" x="344.384766"/>
       <use xlink:href="#ArialMT-76" x="372.167969"/>
       <use xlink:href="#ArialMT-32" x="422.167969"/>
       <use xlink:href="#ArialMT-2e" x="477.783203"/>
       <use xlink:href="#ArialMT-35" x="505.566406"/>
      </g>
     </g>
    </g>
    <g id="xtick_11">
     <g id="line2d_16">
      <g>
       <use xlink:href="#mc2e31cbb70" x="200.136739" y="86.050535" style="stroke: #000000; stroke-width: 0.8"/>
      </g>
     </g>
     <g id="text_23">
      <!-- MetaPhlAn4* -->
      <g transform="translate(196.597399 133.812201) rotate(-75) scale(0.07 -0.07)">
       <use xlink:href="#ArialMT-4d"/>
       <use xlink:href="#ArialMT-65" x="83.300781"/>
       <use xlink:href="#ArialMT-74" x="138.916016"/>
       <use xlink:href="#ArialMT-61" x="166.699219"/>
       <use xlink:href="#ArialMT-50" x="222.314453"/>
       <use xlink:href="#ArialMT-68" x="289.013672"/>
       <use xlink:href="#ArialMT-6c" x="344.628906"/>
       <use xlink:href="#ArialMT-41" x="366.845703"/>
       <use xlink:href="#ArialMT-6e" x="433.544922"/>
       <use xlink:href="#ArialMT-34" x="489.160156"/>
       <use xlink:href="#ArialMT-2a" x="544.775391"/>
      </g>
     </g>
    </g>
    <g id="xtick_12">
     <g id="line2d_17">
      <g>
       <use xlink:href="#mc2e31cbb70" x="214.436942" y="86.050535" style="stroke: #000000; stroke-width: 0.8"/>
      </g>
     </g>
     <g id="text_24">
      <!-- mOTUs v3* -->
      <g transform="translate(211.504391 129.283066) rotate(-75) scale(0.07 -0.07)">
       <use xlink:href="#ArialMT-6d"/>
       <use xlink:href="#ArialMT-4f" x="83.300781"/>
       <use xlink:href="#ArialMT-54" x="161.083984"/>
       <use xlink:href="#ArialMT-55" x="222.167969"/>
       <use xlink:href="#ArialMT-73" x="294.384766"/>
       <use xlink:href="#ArialMT-20" x="344.384766"/>
       <use xlink:href="#ArialMT-76" x="372.167969"/>
       <use xlink:href="#ArialMT-33" x="422.167969"/>
       <use xlink:href="#ArialMT-2a" x="477.783203"/>
      </g>
     </g>
    </g>
   </g>
   <g id="matplotlib.axis_4">
    <g id="ytick_6">
     <g id="line2d_18">
      <g>
       <use xlink:href="#m4eabb5c908" x="135.785827" y="86.050535" style="stroke: #000000; stroke-width: 0.8"/>
      </g>
     </g>
     <g id="text_25">
      <!-- 0.00 -->
      <g transform="translate(115.163171 88.555769) scale(0.07 -0.07)">
       <use xlink:href="#ArialMT-30"/>
       <use xlink:href="#ArialMT-2e" x="55.615234"/>
       <use xlink:href="#ArialMT-30" x="83.398438"/>
       <use xlink:href="#ArialMT-30" x="139.013672"/>
      </g>
     </g>
    </g>
    <g id="ytick_7">
     <g id="line2d_19">
      <g>
       <use xlink:href="#m4eabb5c908" x="135.785827" y="70.201847" style="stroke: #000000; stroke-width: 0.8"/>
      </g>
     </g>
     <g id="text_26">
      <!-- 0.25 -->
      <g transform="translate(115.163171 72.707081) scale(0.07 -0.07)">
       <use xlink:href="#ArialMT-30"/>
       <use xlink:href="#ArialMT-2e" x="55.615234"/>
       <use xlink:href="#ArialMT-32" x="83.398438"/>
       <use xlink:href="#ArialMT-35" x="139.013672"/>
      </g>
     </g>
    </g>
    <g id="ytick_8">
     <g id="line2d_20">
      <g>
       <use xlink:href="#m4eabb5c908" x="135.785827" y="54.353158" style="stroke: #000000; stroke-width: 0.8"/>
      </g>
     </g>
     <g id="text_27">
      <!-- 0.50 -->
      <g transform="translate(115.163171 56.858393) scale(0.07 -0.07)">
       <use xlink:href="#ArialMT-30"/>
       <use xlink:href="#ArialMT-2e" x="55.615234"/>
       <use xlink:href="#ArialMT-35" x="83.398438"/>
       <use xlink:href="#ArialMT-30" x="139.013672"/>
      </g>
     </g>
    </g>
    <g id="ytick_9">
     <g id="line2d_21">
      <g>
       <use xlink:href="#m4eabb5c908" x="135.785827" y="38.50447" style="stroke: #000000; stroke-width: 0.8"/>
      </g>
     </g>
     <g id="text_28">
      <!-- 0.75 -->
      <g transform="translate(115.163171 41.009704) scale(0.07 -0.07)">
       <use xlink:href="#ArialMT-30"/>
       <use xlink:href="#ArialMT-2e" x="55.615234"/>
       <use xlink:href="#ArialMT-37" x="83.398438"/>
       <use xlink:href="#ArialMT-35" x="139.013672"/>
      </g>
     </g>
    </g>
    <g id="ytick_10">
     <g id="line2d_22">
      <g>
       <use xlink:href="#m4eabb5c908" x="135.785827" y="22.655781" style="stroke: #000000; stroke-width: 0.8"/>
      </g>
     </g>
     <g id="text_29">
      <!-- 1.00 -->
      <g transform="translate(115.163171 25.161016) scale(0.07 -0.07)">
       <use xlink:href="#ArialMT-31"/>
       <use xlink:href="#ArialMT-2e" x="55.615234"/>
       <use xlink:href="#ArialMT-30" x="83.398438"/>
       <use xlink:href="#ArialMT-30" x="139.013672"/>
      </g>
     </g>
    </g>
   </g>
   <g id="patch_18">
    <path d="M 135.785827 86.050535 
L 135.785827 22.655781 
" style="fill: none; stroke: #000000; stroke-width: 0.8; stroke-linejoin: miter; stroke-linecap: square"/>
   </g>
   <g id="patch_19">
    <path d="M 135.785827 86.050535 
L 221.587043 86.050535 
" style="fill: none; stroke: #000000; stroke-width: 0.8; stroke-linejoin: miter; stroke-linecap: square"/>
   </g>
   <g id="text_30">
    <!-- 0.75 -->
    <g transform="translate(137.097647 36.190089) scale(0.06 -0.06)">
     <use xlink:href="#ArialMT-30"/>
     <use xlink:href="#ArialMT-2e" x="55.615234"/>
     <use xlink:href="#ArialMT-37" x="83.398438"/>
     <use xlink:href="#ArialMT-35" x="139.013672"/>
    </g>
   </g>
   <g id="text_31">
    <!-- 0.05 -->
    <g transform="translate(151.39785 80.423937) scale(0.06 -0.06)">
     <use xlink:href="#ArialMT-30"/>
     <use xlink:href="#ArialMT-2e" x="55.615234"/>
     <use xlink:href="#ArialMT-30" x="83.398438"/>
     <use xlink:href="#ArialMT-35" x="139.013672"/>
    </g>
   </g>
   <g id="text_32">
    <!-- 0.49 -->
    <g transform="translate(165.698052 52.399759) scale(0.06 -0.06)">
     <use xlink:href="#ArialMT-30"/>
     <use xlink:href="#ArialMT-2e" x="55.615234"/>
     <use xlink:href="#ArialMT-34" x="83.398438"/>
     <use xlink:href="#ArialMT-39" x="139.013672"/>
    </g>
   </g>
   <g id="text_33">
    <!-- 0.56 -->
    <g transform="translate(179.998255 48.288419) scale(0.06 -0.06)">
     <use xlink:href="#ArialMT-30"/>
     <use xlink:href="#ArialMT-2e" x="55.615234"/>
     <use xlink:href="#ArialMT-35" x="83.398438"/>
     <use xlink:href="#ArialMT-36" x="139.013672"/>
    </g>
   </g>
   <g id="text_34">
    <!-- 0.6 -->
    <g transform="translate(195.966739 45.755439) scale(0.06 -0.06)">
     <use xlink:href="#ArialMT-30"/>
     <use xlink:href="#ArialMT-2e" x="55.615234"/>
     <use xlink:href="#ArialMT-36" x="83.398438"/>
    </g>
   </g>
   <g id="text_35">
    <!-- 0.68 -->
    <g transform="translate(208.598661 40.37764) scale(0.06 -0.06)">
     <defs>
      <path id="ArialMT-38" d="M 1131 2484 
Q 781 2613 612 2850 
Q 444 3088 444 3419 
Q 444 3919 803 4259 
Q 1163 4600 1759 4600 
Q 2359 4600 2725 4251 
Q 3091 3903 3091 3403 
Q 3091 3084 2923 2848 
Q 2756 2613 2416 2484 
Q 2838 2347 3058 2040 
Q 3278 1734 3278 1309 
Q 3278 722 2862 322 
Q 2447 -78 1769 -78 
Q 1091 -78 675 323 
Q 259 725 259 1325 
Q 259 1772 486 2073 
Q 713 2375 1131 2484 
z
M 1019 3438 
Q 1019 3113 1228 2906 
Q 1438 2700 1772 2700 
Q 2097 2700 2305 2904 
Q 2513 3109 2513 3406 
Q 2513 3716 2298 3927 
Q 2084 4138 1766 4138 
Q 1444 4138 1231 3931 
Q 1019 3725 1019 3438 
z
M 838 1322 
Q 838 1081 952 856 
Q 1066 631 1291 507 
Q 1516 384 1775 384 
Q 2178 384 2440 643 
Q 2703 903 2703 1303 
Q 2703 1709 2433 1975 
Q 2163 2241 1756 2241 
Q 1359 2241 1098 1978 
Q 838 1716 838 1322 
z
" transform="scale(0.015625)"/>
     </defs>
     <use xlink:href="#ArialMT-30"/>
     <use xlink:href="#ArialMT-2e" x="55.615234"/>
     <use xlink:href="#ArialMT-36" x="83.398438"/>
     <use xlink:href="#ArialMT-38" x="139.013672"/>
    </g>
   </g>
   <g id="text_36">
    <!-- Precision -->
    <g transform="translate(164.292138 12.655781) scale(0.07 -0.07)">
     <defs>
      <path id="ArialMT-69" d="M 425 3934 
L 425 4581 
L 988 4581 
L 988 3934 
L 425 3934 
z
M 425 0 
L 425 3319 
L 988 3319 
L 988 0 
L 425 0 
z
" transform="scale(0.015625)"/>
      <path id="ArialMT-6f" d="M 213 1659 
Q 213 2581 725 3025 
Q 1153 3394 1769 3394 
Q 2453 3394 2887 2945 
Q 3322 2497 3322 1706 
Q 3322 1066 3130 698 
Q 2938 331 2570 128 
Q 2203 -75 1769 -75 
Q 1072 -75 642 372 
Q 213 819 213 1659 
z
M 791 1659 
Q 791 1022 1069 705 
Q 1347 388 1769 388 
Q 2188 388 2466 706 
Q 2744 1025 2744 1678 
Q 2744 2294 2464 2611 
Q 2184 2928 1769 2928 
Q 1347 2928 1069 2612 
Q 791 2297 791 1659 
z
" transform="scale(0.015625)"/>
     </defs>
     <use xlink:href="#ArialMT-50"/>
     <use xlink:href="#ArialMT-72" x="66.699219"/>
     <use xlink:href="#ArialMT-65" x="100"/>
     <use xlink:href="#ArialMT-63" x="155.615234"/>
     <use xlink:href="#ArialMT-69" x="205.615234"/>
     <use xlink:href="#ArialMT-73" x="227.832031"/>
     <use xlink:href="#ArialMT-69" x="277.832031"/>
     <use xlink:href="#ArialMT-6f" x="300.048828"/>
     <use xlink:href="#ArialMT-6e" x="355.664062"/>
    </g>
   </g>
  </g>
  <g id="axes_3">
   <g id="patch_20">
    <path d="M 247.281654 86.050535 
L 333.08287 86.050535 
L 333.08287 22.655781 
L 247.281654 22.655781 
z
" style="fill: #ffffff"/>
   </g>
   <g id="patch_21">
    <path d="M 248.711674 86.050535 
L 260.151836 86.050535 
L 260.151836 48.013683 
L 248.711674 48.013683 
z
" clip-path="url(#pb19cdfddd2)" style="fill: #597dbf"/>
   </g>
   <g id="patch_22">
    <path d="M 263.011877 86.050535 
L 274.452039 86.050535 
L 274.452039 38.631259 
L 263.011877 38.631259 
z
" clip-path="url(#pb19cdfddd2)" style="fill: #c76e6e"/>
   </g>
   <g id="patch_23">
    <path d="M 277.312079 86.050535 
L 288.752242 86.050535 
L 288.752242 43.44926 
L 277.312079 43.44926 
z
" clip-path="url(#pb19cdfddd2)" style="fill: #9475ab"/>
   </g>
   <g id="patch_24">
    <path d="M 291.612282 86.050535 
L 303.052444 86.050535 
L 303.052444 70.106754 
L 291.612282 70.106754 
z
" clip-path="url(#pb19cdfddd2)" style="fill: #8ec1d6"/>
   </g>
   <g id="patch_25">
    <path d="M 305.912485 86.050535 
L 317.352647 86.050535 
L 317.352647 57.681383 
L 305.912485 57.681383 
z
" clip-path="url(#pb19cdfddd2)" style="fill: #826246"/>
   </g>
   <g id="patch_26">
    <path d="M 320.212688 86.050535 
L 331.65285 86.050535 
L 331.65285 49.123091 
L 320.212688 49.123091 
z
" clip-path="url(#pb19cdfddd2)" style="fill: #d08abb"/>
   </g>
   <g id="matplotlib.axis_5">
    <g id="xtick_13">
     <g id="line2d_23">
      <g>
       <use xlink:href="#mc2e31cbb70" x="254.431755" y="86.050535" style="stroke: #000000; stroke-width: 0.8"/>
      </g>
     </g>
     <g id="text_37">
      <!-- sylph -->
      <g transform="translate(254.025453 110.131172) rotate(-75) scale(0.07 -0.07)">
       <use xlink:href="#ArialMT-73"/>
       <use xlink:href="#ArialMT-79" x="50"/>
       <use xlink:href="#ArialMT-6c" x="100"/>
       <use xlink:href="#ArialMT-70" x="122.216797"/>
       <use xlink:href="#ArialMT-68" x="177.832031"/>
      </g>
     </g>
    </g>
    <g id="xtick_14">
     <g id="line2d_24">
      <g>
       <use xlink:href="#mc2e31cbb70" x="268.731958" y="86.050535" style="stroke: #000000; stroke-width: 0.8"/>
      </g>
     </g>
     <g id="text_38">
      <!-- Bracken -->
      <g transform="translate(267.156932 119.150353) rotate(-75) scale(0.07 -0.07)">
       <use xlink:href="#ArialMT-42"/>
       <use xlink:href="#ArialMT-72" x="66.699219"/>
       <use xlink:href="#ArialMT-61" x="100"/>
       <use xlink:href="#ArialMT-63" x="155.615234"/>
       <use xlink:href="#ArialMT-6b" x="205.615234"/>
       <use xlink:href="#ArialMT-65" x="255.615234"/>
       <use xlink:href="#ArialMT-6e" x="311.230469"/>
      </g>
     </g>
    </g>
    <g id="xtick_15">
     <g id="line2d_25">
      <g>
       <use xlink:href="#mc2e31cbb70" x="283.03216" y="86.050535" style="stroke: #000000; stroke-width: 0.8"/>
      </g>
     </g>
     <g id="text_39">
      <!-- MetaPhlAn2 -->
      <g transform="translate(279.8454 131.180506) rotate(-75) scale(0.07 -0.07)">
       <use xlink:href="#ArialMT-4d"/>
       <use xlink:href="#ArialMT-65" x="83.300781"/>
       <use xlink:href="#ArialMT-74" x="138.916016"/>
       <use xlink:href="#ArialMT-61" x="166.699219"/>
       <use xlink:href="#ArialMT-50" x="222.314453"/>
       <use xlink:href="#ArialMT-68" x="289.013672"/>
       <use xlink:href="#ArialMT-6c" x="344.628906"/>
       <use xlink:href="#ArialMT-41" x="366.845703"/>
       <use xlink:href="#ArialMT-6e" x="433.544922"/>
       <use xlink:href="#ArialMT-32" x="489.160156"/>
      </g>
     </g>
    </g>
    <g id="xtick_16">
     <g id="line2d_26">
      <g>
       <use xlink:href="#mc2e31cbb70" x="297.332363" y="86.050535" style="stroke: #000000; stroke-width: 0.8"/>
      </g>
     </g>
     <g id="text_40">
      <!-- mOTUs v2.5 -->
      <g transform="translate(293.996984 132.289812) rotate(-75) scale(0.07 -0.07)">
       <use xlink:href="#ArialMT-6d"/>
       <use xlink:href="#ArialMT-4f" x="83.300781"/>
       <use xlink:href="#ArialMT-54" x="161.083984"/>
       <use xlink:href="#ArialMT-55" x="222.167969"/>
       <use xlink:href="#ArialMT-73" x="294.384766"/>
       <use xlink:href="#ArialMT-20" x="344.384766"/>
       <use xlink:href="#ArialMT-76" x="372.167969"/>
       <use xlink:href="#ArialMT-32" x="422.167969"/>
       <use xlink:href="#ArialMT-2e" x="477.783203"/>
       <use xlink:href="#ArialMT-35" x="505.566406"/>
      </g>
     </g>
    </g>
    <g id="xtick_17">
     <g id="line2d_27">
      <g>
       <use xlink:href="#mc2e31cbb70" x="311.632566" y="86.050535" style="stroke: #000000; stroke-width: 0.8"/>
      </g>
     </g>
     <g id="text_41">
      <!-- MetaPhlAn4* -->
      <g transform="translate(308.093225 133.812201) rotate(-75) scale(0.07 -0.07)">
       <use xlink:href="#ArialMT-4d"/>
       <use xlink:href="#ArialMT-65" x="83.300781"/>
       <use xlink:href="#ArialMT-74" x="138.916016"/>
       <use xlink:href="#ArialMT-61" x="166.699219"/>
       <use xlink:href="#ArialMT-50" x="222.314453"/>
       <use xlink:href="#ArialMT-68" x="289.013672"/>
       <use xlink:href="#ArialMT-6c" x="344.628906"/>
       <use xlink:href="#ArialMT-41" x="366.845703"/>
       <use xlink:href="#ArialMT-6e" x="433.544922"/>
       <use xlink:href="#ArialMT-34" x="489.160156"/>
       <use xlink:href="#ArialMT-2a" x="544.775391"/>
      </g>
     </g>
    </g>
    <g id="xtick_18">
     <g id="line2d_28">
      <g>
       <use xlink:href="#mc2e31cbb70" x="325.932769" y="86.050535" style="stroke: #000000; stroke-width: 0.8"/>
      </g>
     </g>
     <g id="text_42">
      <!-- mOTUs v3* -->
      <g transform="translate(323.000217 129.283066) rotate(-75) scale(0.07 -0.07)">
       <use xlink:href="#ArialMT-6d"/>
       <use xlink:href="#ArialMT-4f" x="83.300781"/>
       <use xlink:href="#ArialMT-54" x="161.083984"/>
       <use xlink:href="#ArialMT-55" x="222.167969"/>
       <use xlink:href="#ArialMT-73" x="294.384766"/>
       <use xlink:href="#ArialMT-20" x="344.384766"/>
       <use xlink:href="#ArialMT-76" x="372.167969"/>
       <use xlink:href="#ArialMT-33" x="422.167969"/>
       <use xlink:href="#ArialMT-2a" x="477.783203"/>
      </g>
     </g>
    </g>
   </g>
   <g id="matplotlib.axis_6">
    <g id="ytick_11">
     <g id="line2d_29">
      <g>
       <use xlink:href="#m4eabb5c908" x="247.281654" y="86.050535" style="stroke: #000000; stroke-width: 0.8"/>
      </g>
     </g>
     <g id="text_43">
      <!-- 0.00 -->
      <g transform="translate(226.658997 88.555769) scale(0.07 -0.07)">
       <use xlink:href="#ArialMT-30"/>
       <use xlink:href="#ArialMT-2e" x="55.615234"/>
       <use xlink:href="#ArialMT-30" x="83.398438"/>
       <use xlink:href="#ArialMT-30" x="139.013672"/>
      </g>
     </g>
    </g>
    <g id="ytick_12">
     <g id="line2d_30">
      <g>
       <use xlink:href="#m4eabb5c908" x="247.281654" y="70.201847" style="stroke: #000000; stroke-width: 0.8"/>
      </g>
     </g>
     <g id="text_44">
      <!-- 0.25 -->
      <g transform="translate(226.658997 72.707081) scale(0.07 -0.07)">
       <use xlink:href="#ArialMT-30"/>
       <use xlink:href="#ArialMT-2e" x="55.615234"/>
       <use xlink:href="#ArialMT-32" x="83.398438"/>
       <use xlink:href="#ArialMT-35" x="139.013672"/>
      </g>
     </g>
    </g>
    <g id="ytick_13">
     <g id="line2d_31">
      <g>
       <use xlink:href="#m4eabb5c908" x="247.281654" y="54.353158" style="stroke: #000000; stroke-width: 0.8"/>
      </g>
     </g>
     <g id="text_45">
      <!-- 0.50 -->
      <g transform="translate(226.658997 56.858393) scale(0.07 -0.07)">
       <use xlink:href="#ArialMT-30"/>
       <use xlink:href="#ArialMT-2e" x="55.615234"/>
       <use xlink:href="#ArialMT-35" x="83.398438"/>
       <use xlink:href="#ArialMT-30" x="139.013672"/>
      </g>
     </g>
    </g>
    <g id="ytick_14">
     <g id="line2d_32">
      <g>
       <use xlink:href="#m4eabb5c908" x="247.281654" y="38.50447" style="stroke: #000000; stroke-width: 0.8"/>
      </g>
     </g>
     <g id="text_46">
      <!-- 0.75 -->
      <g transform="translate(226.658997 41.009704) scale(0.07 -0.07)">
       <use xlink:href="#ArialMT-30"/>
       <use xlink:href="#ArialMT-2e" x="55.615234"/>
       <use xlink:href="#ArialMT-37" x="83.398438"/>
       <use xlink:href="#ArialMT-35" x="139.013672"/>
      </g>
     </g>
    </g>
    <g id="ytick_15">
     <g id="line2d_33">
      <g>
       <use xlink:href="#m4eabb5c908" x="247.281654" y="22.655781" style="stroke: #000000; stroke-width: 0.8"/>
      </g>
     </g>
     <g id="text_47">
      <!-- 1.00 -->
      <g transform="translate(226.658997 25.161016) scale(0.07 -0.07)">
       <use xlink:href="#ArialMT-31"/>
       <use xlink:href="#ArialMT-2e" x="55.615234"/>
       <use xlink:href="#ArialMT-30" x="83.398438"/>
       <use xlink:href="#ArialMT-30" x="139.013672"/>
      </g>
     </g>
    </g>
   </g>
   <g id="patch_27">
    <path d="M 247.281654 86.050535 
L 247.281654 22.655781 
" style="fill: none; stroke: #000000; stroke-width: 0.8; stroke-linejoin: miter; stroke-linecap: square"/>
   </g>
   <g id="patch_28">
    <path d="M 247.281654 86.050535 
L 333.08287 86.050535 
" style="fill: none; stroke: #000000; stroke-width: 0.8; stroke-linejoin: miter; stroke-linecap: square"/>
   </g>
   <g id="text_48">
    <!-- 0.6 -->
    <g transform="translate(250.261755 45.553288) scale(0.06 -0.06)">
     <use xlink:href="#ArialMT-30"/>
     <use xlink:href="#ArialMT-2e" x="55.615234"/>
     <use xlink:href="#ArialMT-36" x="83.398438"/>
    </g>
   </g>
   <g id="text_49">
    <!-- 0.75 -->
    <g transform="translate(262.893676 36.170864) scale(0.06 -0.06)">
     <use xlink:href="#ArialMT-30"/>
     <use xlink:href="#ArialMT-2e" x="55.615234"/>
     <use xlink:href="#ArialMT-37" x="83.398438"/>
     <use xlink:href="#ArialMT-35" x="139.013672"/>
    </g>
   </g>
   <g id="text_50">
    <!-- 0.67 -->
    <g transform="translate(277.193879 40.988865) scale(0.06 -0.06)">
     <use xlink:href="#ArialMT-30"/>
     <use xlink:href="#ArialMT-2e" x="55.615234"/>
     <use xlink:href="#ArialMT-36" x="83.398438"/>
     <use xlink:href="#ArialMT-37" x="139.013672"/>
    </g>
   </g>
   <g id="text_51">
    <!-- 0.25 -->
    <g transform="translate(291.494082 67.646359) scale(0.06 -0.06)">
     <use xlink:href="#ArialMT-30"/>
     <use xlink:href="#ArialMT-2e" x="55.615234"/>
     <use xlink:href="#ArialMT-32" x="83.398438"/>
     <use xlink:href="#ArialMT-35" x="139.013672"/>
    </g>
   </g>
   <g id="text_52">
    <!-- 0.45 -->
    <g transform="translate(305.794285 55.220988) scale(0.06 -0.06)">
     <use xlink:href="#ArialMT-30"/>
     <use xlink:href="#ArialMT-2e" x="55.615234"/>
     <use xlink:href="#ArialMT-34" x="83.398438"/>
     <use xlink:href="#ArialMT-35" x="139.013672"/>
    </g>
   </g>
   <g id="text_53">
    <!-- 0.58 -->
    <g transform="translate(320.094487 46.662696) scale(0.06 -0.06)">
     <use xlink:href="#ArialMT-30"/>
     <use xlink:href="#ArialMT-2e" x="55.615234"/>
     <use xlink:href="#ArialMT-35" x="83.398438"/>
     <use xlink:href="#ArialMT-38" x="139.013672"/>
    </g>
   </g>
   <g id="text_54">
    <!-- Sensitivity -->
    <g transform="translate(274.42734 12.655781) scale(0.07 -0.07)">
     <defs>
      <path id="ArialMT-53" d="M 288 1472 
L 859 1522 
Q 900 1178 1048 958 
Q 1197 738 1509 602 
Q 1822 466 2213 466 
Q 2559 466 2825 569 
Q 3091 672 3220 851 
Q 3350 1031 3350 1244 
Q 3350 1459 3225 1620 
Q 3100 1781 2813 1891 
Q 2628 1963 1997 2114 
Q 1366 2266 1113 2400 
Q 784 2572 623 2826 
Q 463 3081 463 3397 
Q 463 3744 659 4045 
Q 856 4347 1234 4503 
Q 1613 4659 2075 4659 
Q 2584 4659 2973 4495 
Q 3363 4331 3572 4012 
Q 3781 3694 3797 3291 
L 3216 3247 
Q 3169 3681 2898 3903 
Q 2628 4125 2100 4125 
Q 1550 4125 1298 3923 
Q 1047 3722 1047 3438 
Q 1047 3191 1225 3031 
Q 1400 2872 2139 2705 
Q 2878 2538 3153 2413 
Q 3553 2228 3743 1945 
Q 3934 1663 3934 1294 
Q 3934 928 3725 604 
Q 3516 281 3123 101 
Q 2731 -78 2241 -78 
Q 1619 -78 1198 103 
Q 778 284 539 648 
Q 300 1013 288 1472 
z
" transform="scale(0.015625)"/>
     </defs>
     <use xlink:href="#ArialMT-53"/>
     <use xlink:href="#ArialMT-65" x="66.699219"/>
     <use xlink:href="#ArialMT-6e" x="122.314453"/>
     <use xlink:href="#ArialMT-73" x="177.929688"/>
     <use xlink:href="#ArialMT-69" x="227.929688"/>
     <use xlink:href="#ArialMT-74" x="250.146484"/>
     <use xlink:href="#ArialMT-69" x="277.929688"/>
     <use xlink:href="#ArialMT-76" x="300.146484"/>
     <use xlink:href="#ArialMT-69" x="350.146484"/>
     <use xlink:href="#ArialMT-74" x="372.363281"/>
     <use xlink:href="#ArialMT-79" x="400.146484"/>
    </g>
   </g>
  </g>
  <g id="axes_4">
   <g id="patch_29">
    <path d="M 358.77748 86.050535 
L 444.578697 86.050535 
L 444.578697 22.655781 
L 358.77748 22.655781 
z
" style="fill: #ffffff"/>
   </g>
   <g id="matplotlib.axis_7">
    <g id="xtick_19">
     <g id="line2d_34">
      <g>
       <use xlink:href="#mc2e31cbb70" x="365.927582" y="86.050535" style="stroke: #000000; stroke-width: 0.8"/>
      </g>
     </g>
     <g id="text_55">
      <!-- sylph -->
      <g transform="translate(365.52128 110.131172) rotate(-75) scale(0.07 -0.07)">
       <use xlink:href="#ArialMT-73"/>
       <use xlink:href="#ArialMT-79" x="50"/>
       <use xlink:href="#ArialMT-6c" x="100"/>
       <use xlink:href="#ArialMT-70" x="122.216797"/>
       <use xlink:href="#ArialMT-68" x="177.832031"/>
      </g>
     </g>
    </g>
    <g id="xtick_20">
     <g id="line2d_35">
      <g>
       <use xlink:href="#mc2e31cbb70" x="380.227784" y="86.050535" style="stroke: #000000; stroke-width: 0.8"/>
      </g>
     </g>
     <g id="text_56">
      <!-- Bracken -->
      <g transform="translate(378.652759 119.150353) rotate(-75) scale(0.07 -0.07)">
       <use xlink:href="#ArialMT-42"/>
       <use xlink:href="#ArialMT-72" x="66.699219"/>
       <use xlink:href="#ArialMT-61" x="100"/>
       <use xlink:href="#ArialMT-63" x="155.615234"/>
       <use xlink:href="#ArialMT-6b" x="205.615234"/>
       <use xlink:href="#ArialMT-65" x="255.615234"/>
       <use xlink:href="#ArialMT-6e" x="311.230469"/>
      </g>
     </g>
    </g>
    <g id="xtick_21">
     <g id="line2d_36">
      <g>
       <use xlink:href="#mc2e31cbb70" x="394.527987" y="86.050535" style="stroke: #000000; stroke-width: 0.8"/>
      </g>
     </g>
     <g id="text_57">
      <!-- MetaPhlAn2 -->
      <g transform="translate(391.341227 131.180506) rotate(-75) scale(0.07 -0.07)">
       <use xlink:href="#ArialMT-4d"/>
       <use xlink:href="#ArialMT-65" x="83.300781"/>
       <use xlink:href="#ArialMT-74" x="138.916016"/>
       <use xlink:href="#ArialMT-61" x="166.699219"/>
       <use xlink:href="#ArialMT-50" x="222.314453"/>
       <use xlink:href="#ArialMT-68" x="289.013672"/>
       <use xlink:href="#ArialMT-6c" x="344.628906"/>
       <use xlink:href="#ArialMT-41" x="366.845703"/>
       <use xlink:href="#ArialMT-6e" x="433.544922"/>
       <use xlink:href="#ArialMT-32" x="489.160156"/>
      </g>
     </g>
    </g>
    <g id="xtick_22">
     <g id="line2d_37">
      <g>
       <use xlink:href="#mc2e31cbb70" x="408.82819" y="86.050535" style="stroke: #000000; stroke-width: 0.8"/>
      </g>
     </g>
     <g id="text_58">
      <!-- mOTUs v2.5 -->
      <g transform="translate(405.492811 132.289812) rotate(-75) scale(0.07 -0.07)">
       <use xlink:href="#ArialMT-6d"/>
       <use xlink:href="#ArialMT-4f" x="83.300781"/>
       <use xlink:href="#ArialMT-54" x="161.083984"/>
       <use xlink:href="#ArialMT-55" x="222.167969"/>
       <use xlink:href="#ArialMT-73" x="294.384766"/>
       <use xlink:href="#ArialMT-20" x="344.384766"/>
       <use xlink:href="#ArialMT-76" x="372.167969"/>
       <use xlink:href="#ArialMT-32" x="422.167969"/>
       <use xlink:href="#ArialMT-2e" x="477.783203"/>
       <use xlink:href="#ArialMT-35" x="505.566406"/>
      </g>
     </g>
    </g>
    <g id="xtick_23">
     <g id="line2d_38">
      <g>
       <use xlink:href="#mc2e31cbb70" x="423.128393" y="86.050535" style="stroke: #000000; stroke-width: 0.8"/>
      </g>
     </g>
     <g id="text_59">
      <!-- MetaPhlAn4* -->
      <g transform="translate(419.589052 133.812201) rotate(-75) scale(0.07 -0.07)">
       <use xlink:href="#ArialMT-4d"/>
       <use xlink:href="#ArialMT-65" x="83.300781"/>
       <use xlink:href="#ArialMT-74" x="138.916016"/>
       <use xlink:href="#ArialMT-61" x="166.699219"/>
       <use xlink:href="#ArialMT-50" x="222.314453"/>
       <use xlink:href="#ArialMT-68" x="289.013672"/>
       <use xlink:href="#ArialMT-6c" x="344.628906"/>
       <use xlink:href="#ArialMT-41" x="366.845703"/>
       <use xlink:href="#ArialMT-6e" x="433.544922"/>
       <use xlink:href="#ArialMT-34" x="489.160156"/>
       <use xlink:href="#ArialMT-2a" x="544.775391"/>
      </g>
     </g>
    </g>
    <g id="xtick_24">
     <g id="line2d_39">
      <g>
       <use xlink:href="#mc2e31cbb70" x="437.428595" y="86.050535" style="stroke: #000000; stroke-width: 0.8"/>
      </g>
     </g>
     <g id="text_60">
      <!-- mOTUs v3* -->
      <g transform="translate(434.496044 129.283066) rotate(-75) scale(0.07 -0.07)">
       <use xlink:href="#ArialMT-6d"/>
       <use xlink:href="#ArialMT-4f" x="83.300781"/>
       <use xlink:href="#ArialMT-54" x="161.083984"/>
       <use xlink:href="#ArialMT-55" x="222.167969"/>
       <use xlink:href="#ArialMT-73" x="294.384766"/>
       <use xlink:href="#ArialMT-20" x="344.384766"/>
       <use xlink:href="#ArialMT-76" x="372.167969"/>
       <use xlink:href="#ArialMT-33" x="422.167969"/>
       <use xlink:href="#ArialMT-2a" x="477.783203"/>
      </g>
     </g>
    </g>
   </g>
   <g id="matplotlib.axis_8">
    <g id="ytick_16">
     <g id="line2d_40">
      <g>
       <use xlink:href="#m4eabb5c908" x="358.77748" y="85.303892" style="stroke: #000000; stroke-width: 0.8"/>
      </g>
     </g>
     <g id="text_61">
      <!-- 0 -->
      <g transform="translate(347.884824 87.809126) scale(0.07 -0.07)">
       <use xlink:href="#ArialMT-30"/>
      </g>
     </g>
    </g>
    <g id="ytick_17">
     <g id="line2d_41">
      <g>
       <use xlink:href="#m4eabb5c908" x="358.77748" y="54.693335" style="stroke: #000000; stroke-width: 0.8"/>
      </g>
     </g>
     <g id="text_62">
      <!-- 1 -->
      <g transform="translate(347.884824 57.198569) scale(0.07 -0.07)">
       <use xlink:href="#ArialMT-31"/>
      </g>
     </g>
    </g>
    <g id="ytick_18">
     <g id="line2d_42">
      <g>
       <use xlink:href="#m4eabb5c908" x="358.77748" y="24.082778" style="stroke: #000000; stroke-width: 0.8"/>
      </g>
     </g>
     <g id="text_63">
      <!-- 2 -->
      <g transform="translate(347.884824 26.588012) scale(0.07 -0.07)">
       <use xlink:href="#ArialMT-32"/>
      </g>
     </g>
    </g>
   </g>
   <g id="patch_30">
    <path d="M 360.207501 80.655924 
L 371.647663 80.655924 
L 371.647663 78.702205 
L 360.207501 78.702205 
L 360.207501 80.655924 
z
" clip-path="url(#p9d0096ca2d)" style="fill: #597dbf; stroke: #3c3c3c; stroke-linejoin: miter"/>
   </g>
   <g id="line2d_43">
    <path d="M 365.927582 80.655924 
L 365.927582 81.791851 
" clip-path="url(#p9d0096ca2d)" style="fill: none; stroke: #3c3c3c"/>
   </g>
   <g id="line2d_44">
    <path d="M 365.927582 78.702205 
L 365.927582 75.773478 
" clip-path="url(#p9d0096ca2d)" style="fill: none; stroke: #3c3c3c"/>
   </g>
   <g id="line2d_45">
    <path d="M 363.067541 81.791851 
L 368.787622 81.791851 
" clip-path="url(#p9d0096ca2d)" style="fill: none; stroke: #3c3c3c; stroke-linecap: square"/>
   </g>
   <g id="line2d_46">
    <path d="M 363.067541 75.773478 
L 368.787622 75.773478 
" clip-path="url(#p9d0096ca2d)" style="fill: none; stroke: #3c3c3c; stroke-linecap: square"/>
   </g>
   <g id="line2d_47">
    <defs>
     <path id="mca368431b4" d="M 0 3 
C 0.795609 3 1.55874 2.683901 2.12132 2.12132 
C 2.683901 1.55874 3 0.795609 3 0 
C 3 -0.795609 2.683901 -1.55874 2.12132 -2.12132 
C 1.55874 -2.683901 0.795609 -3 0 -3 
C -0.795609 -3 -1.55874 -2.683901 -2.12132 -2.12132 
C -2.683901 -1.55874 -3 -0.795609 -3 0 
C -3 0.795609 -2.683901 1.55874 -2.12132 2.12132 
C -1.55874 2.683901 -0.795609 3 0 3 
z
" style="stroke: #3c3c3c"/>
    </defs>
    <g clip-path="url(#p9d0096ca2d)">
     <use xlink:href="#mca368431b4" x="365.927582" y="73.234639" style="fill-opacity: 0; stroke: #3c3c3c"/>
    </g>
   </g>
   <g id="patch_31">
    <path d="M 374.507703 70.900431 
L 385.947866 70.900431 
L 385.947866 69.07556 
L 374.507703 69.07556 
L 374.507703 70.900431 
z
" clip-path="url(#p9d0096ca2d)" style="fill: #c76e6e; stroke: #3c3c3c; stroke-linejoin: miter"/>
   </g>
   <g id="line2d_48">
    <path d="M 380.227784 70.900431 
L 380.227784 73.365285 
" clip-path="url(#p9d0096ca2d)" style="fill: none; stroke: #3c3c3c"/>
   </g>
   <g id="line2d_49">
    <path d="M 380.227784 69.07556 
L 380.227784 66.675164 
" clip-path="url(#p9d0096ca2d)" style="fill: none; stroke: #3c3c3c"/>
   </g>
   <g id="line2d_50">
    <path d="M 377.367744 73.365285 
L 383.087825 73.365285 
" clip-path="url(#p9d0096ca2d)" style="fill: none; stroke: #3c3c3c; stroke-linecap: square"/>
   </g>
   <g id="line2d_51">
    <path d="M 377.367744 66.675164 
L 383.087825 66.675164 
" clip-path="url(#p9d0096ca2d)" style="fill: none; stroke: #3c3c3c; stroke-linecap: square"/>
   </g>
   <g id="line2d_52">
    <g clip-path="url(#p9d0096ca2d)">
     <use xlink:href="#mca368431b4" x="380.227784" y="75.133748" style="fill-opacity: 0; stroke: #3c3c3c"/>
     <use xlink:href="#mca368431b4" x="380.227784" y="66.10645" style="fill-opacity: 0; stroke: #3c3c3c"/>
     <use xlink:href="#mca368431b4" x="380.227784" y="63.0296" style="fill-opacity: 0; stroke: #3c3c3c"/>
     <use xlink:href="#mca368431b4" x="380.227784" y="65.940939" style="fill-opacity: 0; stroke: #3c3c3c"/>
     <use xlink:href="#mca368431b4" x="380.227784" y="65.546063" style="fill-opacity: 0; stroke: #3c3c3c"/>
     <use xlink:href="#mca368431b4" x="380.227784" y="65.894656" style="fill-opacity: 0; stroke: #3c3c3c"/>
    </g>
   </g>
   <g id="patch_32">
    <path d="M 388.807906 79.361857 
L 400.248068 79.361857 
L 400.248068 77.366985 
L 388.807906 77.366985 
L 388.807906 79.361857 
z
" clip-path="url(#p9d0096ca2d)" style="fill: #9475ab; stroke: #3c3c3c; stroke-linejoin: miter"/>
   </g>
   <g id="line2d_53">
    <path d="M 394.527987 79.361857 
L 394.527987 81.489777 
" clip-path="url(#p9d0096ca2d)" style="fill: none; stroke: #3c3c3c"/>
   </g>
   <g id="line2d_54">
    <path d="M 394.527987 77.366985 
L 394.527987 75.075518 
" clip-path="url(#p9d0096ca2d)" style="fill: none; stroke: #3c3c3c"/>
   </g>
   <g id="line2d_55">
    <path d="M 391.667947 81.489777 
L 397.388028 81.489777 
" clip-path="url(#p9d0096ca2d)" style="fill: none; stroke: #3c3c3c; stroke-linecap: square"/>
   </g>
   <g id="line2d_56">
    <path d="M 391.667947 75.075518 
L 397.388028 75.075518 
" clip-path="url(#p9d0096ca2d)" style="fill: none; stroke: #3c3c3c; stroke-linecap: square"/>
   </g>
   <g id="line2d_57">
    <g clip-path="url(#p9d0096ca2d)">
     <use xlink:href="#mca368431b4" x="394.527987" y="72.002279" style="fill-opacity: 0; stroke: #3c3c3c"/>
     <use xlink:href="#mca368431b4" x="394.527987" y="68.808637" style="fill-opacity: 0; stroke: #3c3c3c"/>
     <use xlink:href="#mca368431b4" x="394.527987" y="73.803068" style="fill-opacity: 0; stroke: #3c3c3c"/>
     <use xlink:href="#mca368431b4" x="394.527987" y="72.298421" style="fill-opacity: 0; stroke: #3c3c3c"/>
     <use xlink:href="#mca368431b4" x="394.527987" y="72.851811" style="fill-opacity: 0; stroke: #3c3c3c"/>
     <use xlink:href="#mca368431b4" x="394.527987" y="73.515827" style="fill-opacity: 0; stroke: #3c3c3c"/>
    </g>
   </g>
   <g id="patch_33">
    <path d="M 403.108109 33.627586 
L 414.548271 33.627586 
L 414.548271 28.092019 
L 403.108109 28.092019 
L 403.108109 33.627586 
z
" clip-path="url(#p9d0096ca2d)" style="fill: #8ec1d6; stroke: #3c3c3c; stroke-linejoin: miter"/>
   </g>
   <g id="line2d_58">
    <path d="M 408.82819 33.627586 
L 408.82819 41.493144 
" clip-path="url(#p9d0096ca2d)" style="fill: none; stroke: #3c3c3c"/>
   </g>
   <g id="line2d_59">
    <path d="M 408.82819 28.092019 
L 408.82819 25.537361 
" clip-path="url(#p9d0096ca2d)" style="fill: none; stroke: #3c3c3c"/>
   </g>
   <g id="line2d_60">
    <path d="M 405.968149 41.493144 
L 411.688231 41.493144 
" clip-path="url(#p9d0096ca2d)" style="fill: none; stroke: #3c3c3c; stroke-linecap: square"/>
   </g>
   <g id="line2d_61">
    <path d="M 405.968149 25.537361 
L 411.688231 25.537361 
" clip-path="url(#p9d0096ca2d)" style="fill: none; stroke: #3c3c3c; stroke-linecap: square"/>
   </g>
   <g id="line2d_62">
    <g clip-path="url(#p9d0096ca2d)">
     <use xlink:href="#mca368431b4" x="408.82819" y="45.169533" style="fill-opacity: 0; stroke: #3c3c3c"/>
     <use xlink:href="#mca368431b4" x="408.82819" y="45.324008" style="fill-opacity: 0; stroke: #3c3c3c"/>
     <use xlink:href="#mca368431b4" x="408.82819" y="48.801256" style="fill-opacity: 0; stroke: #3c3c3c"/>
     <use xlink:href="#mca368431b4" x="408.82819" y="48.335216" style="fill-opacity: 0; stroke: #3c3c3c"/>
    </g>
   </g>
   <g id="patch_34">
    <path d="M 417.408312 81.638346 
L 428.848474 81.638346 
L 428.848474 79.262214 
L 417.408312 79.262214 
L 417.408312 81.638346 
z
" clip-path="url(#p9d0096ca2d)" style="fill: #826246; stroke: #3c3c3c; stroke-linejoin: miter"/>
   </g>
   <g id="line2d_63">
    <path d="M 423.128393 81.638346 
L 423.128393 83.168955 
" clip-path="url(#p9d0096ca2d)" style="fill: none; stroke: #3c3c3c"/>
   </g>
   <g id="line2d_64">
    <path d="M 423.128393 79.262214 
L 423.128393 76.609842 
" clip-path="url(#p9d0096ca2d)" style="fill: none; stroke: #3c3c3c"/>
   </g>
   <g id="line2d_65">
    <path d="M 420.268352 83.168955 
L 425.988433 83.168955 
" clip-path="url(#p9d0096ca2d)" style="fill: none; stroke: #3c3c3c; stroke-linecap: square"/>
   </g>
   <g id="line2d_66">
    <path d="M 420.268352 76.609842 
L 425.988433 76.609842 
" clip-path="url(#p9d0096ca2d)" style="fill: none; stroke: #3c3c3c; stroke-linecap: square"/>
   </g>
   <g id="line2d_67">
    <g clip-path="url(#p9d0096ca2d)">
     <use xlink:href="#mca368431b4" x="423.128393" y="74.199517" style="fill-opacity: 0; stroke: #3c3c3c"/>
     <use xlink:href="#mca368431b4" x="423.128393" y="75.028252" style="fill-opacity: 0; stroke: #3c3c3c"/>
    </g>
   </g>
   <g id="patch_35">
    <path d="M 431.708514 81.503871 
L 443.148677 81.503871 
L 443.148677 76.648857 
L 431.708514 76.648857 
L 431.708514 81.503871 
z
" clip-path="url(#p9d0096ca2d)" style="fill: #d08abb; stroke: #3c3c3c; stroke-linejoin: miter"/>
   </g>
   <g id="line2d_68">
    <path d="M 437.428595 81.503871 
L 437.428595 82.596437 
" clip-path="url(#p9d0096ca2d)" style="fill: none; stroke: #3c3c3c"/>
   </g>
   <g id="line2d_69">
    <path d="M 437.428595 76.648857 
L 437.428595 74.45243 
" clip-path="url(#p9d0096ca2d)" style="fill: none; stroke: #3c3c3c"/>
   </g>
   <g id="line2d_70">
    <path d="M 434.568555 82.596437 
L 440.288636 82.596437 
" clip-path="url(#p9d0096ca2d)" style="fill: none; stroke: #3c3c3c; stroke-linecap: square"/>
   </g>
   <g id="line2d_71">
    <path d="M 434.568555 74.45243 
L 440.288636 74.45243 
" clip-path="url(#p9d0096ca2d)" style="fill: none; stroke: #3c3c3c; stroke-linecap: square"/>
   </g>
   <g id="line2d_72"/>
   <g id="line2d_73">
    <path d="M 360.207501 80.273751 
L 371.647663 80.273751 
" clip-path="url(#p9d0096ca2d)" style="fill: none; stroke: #3c3c3c"/>
   </g>
   <g id="line2d_74">
    <path d="M 374.507703 70.166084 
L 385.947866 70.166084 
" clip-path="url(#p9d0096ca2d)" style="fill: none; stroke: #3c3c3c"/>
   </g>
   <g id="line2d_75">
    <path d="M 388.807906 78.352957 
L 400.248068 78.352957 
" clip-path="url(#p9d0096ca2d)" style="fill: none; stroke: #3c3c3c"/>
   </g>
   <g id="line2d_76">
    <path d="M 403.108109 29.903421 
L 414.548271 29.903421 
" clip-path="url(#p9d0096ca2d)" style="fill: none; stroke: #3c3c3c"/>
   </g>
   <g id="line2d_77">
    <path d="M 417.408312 81.085106 
L 428.848474 81.085106 
" clip-path="url(#p9d0096ca2d)" style="fill: none; stroke: #3c3c3c"/>
   </g>
   <g id="line2d_78">
    <path d="M 431.708514 79.629685 
L 443.148677 79.629685 
" clip-path="url(#p9d0096ca2d)" style="fill: none; stroke: #3c3c3c"/>
   </g>
   <g id="patch_36">
    <path d="M 358.77748 86.050535 
L 358.77748 22.655781 
" style="fill: none; stroke: #000000; stroke-width: 0.8; stroke-linejoin: miter; stroke-linecap: square"/>
   </g>
   <g id="patch_37">
    <path d="M 358.77748 86.050535 
L 444.578697 86.050535 
" style="fill: none; stroke: #000000; stroke-width: 0.8; stroke-linejoin: miter; stroke-linecap: square"/>
   </g>
   <g id="text_64">
    <!-- Norm. L1 (species) -->
    <g transform="translate(372.116214 12.655781) scale(0.07 -0.07)">
     <defs>
      <path id="ArialMT-4e" d="M 488 0 
L 488 4581 
L 1109 4581 
L 3516 984 
L 3516 4581 
L 4097 4581 
L 4097 0 
L 3475 0 
L 1069 3600 
L 1069 0 
L 488 0 
z
" transform="scale(0.015625)"/>
      <path id="ArialMT-4c" d="M 469 0 
L 469 4581 
L 1075 4581 
L 1075 541 
L 3331 541 
L 3331 0 
L 469 0 
z
" transform="scale(0.015625)"/>
      <path id="ArialMT-28" d="M 1497 -1347 
Q 1031 -759 709 28 
Q 388 816 388 1659 
Q 388 2403 628 3084 
Q 909 3875 1497 4659 
L 1900 4659 
Q 1522 4009 1400 3731 
Q 1209 3300 1100 2831 
Q 966 2247 966 1656 
Q 966 153 1900 -1347 
L 1497 -1347 
z
" transform="scale(0.015625)"/>
      <path id="ArialMT-29" d="M 791 -1347 
L 388 -1347 
Q 1322 153 1322 1656 
Q 1322 2244 1188 2822 
Q 1081 3291 891 3722 
Q 769 4003 388 4659 
L 791 4659 
Q 1378 3875 1659 3084 
Q 1900 2403 1900 1659 
Q 1900 816 1576 28 
Q 1253 -759 791 -1347 
z
" transform="scale(0.015625)"/>
     </defs>
     <use xlink:href="#ArialMT-4e"/>
     <use xlink:href="#ArialMT-6f" x="72.216797"/>
     <use xlink:href="#ArialMT-72" x="127.832031"/>
     <use xlink:href="#ArialMT-6d" x="161.132812"/>
     <use xlink:href="#ArialMT-2e" x="244.433594"/>
     <use xlink:href="#ArialMT-20" x="272.216797"/>
     <use xlink:href="#ArialMT-4c" x="300"/>
     <use xlink:href="#ArialMT-31" x="355.615234"/>
     <use xlink:href="#ArialMT-20" x="411.230469"/>
     <use xlink:href="#ArialMT-28" x="439.013672"/>
     <use xlink:href="#ArialMT-73" x="472.314453"/>
     <use xlink:href="#ArialMT-70" x="522.314453"/>
     <use xlink:href="#ArialMT-65" x="577.929688"/>
     <use xlink:href="#ArialMT-63" x="633.544922"/>
     <use xlink:href="#ArialMT-69" x="683.544922"/>
     <use xlink:href="#ArialMT-65" x="705.761719"/>
     <use xlink:href="#ArialMT-73" x="761.376953"/>
     <use xlink:href="#ArialMT-29" x="811.376953"/>
    </g>
   </g>
  </g>
  <g id="text_65">
   <!-- CAMI2 Challenge Strain Madness (species level) -->
   <g transform="translate(150.713919 -1.473281) scale(0.07 -0.07)">
    <defs>
     <path id="ArialMT-43" d="M 3763 1606 
L 4369 1453 
Q 4178 706 3683 314 
Q 3188 -78 2472 -78 
Q 1731 -78 1267 223 
Q 803 525 561 1097 
Q 319 1669 319 2325 
Q 319 3041 592 3573 
Q 866 4106 1370 4382 
Q 1875 4659 2481 4659 
Q 3169 4659 3637 4309 
Q 4106 3959 4291 3325 
L 3694 3184 
Q 3534 3684 3231 3912 
Q 2928 4141 2469 4141 
Q 1941 4141 1586 3887 
Q 1231 3634 1087 3207 
Q 944 2781 944 2328 
Q 944 1744 1114 1308 
Q 1284 872 1643 656 
Q 2003 441 2422 441 
Q 2931 441 3284 734 
Q 3638 1028 3763 1606 
z
" transform="scale(0.015625)"/>
     <path id="ArialMT-49" d="M 597 0 
L 597 4581 
L 1203 4581 
L 1203 0 
L 597 0 
z
" transform="scale(0.015625)"/>
     <path id="ArialMT-67" d="M 319 -275 
L 866 -356 
Q 900 -609 1056 -725 
Q 1266 -881 1628 -881 
Q 2019 -881 2231 -725 
Q 2444 -569 2519 -288 
Q 2563 -116 2559 434 
Q 2191 0 1641 0 
Q 956 0 581 494 
Q 206 988 206 1678 
Q 206 2153 378 2554 
Q 550 2956 876 3175 
Q 1203 3394 1644 3394 
Q 2231 3394 2613 2919 
L 2613 3319 
L 3131 3319 
L 3131 450 
Q 3131 -325 2973 -648 
Q 2816 -972 2473 -1159 
Q 2131 -1347 1631 -1347 
Q 1038 -1347 672 -1080 
Q 306 -813 319 -275 
z
M 784 1719 
Q 784 1066 1043 766 
Q 1303 466 1694 466 
Q 2081 466 2343 764 
Q 2606 1063 2606 1700 
Q 2606 2309 2336 2618 
Q 2066 2928 1684 2928 
Q 1309 2928 1046 2623 
Q 784 2319 784 1719 
z
" transform="scale(0.015625)"/>
     <path id="ArialMT-64" d="M 2575 0 
L 2575 419 
Q 2259 -75 1647 -75 
Q 1250 -75 917 144 
Q 584 363 401 755 
Q 219 1147 219 1656 
Q 219 2153 384 2558 
Q 550 2963 881 3178 
Q 1213 3394 1622 3394 
Q 1922 3394 2156 3267 
Q 2391 3141 2538 2938 
L 2538 4581 
L 3097 4581 
L 3097 0 
L 2575 0 
z
M 797 1656 
Q 797 1019 1065 703 
Q 1334 388 1700 388 
Q 2069 388 2326 689 
Q 2584 991 2584 1609 
Q 2584 2291 2321 2609 
Q 2059 2928 1675 2928 
Q 1300 2928 1048 2622 
Q 797 2316 797 1656 
z
" transform="scale(0.015625)"/>
    </defs>
    <use xlink:href="#ArialMT-43"/>
    <use xlink:href="#ArialMT-41" x="72.216797"/>
    <use xlink:href="#ArialMT-4d" x="138.916016"/>
    <use xlink:href="#ArialMT-49" x="222.216797"/>
    <use xlink:href="#ArialMT-32" x="250"/>
    <use xlink:href="#ArialMT-20" x="305.615234"/>
    <use xlink:href="#ArialMT-43" x="333.398438"/>
    <use xlink:href="#ArialMT-68" x="405.615234"/>
    <use xlink:href="#ArialMT-61" x="461.230469"/>
    <use xlink:href="#ArialMT-6c" x="516.845703"/>
    <use xlink:href="#ArialMT-6c" x="539.0625"/>
    <use xlink:href="#ArialMT-65" x="561.279297"/>
    <use xlink:href="#ArialMT-6e" x="616.894531"/>
    <use xlink:href="#ArialMT-67" x="672.509766"/>
    <use xlink:href="#ArialMT-65" x="728.125"/>
    <use xlink:href="#ArialMT-20" x="783.740234"/>
    <use xlink:href="#ArialMT-53" x="811.523438"/>
    <use xlink:href="#ArialMT-74" x="878.222656"/>
    <use xlink:href="#ArialMT-72" x="906.005859"/>
    <use xlink:href="#ArialMT-61" x="939.306641"/>
    <use xlink:href="#ArialMT-69" x="994.921875"/>
    <use xlink:href="#ArialMT-6e" x="1017.138672"/>
    <use xlink:href="#ArialMT-20" x="1072.753906"/>
    <use xlink:href="#ArialMT-4d" x="1100.537109"/>
    <use xlink:href="#ArialMT-61" x="1183.837891"/>
    <use xlink:href="#ArialMT-64" x="1239.453125"/>
    <use xlink:href="#ArialMT-6e" x="1295.068359"/>
    <use xlink:href="#ArialMT-65" x="1350.683594"/>
    <use xlink:href="#ArialMT-73" x="1406.298828"/>
    <use xlink:href="#ArialMT-73" x="1456.298828"/>
    <use xlink:href="#ArialMT-20" x="1506.298828"/>
    <use xlink:href="#ArialMT-28" x="1534.082031"/>
    <use xlink:href="#ArialMT-73" x="1567.382812"/>
    <use xlink:href="#ArialMT-70" x="1617.382812"/>
    <use xlink:href="#ArialMT-65" x="1672.998047"/>
    <use xlink:href="#ArialMT-63" x="1728.613281"/>
    <use xlink:href="#ArialMT-69" x="1778.613281"/>
    <use xlink:href="#ArialMT-65" x="1800.830078"/>
    <use xlink:href="#ArialMT-73" x="1856.445312"/>
    <use xlink:href="#ArialMT-20" x="1906.445312"/>
    <use xlink:href="#ArialMT-6c" x="1934.228516"/>
    <use xlink:href="#ArialMT-65" x="1956.445312"/>
    <use xlink:href="#ArialMT-76" x="2012.060547"/>
    <use xlink:href="#ArialMT-65" x="2062.060547"/>
    <use xlink:href="#ArialMT-6c" x="2117.675781"/>
    <use xlink:href="#ArialMT-29" x="2139.892578"/>
   </g>
  </g>
 </g>
 <defs>
  <clipPath id="p2f815c7d56">
   <rect x="24.29" y="22.655781" width="85.801217" height="63.394754"/>
  </clipPath>
  <clipPath id="pd04a920bbe">
   <rect x="135.785827" y="22.655781" width="85.801217" height="63.394754"/>
  </clipPath>
  <clipPath id="pb19cdfddd2">
   <rect x="247.281654" y="22.655781" width="85.801217" height="63.394754"/>
  </clipPath>
  <clipPath id="p9d0096ca2d">
   <rect x="358.77748" y="22.655781" width="85.801217" height="63.394754"/>
  </clipPath>
 </defs>
</svg>
