<?xml version="1.0" encoding="utf-8" standalone="no"?>
<!DOCTYPE svg PUBLIC "-//W3C//DTD SVG 1.1//EN"
  "http://www.w3.org/Graphics/SVG/1.1/DTD/svg11.dtd">
<svg xmlns:xlink="http://www.w3.org/1999/xlink" width="453.543307pt" height="155.905512pt" viewBox="0 0 453.543307 155.905512" xmlns="http://www.w3.org/2000/svg" version="1.1">
 <metadata>
  <rdf:RDF xmlns:dc="http://purl.org/dc/elements/1.1/" xmlns:cc="http://creativecommons.org/ns#" xmlns:rdf="http://www.w3.org/1999/02/22-rdf-syntax-ns#">
   <cc:Work>
    <dc:type rdf:resource="http://purl.org/dc/dcmitype/StillImage"/>
    <dc:date>2023-10-24T11:55:52.351504</dc:date>
    <dc:format>image/svg+xml</dc:format>
    <dc:creator>
     <cc:Agent>
      <dc:title>Matplotlib v3.8.0, https://matplotlib.org/</dc:title>
     </cc:Agent>
    </dc:creator>
   </cc:Work>
  </rdf:RDF>
 </metadata>
 <defs>
  <style type="text/css">*{stroke-linejoin: round; stroke-linecap: butt}</style>
 </defs>
 <g id="figure_1">
  <g id="patch_1">
   <path d="M 0 155.905512 
L 453.543307 155.905512 
L 453.543307 0 
L 0 0 
z
" style="fill: #ffffff"/>
  </g>
  <g id="axes_1">
   <g id="patch_2">
    <path d="M 31.307188 127.307699 
L 144.164022 127.307699 
L 144.164022 25.164 
L 31.307188 25.164 
z
" style="fill: #ffffff"/>
   </g>
   <g id="PolyCollection_1">
    <defs>
     <path id="m7c999815d7" d="M 36.437044 -118.570989 
L 36.437044 -113.333689 
L 62.086324 -116.641048 
L 87.735605 -122.844391 
L 113.384885 -123.818004 
L 139.034166 -123.421646 
L 139.034166 -125.826014 
L 139.034166 -125.826014 
L 113.384885 -125.849441 
L 87.735605 -126.098616 
L 62.086324 -121.980736 
L 36.437044 -118.570989 
z
" style="stroke: #4878d0; stroke-opacity: 0.2"/>
    </defs>
    <g clip-path="url(#pb18ac2cad2)">
     <use xlink:href="#m7c999815d7" x="0" y="155.905512" style="fill: #4878d0; fill-opacity: 0.2; stroke: #4878d0; stroke-opacity: 0.2"/>
    </g>
   </g>
   <g id="PolyCollection_2">
    <defs>
     <path id="mcf1d65925b" d="M 36.437044 -87.416537 
L 36.437044 -77.593059 
L 62.086324 -81.270978 
L 87.735605 -99.836793 
L 113.384885 -107.34342 
L 139.034166 -116.194955 
L 139.034166 -120.930328 
L 139.034166 -120.930328 
L 113.384885 -116.10741 
L 87.735605 -110.367228 
L 62.086324 -87.899002 
L 36.437044 -87.416537 
z
" style="stroke: #ee854a; stroke-opacity: 0.2"/>
    </defs>
    <g clip-path="url(#pb18ac2cad2)">
     <use xlink:href="#mcf1d65925b" x="0" y="155.905512" style="fill: #ee854a; fill-opacity: 0.2; stroke: #ee854a; stroke-opacity: 0.2"/>
    </g>
   </g>
   <g id="PolyCollection_3">
    <defs>
     <path id="m01c1f291a0" d="M 36.437044 -62.867196 
L 36.437044 -54.060976 
L 62.086324 -58.452529 
L 87.735605 -77.022857 
L 113.384885 -82.964268 
L 139.034166 -93.234926 
L 139.034166 -103.362316 
L 139.034166 -103.362316 
L 113.384885 -96.801974 
L 87.735605 -90.783856 
L 62.086324 -67.705149 
L 36.437044 -62.867196 
z
" style="stroke: #6acc64; stroke-opacity: 0.2"/>
    </defs>
    <g clip-path="url(#pb18ac2cad2)">
     <use xlink:href="#m01c1f291a0" x="0" y="155.905512" style="fill: #6acc64; fill-opacity: 0.2; stroke: #6acc64; stroke-opacity: 0.2"/>
    </g>
   </g>
   <g id="PolyCollection_4">
    <defs>
     <path id="m35a8830631" d="M 36.437044 -37.05963 
L 36.437044 -33.240708 
L 62.086324 -36.114523 
L 87.735605 -43.231924 
L 113.384885 -50.960098 
L 139.034166 -63.393421 
L 139.034166 -73.804967 
L 139.034166 -73.804967 
L 113.384885 -58.693959 
L 87.735605 -50.235071 
L 62.086324 -41.644626 
L 36.437044 -37.05963 
z
" style="stroke: #d65f5f; stroke-opacity: 0.2"/>
    </defs>
    <g clip-path="url(#pb18ac2cad2)">
     <use xlink:href="#m35a8830631" x="0" y="155.905512" style="fill: #d65f5f; fill-opacity: 0.2; stroke: #d65f5f; stroke-opacity: 0.2"/>
    </g>
   </g>
   <g id="matplotlib.axis_1">
    <g id="xtick_1">
     <g id="line2d_1">
      <defs>
       <path id="mb71d7b5302" d="M 0 0 
L 0 3.5 
" style="stroke: #000000; stroke-width: 0.8"/>
      </defs>
      <g>
       <use xlink:href="#mb71d7b5302" x="36.437044" y="127.307699" style="stroke: #000000; stroke-width: 0.8"/>
      </g>
     </g>
     <g id="text_1">
      <!-- [95,96) -->
      <g transform="translate(27.098137 138.675512) scale(0.06 -0.06)">
       <defs>
        <path id="ArialMT-5b" d="M 434 -1272 
L 434 4581 
L 1675 4581 
L 1675 4116 
L 997 4116 
L 997 -806 
L 1675 -806 
L 1675 -1272 
L 434 -1272 
z
" transform="scale(0.015625)"/>
        <path id="ArialMT-39" d="M 350 1059 
L 891 1109 
Q 959 728 1153 556 
Q 1347 384 1650 384 
Q 1909 384 2104 503 
Q 2300 622 2425 820 
Q 2550 1019 2634 1356 
Q 2719 1694 2719 2044 
Q 2719 2081 2716 2156 
Q 2547 1888 2255 1720 
Q 1963 1553 1622 1553 
Q 1053 1553 659 1965 
Q 266 2378 266 3053 
Q 266 3750 677 4175 
Q 1088 4600 1706 4600 
Q 2153 4600 2523 4359 
Q 2894 4119 3086 3673 
Q 3278 3228 3278 2384 
Q 3278 1506 3087 986 
Q 2897 466 2520 194 
Q 2144 -78 1638 -78 
Q 1100 -78 759 220 
Q 419 519 350 1059 
z
M 2653 3081 
Q 2653 3566 2395 3850 
Q 2138 4134 1775 4134 
Q 1400 4134 1122 3828 
Q 844 3522 844 3034 
Q 844 2597 1108 2323 
Q 1372 2050 1759 2050 
Q 2150 2050 2401 2323 
Q 2653 2597 2653 3081 
z
" transform="scale(0.015625)"/>
        <path id="ArialMT-35" d="M 266 1200 
L 856 1250 
Q 922 819 1161 601 
Q 1400 384 1738 384 
Q 2144 384 2425 690 
Q 2706 997 2706 1503 
Q 2706 1984 2436 2262 
Q 2166 2541 1728 2541 
Q 1456 2541 1237 2417 
Q 1019 2294 894 2097 
L 366 2166 
L 809 4519 
L 3088 4519 
L 3088 3981 
L 1259 3981 
L 1013 2750 
Q 1425 3038 1878 3038 
Q 2478 3038 2890 2622 
Q 3303 2206 3303 1553 
Q 3303 931 2941 478 
Q 2500 -78 1738 -78 
Q 1113 -78 717 272 
Q 322 622 266 1200 
z
" transform="scale(0.015625)"/>
        <path id="ArialMT-2c" d="M 569 0 
L 569 641 
L 1209 641 
L 1209 0 
Q 1209 -353 1084 -570 
Q 959 -788 688 -906 
L 531 -666 
Q 709 -588 793 -436 
Q 878 -284 888 0 
L 569 0 
z
" transform="scale(0.015625)"/>
        <path id="ArialMT-36" d="M 3184 3459 
L 2625 3416 
Q 2550 3747 2413 3897 
Q 2184 4138 1850 4138 
Q 1581 4138 1378 3988 
Q 1113 3794 959 3422 
Q 806 3050 800 2363 
Q 1003 2672 1297 2822 
Q 1591 2972 1913 2972 
Q 2475 2972 2870 2558 
Q 3266 2144 3266 1488 
Q 3266 1056 3080 686 
Q 2894 316 2569 119 
Q 2244 -78 1831 -78 
Q 1128 -78 684 439 
Q 241 956 241 2144 
Q 241 3472 731 4075 
Q 1159 4600 1884 4600 
Q 2425 4600 2770 4297 
Q 3116 3994 3184 3459 
z
M 888 1484 
Q 888 1194 1011 928 
Q 1134 663 1356 523 
Q 1578 384 1822 384 
Q 2178 384 2434 671 
Q 2691 959 2691 1453 
Q 2691 1928 2437 2201 
Q 2184 2475 1800 2475 
Q 1419 2475 1153 2201 
Q 888 1928 888 1484 
z
" transform="scale(0.015625)"/>
        <path id="ArialMT-29" d="M 791 -1347 
L 388 -1347 
Q 1322 153 1322 1656 
Q 1322 2244 1188 2822 
Q 1081 3291 891 3722 
Q 769 4003 388 4659 
L 791 4659 
Q 1378 3875 1659 3084 
Q 1900 2403 1900 1659 
Q 1900 816 1576 28 
Q 1253 -759 791 -1347 
z
" transform="scale(0.015625)"/>
       </defs>
       <use xlink:href="#ArialMT-5b"/>
       <use xlink:href="#ArialMT-39" x="27.783203"/>
       <use xlink:href="#ArialMT-35" x="83.398438"/>
       <use xlink:href="#ArialMT-2c" x="139.013672"/>
       <use xlink:href="#ArialMT-39" x="166.796875"/>
       <use xlink:href="#ArialMT-36" x="222.412109"/>
       <use xlink:href="#ArialMT-29" x="278.027344"/>
      </g>
     </g>
    </g>
    <g id="xtick_2">
     <g id="line2d_2">
      <g>
       <use xlink:href="#mb71d7b5302" x="62.086324" y="127.307699" style="stroke: #000000; stroke-width: 0.8"/>
      </g>
     </g>
     <g id="text_2">
      <!-- [96,97) -->
      <g transform="translate(52.747418 138.675512) scale(0.06 -0.06)">
       <defs>
        <path id="ArialMT-37" d="M 303 3981 
L 303 4522 
L 3269 4522 
L 3269 4084 
Q 2831 3619 2401 2847 
Q 1972 2075 1738 1259 
Q 1569 684 1522 0 
L 944 0 
Q 953 541 1156 1306 
Q 1359 2072 1739 2783 
Q 2119 3494 2547 3981 
L 303 3981 
z
" transform="scale(0.015625)"/>
       </defs>
       <use xlink:href="#ArialMT-5b"/>
       <use xlink:href="#ArialMT-39" x="27.783203"/>
       <use xlink:href="#ArialMT-36" x="83.398438"/>
       <use xlink:href="#ArialMT-2c" x="139.013672"/>
       <use xlink:href="#ArialMT-39" x="166.796875"/>
       <use xlink:href="#ArialMT-37" x="222.412109"/>
       <use xlink:href="#ArialMT-29" x="278.027344"/>
      </g>
     </g>
    </g>
    <g id="xtick_3">
     <g id="line2d_3">
      <g>
       <use xlink:href="#mb71d7b5302" x="87.735605" y="127.307699" style="stroke: #000000; stroke-width: 0.8"/>
      </g>
     </g>
     <g id="text_3">
      <!-- [97,98) -->
      <g transform="translate(78.396699 138.675512) scale(0.06 -0.06)">
       <defs>
        <path id="ArialMT-38" d="M 1131 2484 
Q 781 2613 612 2850 
Q 444 3088 444 3419 
Q 444 3919 803 4259 
Q 1163 4600 1759 4600 
Q 2359 4600 2725 4251 
Q 3091 3903 3091 3403 
Q 3091 3084 2923 2848 
Q 2756 2613 2416 2484 
Q 2838 2347 3058 2040 
Q 3278 1734 3278 1309 
Q 3278 722 2862 322 
Q 2447 -78 1769 -78 
Q 1091 -78 675 323 
Q 259 725 259 1325 
Q 259 1772 486 2073 
Q 713 2375 1131 2484 
z
M 1019 3438 
Q 1019 3113 1228 2906 
Q 1438 2700 1772 2700 
Q 2097 2700 2305 2904 
Q 2513 3109 2513 3406 
Q 2513 3716 2298 3927 
Q 2084 4138 1766 4138 
Q 1444 4138 1231 3931 
Q 1019 3725 1019 3438 
z
M 838 1322 
Q 838 1081 952 856 
Q 1066 631 1291 507 
Q 1516 384 1775 384 
Q 2178 384 2440 643 
Q 2703 903 2703 1303 
Q 2703 1709 2433 1975 
Q 2163 2241 1756 2241 
Q 1359 2241 1098 1978 
Q 838 1716 838 1322 
z
" transform="scale(0.015625)"/>
       </defs>
       <use xlink:href="#ArialMT-5b"/>
       <use xlink:href="#ArialMT-39" x="27.783203"/>
       <use xlink:href="#ArialMT-37" x="83.398438"/>
       <use xlink:href="#ArialMT-2c" x="139.013672"/>
       <use xlink:href="#ArialMT-39" x="166.796875"/>
       <use xlink:href="#ArialMT-38" x="222.412109"/>
       <use xlink:href="#ArialMT-29" x="278.027344"/>
      </g>
     </g>
    </g>
    <g id="xtick_4">
     <g id="line2d_4">
      <g>
       <use xlink:href="#mb71d7b5302" x="113.384885" y="127.307699" style="stroke: #000000; stroke-width: 0.8"/>
      </g>
     </g>
     <g id="text_4">
      <!-- [98,99) -->
      <g transform="translate(104.045979 138.675512) scale(0.06 -0.06)">
       <use xlink:href="#ArialMT-5b"/>
       <use xlink:href="#ArialMT-39" x="27.783203"/>
       <use xlink:href="#ArialMT-38" x="83.398438"/>
       <use xlink:href="#ArialMT-2c" x="139.013672"/>
       <use xlink:href="#ArialMT-39" x="166.796875"/>
       <use xlink:href="#ArialMT-39" x="222.412109"/>
       <use xlink:href="#ArialMT-29" x="278.027344"/>
      </g>
     </g>
    </g>
    <g id="xtick_5">
     <g id="line2d_5">
      <g>
       <use xlink:href="#mb71d7b5302" x="139.034166" y="127.307699" style="stroke: #000000; stroke-width: 0.8"/>
      </g>
     </g>
     <g id="text_5">
      <!-- [99,100) -->
      <g transform="translate(128.026978 138.675512) scale(0.06 -0.06)">
       <defs>
        <path id="ArialMT-31" d="M 2384 0 
L 1822 0 
L 1822 3584 
Q 1619 3391 1289 3197 
Q 959 3003 697 2906 
L 697 3450 
Q 1169 3672 1522 3987 
Q 1875 4303 2022 4600 
L 2384 4600 
L 2384 0 
z
" transform="scale(0.015625)"/>
        <path id="ArialMT-30" d="M 266 2259 
Q 266 3072 433 3567 
Q 600 4063 929 4331 
Q 1259 4600 1759 4600 
Q 2128 4600 2406 4451 
Q 2684 4303 2865 4023 
Q 3047 3744 3150 3342 
Q 3253 2941 3253 2259 
Q 3253 1453 3087 958 
Q 2922 463 2592 192 
Q 2263 -78 1759 -78 
Q 1097 -78 719 397 
Q 266 969 266 2259 
z
M 844 2259 
Q 844 1131 1108 757 
Q 1372 384 1759 384 
Q 2147 384 2411 759 
Q 2675 1134 2675 2259 
Q 2675 3391 2411 3762 
Q 2147 4134 1753 4134 
Q 1366 4134 1134 3806 
Q 844 3388 844 2259 
z
" transform="scale(0.015625)"/>
       </defs>
       <use xlink:href="#ArialMT-5b"/>
       <use xlink:href="#ArialMT-39" x="27.783203"/>
       <use xlink:href="#ArialMT-39" x="83.398438"/>
       <use xlink:href="#ArialMT-2c" x="139.013672"/>
       <use xlink:href="#ArialMT-31" x="166.796875"/>
       <use xlink:href="#ArialMT-30" x="222.412109"/>
       <use xlink:href="#ArialMT-30" x="278.027344"/>
       <use xlink:href="#ArialMT-29" x="333.642578"/>
      </g>
     </g>
    </g>
    <g id="text_6">
     <!-- ANI -->
     <g transform="translate(82.734511 148.233012) scale(0.06 -0.06)">
      <defs>
       <path id="ArialMT-41" d="M -9 0 
L 1750 4581 
L 2403 4581 
L 4278 0 
L 3588 0 
L 3053 1388 
L 1138 1388 
L 634 0 
L -9 0 
z
M 1313 1881 
L 2866 1881 
L 2388 3150 
Q 2169 3728 2063 4100 
Q 1975 3659 1816 3225 
L 1313 1881 
z
" transform="scale(0.015625)"/>
       <path id="ArialMT-4e" d="M 488 0 
L 488 4581 
L 1109 4581 
L 3516 984 
L 3516 4581 
L 4097 4581 
L 4097 0 
L 3475 0 
L 1069 3600 
L 1069 0 
L 488 0 
z
" transform="scale(0.015625)"/>
       <path id="ArialMT-49" d="M 597 0 
L 597 4581 
L 1203 4581 
L 1203 0 
L 597 0 
z
" transform="scale(0.015625)"/>
      </defs>
      <use xlink:href="#ArialMT-41"/>
      <use xlink:href="#ArialMT-4e" x="66.699219"/>
      <use xlink:href="#ArialMT-49" x="138.916016"/>
     </g>
    </g>
   </g>
   <g id="matplotlib.axis_2">
    <g id="ytick_1">
     <g id="line2d_6">
      <defs>
       <path id="mb96d855820" d="M 0 0 
L -3.5 0 
" style="stroke: #000000; stroke-width: 0.8"/>
      </defs>
      <g>
       <use xlink:href="#mb96d855820" x="31.307188" y="118.130115" style="stroke: #000000; stroke-width: 0.8"/>
      </g>
     </g>
     <g id="text_7">
      <!-- 0.2 -->
      <g transform="translate(15.967188 120.277459) scale(0.06 -0.06)">
       <defs>
        <path id="ArialMT-2e" d="M 581 0 
L 581 641 
L 1222 641 
L 1222 0 
L 581 0 
z
" transform="scale(0.015625)"/>
        <path id="ArialMT-32" d="M 3222 541 
L 3222 0 
L 194 0 
Q 188 203 259 391 
Q 375 700 629 1000 
Q 884 1300 1366 1694 
Q 2113 2306 2375 2664 
Q 2638 3022 2638 3341 
Q 2638 3675 2398 3904 
Q 2159 4134 1775 4134 
Q 1369 4134 1125 3890 
Q 881 3647 878 3216 
L 300 3275 
Q 359 3922 746 4261 
Q 1134 4600 1788 4600 
Q 2447 4600 2831 4234 
Q 3216 3869 3216 3328 
Q 3216 3053 3103 2787 
Q 2991 2522 2730 2228 
Q 2469 1934 1863 1422 
Q 1356 997 1212 845 
Q 1069 694 975 541 
L 3222 541 
z
" transform="scale(0.015625)"/>
       </defs>
       <use xlink:href="#ArialMT-30"/>
       <use xlink:href="#ArialMT-2e" x="55.615234"/>
       <use xlink:href="#ArialMT-32" x="83.398438"/>
      </g>
     </g>
    </g>
    <g id="ytick_2">
     <g id="line2d_7">
      <g>
       <use xlink:href="#mb96d855820" x="31.307188" y="96.04931" style="stroke: #000000; stroke-width: 0.8"/>
      </g>
     </g>
     <g id="text_8">
      <!-- 0.4 -->
      <g transform="translate(15.967188 98.196654) scale(0.06 -0.06)">
       <defs>
        <path id="ArialMT-34" d="M 2069 0 
L 2069 1097 
L 81 1097 
L 81 1613 
L 2172 4581 
L 2631 4581 
L 2631 1613 
L 3250 1613 
L 3250 1097 
L 2631 1097 
L 2631 0 
L 2069 0 
z
M 2069 1613 
L 2069 3678 
L 634 1613 
L 2069 1613 
z
" transform="scale(0.015625)"/>
       </defs>
       <use xlink:href="#ArialMT-30"/>
       <use xlink:href="#ArialMT-2e" x="55.615234"/>
       <use xlink:href="#ArialMT-34" x="83.398438"/>
      </g>
     </g>
    </g>
    <g id="ytick_3">
     <g id="line2d_8">
      <g>
       <use xlink:href="#mb96d855820" x="31.307188" y="73.968505" style="stroke: #000000; stroke-width: 0.8"/>
      </g>
     </g>
     <g id="text_9">
      <!-- 0.6 -->
      <g transform="translate(15.967188 76.115849) scale(0.06 -0.06)">
       <use xlink:href="#ArialMT-30"/>
       <use xlink:href="#ArialMT-2e" x="55.615234"/>
       <use xlink:href="#ArialMT-36" x="83.398438"/>
      </g>
     </g>
    </g>
    <g id="ytick_4">
     <g id="line2d_9">
      <g>
       <use xlink:href="#mb96d855820" x="31.307188" y="51.8877" style="stroke: #000000; stroke-width: 0.8"/>
      </g>
     </g>
     <g id="text_10">
      <!-- 0.8 -->
      <g transform="translate(15.967188 54.035044) scale(0.06 -0.06)">
       <use xlink:href="#ArialMT-30"/>
       <use xlink:href="#ArialMT-2e" x="55.615234"/>
       <use xlink:href="#ArialMT-38" x="83.398438"/>
      </g>
     </g>
    </g>
    <g id="ytick_5">
     <g id="line2d_10">
      <g>
       <use xlink:href="#mb96d855820" x="31.307188" y="29.806895" style="stroke: #000000; stroke-width: 0.8"/>
      </g>
     </g>
     <g id="text_11">
      <!-- 1.0 -->
      <g transform="translate(15.967188 31.954239) scale(0.06 -0.06)">
       <use xlink:href="#ArialMT-31"/>
       <use xlink:href="#ArialMT-2e" x="55.615234"/>
       <use xlink:href="#ArialMT-30" x="83.398438"/>
      </g>
     </g>
    </g>
    <g id="text_12">
     <!-- Precision -->
     <g transform="translate(10.774688 88.573818) rotate(-90) scale(0.06 -0.06)">
      <defs>
       <path id="ArialMT-50" d="M 494 0 
L 494 4581 
L 2222 4581 
Q 2678 4581 2919 4538 
Q 3256 4481 3484 4323 
Q 3713 4166 3852 3881 
Q 3991 3597 3991 3256 
Q 3991 2672 3619 2267 
Q 3247 1863 2275 1863 
L 1100 1863 
L 1100 0 
L 494 0 
z
M 1100 2403 
L 2284 2403 
Q 2872 2403 3119 2622 
Q 3366 2841 3366 3238 
Q 3366 3525 3220 3729 
Q 3075 3934 2838 4000 
Q 2684 4041 2272 4041 
L 1100 4041 
L 1100 2403 
z
" transform="scale(0.015625)"/>
       <path id="ArialMT-72" d="M 416 0 
L 416 3319 
L 922 3319 
L 922 2816 
Q 1116 3169 1280 3281 
Q 1444 3394 1641 3394 
Q 1925 3394 2219 3213 
L 2025 2691 
Q 1819 2813 1613 2813 
Q 1428 2813 1281 2702 
Q 1134 2591 1072 2394 
Q 978 2094 978 1738 
L 978 0 
L 416 0 
z
" transform="scale(0.015625)"/>
       <path id="ArialMT-65" d="M 2694 1069 
L 3275 997 
Q 3138 488 2766 206 
Q 2394 -75 1816 -75 
Q 1088 -75 661 373 
Q 234 822 234 1631 
Q 234 2469 665 2931 
Q 1097 3394 1784 3394 
Q 2450 3394 2872 2941 
Q 3294 2488 3294 1666 
Q 3294 1616 3291 1516 
L 816 1516 
Q 847 969 1125 678 
Q 1403 388 1819 388 
Q 2128 388 2347 550 
Q 2566 713 2694 1069 
z
M 847 1978 
L 2700 1978 
Q 2663 2397 2488 2606 
Q 2219 2931 1791 2931 
Q 1403 2931 1139 2672 
Q 875 2413 847 1978 
z
" transform="scale(0.015625)"/>
       <path id="ArialMT-63" d="M 2588 1216 
L 3141 1144 
Q 3050 572 2676 248 
Q 2303 -75 1759 -75 
Q 1078 -75 664 370 
Q 250 816 250 1647 
Q 250 2184 428 2587 
Q 606 2991 970 3192 
Q 1334 3394 1763 3394 
Q 2303 3394 2647 3120 
Q 2991 2847 3088 2344 
L 2541 2259 
Q 2463 2594 2264 2762 
Q 2066 2931 1784 2931 
Q 1359 2931 1093 2626 
Q 828 2322 828 1663 
Q 828 994 1084 691 
Q 1341 388 1753 388 
Q 2084 388 2306 591 
Q 2528 794 2588 1216 
z
" transform="scale(0.015625)"/>
       <path id="ArialMT-69" d="M 425 3934 
L 425 4581 
L 988 4581 
L 988 3934 
L 425 3934 
z
M 425 0 
L 425 3319 
L 988 3319 
L 988 0 
L 425 0 
z
" transform="scale(0.015625)"/>
       <path id="ArialMT-73" d="M 197 991 
L 753 1078 
Q 800 744 1014 566 
Q 1228 388 1613 388 
Q 2000 388 2187 545 
Q 2375 703 2375 916 
Q 2375 1106 2209 1216 
Q 2094 1291 1634 1406 
Q 1016 1563 777 1677 
Q 538 1791 414 1992 
Q 291 2194 291 2438 
Q 291 2659 392 2848 
Q 494 3038 669 3163 
Q 800 3259 1026 3326 
Q 1253 3394 1513 3394 
Q 1903 3394 2198 3281 
Q 2494 3169 2634 2976 
Q 2775 2784 2828 2463 
L 2278 2388 
Q 2241 2644 2061 2787 
Q 1881 2931 1553 2931 
Q 1166 2931 1000 2803 
Q 834 2675 834 2503 
Q 834 2394 903 2306 
Q 972 2216 1119 2156 
Q 1203 2125 1616 2013 
Q 2213 1853 2448 1751 
Q 2684 1650 2818 1456 
Q 2953 1263 2953 975 
Q 2953 694 2789 445 
Q 2625 197 2315 61 
Q 2006 -75 1616 -75 
Q 969 -75 630 194 
Q 291 463 197 991 
z
" transform="scale(0.015625)"/>
       <path id="ArialMT-6f" d="M 213 1659 
Q 213 2581 725 3025 
Q 1153 3394 1769 3394 
Q 2453 3394 2887 2945 
Q 3322 2497 3322 1706 
Q 3322 1066 3130 698 
Q 2938 331 2570 128 
Q 2203 -75 1769 -75 
Q 1072 -75 642 372 
Q 213 819 213 1659 
z
M 791 1659 
Q 791 1022 1069 705 
Q 1347 388 1769 388 
Q 2188 388 2466 706 
Q 2744 1025 2744 1678 
Q 2744 2294 2464 2611 
Q 2184 2928 1769 2928 
Q 1347 2928 1069 2612 
Q 791 2297 791 1659 
z
" transform="scale(0.015625)"/>
       <path id="ArialMT-6e" d="M 422 0 
L 422 3319 
L 928 3319 
L 928 2847 
Q 1294 3394 1984 3394 
Q 2284 3394 2536 3286 
Q 2788 3178 2913 3003 
Q 3038 2828 3088 2588 
Q 3119 2431 3119 2041 
L 3119 0 
L 2556 0 
L 2556 2019 
Q 2556 2363 2490 2533 
Q 2425 2703 2258 2804 
Q 2091 2906 1866 2906 
Q 1506 2906 1245 2678 
Q 984 2450 984 1813 
L 984 0 
L 422 0 
z
" transform="scale(0.015625)"/>
      </defs>
      <use xlink:href="#ArialMT-50"/>
      <use xlink:href="#ArialMT-72" x="66.699219"/>
      <use xlink:href="#ArialMT-65" x="100"/>
      <use xlink:href="#ArialMT-63" x="155.615234"/>
      <use xlink:href="#ArialMT-69" x="205.615234"/>
      <use xlink:href="#ArialMT-73" x="227.832031"/>
      <use xlink:href="#ArialMT-69" x="277.832031"/>
      <use xlink:href="#ArialMT-6f" x="300.048828"/>
      <use xlink:href="#ArialMT-6e" x="355.664062"/>
     </g>
    </g>
   </g>
   <g id="line2d_11">
    <path d="M 36.437044 40.006709 
L 62.086324 36.561687 
L 87.735605 31.164503 
L 113.384885 30.919211 
L 139.034166 31.302997 
" clip-path="url(#pb18ac2cad2)" style="fill: none; stroke: #4878d0; stroke-width: 1.5; stroke-linecap: square"/>
   </g>
   <g id="line2d_12">
    <path d="M 36.437044 73.451196 
L 62.086324 71.34755 
L 87.735605 51.052729 
L 113.384885 44.390116 
L 139.034166 37.28131 
" clip-path="url(#pb18ac2cad2)" style="fill: none; stroke: #ee854a; stroke-width: 1.5; stroke-linecap: square"/>
   </g>
   <g id="line2d_13">
    <path d="M 36.437044 97.310996 
L 62.086324 93.233481 
L 87.735605 72.249739 
L 113.384885 66.011267 
L 139.034166 56.923878 
" clip-path="url(#pb18ac2cad2)" style="fill: none; stroke: #6acc64; stroke-width: 1.5; stroke-linecap: square"/>
   </g>
   <g id="line2d_14">
    <path d="M 36.437044 120.733003 
L 62.086324 117.456912 
L 87.735605 109.013172 
L 113.384885 101.306644 
L 139.034166 86.9408 
" clip-path="url(#pb18ac2cad2)" style="fill: none; stroke: #d65f5f; stroke-width: 1.5; stroke-linecap: square"/>
   </g>
   <g id="line2d_15"/>
   <g id="line2d_16"/>
   <g id="line2d_17"/>
   <g id="line2d_18"/>
   <g id="patch_3">
    <path d="M 31.307188 127.307699 
L 31.307188 25.164 
" style="fill: none; stroke: #000000; stroke-width: 0.8; stroke-linejoin: miter; stroke-linecap: square"/>
   </g>
   <g id="patch_4">
    <path d="M 31.307188 127.307699 
L 144.164022 127.307699 
" style="fill: none; stroke: #000000; stroke-width: 0.8; stroke-linejoin: miter; stroke-linecap: square"/>
   </g>
  </g>
  <g id="axes_2">
   <g id="patch_5">
    <path d="M 181.922689 127.307699 
L 294.779524 127.307699 
L 294.779524 25.164 
L 181.922689 25.164 
z
" style="fill: #ffffff"/>
   </g>
   <g id="PolyCollection_5">
    <defs>
     <path id="mb67a9bc991" d="M 181.922689 -33.240708 
L 181.922689 -33.240708 
L 193.208373 -33.240708 
L 204.494056 -33.240708 
L 215.77974 -51.385357 
L 227.065423 -102.462058 
L 238.351107 -116.380928 
L 249.63679 -119.882187 
L 260.922474 -119.676167 
L 272.208157 -119.784279 
L 283.493841 -116.181752 
L 294.779524 -118.139367 
L 306.065207 -70.383871 
L 306.065207 -126.098616 
L 306.065207 -126.098616 
L 294.779524 -126.098616 
L 283.493841 -124.29555 
L 272.208157 -124.241458 
L 260.922474 -123.9578 
L 249.63679 -123.573192 
L 238.351107 -121.131798 
L 227.065423 -110.340911 
L 215.77974 -63.659678 
L 204.494056 -33.240708 
L 193.208373 -33.240708 
L 181.922689 -33.240708 
z
" style="stroke: #4878d0; stroke-opacity: 0.2"/>
    </defs>
    <g clip-path="url(#p9ffbd30257)">
     <use xlink:href="#mb67a9bc991" x="0" y="155.905512" style="fill: #4878d0; fill-opacity: 0.2; stroke: #4878d0; stroke-opacity: 0.2"/>
    </g>
   </g>
   <g id="PolyCollection_6">
    <defs>
     <path id="m3877db71fa" d="M 181.922689 -33.240708 
L 181.922689 -33.240708 
L 193.208373 -33.240708 
L 204.494056 -33.240708 
L 215.77974 -43.914031 
L 227.065423 -95.427368 
L 238.351107 -111.630059 
L 249.63679 -118.133817 
L 260.922474 -118.331467 
L 272.208157 -117.917835 
L 283.493841 -117.083285 
L 294.779524 -118.139367 
L 306.065207 -126.098616 
L 306.065207 -126.098616 
L 306.065207 -126.098616 
L 294.779524 -126.098616 
L 283.493841 -125.197083 
L 272.208157 -123.127163 
L 260.922474 -122.887392 
L 249.63679 -122.213348 
L 238.351107 -117.244723 
L 227.065423 -104.431771 
L 215.77974 -54.053687 
L 204.494056 -33.240708 
L 193.208373 -33.240708 
L 181.922689 -33.240708 
z
" style="stroke: #ee854a; stroke-opacity: 0.2"/>
    </defs>
    <g clip-path="url(#p9ffbd30257)">
     <use xlink:href="#m3877db71fa" x="0" y="155.905512" style="fill: #ee854a; fill-opacity: 0.2; stroke: #ee854a; stroke-opacity: 0.2"/>
    </g>
   </g>
   <g id="PolyCollection_7">
    <defs>
     <path id="mcb290fdd53" d="M 181.922689 -33.240708 
L 181.922689 -33.240708 
L 193.208373 -33.240708 
L 204.494056 -33.240708 
L 215.77974 -56.722018 
L 227.065423 -89.518228 
L 238.351107 -113.573596 
L 249.63679 -124.544509 
L 260.922474 -126.098616 
L 272.208157 -126.098616 
L 283.493841 -126.098616 
L 294.779524 -126.098616 
L 306.065207 -126.098616 
L 306.065207 -126.098616 
L 306.065207 -126.098616 
L 294.779524 -126.098616 
L 283.493841 -126.098616 
L 272.208157 -126.098616 
L 260.922474 -126.098616 
L 249.63679 -125.904353 
L 238.351107 -119.18826 
L 227.065423 -98.804019 
L 215.77974 -69.530005 
L 204.494056 -33.240708 
L 193.208373 -33.240708 
L 181.922689 -33.240708 
z
" style="stroke: #6acc64; stroke-opacity: 0.2"/>
    </defs>
    <g clip-path="url(#p9ffbd30257)">
     <use xlink:href="#mcb290fdd53" x="0" y="155.905512" style="fill: #6acc64; fill-opacity: 0.2; stroke: #6acc64; stroke-opacity: 0.2"/>
    </g>
   </g>
   <g id="PolyCollection_8">
    <defs>
     <path id="m917ca2c88b" d="M 181.922689 -33.240708 
L 181.922689 -33.240708 
L 193.208373 -33.240708 
L 204.494056 -35.026437 
L 215.77974 -84.472657 
L 227.065423 -117.368566 
L 238.351107 -123.075336 
L 249.63679 -125.515826 
L 260.922474 -126.098616 
L 272.208157 -126.098616 
L 283.493841 -126.098616 
L 294.779524 -126.098616 
L 306.065207 -126.098616 
L 306.065207 -126.098616 
L 306.065207 -126.098616 
L 294.779524 -126.098616 
L 283.493841 -126.098616 
L 272.208157 -126.098616 
L 260.922474 -126.098616 
L 249.63679 -126.098616 
L 238.351107 -125.450771 
L 227.065423 -121.877802 
L 215.77974 -97.280645 
L 204.494056 -47.52654 
L 193.208373 -33.240708 
L 181.922689 -33.240708 
z
" style="stroke: #d65f5f; stroke-opacity: 0.2"/>
    </defs>
    <g clip-path="url(#p9ffbd30257)">
     <use xlink:href="#m917ca2c88b" x="0" y="155.905512" style="fill: #d65f5f; fill-opacity: 0.2; stroke: #d65f5f; stroke-opacity: 0.2"/>
    </g>
   </g>
   <g id="PolyCollection_9">
    <defs>
     <path id="m1db5e17de8" d="M 181.922689 -33.240708 
L 181.922689 -33.240708 
L 193.208373 -33.240708 
L 204.494056 -33.240708 
L 215.77974 -40.698692 
L 227.065423 -89.518228 
L 238.351107 -99.536936 
L 249.63679 -105.118168 
L 260.922474 -101.211627 
L 272.208157 -96.012654 
L 283.493841 -103.560289 
L 294.779524 -91.542209 
L 306.065207 -70.383871 
L 306.065207 -126.098616 
L 306.065207 -126.098616 
L 294.779524 -118.139367 
L 283.493841 -117.083285 
L 272.208157 -106.784171 
L 260.922474 -109.239688 
L 249.63679 -111.528861 
L 238.351107 -107.095137 
L 227.065423 -98.804019 
L 215.77974 -49.250692 
L 204.494056 -38.597895 
L 193.208373 -33.240708 
L 181.922689 -33.240708 
z
" style="stroke: #956cb4; stroke-opacity: 0.2"/>
    </defs>
    <g clip-path="url(#p9ffbd30257)">
     <use xlink:href="#m1db5e17de8" x="0" y="155.905512" style="fill: #956cb4; fill-opacity: 0.2; stroke: #956cb4; stroke-opacity: 0.2"/>
    </g>
   </g>
   <g id="matplotlib.axis_3">
    <g id="xtick_6">
     <g id="line2d_19">
      <g>
       <use xlink:href="#mb71d7b5302" x="181.922689" y="127.307699" style="stroke: #000000; stroke-width: 0.8"/>
      </g>
     </g>
     <g id="text_13">
      <!-- −3 -->
      <g transform="translate(178.502221 138.602387) scale(0.06 -0.06)">
       <defs>
        <path id="ArialMT-2212" d="M 3381 1997 
L 356 1997 
L 356 2522 
L 3381 2522 
L 3381 1997 
z
" transform="scale(0.015625)"/>
        <path id="ArialMT-33" d="M 269 1209 
L 831 1284 
Q 928 806 1161 595 
Q 1394 384 1728 384 
Q 2125 384 2398 659 
Q 2672 934 2672 1341 
Q 2672 1728 2419 1979 
Q 2166 2231 1775 2231 
Q 1616 2231 1378 2169 
L 1441 2663 
Q 1497 2656 1531 2656 
Q 1891 2656 2178 2843 
Q 2466 3031 2466 3422 
Q 2466 3731 2256 3934 
Q 2047 4138 1716 4138 
Q 1388 4138 1169 3931 
Q 950 3725 888 3313 
L 325 3413 
Q 428 3978 793 4289 
Q 1159 4600 1703 4600 
Q 2078 4600 2393 4439 
Q 2709 4278 2876 4000 
Q 3044 3722 3044 3409 
Q 3044 3113 2884 2869 
Q 2725 2625 2413 2481 
Q 2819 2388 3044 2092 
Q 3269 1797 3269 1353 
Q 3269 753 2831 336 
Q 2394 -81 1725 -81 
Q 1122 -81 723 278 
Q 325 638 269 1209 
z
" transform="scale(0.015625)"/>
       </defs>
       <use xlink:href="#ArialMT-2212"/>
       <use xlink:href="#ArialMT-33" x="58.398438"/>
      </g>
     </g>
    </g>
    <g id="xtick_7">
     <g id="line2d_20">
      <g>
       <use xlink:href="#mb71d7b5302" x="204.494056" y="127.307699" style="stroke: #000000; stroke-width: 0.8"/>
      </g>
     </g>
     <g id="text_14">
      <!-- −2 -->
      <g transform="translate(201.073588 138.602387) scale(0.06 -0.06)">
       <use xlink:href="#ArialMT-2212"/>
       <use xlink:href="#ArialMT-32" x="58.398438"/>
      </g>
     </g>
    </g>
    <g id="xtick_8">
     <g id="line2d_21">
      <g>
       <use xlink:href="#mb71d7b5302" x="227.065423" y="127.307699" style="stroke: #000000; stroke-width: 0.8"/>
      </g>
     </g>
     <g id="text_15">
      <!-- −1 -->
      <g transform="translate(223.644954 138.602387) scale(0.06 -0.06)">
       <use xlink:href="#ArialMT-2212"/>
       <use xlink:href="#ArialMT-31" x="58.398438"/>
      </g>
     </g>
    </g>
    <g id="xtick_9">
     <g id="line2d_22">
      <g>
       <use xlink:href="#mb71d7b5302" x="249.63679" y="127.307699" style="stroke: #000000; stroke-width: 0.8"/>
      </g>
     </g>
     <g id="text_16">
      <!-- 0 -->
      <g transform="translate(247.968509 138.602387) scale(0.06 -0.06)">
       <use xlink:href="#ArialMT-30"/>
      </g>
     </g>
    </g>
    <g id="xtick_10">
     <g id="line2d_23">
      <g>
       <use xlink:href="#mb71d7b5302" x="272.208157" y="127.307699" style="stroke: #000000; stroke-width: 0.8"/>
      </g>
     </g>
     <g id="text_17">
      <!-- 1 -->
      <g transform="translate(270.539876 138.602387) scale(0.06 -0.06)">
       <use xlink:href="#ArialMT-31"/>
      </g>
     </g>
    </g>
    <g id="xtick_11">
     <g id="line2d_24">
      <g>
       <use xlink:href="#mb71d7b5302" x="294.779524" y="127.307699" style="stroke: #000000; stroke-width: 0.8"/>
      </g>
     </g>
     <g id="text_18">
      <!-- 2 -->
      <g transform="translate(293.111243 138.602387) scale(0.06 -0.06)">
       <use xlink:href="#ArialMT-32"/>
      </g>
     </g>
    </g>
    <g id="text_19">
     <!-- Log10 true genome coverage -->
     <g transform="translate(199.159857 148.107387) scale(0.06 -0.06)">
      <defs>
       <path id="ArialMT-4c" d="M 469 0 
L 469 4581 
L 1075 4581 
L 1075 541 
L 3331 541 
L 3331 0 
L 469 0 
z
" transform="scale(0.015625)"/>
       <path id="ArialMT-67" d="M 319 -275 
L 866 -356 
Q 900 -609 1056 -725 
Q 1266 -881 1628 -881 
Q 2019 -881 2231 -725 
Q 2444 -569 2519 -288 
Q 2563 -116 2559 434 
Q 2191 0 1641 0 
Q 956 0 581 494 
Q 206 988 206 1678 
Q 206 2153 378 2554 
Q 550 2956 876 3175 
Q 1203 3394 1644 3394 
Q 2231 3394 2613 2919 
L 2613 3319 
L 3131 3319 
L 3131 450 
Q 3131 -325 2973 -648 
Q 2816 -972 2473 -1159 
Q 2131 -1347 1631 -1347 
Q 1038 -1347 672 -1080 
Q 306 -813 319 -275 
z
M 784 1719 
Q 784 1066 1043 766 
Q 1303 466 1694 466 
Q 2081 466 2343 764 
Q 2606 1063 2606 1700 
Q 2606 2309 2336 2618 
Q 2066 2928 1684 2928 
Q 1309 2928 1046 2623 
Q 784 2319 784 1719 
z
" transform="scale(0.015625)"/>
       <path id="ArialMT-20" transform="scale(0.015625)"/>
       <path id="ArialMT-74" d="M 1650 503 
L 1731 6 
Q 1494 -44 1306 -44 
Q 1000 -44 831 53 
Q 663 150 594 308 
Q 525 466 525 972 
L 525 2881 
L 113 2881 
L 113 3319 
L 525 3319 
L 525 4141 
L 1084 4478 
L 1084 3319 
L 1650 3319 
L 1650 2881 
L 1084 2881 
L 1084 941 
Q 1084 700 1114 631 
Q 1144 563 1211 522 
Q 1278 481 1403 481 
Q 1497 481 1650 503 
z
" transform="scale(0.015625)"/>
       <path id="ArialMT-75" d="M 2597 0 
L 2597 488 
Q 2209 -75 1544 -75 
Q 1250 -75 995 37 
Q 741 150 617 320 
Q 494 491 444 738 
Q 409 903 409 1263 
L 409 3319 
L 972 3319 
L 972 1478 
Q 972 1038 1006 884 
Q 1059 663 1231 536 
Q 1403 409 1656 409 
Q 1909 409 2131 539 
Q 2353 669 2445 892 
Q 2538 1116 2538 1541 
L 2538 3319 
L 3100 3319 
L 3100 0 
L 2597 0 
z
" transform="scale(0.015625)"/>
       <path id="ArialMT-6d" d="M 422 0 
L 422 3319 
L 925 3319 
L 925 2853 
Q 1081 3097 1340 3245 
Q 1600 3394 1931 3394 
Q 2300 3394 2536 3241 
Q 2772 3088 2869 2813 
Q 3263 3394 3894 3394 
Q 4388 3394 4653 3120 
Q 4919 2847 4919 2278 
L 4919 0 
L 4359 0 
L 4359 2091 
Q 4359 2428 4304 2576 
Q 4250 2725 4106 2815 
Q 3963 2906 3769 2906 
Q 3419 2906 3187 2673 
Q 2956 2441 2956 1928 
L 2956 0 
L 2394 0 
L 2394 2156 
Q 2394 2531 2256 2718 
Q 2119 2906 1806 2906 
Q 1569 2906 1367 2781 
Q 1166 2656 1075 2415 
Q 984 2175 984 1722 
L 984 0 
L 422 0 
z
" transform="scale(0.015625)"/>
       <path id="ArialMT-76" d="M 1344 0 
L 81 3319 
L 675 3319 
L 1388 1331 
Q 1503 1009 1600 663 
Q 1675 925 1809 1294 
L 2547 3319 
L 3125 3319 
L 1869 0 
L 1344 0 
z
" transform="scale(0.015625)"/>
       <path id="ArialMT-61" d="M 2588 409 
Q 2275 144 1986 34 
Q 1697 -75 1366 -75 
Q 819 -75 525 192 
Q 231 459 231 875 
Q 231 1119 342 1320 
Q 453 1522 633 1644 
Q 813 1766 1038 1828 
Q 1203 1872 1538 1913 
Q 2219 1994 2541 2106 
Q 2544 2222 2544 2253 
Q 2544 2597 2384 2738 
Q 2169 2928 1744 2928 
Q 1347 2928 1158 2789 
Q 969 2650 878 2297 
L 328 2372 
Q 403 2725 575 2942 
Q 747 3159 1072 3276 
Q 1397 3394 1825 3394 
Q 2250 3394 2515 3294 
Q 2781 3194 2906 3042 
Q 3031 2891 3081 2659 
Q 3109 2516 3109 2141 
L 3109 1391 
Q 3109 606 3145 398 
Q 3181 191 3288 0 
L 2700 0 
Q 2613 175 2588 409 
z
M 2541 1666 
Q 2234 1541 1622 1453 
Q 1275 1403 1131 1340 
Q 988 1278 909 1158 
Q 831 1038 831 891 
Q 831 666 1001 516 
Q 1172 366 1500 366 
Q 1825 366 2078 508 
Q 2331 650 2450 897 
Q 2541 1088 2541 1459 
L 2541 1666 
z
" transform="scale(0.015625)"/>
      </defs>
      <use xlink:href="#ArialMT-4c"/>
      <use xlink:href="#ArialMT-6f" x="55.615234"/>
      <use xlink:href="#ArialMT-67" x="111.230469"/>
      <use xlink:href="#ArialMT-31" x="166.845703"/>
      <use xlink:href="#ArialMT-30" x="222.460938"/>
      <use xlink:href="#ArialMT-20" x="278.076172"/>
      <use xlink:href="#ArialMT-74" x="305.859375"/>
      <use xlink:href="#ArialMT-72" x="333.642578"/>
      <use xlink:href="#ArialMT-75" x="366.943359"/>
      <use xlink:href="#ArialMT-65" x="422.558594"/>
      <use xlink:href="#ArialMT-20" x="478.173828"/>
      <use xlink:href="#ArialMT-67" x="505.957031"/>
      <use xlink:href="#ArialMT-65" x="561.572266"/>
      <use xlink:href="#ArialMT-6e" x="617.1875"/>
      <use xlink:href="#ArialMT-6f" x="672.802734"/>
      <use xlink:href="#ArialMT-6d" x="728.417969"/>
      <use xlink:href="#ArialMT-65" x="811.71875"/>
      <use xlink:href="#ArialMT-20" x="867.333984"/>
      <use xlink:href="#ArialMT-63" x="895.117188"/>
      <use xlink:href="#ArialMT-6f" x="945.117188"/>
      <use xlink:href="#ArialMT-76" x="1000.732422"/>
      <use xlink:href="#ArialMT-65" x="1050.732422"/>
      <use xlink:href="#ArialMT-72" x="1106.347656"/>
      <use xlink:href="#ArialMT-61" x="1139.648438"/>
      <use xlink:href="#ArialMT-67" x="1195.263672"/>
      <use xlink:href="#ArialMT-65" x="1250.878906"/>
     </g>
    </g>
   </g>
   <g id="matplotlib.axis_4">
    <g id="ytick_6">
     <g id="line2d_25">
      <g>
       <use xlink:href="#mb96d855820" x="181.922689" y="122.664804" style="stroke: #000000; stroke-width: 0.8"/>
      </g>
     </g>
     <g id="text_20">
      <!-- 0.0 -->
      <g transform="translate(166.582689 124.812148) scale(0.06 -0.06)">
       <use xlink:href="#ArialMT-30"/>
       <use xlink:href="#ArialMT-2e" x="55.615234"/>
       <use xlink:href="#ArialMT-30" x="83.398438"/>
      </g>
     </g>
    </g>
    <g id="ytick_7">
     <g id="line2d_26">
      <g>
       <use xlink:href="#mb96d855820" x="181.922689" y="104.093222" style="stroke: #000000; stroke-width: 0.8"/>
      </g>
     </g>
     <g id="text_21">
      <!-- 0.2 -->
      <g transform="translate(166.582689 106.240566) scale(0.06 -0.06)">
       <use xlink:href="#ArialMT-30"/>
       <use xlink:href="#ArialMT-2e" x="55.615234"/>
       <use xlink:href="#ArialMT-32" x="83.398438"/>
      </g>
     </g>
    </g>
    <g id="ytick_8">
     <g id="line2d_27">
      <g>
       <use xlink:href="#mb96d855820" x="181.922689" y="85.521641" style="stroke: #000000; stroke-width: 0.8"/>
      </g>
     </g>
     <g id="text_22">
      <!-- 0.4 -->
      <g transform="translate(166.582689 87.668984) scale(0.06 -0.06)">
       <use xlink:href="#ArialMT-30"/>
       <use xlink:href="#ArialMT-2e" x="55.615234"/>
       <use xlink:href="#ArialMT-34" x="83.398438"/>
      </g>
     </g>
    </g>
    <g id="ytick_9">
     <g id="line2d_28">
      <g>
       <use xlink:href="#mb96d855820" x="181.922689" y="66.950059" style="stroke: #000000; stroke-width: 0.8"/>
      </g>
     </g>
     <g id="text_23">
      <!-- 0.6 -->
      <g transform="translate(166.582689 69.097403) scale(0.06 -0.06)">
       <use xlink:href="#ArialMT-30"/>
       <use xlink:href="#ArialMT-2e" x="55.615234"/>
       <use xlink:href="#ArialMT-36" x="83.398438"/>
      </g>
     </g>
    </g>
    <g id="ytick_10">
     <g id="line2d_29">
      <g>
       <use xlink:href="#mb96d855820" x="181.922689" y="48.378477" style="stroke: #000000; stroke-width: 0.8"/>
      </g>
     </g>
     <g id="text_24">
      <!-- 0.8 -->
      <g transform="translate(166.582689 50.525821) scale(0.06 -0.06)">
       <use xlink:href="#ArialMT-30"/>
       <use xlink:href="#ArialMT-2e" x="55.615234"/>
       <use xlink:href="#ArialMT-38" x="83.398438"/>
      </g>
     </g>
    </g>
    <g id="ytick_11">
     <g id="line2d_30">
      <g>
       <use xlink:href="#mb96d855820" x="181.922689" y="29.806895" style="stroke: #000000; stroke-width: 0.8"/>
      </g>
     </g>
     <g id="text_25">
      <!-- 1.0 -->
      <g transform="translate(166.582689 31.954239) scale(0.06 -0.06)">
       <use xlink:href="#ArialMT-31"/>
       <use xlink:href="#ArialMT-2e" x="55.615234"/>
       <use xlink:href="#ArialMT-30" x="83.398438"/>
      </g>
     </g>
    </g>
    <g id="text_26">
     <!-- Probabililty of detection -->
     <g transform="translate(161.319877 107.2521) rotate(-90) scale(0.06 -0.06)">
      <defs>
       <path id="ArialMT-62" d="M 941 0 
L 419 0 
L 419 4581 
L 981 4581 
L 981 2947 
Q 1338 3394 1891 3394 
Q 2197 3394 2470 3270 
Q 2744 3147 2920 2923 
Q 3097 2700 3197 2384 
Q 3297 2069 3297 1709 
Q 3297 856 2875 390 
Q 2453 -75 1863 -75 
Q 1275 -75 941 416 
L 941 0 
z
M 934 1684 
Q 934 1088 1097 822 
Q 1363 388 1816 388 
Q 2184 388 2453 708 
Q 2722 1028 2722 1663 
Q 2722 2313 2464 2622 
Q 2206 2931 1841 2931 
Q 1472 2931 1203 2611 
Q 934 2291 934 1684 
z
" transform="scale(0.015625)"/>
       <path id="ArialMT-6c" d="M 409 0 
L 409 4581 
L 972 4581 
L 972 0 
L 409 0 
z
" transform="scale(0.015625)"/>
       <path id="ArialMT-79" d="M 397 -1278 
L 334 -750 
Q 519 -800 656 -800 
Q 844 -800 956 -737 
Q 1069 -675 1141 -563 
Q 1194 -478 1313 -144 
Q 1328 -97 1363 -6 
L 103 3319 
L 709 3319 
L 1400 1397 
Q 1534 1031 1641 628 
Q 1738 1016 1872 1384 
L 2581 3319 
L 3144 3319 
L 1881 -56 
Q 1678 -603 1566 -809 
Q 1416 -1088 1222 -1217 
Q 1028 -1347 759 -1347 
Q 597 -1347 397 -1278 
z
" transform="scale(0.015625)"/>
       <path id="ArialMT-66" d="M 556 0 
L 556 2881 
L 59 2881 
L 59 3319 
L 556 3319 
L 556 3672 
Q 556 4006 616 4169 
Q 697 4388 901 4523 
Q 1106 4659 1475 4659 
Q 1713 4659 2000 4603 
L 1916 4113 
Q 1741 4144 1584 4144 
Q 1328 4144 1222 4034 
Q 1116 3925 1116 3625 
L 1116 3319 
L 1763 3319 
L 1763 2881 
L 1116 2881 
L 1116 0 
L 556 0 
z
" transform="scale(0.015625)"/>
       <path id="ArialMT-64" d="M 2575 0 
L 2575 419 
Q 2259 -75 1647 -75 
Q 1250 -75 917 144 
Q 584 363 401 755 
Q 219 1147 219 1656 
Q 219 2153 384 2558 
Q 550 2963 881 3178 
Q 1213 3394 1622 3394 
Q 1922 3394 2156 3267 
Q 2391 3141 2538 2938 
L 2538 4581 
L 3097 4581 
L 3097 0 
L 2575 0 
z
M 797 1656 
Q 797 1019 1065 703 
Q 1334 388 1700 388 
Q 2069 388 2326 689 
Q 2584 991 2584 1609 
Q 2584 2291 2321 2609 
Q 2059 2928 1675 2928 
Q 1300 2928 1048 2622 
Q 797 2316 797 1656 
z
" transform="scale(0.015625)"/>
      </defs>
      <use xlink:href="#ArialMT-50"/>
      <use xlink:href="#ArialMT-72" x="66.699219"/>
      <use xlink:href="#ArialMT-6f" x="100"/>
      <use xlink:href="#ArialMT-62" x="155.615234"/>
      <use xlink:href="#ArialMT-61" x="211.230469"/>
      <use xlink:href="#ArialMT-62" x="266.845703"/>
      <use xlink:href="#ArialMT-69" x="322.460938"/>
      <use xlink:href="#ArialMT-6c" x="344.677734"/>
      <use xlink:href="#ArialMT-69" x="366.894531"/>
      <use xlink:href="#ArialMT-6c" x="389.111328"/>
      <use xlink:href="#ArialMT-74" x="411.328125"/>
      <use xlink:href="#ArialMT-79" x="439.111328"/>
      <use xlink:href="#ArialMT-20" x="489.111328"/>
      <use xlink:href="#ArialMT-6f" x="516.894531"/>
      <use xlink:href="#ArialMT-66" x="572.509766"/>
      <use xlink:href="#ArialMT-20" x="600.292969"/>
      <use xlink:href="#ArialMT-64" x="628.076172"/>
      <use xlink:href="#ArialMT-65" x="683.691406"/>
      <use xlink:href="#ArialMT-74" x="739.306641"/>
      <use xlink:href="#ArialMT-65" x="767.089844"/>
      <use xlink:href="#ArialMT-63" x="822.705078"/>
      <use xlink:href="#ArialMT-74" x="872.705078"/>
      <use xlink:href="#ArialMT-69" x="900.488281"/>
      <use xlink:href="#ArialMT-6f" x="922.705078"/>
      <use xlink:href="#ArialMT-6e" x="978.320312"/>
     </g>
    </g>
   </g>
   <g id="line2d_31">
    <path d="M 181.922689 122.664804 
L 193.208373 122.664804 
L 204.494056 122.664804 
L 215.77974 98.649828 
L 227.065423 49.22264 
L 238.351107 37.149149 
L 249.63679 34.08069 
L 260.922474 34.088528 
L 272.208157 33.892643 
L 283.493841 35.216094 
L 294.779524 32.459979 
L 306.065207 48.378477 
" clip-path="url(#p9ffbd30257)" style="fill: none; stroke: #4878d0; stroke-width: 1.5; stroke-linecap: square"/>
   </g>
   <g id="line2d_32">
    <path d="M 181.922689 122.664804 
L 193.208373 122.664804 
L 204.494056 122.664804 
L 215.77974 107.188486 
L 227.065423 55.975942 
L 238.351107 41.468121 
L 249.63679 35.634798 
L 260.922474 35.158936 
L 272.208157 35.37837 
L 283.493841 34.314561 
L 294.779524 32.459979 
L 306.065207 29.806895 
" clip-path="url(#p9ffbd30257)" style="fill: none; stroke: #ee854a; stroke-width: 1.5; stroke-linecap: square"/>
   </g>
   <g id="line2d_33">
    <path d="M 181.922689 122.664804 
L 193.208373 122.664804 
L 204.494056 122.664804 
L 215.77974 92.7795 
L 227.065423 61.603694 
L 238.351107 39.308635 
L 249.63679 30.583949 
L 260.922474 29.806895 
L 272.208157 29.806895 
L 283.493841 29.806895 
L 294.779524 29.806895 
L 306.065207 29.806895 
" clip-path="url(#p9ffbd30257)" style="fill: none; stroke: #6acc64; stroke-width: 1.5; stroke-linecap: square"/>
   </g>
   <g id="line2d_34">
    <path d="M 181.922689 122.664804 
L 193.208373 122.664804 
L 204.494056 115.521888 
L 215.77974 65.028861 
L 227.065423 36.27881 
L 238.351107 31.534484 
L 249.63679 30.001159 
L 260.922474 29.806895 
L 272.208157 29.806895 
L 283.493841 29.806895 
L 294.779524 29.806895 
L 306.065207 29.806895 
" clip-path="url(#p9ffbd30257)" style="fill: none; stroke: #d65f5f; stroke-width: 1.5; stroke-linecap: square"/>
   </g>
   <g id="line2d_35">
    <path d="M 181.922689 122.664804 
L 193.208373 122.664804 
L 204.494056 120.879075 
L 215.77974 110.924149 
L 227.065423 61.885082 
L 238.351107 52.913398 
L 249.63679 47.484865 
L 260.922474 50.679855 
L 272.208157 54.321383 
L 283.493841 45.132958 
L 294.779524 51.03156 
L 306.065207 48.378477 
" clip-path="url(#p9ffbd30257)" style="fill: none; stroke: #956cb4; stroke-width: 1.5; stroke-linecap: square"/>
   </g>
   <g id="patch_6">
    <path d="M 181.922689 127.307699 
L 181.922689 25.164 
" style="fill: none; stroke: #000000; stroke-width: 0.8; stroke-linejoin: miter; stroke-linecap: square"/>
   </g>
   <g id="patch_7">
    <path d="M 181.922689 127.307699 
L 294.779524 127.307699 
" style="fill: none; stroke: #000000; stroke-width: 0.8; stroke-linejoin: miter; stroke-linecap: square"/>
   </g>
   <g id="text_27">
    <!-- 95-100% ANI binned by 1% intervals -->
    <g transform="translate(181.541732 11.575781) scale(0.07 -0.07)">
     <defs>
      <path id="ArialMT-2d" d="M 203 1375 
L 203 1941 
L 1931 1941 
L 1931 1375 
L 203 1375 
z
" transform="scale(0.015625)"/>
      <path id="ArialMT-25" d="M 372 3481 
Q 372 3972 619 4315 
Q 866 4659 1334 4659 
Q 1766 4659 2048 4351 
Q 2331 4044 2331 3447 
Q 2331 2866 2045 2552 
Q 1759 2238 1341 2238 
Q 925 2238 648 2547 
Q 372 2856 372 3481 
z
M 1350 4272 
Q 1141 4272 1002 4090 
Q 863 3909 863 3425 
Q 863 2984 1003 2804 
Q 1144 2625 1350 2625 
Q 1563 2625 1702 2806 
Q 1841 2988 1841 3469 
Q 1841 3913 1700 4092 
Q 1559 4272 1350 4272 
z
M 1353 -169 
L 3859 4659 
L 4316 4659 
L 1819 -169 
L 1353 -169 
z
M 3334 1075 
Q 3334 1569 3581 1911 
Q 3828 2253 4300 2253 
Q 4731 2253 5014 1945 
Q 5297 1638 5297 1041 
Q 5297 459 5011 145 
Q 4725 -169 4303 -169 
Q 3888 -169 3611 142 
Q 3334 453 3334 1075 
z
M 4316 1866 
Q 4103 1866 3964 1684 
Q 3825 1503 3825 1019 
Q 3825 581 3965 400 
Q 4106 219 4313 219 
Q 4528 219 4667 400 
Q 4806 581 4806 1063 
Q 4806 1506 4665 1686 
Q 4525 1866 4316 1866 
z
" transform="scale(0.015625)"/>
     </defs>
     <use xlink:href="#ArialMT-39"/>
     <use xlink:href="#ArialMT-35" x="55.615234"/>
     <use xlink:href="#ArialMT-2d" x="111.230469"/>
     <use xlink:href="#ArialMT-31" x="144.53125"/>
     <use xlink:href="#ArialMT-30" x="200.146484"/>
     <use xlink:href="#ArialMT-30" x="255.761719"/>
     <use xlink:href="#ArialMT-25" x="311.376953"/>
     <use xlink:href="#ArialMT-20" x="400.292969"/>
     <use xlink:href="#ArialMT-41" x="422.576172"/>
     <use xlink:href="#ArialMT-4e" x="489.275391"/>
     <use xlink:href="#ArialMT-49" x="561.492188"/>
     <use xlink:href="#ArialMT-20" x="589.275391"/>
     <use xlink:href="#ArialMT-62" x="617.058594"/>
     <use xlink:href="#ArialMT-69" x="672.673828"/>
     <use xlink:href="#ArialMT-6e" x="694.890625"/>
     <use xlink:href="#ArialMT-6e" x="750.505859"/>
     <use xlink:href="#ArialMT-65" x="806.121094"/>
     <use xlink:href="#ArialMT-64" x="861.736328"/>
     <use xlink:href="#ArialMT-20" x="917.351562"/>
     <use xlink:href="#ArialMT-62" x="945.134766"/>
     <use xlink:href="#ArialMT-79" x="1000.75"/>
     <use xlink:href="#ArialMT-20" x="1050.75"/>
     <use xlink:href="#ArialMT-31" x="1078.533203"/>
     <use xlink:href="#ArialMT-25" x="1134.148438"/>
     <use xlink:href="#ArialMT-20" x="1223.064453"/>
     <use xlink:href="#ArialMT-69" x="1250.847656"/>
     <use xlink:href="#ArialMT-6e" x="1273.064453"/>
     <use xlink:href="#ArialMT-74" x="1328.679688"/>
     <use xlink:href="#ArialMT-65" x="1356.462891"/>
     <use xlink:href="#ArialMT-72" x="1412.078125"/>
     <use xlink:href="#ArialMT-76" x="1445.378906"/>
     <use xlink:href="#ArialMT-61" x="1495.378906"/>
     <use xlink:href="#ArialMT-6c" x="1550.994141"/>
     <use xlink:href="#ArialMT-73" x="1573.210938"/>
    </g>
    <!-- (50 genomes/bin, 250 combined) -->
    <g transform="translate(187.184935 19.164) scale(0.07 -0.07)">
     <defs>
      <path id="ArialMT-28" d="M 1497 -1347 
Q 1031 -759 709 28 
Q 388 816 388 1659 
Q 388 2403 628 3084 
Q 909 3875 1497 4659 
L 1900 4659 
Q 1522 4009 1400 3731 
Q 1209 3300 1100 2831 
Q 966 2247 966 1656 
Q 966 153 1900 -1347 
L 1497 -1347 
z
" transform="scale(0.015625)"/>
      <path id="ArialMT-2f" d="M 0 -78 
L 1328 4659 
L 1778 4659 
L 453 -78 
L 0 -78 
z
" transform="scale(0.015625)"/>
     </defs>
     <use xlink:href="#ArialMT-28"/>
     <use xlink:href="#ArialMT-35" x="33.300781"/>
     <use xlink:href="#ArialMT-30" x="88.916016"/>
     <use xlink:href="#ArialMT-20" x="144.53125"/>
     <use xlink:href="#ArialMT-67" x="172.314453"/>
     <use xlink:href="#ArialMT-65" x="227.929688"/>
     <use xlink:href="#ArialMT-6e" x="283.544922"/>
     <use xlink:href="#ArialMT-6f" x="339.160156"/>
     <use xlink:href="#ArialMT-6d" x="394.775391"/>
     <use xlink:href="#ArialMT-65" x="478.076172"/>
     <use xlink:href="#ArialMT-73" x="533.691406"/>
     <use xlink:href="#ArialMT-2f" x="583.691406"/>
     <use xlink:href="#ArialMT-62" x="611.474609"/>
     <use xlink:href="#ArialMT-69" x="667.089844"/>
     <use xlink:href="#ArialMT-6e" x="689.306641"/>
     <use xlink:href="#ArialMT-2c" x="744.921875"/>
     <use xlink:href="#ArialMT-20" x="772.705078"/>
     <use xlink:href="#ArialMT-32" x="800.488281"/>
     <use xlink:href="#ArialMT-35" x="856.103516"/>
     <use xlink:href="#ArialMT-30" x="911.71875"/>
     <use xlink:href="#ArialMT-20" x="967.333984"/>
     <use xlink:href="#ArialMT-63" x="995.117188"/>
     <use xlink:href="#ArialMT-6f" x="1045.117188"/>
     <use xlink:href="#ArialMT-6d" x="1100.732422"/>
     <use xlink:href="#ArialMT-62" x="1184.033203"/>
     <use xlink:href="#ArialMT-69" x="1239.648438"/>
     <use xlink:href="#ArialMT-6e" x="1261.865234"/>
     <use xlink:href="#ArialMT-65" x="1317.480469"/>
     <use xlink:href="#ArialMT-64" x="1373.095703"/>
     <use xlink:href="#ArialMT-29" x="1428.710938"/>
    </g>
   </g>
  </g>
  <g id="axes_3">
   <g id="patch_8">
    <path d="M 332.538191 127.307699 
L 445.395026 127.307699 
L 445.395026 25.164 
L 332.538191 25.164 
z
" style="fill: #ffffff"/>
   </g>
   <g id="PolyCollection_10">
    <defs>
     <path id="m2873455cd8" d="M 366.395242 -51.359324 
L 366.395242 -35.505535 
L 377.680925 -34.316282 
L 388.966609 -34.669291 
L 400.252292 -35.287125 
L 411.537975 -34.523276 
L 422.823659 -35.581664 
L 434.109342 -34.116726 
L 445.395026 -33.240708 
L 456.680709 -33.240708 
L 456.680709 -33.240708 
L 456.680709 -33.240708 
L 445.395026 -33.240708 
L 434.109342 -42.000888 
L 422.823659 -40.653734 
L 411.537975 -37.601438 
L 400.252292 -38.275173 
L 388.966609 -37.770507 
L 377.680925 -38.618579 
L 366.395242 -51.359324 
z
" style="stroke: #4878d0; stroke-opacity: 0.2"/>
    </defs>
    <g clip-path="url(#p61f4cd544a)">
     <use xlink:href="#m2873455cd8" x="0" y="155.905512" style="fill: #4878d0; fill-opacity: 0.2; stroke: #4878d0; stroke-opacity: 0.2"/>
    </g>
   </g>
   <g id="PolyCollection_11">
    <defs>
     <path id="m6cb0857250" d="M 366.395242 -71.476317 
L 366.395242 -46.828005 
L 377.680925 -57.513596 
L 388.966609 -61.37533 
L 400.252292 -52.852298 
L 411.537975 -49.523848 
L 422.823659 -40.411203 
L 434.109342 -35.773196 
L 445.395026 -33.240708 
L 456.680709 -33.240708 
L 456.680709 -33.240708 
L 456.680709 -33.240708 
L 445.395026 -33.240708 
L 434.109342 -45.058987 
L 422.823659 -47.581698 
L 411.537975 -56.785249 
L 400.252292 -59.09235 
L 388.966609 -68.827963 
L 377.680925 -66.270181 
L 366.395242 -71.476317 
z
" style="stroke: #ee854a; stroke-opacity: 0.2"/>
    </defs>
    <g clip-path="url(#p61f4cd544a)">
     <use xlink:href="#m6cb0857250" x="0" y="155.905512" style="fill: #ee854a; fill-opacity: 0.2; stroke: #ee854a; stroke-opacity: 0.2"/>
    </g>
   </g>
   <g id="PolyCollection_12">
    <defs>
     <path id="me8c8e6c717" d="M 366.395242 -104.599495 
L 366.395242 -93.609784 
L 377.680925 -91.943983 
L 388.966609 -80.659254 
L 400.252292 -64.908283 
L 411.537975 -57.021276 
L 422.823659 -42.273578 
L 434.109342 -36.617359 
L 445.395026 -33.240708 
L 456.680709 -33.240708 
L 456.680709 -33.240708 
L 456.680709 -33.240708 
L 445.395026 -33.240708 
L 434.109342 -46.747313 
L 422.823659 -50.583819 
L 411.537975 -65.017902 
L 400.252292 -71.219719 
L 388.966609 -86.614164 
L 377.680925 -98.214561 
L 366.395242 -104.599495 
z
" style="stroke: #6acc64; stroke-opacity: 0.2"/>
    </defs>
    <g clip-path="url(#p61f4cd544a)">
     <use xlink:href="#me8c8e6c717" x="0" y="155.905512" style="fill: #6acc64; fill-opacity: 0.2; stroke: #6acc64; stroke-opacity: 0.2"/>
    </g>
   </g>
   <g id="PolyCollection_13">
    <defs>
     <path id="mbe72fabe99" d="M 355.109558 -125.378788 
L 355.109558 -118.900329 
L 366.395242 -119.627975 
L 377.680925 -111.815623 
L 388.966609 -94.385982 
L 400.252292 -73.244227 
L 411.537975 -59.825028 
L 422.823659 -44.208177 
L 434.109342 -36.173063 
L 445.395026 -33.240708 
L 456.680709 -33.240708 
L 456.680709 -33.240708 
L 456.680709 -33.240708 
L 445.395026 -33.240708 
L 434.109342 -44.970128 
L 422.823659 -52.250988 
L 411.537975 -67.500783 
L 400.252292 -79.151482 
L 388.966609 -98.947696 
L 377.680925 -114.326219 
L 366.395242 -121.434712 
L 355.109558 -125.378788 
z
" style="stroke: #d65f5f; stroke-opacity: 0.2"/>
    </defs>
    <g clip-path="url(#p61f4cd544a)">
     <use xlink:href="#mbe72fabe99" x="0" y="155.905512" style="fill: #d65f5f; fill-opacity: 0.2; stroke: #d65f5f; stroke-opacity: 0.2"/>
    </g>
   </g>
   <g id="PolyCollection_14">
    <defs>
     <path id="m3b1aac0064" d="M 332.538191 -33.240708 
L 332.538191 -33.240708 
L 343.823875 -39.044327 
L 355.109558 -40.978867 
L 366.395242 -46.395578 
L 377.680925 -42.565406 
L 388.966609 -42.128099 
L 400.252292 -39.058873 
L 411.537975 -38.573763 
L 422.823659 -41.082042 
L 434.109342 -38.215239 
L 445.395026 -33.240708 
L 456.680709 -33.240708 
L 456.680709 -33.240708 
L 456.680709 -33.240708 
L 445.395026 -41.946137 
L 434.109342 -48.993389 
L 422.823659 -48.923377 
L 411.537975 -44.534237 
L 400.252292 -44.178858 
L 388.966609 -48.870257 
L 377.680925 -52.434801 
L 366.395242 -59.550449 
L 355.109558 -66.77273 
L 343.823875 -73.866043 
L 332.538191 -33.240708 
z
" style="stroke: #956cb4; stroke-opacity: 0.2"/>
    </defs>
    <g clip-path="url(#p61f4cd544a)">
     <use xlink:href="#m3b1aac0064" x="0" y="155.905512" style="fill: #956cb4; fill-opacity: 0.2; stroke: #956cb4; stroke-opacity: 0.2"/>
    </g>
   </g>
   <g id="matplotlib.axis_5">
    <g id="xtick_12">
     <g id="line2d_36">
      <g>
       <use xlink:href="#mb71d7b5302" x="332.538191" y="127.307699" style="stroke: #000000; stroke-width: 0.8"/>
      </g>
     </g>
     <g id="text_28">
      <!-- −3 -->
      <g transform="translate(329.117722 138.602387) scale(0.06 -0.06)">
       <use xlink:href="#ArialMT-2212"/>
       <use xlink:href="#ArialMT-33" x="58.398438"/>
      </g>
     </g>
    </g>
    <g id="xtick_13">
     <g id="line2d_37">
      <g>
       <use xlink:href="#mb71d7b5302" x="355.109558" y="127.307699" style="stroke: #000000; stroke-width: 0.8"/>
      </g>
     </g>
     <g id="text_29">
      <!-- −2 -->
      <g transform="translate(351.689089 138.602387) scale(0.06 -0.06)">
       <use xlink:href="#ArialMT-2212"/>
       <use xlink:href="#ArialMT-32" x="58.398438"/>
      </g>
     </g>
    </g>
    <g id="xtick_14">
     <g id="line2d_38">
      <g>
       <use xlink:href="#mb71d7b5302" x="377.680925" y="127.307699" style="stroke: #000000; stroke-width: 0.8"/>
      </g>
     </g>
     <g id="text_30">
      <!-- −1 -->
      <g transform="translate(374.260456 138.602387) scale(0.06 -0.06)">
       <use xlink:href="#ArialMT-2212"/>
       <use xlink:href="#ArialMT-31" x="58.398438"/>
      </g>
     </g>
    </g>
    <g id="xtick_15">
     <g id="line2d_39">
      <g>
       <use xlink:href="#mb71d7b5302" x="400.252292" y="127.307699" style="stroke: #000000; stroke-width: 0.8"/>
      </g>
     </g>
     <g id="text_31">
      <!-- 0 -->
      <g transform="translate(398.584011 138.602387) scale(0.06 -0.06)">
       <use xlink:href="#ArialMT-30"/>
      </g>
     </g>
    </g>
    <g id="xtick_16">
     <g id="line2d_40">
      <g>
       <use xlink:href="#mb71d7b5302" x="422.823659" y="127.307699" style="stroke: #000000; stroke-width: 0.8"/>
      </g>
     </g>
     <g id="text_32">
      <!-- 1 -->
      <g transform="translate(421.155378 138.602387) scale(0.06 -0.06)">
       <use xlink:href="#ArialMT-31"/>
      </g>
     </g>
    </g>
    <g id="xtick_17">
     <g id="line2d_41">
      <g>
       <use xlink:href="#mb71d7b5302" x="445.395026" y="127.307699" style="stroke: #000000; stroke-width: 0.8"/>
      </g>
     </g>
     <g id="text_33">
      <!-- 2 -->
      <g transform="translate(443.726745 138.602387) scale(0.06 -0.06)">
       <use xlink:href="#ArialMT-32"/>
      </g>
     </g>
    </g>
    <g id="text_34">
     <!-- Log10 estimated genome coverage -->
     <g transform="translate(341.938796 148.107387) scale(0.06 -0.06)">
      <use xlink:href="#ArialMT-4c"/>
      <use xlink:href="#ArialMT-6f" x="55.615234"/>
      <use xlink:href="#ArialMT-67" x="111.230469"/>
      <use xlink:href="#ArialMT-31" x="166.845703"/>
      <use xlink:href="#ArialMT-30" x="222.460938"/>
      <use xlink:href="#ArialMT-20" x="278.076172"/>
      <use xlink:href="#ArialMT-65" x="305.859375"/>
      <use xlink:href="#ArialMT-73" x="361.474609"/>
      <use xlink:href="#ArialMT-74" x="411.474609"/>
      <use xlink:href="#ArialMT-69" x="439.257812"/>
      <use xlink:href="#ArialMT-6d" x="461.474609"/>
      <use xlink:href="#ArialMT-61" x="544.775391"/>
      <use xlink:href="#ArialMT-74" x="600.390625"/>
      <use xlink:href="#ArialMT-65" x="628.173828"/>
      <use xlink:href="#ArialMT-64" x="683.789062"/>
      <use xlink:href="#ArialMT-20" x="739.404297"/>
      <use xlink:href="#ArialMT-67" x="767.1875"/>
      <use xlink:href="#ArialMT-65" x="822.802734"/>
      <use xlink:href="#ArialMT-6e" x="878.417969"/>
      <use xlink:href="#ArialMT-6f" x="934.033203"/>
      <use xlink:href="#ArialMT-6d" x="989.648438"/>
      <use xlink:href="#ArialMT-65" x="1072.949219"/>
      <use xlink:href="#ArialMT-20" x="1128.564453"/>
      <use xlink:href="#ArialMT-63" x="1156.347656"/>
      <use xlink:href="#ArialMT-6f" x="1206.347656"/>
      <use xlink:href="#ArialMT-76" x="1261.962891"/>
      <use xlink:href="#ArialMT-65" x="1311.962891"/>
      <use xlink:href="#ArialMT-72" x="1367.578125"/>
      <use xlink:href="#ArialMT-61" x="1400.878906"/>
      <use xlink:href="#ArialMT-67" x="1456.494141"/>
      <use xlink:href="#ArialMT-65" x="1512.109375"/>
     </g>
    </g>
   </g>
   <g id="matplotlib.axis_6">
    <g id="ytick_12">
     <g id="line2d_42">
      <g>
       <use xlink:href="#mb96d855820" x="332.538191" y="122.664804" style="stroke: #000000; stroke-width: 0.8"/>
      </g>
     </g>
     <g id="text_35">
      <!-- 0.0 -->
      <g transform="translate(317.198191 124.812148) scale(0.06 -0.06)">
       <use xlink:href="#ArialMT-30"/>
       <use xlink:href="#ArialMT-2e" x="55.615234"/>
       <use xlink:href="#ArialMT-30" x="83.398438"/>
      </g>
     </g>
    </g>
    <g id="ytick_13">
     <g id="line2d_43">
      <g>
       <use xlink:href="#mb96d855820" x="332.538191" y="104.093222" style="stroke: #000000; stroke-width: 0.8"/>
      </g>
     </g>
     <g id="text_36">
      <!-- 0.2 -->
      <g transform="translate(317.198191 106.240566) scale(0.06 -0.06)">
       <use xlink:href="#ArialMT-30"/>
       <use xlink:href="#ArialMT-2e" x="55.615234"/>
       <use xlink:href="#ArialMT-32" x="83.398438"/>
      </g>
     </g>
    </g>
    <g id="ytick_14">
     <g id="line2d_44">
      <g>
       <use xlink:href="#mb96d855820" x="332.538191" y="85.521641" style="stroke: #000000; stroke-width: 0.8"/>
      </g>
     </g>
     <g id="text_37">
      <!-- 0.4 -->
      <g transform="translate(317.198191 87.668984) scale(0.06 -0.06)">
       <use xlink:href="#ArialMT-30"/>
       <use xlink:href="#ArialMT-2e" x="55.615234"/>
       <use xlink:href="#ArialMT-34" x="83.398438"/>
      </g>
     </g>
    </g>
    <g id="ytick_15">
     <g id="line2d_45">
      <g>
       <use xlink:href="#mb96d855820" x="332.538191" y="66.950059" style="stroke: #000000; stroke-width: 0.8"/>
      </g>
     </g>
     <g id="text_38">
      <!-- 0.6 -->
      <g transform="translate(317.198191 69.097403) scale(0.06 -0.06)">
       <use xlink:href="#ArialMT-30"/>
       <use xlink:href="#ArialMT-2e" x="55.615234"/>
       <use xlink:href="#ArialMT-36" x="83.398438"/>
      </g>
     </g>
    </g>
    <g id="ytick_16">
     <g id="line2d_46">
      <g>
       <use xlink:href="#mb96d855820" x="332.538191" y="48.378477" style="stroke: #000000; stroke-width: 0.8"/>
      </g>
     </g>
     <g id="text_39">
      <!-- 0.8 -->
      <g transform="translate(317.198191 50.525821) scale(0.06 -0.06)">
       <use xlink:href="#ArialMT-30"/>
       <use xlink:href="#ArialMT-2e" x="55.615234"/>
       <use xlink:href="#ArialMT-38" x="83.398438"/>
      </g>
     </g>
    </g>
    <g id="ytick_17">
     <g id="line2d_47">
      <g>
       <use xlink:href="#mb96d855820" x="332.538191" y="29.806895" style="stroke: #000000; stroke-width: 0.8"/>
      </g>
     </g>
     <g id="text_40">
      <!-- 1.0 -->
      <g transform="translate(317.198191 31.954239) scale(0.06 -0.06)">
       <use xlink:href="#ArialMT-31"/>
       <use xlink:href="#ArialMT-2e" x="55.615234"/>
       <use xlink:href="#ArialMT-30" x="83.398438"/>
      </g>
     </g>
    </g>
    <g id="text_41">
     <!-- Probabililty of false positive -->
     <g transform="translate(311.935379 112.418662) rotate(-90) scale(0.06 -0.06)">
      <defs>
       <path id="ArialMT-70" d="M 422 -1272 
L 422 3319 
L 934 3319 
L 934 2888 
Q 1116 3141 1344 3267 
Q 1572 3394 1897 3394 
Q 2322 3394 2647 3175 
Q 2972 2956 3137 2557 
Q 3303 2159 3303 1684 
Q 3303 1175 3120 767 
Q 2938 359 2589 142 
Q 2241 -75 1856 -75 
Q 1575 -75 1351 44 
Q 1128 163 984 344 
L 984 -1272 
L 422 -1272 
z
M 931 1641 
Q 931 1000 1190 694 
Q 1450 388 1819 388 
Q 2194 388 2461 705 
Q 2728 1022 2728 1688 
Q 2728 2322 2467 2637 
Q 2206 2953 1844 2953 
Q 1484 2953 1207 2617 
Q 931 2281 931 1641 
z
" transform="scale(0.015625)"/>
      </defs>
      <use xlink:href="#ArialMT-50"/>
      <use xlink:href="#ArialMT-72" x="66.699219"/>
      <use xlink:href="#ArialMT-6f" x="100"/>
      <use xlink:href="#ArialMT-62" x="155.615234"/>
      <use xlink:href="#ArialMT-61" x="211.230469"/>
      <use xlink:href="#ArialMT-62" x="266.845703"/>
      <use xlink:href="#ArialMT-69" x="322.460938"/>
      <use xlink:href="#ArialMT-6c" x="344.677734"/>
      <use xlink:href="#ArialMT-69" x="366.894531"/>
      <use xlink:href="#ArialMT-6c" x="389.111328"/>
      <use xlink:href="#ArialMT-74" x="411.328125"/>
      <use xlink:href="#ArialMT-79" x="439.111328"/>
      <use xlink:href="#ArialMT-20" x="489.111328"/>
      <use xlink:href="#ArialMT-6f" x="516.894531"/>
      <use xlink:href="#ArialMT-66" x="572.509766"/>
      <use xlink:href="#ArialMT-20" x="600.292969"/>
      <use xlink:href="#ArialMT-66" x="628.076172"/>
      <use xlink:href="#ArialMT-61" x="655.859375"/>
      <use xlink:href="#ArialMT-6c" x="711.474609"/>
      <use xlink:href="#ArialMT-73" x="733.691406"/>
      <use xlink:href="#ArialMT-65" x="783.691406"/>
      <use xlink:href="#ArialMT-20" x="839.306641"/>
      <use xlink:href="#ArialMT-70" x="867.089844"/>
      <use xlink:href="#ArialMT-6f" x="922.705078"/>
      <use xlink:href="#ArialMT-73" x="978.320312"/>
      <use xlink:href="#ArialMT-69" x="1028.320312"/>
      <use xlink:href="#ArialMT-74" x="1050.537109"/>
      <use xlink:href="#ArialMT-69" x="1078.320312"/>
      <use xlink:href="#ArialMT-76" x="1100.537109"/>
      <use xlink:href="#ArialMT-65" x="1150.537109"/>
     </g>
    </g>
   </g>
   <g id="line2d_48">
    <path d="M 355.109558 122.664804 
L 366.395242 113.605496 
L 377.680925 119.796606 
L 388.966609 119.807637 
L 400.252292 119.308494 
L 411.537975 120.099668 
L 422.823659 117.982893 
L 434.109342 118.284714 
L 445.395026 122.664804 
L 454.543307 122.664804 
" clip-path="url(#p61f4cd544a)" style="fill: none; stroke: #4878d0; stroke-width: 1.5; stroke-linecap: square"/>
   </g>
   <g id="line2d_49">
    <path d="M 366.395242 98.084769 
L 377.680925 93.87603 
L 388.966609 90.884557 
L 400.252292 99.933188 
L 411.537975 102.860985 
L 422.823659 112.267586 
L 434.109342 115.911501 
L 445.395026 122.664804 
L 454.543307 122.664804 
" clip-path="url(#p61f4cd544a)" style="fill: none; stroke: #ee854a; stroke-width: 1.5; stroke-linecap: square"/>
   </g>
   <g id="line2d_50">
    <path d="M 366.395242 56.795155 
L 377.680925 60.892948 
L 388.966609 72.36677 
L 400.252292 87.969254 
L 411.537975 95.26411 
L 422.823659 109.65747 
L 434.109342 114.223176 
L 445.395026 122.664804 
L 454.543307 122.664804 
" clip-path="url(#p61f4cd544a)" style="fill: none; stroke: #6acc64; stroke-width: 1.5; stroke-linecap: square"/>
   </g>
   <g id="line2d_51">
    <path d="M 343.823875 29.806895 
L 355.109558 33.406039 
L 366.395242 35.35316 
L 377.680925 42.798145 
L 388.966609 59.170445 
L 400.252292 79.759476 
L 411.537975 92.336213 
L 422.823659 107.675929 
L 434.109342 115.822642 
L 445.395026 122.664804 
L 454.543307 122.664804 
" clip-path="url(#p61f4cd544a)" style="fill: none; stroke: #d65f5f; stroke-width: 1.5; stroke-linecap: square"/>
   </g>
   <g id="line2d_52">
    <path d="M 332.538191 122.664804 
L 343.823875 99.450327 
L 355.109558 102.029713 
L 366.395242 103.319406 
L 377.680925 108.658304 
L 388.966609 110.406334 
L 400.252292 114.519373 
L 411.537975 114.508366 
L 422.823659 111.109153 
L 434.109342 112.715742 
L 445.395026 119.762994 
L 454.543307 122.115228 
" clip-path="url(#p61f4cd544a)" style="fill: none; stroke: #956cb4; stroke-width: 1.5; stroke-linecap: square"/>
   </g>
   <g id="patch_9">
    <path d="M 332.538191 127.307699 
L 332.538191 25.164 
" style="fill: none; stroke: #000000; stroke-width: 0.8; stroke-linejoin: miter; stroke-linecap: square"/>
   </g>
   <g id="patch_10">
    <path d="M 332.538191 127.307699 
L 445.395026 127.307699 
" style="fill: none; stroke: #000000; stroke-width: 0.8; stroke-linejoin: miter; stroke-linecap: square"/>
   </g>
  </g>
  <g id="legend_1">
   <g id="line2d_53">
    <path d="M 373.99362 7.667812 
L 379.99362 7.667812 
L 385.99362 7.667812 
" style="fill: none; stroke: #4878d0; stroke-width: 1.5; stroke-linecap: square"/>
   </g>
   <g id="text_42">
    <!-- sylph profile -->
    <g transform="translate(390.79362 9.767812) scale(0.06 -0.06)">
     <defs>
      <path id="ArialMT-68" d="M 422 0 
L 422 4581 
L 984 4581 
L 984 2938 
Q 1378 3394 1978 3394 
Q 2347 3394 2619 3248 
Q 2891 3103 3008 2847 
Q 3125 2591 3125 2103 
L 3125 0 
L 2563 0 
L 2563 2103 
Q 2563 2525 2380 2717 
Q 2197 2909 1863 2909 
Q 1613 2909 1392 2779 
Q 1172 2650 1078 2428 
Q 984 2206 984 1816 
L 984 0 
L 422 0 
z
" transform="scale(0.015625)"/>
     </defs>
     <use xlink:href="#ArialMT-73"/>
     <use xlink:href="#ArialMT-79" x="50"/>
     <use xlink:href="#ArialMT-6c" x="100"/>
     <use xlink:href="#ArialMT-70" x="122.216797"/>
     <use xlink:href="#ArialMT-68" x="177.832031"/>
     <use xlink:href="#ArialMT-20" x="233.447266"/>
     <use xlink:href="#ArialMT-70" x="261.230469"/>
     <use xlink:href="#ArialMT-72" x="316.845703"/>
     <use xlink:href="#ArialMT-6f" x="350.146484"/>
     <use xlink:href="#ArialMT-66" x="405.761719"/>
     <use xlink:href="#ArialMT-69" x="433.544922"/>
     <use xlink:href="#ArialMT-6c" x="455.761719"/>
     <use xlink:href="#ArialMT-65" x="477.978516"/>
    </g>
   </g>
   <g id="line2d_54">
    <path d="M 373.99362 16.225312 
L 379.99362 16.225312 
L 385.99362 16.225312 
" style="fill: none; stroke: #ee854a; stroke-width: 1.5; stroke-linecap: square"/>
   </g>
   <g id="text_43">
    <!-- KMCP -->
    <g transform="translate(390.79362 18.325312) scale(0.06 -0.06)">
     <defs>
      <path id="ArialMT-4b" d="M 469 0 
L 469 4581 
L 1075 4581 
L 1075 2309 
L 3350 4581 
L 4172 4581 
L 2250 2725 
L 4256 0 
L 3456 0 
L 1825 2319 
L 1075 1588 
L 1075 0 
L 469 0 
z
" transform="scale(0.015625)"/>
      <path id="ArialMT-4d" d="M 475 0 
L 475 4581 
L 1388 4581 
L 2472 1338 
Q 2622 884 2691 659 
Q 2769 909 2934 1394 
L 4031 4581 
L 4847 4581 
L 4847 0 
L 4263 0 
L 4263 3834 
L 2931 0 
L 2384 0 
L 1059 3900 
L 1059 0 
L 475 0 
z
" transform="scale(0.015625)"/>
      <path id="ArialMT-43" d="M 3763 1606 
L 4369 1453 
Q 4178 706 3683 314 
Q 3188 -78 2472 -78 
Q 1731 -78 1267 223 
Q 803 525 561 1097 
Q 319 1669 319 2325 
Q 319 3041 592 3573 
Q 866 4106 1370 4382 
Q 1875 4659 2481 4659 
Q 3169 4659 3637 4309 
Q 4106 3959 4291 3325 
L 3694 3184 
Q 3534 3684 3231 3912 
Q 2928 4141 2469 4141 
Q 1941 4141 1586 3887 
Q 1231 3634 1087 3207 
Q 944 2781 944 2328 
Q 944 1744 1114 1308 
Q 1284 872 1643 656 
Q 2003 441 2422 441 
Q 2931 441 3284 734 
Q 3638 1028 3763 1606 
z
" transform="scale(0.015625)"/>
     </defs>
     <use xlink:href="#ArialMT-4b"/>
     <use xlink:href="#ArialMT-4d" x="66.699219"/>
     <use xlink:href="#ArialMT-43" x="150"/>
     <use xlink:href="#ArialMT-50" x="222.216797"/>
    </g>
   </g>
   <g id="line2d_55">
    <path d="M 373.99362 24.7125 
L 379.99362 24.7125 
L 385.99362 24.7125 
" style="fill: none; stroke: #6acc64; stroke-width: 1.5; stroke-linecap: square"/>
   </g>
   <g id="text_44">
    <!-- ganon -->
    <g transform="translate(390.79362 26.8125) scale(0.06 -0.06)">
     <use xlink:href="#ArialMT-67"/>
     <use xlink:href="#ArialMT-61" x="55.615234"/>
     <use xlink:href="#ArialMT-6e" x="111.230469"/>
     <use xlink:href="#ArialMT-6f" x="166.845703"/>
     <use xlink:href="#ArialMT-6e" x="222.460938"/>
    </g>
   </g>
   <g id="line2d_56">
    <path d="M 373.99362 33.27 
L 379.99362 33.27 
L 385.99362 33.27 
" style="fill: none; stroke: #d65f5f; stroke-width: 1.5; stroke-linecap: square"/>
   </g>
   <g id="text_45">
    <!-- Bracken -->
    <g transform="translate(390.79362 35.37) scale(0.06 -0.06)">
     <defs>
      <path id="ArialMT-42" d="M 469 0 
L 469 4581 
L 2188 4581 
Q 2713 4581 3030 4442 
Q 3347 4303 3526 4014 
Q 3706 3725 3706 3409 
Q 3706 3116 3547 2856 
Q 3388 2597 3066 2438 
Q 3481 2316 3704 2022 
Q 3928 1728 3928 1328 
Q 3928 1006 3792 729 
Q 3656 453 3456 303 
Q 3256 153 2954 76 
Q 2653 0 2216 0 
L 469 0 
z
M 1075 2656 
L 2066 2656 
Q 2469 2656 2644 2709 
Q 2875 2778 2992 2937 
Q 3109 3097 3109 3338 
Q 3109 3566 3000 3739 
Q 2891 3913 2687 3977 
Q 2484 4041 1991 4041 
L 1075 4041 
L 1075 2656 
z
M 1075 541 
L 2216 541 
Q 2509 541 2628 563 
Q 2838 600 2978 687 
Q 3119 775 3209 942 
Q 3300 1109 3300 1328 
Q 3300 1584 3169 1773 
Q 3038 1963 2805 2039 
Q 2572 2116 2134 2116 
L 1075 2116 
L 1075 541 
z
" transform="scale(0.015625)"/>
      <path id="ArialMT-6b" d="M 425 0 
L 425 4581 
L 988 4581 
L 988 1969 
L 2319 3319 
L 3047 3319 
L 1778 2088 
L 3175 0 
L 2481 0 
L 1384 1697 
L 988 1316 
L 988 0 
L 425 0 
z
" transform="scale(0.015625)"/>
     </defs>
     <use xlink:href="#ArialMT-42"/>
     <use xlink:href="#ArialMT-72" x="66.699219"/>
     <use xlink:href="#ArialMT-61" x="100"/>
     <use xlink:href="#ArialMT-63" x="155.615234"/>
     <use xlink:href="#ArialMT-6b" x="205.615234"/>
     <use xlink:href="#ArialMT-65" x="255.615234"/>
     <use xlink:href="#ArialMT-6e" x="311.230469"/>
    </g>
   </g>
   <g id="line2d_57">
    <path d="M 373.99362 41.830312 
L 379.99362 41.830312 
L 385.99362 41.830312 
" style="fill: none; stroke: #956cb4; stroke-width: 1.5; stroke-linecap: square"/>
   </g>
   <g id="text_46">
    <!-- MetaPhlAn4* (GTDB) -->
    <g transform="translate(390.79362 43.930312) scale(0.06 -0.06)">
     <defs>
      <path id="ArialMT-2a" d="M 200 3741 
L 344 4184 
Q 841 4009 1066 3881 
Q 1006 4447 1003 4659 
L 1456 4659 
Q 1447 4350 1384 3884 
Q 1706 4047 2122 4184 
L 2266 3741 
Q 1869 3609 1488 3566 
Q 1678 3400 2025 2975 
L 1650 2709 
Q 1469 2956 1222 3381 
Q 991 2941 816 2709 
L 447 2975 
Q 809 3422 966 3566 
Q 563 3644 200 3741 
z
" transform="scale(0.015625)"/>
      <path id="ArialMT-47" d="M 2638 1797 
L 2638 2334 
L 4578 2338 
L 4578 638 
Q 4131 281 3656 101 
Q 3181 -78 2681 -78 
Q 2006 -78 1454 211 
Q 903 500 622 1047 
Q 341 1594 341 2269 
Q 341 2938 620 3517 
Q 900 4097 1425 4378 
Q 1950 4659 2634 4659 
Q 3131 4659 3532 4498 
Q 3934 4338 4162 4050 
Q 4391 3763 4509 3300 
L 3963 3150 
Q 3859 3500 3706 3700 
Q 3553 3900 3268 4020 
Q 2984 4141 2638 4141 
Q 2222 4141 1919 4014 
Q 1616 3888 1430 3681 
Q 1244 3475 1141 3228 
Q 966 2803 966 2306 
Q 966 1694 1177 1281 
Q 1388 869 1791 669 
Q 2194 469 2647 469 
Q 3041 469 3416 620 
Q 3791 772 3984 944 
L 3984 1797 
L 2638 1797 
z
" transform="scale(0.015625)"/>
      <path id="ArialMT-54" d="M 1659 0 
L 1659 4041 
L 150 4041 
L 150 4581 
L 3781 4581 
L 3781 4041 
L 2266 4041 
L 2266 0 
L 1659 0 
z
" transform="scale(0.015625)"/>
      <path id="ArialMT-44" d="M 494 0 
L 494 4581 
L 2072 4581 
Q 2606 4581 2888 4516 
Q 3281 4425 3559 4188 
Q 3922 3881 4101 3404 
Q 4281 2928 4281 2316 
Q 4281 1794 4159 1391 
Q 4038 988 3847 723 
Q 3656 459 3429 307 
Q 3203 156 2883 78 
Q 2563 0 2147 0 
L 494 0 
z
M 1100 541 
L 2078 541 
Q 2531 541 2789 625 
Q 3047 709 3200 863 
Q 3416 1078 3536 1442 
Q 3656 1806 3656 2325 
Q 3656 3044 3420 3430 
Q 3184 3816 2847 3947 
Q 2603 4041 2063 4041 
L 1100 4041 
L 1100 541 
z
" transform="scale(0.015625)"/>
     </defs>
     <use xlink:href="#ArialMT-4d"/>
     <use xlink:href="#ArialMT-65" x="83.300781"/>
     <use xlink:href="#ArialMT-74" x="138.916016"/>
     <use xlink:href="#ArialMT-61" x="166.699219"/>
     <use xlink:href="#ArialMT-50" x="222.314453"/>
     <use xlink:href="#ArialMT-68" x="289.013672"/>
     <use xlink:href="#ArialMT-6c" x="344.628906"/>
     <use xlink:href="#ArialMT-41" x="366.845703"/>
     <use xlink:href="#ArialMT-6e" x="433.544922"/>
     <use xlink:href="#ArialMT-34" x="489.160156"/>
     <use xlink:href="#ArialMT-2a" x="544.775391"/>
     <use xlink:href="#ArialMT-20" x="583.691406"/>
     <use xlink:href="#ArialMT-28" x="611.474609"/>
     <use xlink:href="#ArialMT-47" x="644.775391"/>
     <use xlink:href="#ArialMT-54" x="722.558594"/>
     <use xlink:href="#ArialMT-44" x="783.642578"/>
     <use xlink:href="#ArialMT-42" x="855.859375"/>
     <use xlink:href="#ArialMT-29" x="922.558594"/>
    </g>
   </g>
  </g>
 </g>
 <defs>
  <clipPath id="pb18ac2cad2">
   <rect x="31.307188" y="25.164" width="112.856835" height="102.143699"/>
  </clipPath>
  <clipPath id="p9ffbd30257">
   <rect x="181.922689" y="25.164" width="112.856835" height="102.143699"/>
  </clipPath>
  <clipPath id="p61f4cd544a">
   <rect x="332.538191" y="25.164" width="112.856835" height="102.143699"/>
  </clipPath>
 </defs>
</svg>
