<?xml version="1.0" encoding="utf-8" standalone="no"?>
<!DOCTYPE svg PUBLIC "-//W3C//DTD SVG 1.1//EN"
  "http://www.w3.org/Graphics/SVG/1.1/DTD/svg11.dtd">
<svg xmlns:xlink="http://www.w3.org/1999/xlink" width="453.543307pt" height="113.385827pt" viewBox="0 0 453.543307 113.385827" xmlns="http://www.w3.org/2000/svg" version="1.1">
 <metadata>
  <rdf:RDF xmlns:dc="http://purl.org/dc/elements/1.1/" xmlns:cc="http://creativecommons.org/ns#" xmlns:rdf="http://www.w3.org/1999/02/22-rdf-syntax-ns#">
   <cc:Work>
    <dc:type rdf:resource="http://purl.org/dc/dcmitype/StillImage"/>
    <dc:date>2023-12-22T23:05:49.409101</dc:date>
    <dc:format>image/svg+xml</dc:format>
    <dc:creator>
     <cc:Agent>
      <dc:title>Matplotlib v3.8.0, https://matplotlib.org/</dc:title>
     </cc:Agent>
    </dc:creator>
   </cc:Work>
  </rdf:RDF>
 </metadata>
 <defs>
  <style type="text/css">*{stroke-linejoin: round; stroke-linecap: butt}</style>
 </defs>
 <g id="figure_1">
  <g id="patch_1">
   <path d="M 0 113.385827 
L 453.543307 113.385827 
L 453.543307 0 
L 0 0 
z
" style="fill: #ffffff"/>
  </g>
  <g id="axes_1">
   <g id="patch_2">
    <path d="M 34.691719 65.618147 
L 104.049294 65.618147 
L 104.049294 7.56 
L 34.691719 7.56 
z
" style="fill: #ffffff"/>
   </g>
   <g id="PolyCollection_1">
    <defs>
     <path id="m14f2139796" d="M 37.844336 -98.80939 
L 37.844336 -95.918571 
L 53.607421 -97.78992 
L 69.370507 -101.474823 
L 85.133592 -101.73512 
L 100.896677 -101.664756 
L 100.896677 -102.918558 
L 100.896677 -102.918558 
L 85.133592 -103.18682 
L 69.370507 -103.03842 
L 53.607421 -100.727725 
L 37.844336 -98.80939 
z
" style="stroke: #4878d0; stroke-opacity: 0.2"/>
    </defs>
    <g clip-path="url(#p298ba910af)">
     <use xlink:href="#m14f2139796" x="0" y="113.385827" style="fill: #4878d0; fill-opacity: 0.2; stroke: #4878d0; stroke-opacity: 0.2"/>
    </g>
   </g>
   <g id="PolyCollection_2">
    <defs>
     <path id="mb91f0e9138" d="M 37.844336 -81.194393 
L 37.844336 -75.496856 
L 53.607421 -77.502561 
L 69.370507 -88.232194 
L 85.133592 -92.722249 
L 100.896677 -97.668984 
L 100.896677 -100.297763 
L 100.896677 -100.297763 
L 85.133592 -97.359478 
L 69.370507 -94.240429 
L 53.607421 -81.485518 
L 37.844336 -81.194393 
z
" style="stroke: #ee854a; stroke-opacity: 0.2"/>
    </defs>
    <g clip-path="url(#p298ba910af)">
     <use xlink:href="#mb91f0e9138" x="0" y="113.385827" style="fill: #ee854a; fill-opacity: 0.2; stroke: #ee854a; stroke-opacity: 0.2"/>
    </g>
   </g>
   <g id="PolyCollection_3">
    <defs>
     <path id="ma389b9fee1" d="M 37.844336 -67.058555 
L 37.844336 -62.405317 
L 53.607421 -64.684996 
L 69.370507 -75.302414 
L 85.133592 -78.911949 
L 100.896677 -84.786348 
L 100.896677 -90.375487 
L 100.896677 -90.375487 
L 85.133592 -86.627754 
L 69.370507 -83.141024 
L 53.607421 -69.836589 
L 37.844336 -67.058555 
z
" style="stroke: #6acc64; stroke-opacity: 0.2"/>
    </defs>
    <g clip-path="url(#p298ba910af)">
     <use xlink:href="#ma389b9fee1" x="0" y="113.385827" style="fill: #6acc64; fill-opacity: 0.2; stroke: #6acc64; stroke-opacity: 0.2"/>
    </g>
   </g>
   <g id="PolyCollection_4">
    <defs>
     <path id="m4d3f2e057d" d="M 37.844336 -52.534594 
L 37.844336 -50.406687 
L 53.607421 -51.987454 
L 69.370507 -56.156988 
L 85.133592 -60.425025 
L 100.896677 -67.646841 
L 100.896677 -73.554872 
L 100.896677 -73.554872 
L 85.133592 -64.771486 
L 69.370507 -60.213445 
L 53.607421 -55.265921 
L 37.844336 -52.534594 
z
" style="stroke: #d65f5f; stroke-opacity: 0.2"/>
    </defs>
    <g clip-path="url(#p298ba910af)">
     <use xlink:href="#m4d3f2e057d" x="0" y="113.385827" style="fill: #d65f5f; fill-opacity: 0.2; stroke: #d65f5f; stroke-opacity: 0.2"/>
    </g>
   </g>
   <g id="matplotlib.axis_1">
    <g id="xtick_1">
     <g id="line2d_1">
      <defs>
       <path id="m39a838264a" d="M 0 0 
L 0 3.5 
" style="stroke: #000000; stroke-width: 0.8"/>
      </defs>
      <g>
       <use xlink:href="#m39a838264a" x="37.844336" y="65.618147" style="stroke: #000000; stroke-width: 0.8"/>
      </g>
     </g>
     <g id="text_1">
      <!-- [95,96) -->
      <g transform="translate(31.420878 91.629817) rotate(-45) scale(0.07 -0.07)">
       <defs>
        <path id="ArialMT-5b" d="M 434 -1272 
L 434 4581 
L 1675 4581 
L 1675 4116 
L 997 4116 
L 997 -806 
L 1675 -806 
L 1675 -1272 
L 434 -1272 
z
" transform="scale(0.015625)"/>
        <path id="ArialMT-39" d="M 350 1059 
L 891 1109 
Q 959 728 1153 556 
Q 1347 384 1650 384 
Q 1909 384 2104 503 
Q 2300 622 2425 820 
Q 2550 1019 2634 1356 
Q 2719 1694 2719 2044 
Q 2719 2081 2716 2156 
Q 2547 1888 2255 1720 
Q 1963 1553 1622 1553 
Q 1053 1553 659 1965 
Q 266 2378 266 3053 
Q 266 3750 677 4175 
Q 1088 4600 1706 4600 
Q 2153 4600 2523 4359 
Q 2894 4119 3086 3673 
Q 3278 3228 3278 2384 
Q 3278 1506 3087 986 
Q 2897 466 2520 194 
Q 2144 -78 1638 -78 
Q 1100 -78 759 220 
Q 419 519 350 1059 
z
M 2653 3081 
Q 2653 3566 2395 3850 
Q 2138 4134 1775 4134 
Q 1400 4134 1122 3828 
Q 844 3522 844 3034 
Q 844 2597 1108 2323 
Q 1372 2050 1759 2050 
Q 2150 2050 2401 2323 
Q 2653 2597 2653 3081 
z
" transform="scale(0.015625)"/>
        <path id="ArialMT-35" d="M 266 1200 
L 856 1250 
Q 922 819 1161 601 
Q 1400 384 1738 384 
Q 2144 384 2425 690 
Q 2706 997 2706 1503 
Q 2706 1984 2436 2262 
Q 2166 2541 1728 2541 
Q 1456 2541 1237 2417 
Q 1019 2294 894 2097 
L 366 2166 
L 809 4519 
L 3088 4519 
L 3088 3981 
L 1259 3981 
L 1013 2750 
Q 1425 3038 1878 3038 
Q 2478 3038 2890 2622 
Q 3303 2206 3303 1553 
Q 3303 931 2941 478 
Q 2500 -78 1738 -78 
Q 1113 -78 717 272 
Q 322 622 266 1200 
z
" transform="scale(0.015625)"/>
        <path id="ArialMT-2c" d="M 569 0 
L 569 641 
L 1209 641 
L 1209 0 
Q 1209 -353 1084 -570 
Q 959 -788 688 -906 
L 531 -666 
Q 709 -588 793 -436 
Q 878 -284 888 0 
L 569 0 
z
" transform="scale(0.015625)"/>
        <path id="ArialMT-36" d="M 3184 3459 
L 2625 3416 
Q 2550 3747 2413 3897 
Q 2184 4138 1850 4138 
Q 1581 4138 1378 3988 
Q 1113 3794 959 3422 
Q 806 3050 800 2363 
Q 1003 2672 1297 2822 
Q 1591 2972 1913 2972 
Q 2475 2972 2870 2558 
Q 3266 2144 3266 1488 
Q 3266 1056 3080 686 
Q 2894 316 2569 119 
Q 2244 -78 1831 -78 
Q 1128 -78 684 439 
Q 241 956 241 2144 
Q 241 3472 731 4075 
Q 1159 4600 1884 4600 
Q 2425 4600 2770 4297 
Q 3116 3994 3184 3459 
z
M 888 1484 
Q 888 1194 1011 928 
Q 1134 663 1356 523 
Q 1578 384 1822 384 
Q 2178 384 2434 671 
Q 2691 959 2691 1453 
Q 2691 1928 2437 2201 
Q 2184 2475 1800 2475 
Q 1419 2475 1153 2201 
Q 888 1928 888 1484 
z
" transform="scale(0.015625)"/>
        <path id="ArialMT-29" d="M 791 -1347 
L 388 -1347 
Q 1322 153 1322 1656 
Q 1322 2244 1188 2822 
Q 1081 3291 891 3722 
Q 769 4003 388 4659 
L 791 4659 
Q 1378 3875 1659 3084 
Q 1900 2403 1900 1659 
Q 1900 816 1576 28 
Q 1253 -759 791 -1347 
z
" transform="scale(0.015625)"/>
       </defs>
       <use xlink:href="#ArialMT-5b"/>
       <use xlink:href="#ArialMT-39" x="27.783203"/>
       <use xlink:href="#ArialMT-35" x="83.398438"/>
       <use xlink:href="#ArialMT-2c" x="139.013672"/>
       <use xlink:href="#ArialMT-39" x="166.796875"/>
       <use xlink:href="#ArialMT-36" x="222.412109"/>
       <use xlink:href="#ArialMT-29" x="278.027344"/>
      </g>
     </g>
    </g>
    <g id="xtick_2">
     <g id="line2d_2">
      <g>
       <use xlink:href="#m39a838264a" x="53.607421" y="65.618147" style="stroke: #000000; stroke-width: 0.8"/>
      </g>
     </g>
     <g id="text_2">
      <!-- [96,97) -->
      <g transform="translate(47.183964 91.629817) rotate(-45) scale(0.07 -0.07)">
       <defs>
        <path id="ArialMT-37" d="M 303 3981 
L 303 4522 
L 3269 4522 
L 3269 4084 
Q 2831 3619 2401 2847 
Q 1972 2075 1738 1259 
Q 1569 684 1522 0 
L 944 0 
Q 953 541 1156 1306 
Q 1359 2072 1739 2783 
Q 2119 3494 2547 3981 
L 303 3981 
z
" transform="scale(0.015625)"/>
       </defs>
       <use xlink:href="#ArialMT-5b"/>
       <use xlink:href="#ArialMT-39" x="27.783203"/>
       <use xlink:href="#ArialMT-36" x="83.398438"/>
       <use xlink:href="#ArialMT-2c" x="139.013672"/>
       <use xlink:href="#ArialMT-39" x="166.796875"/>
       <use xlink:href="#ArialMT-37" x="222.412109"/>
       <use xlink:href="#ArialMT-29" x="278.027344"/>
      </g>
     </g>
    </g>
    <g id="xtick_3">
     <g id="line2d_3">
      <g>
       <use xlink:href="#m39a838264a" x="69.370507" y="65.618147" style="stroke: #000000; stroke-width: 0.8"/>
      </g>
     </g>
     <g id="text_3">
      <!-- [97,98) -->
      <g transform="translate(62.947049 91.629817) rotate(-45) scale(0.07 -0.07)">
       <defs>
        <path id="ArialMT-38" d="M 1131 2484 
Q 781 2613 612 2850 
Q 444 3088 444 3419 
Q 444 3919 803 4259 
Q 1163 4600 1759 4600 
Q 2359 4600 2725 4251 
Q 3091 3903 3091 3403 
Q 3091 3084 2923 2848 
Q 2756 2613 2416 2484 
Q 2838 2347 3058 2040 
Q 3278 1734 3278 1309 
Q 3278 722 2862 322 
Q 2447 -78 1769 -78 
Q 1091 -78 675 323 
Q 259 725 259 1325 
Q 259 1772 486 2073 
Q 713 2375 1131 2484 
z
M 1019 3438 
Q 1019 3113 1228 2906 
Q 1438 2700 1772 2700 
Q 2097 2700 2305 2904 
Q 2513 3109 2513 3406 
Q 2513 3716 2298 3927 
Q 2084 4138 1766 4138 
Q 1444 4138 1231 3931 
Q 1019 3725 1019 3438 
z
M 838 1322 
Q 838 1081 952 856 
Q 1066 631 1291 507 
Q 1516 384 1775 384 
Q 2178 384 2440 643 
Q 2703 903 2703 1303 
Q 2703 1709 2433 1975 
Q 2163 2241 1756 2241 
Q 1359 2241 1098 1978 
Q 838 1716 838 1322 
z
" transform="scale(0.015625)"/>
       </defs>
       <use xlink:href="#ArialMT-5b"/>
       <use xlink:href="#ArialMT-39" x="27.783203"/>
       <use xlink:href="#ArialMT-37" x="83.398438"/>
       <use xlink:href="#ArialMT-2c" x="139.013672"/>
       <use xlink:href="#ArialMT-39" x="166.796875"/>
       <use xlink:href="#ArialMT-38" x="222.412109"/>
       <use xlink:href="#ArialMT-29" x="278.027344"/>
      </g>
     </g>
    </g>
    <g id="xtick_4">
     <g id="line2d_4">
      <g>
       <use xlink:href="#m39a838264a" x="85.133592" y="65.618147" style="stroke: #000000; stroke-width: 0.8"/>
      </g>
     </g>
     <g id="text_4">
      <!-- [98,99) -->
      <g transform="translate(78.710134 91.629817) rotate(-45) scale(0.07 -0.07)">
       <use xlink:href="#ArialMT-5b"/>
       <use xlink:href="#ArialMT-39" x="27.783203"/>
       <use xlink:href="#ArialMT-38" x="83.398438"/>
       <use xlink:href="#ArialMT-2c" x="139.013672"/>
       <use xlink:href="#ArialMT-39" x="166.796875"/>
       <use xlink:href="#ArialMT-39" x="222.412109"/>
       <use xlink:href="#ArialMT-29" x="278.027344"/>
      </g>
     </g>
    </g>
    <g id="xtick_5">
     <g id="line2d_5">
      <g>
       <use xlink:href="#m39a838264a" x="100.896677" y="65.618147" style="stroke: #000000; stroke-width: 0.8"/>
      </g>
     </g>
     <g id="text_5">
      <!-- [99,100) -->
      <g transform="translate(93.096958 94.382341) rotate(-45) scale(0.07 -0.07)">
       <defs>
        <path id="ArialMT-31" d="M 2384 0 
L 1822 0 
L 1822 3584 
Q 1619 3391 1289 3197 
Q 959 3003 697 2906 
L 697 3450 
Q 1169 3672 1522 3987 
Q 1875 4303 2022 4600 
L 2384 4600 
L 2384 0 
z
" transform="scale(0.015625)"/>
        <path id="ArialMT-30" d="M 266 2259 
Q 266 3072 433 3567 
Q 600 4063 929 4331 
Q 1259 4600 1759 4600 
Q 2128 4600 2406 4451 
Q 2684 4303 2865 4023 
Q 3047 3744 3150 3342 
Q 3253 2941 3253 2259 
Q 3253 1453 3087 958 
Q 2922 463 2592 192 
Q 2263 -78 1759 -78 
Q 1097 -78 719 397 
Q 266 969 266 2259 
z
M 844 2259 
Q 844 1131 1108 757 
Q 1372 384 1759 384 
Q 2147 384 2411 759 
Q 2675 1134 2675 2259 
Q 2675 3391 2411 3762 
Q 2147 4134 1753 4134 
Q 1366 4134 1134 3806 
Q 844 3388 844 2259 
z
" transform="scale(0.015625)"/>
       </defs>
       <use xlink:href="#ArialMT-5b"/>
       <use xlink:href="#ArialMT-39" x="27.783203"/>
       <use xlink:href="#ArialMT-39" x="83.398438"/>
       <use xlink:href="#ArialMT-2c" x="139.013672"/>
       <use xlink:href="#ArialMT-31" x="166.796875"/>
       <use xlink:href="#ArialMT-30" x="222.412109"/>
       <use xlink:href="#ArialMT-30" x="278.027344"/>
       <use xlink:href="#ArialMT-29" x="333.642578"/>
      </g>
     </g>
    </g>
    <g id="text_6">
     <!-- ANI -->
     <g transform="translate(63.535897 104.434577) scale(0.07 -0.07)">
      <defs>
       <path id="ArialMT-41" d="M -9 0 
L 1750 4581 
L 2403 4581 
L 4278 0 
L 3588 0 
L 3053 1388 
L 1138 1388 
L 634 0 
L -9 0 
z
M 1313 1881 
L 2866 1881 
L 2388 3150 
Q 2169 3728 2063 4100 
Q 1975 3659 1816 3225 
L 1313 1881 
z
" transform="scale(0.015625)"/>
       <path id="ArialMT-4e" d="M 488 0 
L 488 4581 
L 1109 4581 
L 3516 984 
L 3516 4581 
L 4097 4581 
L 4097 0 
L 3475 0 
L 1069 3600 
L 1069 0 
L 488 0 
z
" transform="scale(0.015625)"/>
       <path id="ArialMT-49" d="M 597 0 
L 597 4581 
L 1203 4581 
L 1203 0 
L 597 0 
z
" transform="scale(0.015625)"/>
      </defs>
      <use xlink:href="#ArialMT-41"/>
      <use xlink:href="#ArialMT-4e" x="66.699219"/>
      <use xlink:href="#ArialMT-49" x="138.916016"/>
     </g>
    </g>
   </g>
   <g id="matplotlib.axis_2">
    <g id="ytick_1">
     <g id="line2d_6">
      <defs>
       <path id="m6a9be97d88" d="M 0 0 
L -3.5 0 
" style="stroke: #000000; stroke-width: 0.8"/>
      </defs>
      <g>
       <use xlink:href="#m6a9be97d88" x="34.691719" y="57.278924" style="stroke: #000000; stroke-width: 0.8"/>
      </g>
     </g>
     <g id="text_7">
      <!-- 0.25 -->
      <g transform="translate(14.069063 59.784159) scale(0.07 -0.07)">
       <defs>
        <path id="ArialMT-2e" d="M 581 0 
L 581 641 
L 1222 641 
L 1222 0 
L 581 0 
z
" transform="scale(0.015625)"/>
        <path id="ArialMT-32" d="M 3222 541 
L 3222 0 
L 194 0 
Q 188 203 259 391 
Q 375 700 629 1000 
Q 884 1300 1366 1694 
Q 2113 2306 2375 2664 
Q 2638 3022 2638 3341 
Q 2638 3675 2398 3904 
Q 2159 4134 1775 4134 
Q 1369 4134 1125 3890 
Q 881 3647 878 3216 
L 300 3275 
Q 359 3922 746 4261 
Q 1134 4600 1788 4600 
Q 2447 4600 2831 4234 
Q 3216 3869 3216 3328 
Q 3216 3053 3103 2787 
Q 2991 2522 2730 2228 
Q 2469 1934 1863 1422 
Q 1356 997 1212 845 
Q 1069 694 975 541 
L 3222 541 
z
" transform="scale(0.015625)"/>
       </defs>
       <use xlink:href="#ArialMT-30"/>
       <use xlink:href="#ArialMT-2e" x="55.615234"/>
       <use xlink:href="#ArialMT-32" x="83.398438"/>
       <use xlink:href="#ArialMT-35" x="139.013672"/>
      </g>
     </g>
    </g>
    <g id="ytick_2">
     <g id="line2d_7">
      <g>
       <use xlink:href="#m6a9be97d88" x="34.691719" y="41.585618" style="stroke: #000000; stroke-width: 0.8"/>
      </g>
     </g>
     <g id="text_8">
      <!-- 0.50 -->
      <g transform="translate(14.069063 44.090853) scale(0.07 -0.07)">
       <use xlink:href="#ArialMT-30"/>
       <use xlink:href="#ArialMT-2e" x="55.615234"/>
       <use xlink:href="#ArialMT-35" x="83.398438"/>
       <use xlink:href="#ArialMT-30" x="139.013672"/>
      </g>
     </g>
    </g>
    <g id="ytick_3">
     <g id="line2d_8">
      <g>
       <use xlink:href="#m6a9be97d88" x="34.691719" y="25.892313" style="stroke: #000000; stroke-width: 0.8"/>
      </g>
     </g>
     <g id="text_9">
      <!-- 0.75 -->
      <g transform="translate(14.069063 28.397547) scale(0.07 -0.07)">
       <use xlink:href="#ArialMT-30"/>
       <use xlink:href="#ArialMT-2e" x="55.615234"/>
       <use xlink:href="#ArialMT-37" x="83.398438"/>
       <use xlink:href="#ArialMT-35" x="139.013672"/>
      </g>
     </g>
    </g>
    <g id="ytick_4">
     <g id="line2d_9">
      <g>
       <use xlink:href="#m6a9be97d88" x="34.691719" y="10.199007" style="stroke: #000000; stroke-width: 0.8"/>
      </g>
     </g>
     <g id="text_10">
      <!-- 1.00 -->
      <g transform="translate(14.069063 12.704241) scale(0.07 -0.07)">
       <use xlink:href="#ArialMT-31"/>
       <use xlink:href="#ArialMT-2e" x="55.615234"/>
       <use xlink:href="#ArialMT-30" x="83.398438"/>
       <use xlink:href="#ArialMT-30" x="139.013672"/>
      </g>
     </g>
    </g>
    <g id="text_11">
     <!-- Precision -->
     <g transform="translate(8.677813 50.98337) rotate(-90) scale(0.07 -0.07)">
      <defs>
       <path id="ArialMT-50" d="M 494 0 
L 494 4581 
L 2222 4581 
Q 2678 4581 2919 4538 
Q 3256 4481 3484 4323 
Q 3713 4166 3852 3881 
Q 3991 3597 3991 3256 
Q 3991 2672 3619 2267 
Q 3247 1863 2275 1863 
L 1100 1863 
L 1100 0 
L 494 0 
z
M 1100 2403 
L 2284 2403 
Q 2872 2403 3119 2622 
Q 3366 2841 3366 3238 
Q 3366 3525 3220 3729 
Q 3075 3934 2838 4000 
Q 2684 4041 2272 4041 
L 1100 4041 
L 1100 2403 
z
" transform="scale(0.015625)"/>
       <path id="ArialMT-72" d="M 416 0 
L 416 3319 
L 922 3319 
L 922 2816 
Q 1116 3169 1280 3281 
Q 1444 3394 1641 3394 
Q 1925 3394 2219 3213 
L 2025 2691 
Q 1819 2813 1613 2813 
Q 1428 2813 1281 2702 
Q 1134 2591 1072 2394 
Q 978 2094 978 1738 
L 978 0 
L 416 0 
z
" transform="scale(0.015625)"/>
       <path id="ArialMT-65" d="M 2694 1069 
L 3275 997 
Q 3138 488 2766 206 
Q 2394 -75 1816 -75 
Q 1088 -75 661 373 
Q 234 822 234 1631 
Q 234 2469 665 2931 
Q 1097 3394 1784 3394 
Q 2450 3394 2872 2941 
Q 3294 2488 3294 1666 
Q 3294 1616 3291 1516 
L 816 1516 
Q 847 969 1125 678 
Q 1403 388 1819 388 
Q 2128 388 2347 550 
Q 2566 713 2694 1069 
z
M 847 1978 
L 2700 1978 
Q 2663 2397 2488 2606 
Q 2219 2931 1791 2931 
Q 1403 2931 1139 2672 
Q 875 2413 847 1978 
z
" transform="scale(0.015625)"/>
       <path id="ArialMT-63" d="M 2588 1216 
L 3141 1144 
Q 3050 572 2676 248 
Q 2303 -75 1759 -75 
Q 1078 -75 664 370 
Q 250 816 250 1647 
Q 250 2184 428 2587 
Q 606 2991 970 3192 
Q 1334 3394 1763 3394 
Q 2303 3394 2647 3120 
Q 2991 2847 3088 2344 
L 2541 2259 
Q 2463 2594 2264 2762 
Q 2066 2931 1784 2931 
Q 1359 2931 1093 2626 
Q 828 2322 828 1663 
Q 828 994 1084 691 
Q 1341 388 1753 388 
Q 2084 388 2306 591 
Q 2528 794 2588 1216 
z
" transform="scale(0.015625)"/>
       <path id="ArialMT-69" d="M 425 3934 
L 425 4581 
L 988 4581 
L 988 3934 
L 425 3934 
z
M 425 0 
L 425 3319 
L 988 3319 
L 988 0 
L 425 0 
z
" transform="scale(0.015625)"/>
       <path id="ArialMT-73" d="M 197 991 
L 753 1078 
Q 800 744 1014 566 
Q 1228 388 1613 388 
Q 2000 388 2187 545 
Q 2375 703 2375 916 
Q 2375 1106 2209 1216 
Q 2094 1291 1634 1406 
Q 1016 1563 777 1677 
Q 538 1791 414 1992 
Q 291 2194 291 2438 
Q 291 2659 392 2848 
Q 494 3038 669 3163 
Q 800 3259 1026 3326 
Q 1253 3394 1513 3394 
Q 1903 3394 2198 3281 
Q 2494 3169 2634 2976 
Q 2775 2784 2828 2463 
L 2278 2388 
Q 2241 2644 2061 2787 
Q 1881 2931 1553 2931 
Q 1166 2931 1000 2803 
Q 834 2675 834 2503 
Q 834 2394 903 2306 
Q 972 2216 1119 2156 
Q 1203 2125 1616 2013 
Q 2213 1853 2448 1751 
Q 2684 1650 2818 1456 
Q 2953 1263 2953 975 
Q 2953 694 2789 445 
Q 2625 197 2315 61 
Q 2006 -75 1616 -75 
Q 969 -75 630 194 
Q 291 463 197 991 
z
" transform="scale(0.015625)"/>
       <path id="ArialMT-6f" d="M 213 1659 
Q 213 2581 725 3025 
Q 1153 3394 1769 3394 
Q 2453 3394 2887 2945 
Q 3322 2497 3322 1706 
Q 3322 1066 3130 698 
Q 2938 331 2570 128 
Q 2203 -75 1769 -75 
Q 1072 -75 642 372 
Q 213 819 213 1659 
z
M 791 1659 
Q 791 1022 1069 705 
Q 1347 388 1769 388 
Q 2188 388 2466 706 
Q 2744 1025 2744 1678 
Q 2744 2294 2464 2611 
Q 2184 2928 1769 2928 
Q 1347 2928 1069 2612 
Q 791 2297 791 1659 
z
" transform="scale(0.015625)"/>
       <path id="ArialMT-6e" d="M 422 0 
L 422 3319 
L 928 3319 
L 928 2847 
Q 1294 3394 1984 3394 
Q 2284 3394 2536 3286 
Q 2788 3178 2913 3003 
Q 3038 2828 3088 2588 
Q 3119 2431 3119 2041 
L 3119 0 
L 2556 0 
L 2556 2019 
Q 2556 2363 2490 2533 
Q 2425 2703 2258 2804 
Q 2091 2906 1866 2906 
Q 1506 2906 1245 2678 
Q 984 2450 984 1813 
L 984 0 
L 422 0 
z
" transform="scale(0.015625)"/>
      </defs>
      <use xlink:href="#ArialMT-50"/>
      <use xlink:href="#ArialMT-72" x="66.699219"/>
      <use xlink:href="#ArialMT-65" x="100"/>
      <use xlink:href="#ArialMT-63" x="155.615234"/>
      <use xlink:href="#ArialMT-69" x="205.615234"/>
      <use xlink:href="#ArialMT-73" x="227.832031"/>
      <use xlink:href="#ArialMT-69" x="277.832031"/>
      <use xlink:href="#ArialMT-6f" x="300.048828"/>
      <use xlink:href="#ArialMT-6e" x="355.664062"/>
     </g>
    </g>
   </g>
   <g id="line2d_10">
    <path d="M 37.844336 15.998389 
L 53.607421 14.039628 
L 69.370507 10.970912 
L 85.133592 10.831444 
L 100.896677 11.049656 
" clip-path="url(#p298ba910af)" style="fill: none; stroke: #4878d0; stroke-width: 1.5; stroke-linecap: square"/>
   </g>
   <g id="line2d_11">
    <path d="M 37.844336 35.014166 
L 53.607421 33.818081 
L 69.370507 22.278906 
L 85.133592 18.490695 
L 100.896677 14.448789 
" clip-path="url(#p298ba910af)" style="fill: none; stroke: #ee854a; stroke-width: 1.5; stroke-linecap: square"/>
   </g>
   <g id="line2d_12">
    <path d="M 37.844336 48.580307 
L 53.607421 46.261924 
L 69.370507 34.331045 
L 85.133592 30.783991 
L 100.896677 25.617108 
" clip-path="url(#p298ba910af)" style="fill: none; stroke: #6acc64; stroke-width: 1.5; stroke-linecap: square"/>
   </g>
   <g id="line2d_13">
    <path d="M 37.844336 61.897528 
L 53.607421 60.034817 
L 69.370507 55.233898 
L 85.133592 50.852141 
L 100.896677 42.684048 
" clip-path="url(#p298ba910af)" style="fill: none; stroke: #d65f5f; stroke-width: 1.5; stroke-linecap: square"/>
   </g>
   <g id="line2d_14"/>
   <g id="line2d_15"/>
   <g id="line2d_16"/>
   <g id="line2d_17"/>
   <g id="patch_3">
    <path d="M 34.691719 65.618147 
L 34.691719 7.56 
" style="fill: none; stroke: #000000; stroke-width: 0.8; stroke-linejoin: miter; stroke-linecap: square"/>
   </g>
   <g id="patch_4">
    <path d="M 34.691719 65.618147 
L 104.049294 65.618147 
" style="fill: none; stroke: #000000; stroke-width: 0.8; stroke-linejoin: miter; stroke-linecap: square"/>
   </g>
   <g id="legend_1"/>
  </g>
  <g id="axes_2">
   <g id="patch_5">
    <path d="M 146.838056 65.618147 
L 216.195632 65.618147 
L 216.195632 7.56 
L 146.838056 7.56 
z
" style="fill: #ffffff"/>
   </g>
   <g id="PolyCollection_5">
    <defs>
     <path id="m0e52327ac0" d="M 149.990673 -71.785198 
L 149.990673 -61.486399 
L 165.753759 -67.323733 
L 181.516844 -85.674635 
L 197.279929 -88.648403 
L 213.043015 -85.013798 
L 213.043015 -99.552216 
L 213.043015 -99.552216 
L 197.279929 -97.569704 
L 181.516844 -94.595937 
L 165.753759 -76.39394 
L 149.990673 -71.785198 
z
" style="stroke: #4878d0; stroke-opacity: 0.2"/>
    </defs>
    <g clip-path="url(#p5fa83b0f3a)">
     <use xlink:href="#m0e52327ac0" x="0" y="113.385827" style="fill: #4878d0; fill-opacity: 0.2; stroke: #4878d0; stroke-opacity: 0.2"/>
    </g>
   </g>
   <g id="PolyCollection_6">
    <defs>
     <path id="mdebf2323d5" d="M 149.990673 -62.651431 
L 149.990673 -50.406687 
L 165.753759 -64.301969 
L 181.516844 -80.049259 
L 197.279929 -86.335473 
L 213.043015 -75.762078 
L 213.043015 -93.604681 
L 213.043015 -93.604681 
L 197.279929 -96.578449 
L 181.516844 -91.62217 
L 165.753759 -75.531473 
L 149.990673 -62.651431 
z
" style="stroke: #ee854a; stroke-opacity: 0.2"/>
    </defs>
    <g clip-path="url(#p5fa83b0f3a)">
     <use xlink:href="#mdebf2323d5" x="0" y="113.385827" style="fill: #ee854a; fill-opacity: 0.2; stroke: #ee854a; stroke-opacity: 0.2"/>
    </g>
   </g>
   <g id="PolyCollection_7">
    <defs>
     <path id="me19b9d4db7" d="M 149.990673 -69.42312 
L 149.990673 -57.651999 
L 165.753759 -65.24827 
L 181.516844 -85.344217 
L 197.279929 -94.926356 
L 213.043015 -93.274263 
L 213.043015 -103.18682 
L 213.043015 -103.18682 
L 197.279929 -99.882634 
L 181.516844 -93.9351 
L 165.753759 -73.164534 
L 149.990673 -69.42312 
z
" style="stroke: #6acc64; stroke-opacity: 0.2"/>
    </defs>
    <g clip-path="url(#p5fa83b0f3a)">
     <use xlink:href="#me19b9d4db7" x="0" y="113.385827" style="fill: #6acc64; fill-opacity: 0.2; stroke: #6acc64; stroke-opacity: 0.2"/>
    </g>
   </g>
   <g id="PolyCollection_8">
    <defs>
     <path id="m1b134dc5f1" d="M 149.990673 -98.560974 
L 149.990673 -92.031771 
L 165.753759 -90.418193 
L 181.516844 -94.265518 
L 197.279929 -94.595937 
L 213.043015 -89.30924 
L 213.043015 -101.534727 
L 213.043015 -101.534727 
L 197.279929 -100.543471 
L 181.516844 -101.534727 
L 165.753759 -95.995468 
L 149.990673 -98.560974 
z
" style="stroke: #d65f5f; stroke-opacity: 0.2"/>
    </defs>
    <g clip-path="url(#p5fa83b0f3a)">
     <use xlink:href="#m1b134dc5f1" x="0" y="113.385827" style="fill: #d65f5f; fill-opacity: 0.2; stroke: #d65f5f; stroke-opacity: 0.2"/>
    </g>
   </g>
   <g id="matplotlib.axis_3">
    <g id="xtick_6">
     <g id="line2d_18">
      <g>
       <use xlink:href="#m39a838264a" x="149.990673" y="65.618147" style="stroke: #000000; stroke-width: 0.8"/>
      </g>
     </g>
     <g id="text_12">
      <!-- [95,96) -->
      <g transform="translate(143.567216 91.629817) rotate(-45) scale(0.07 -0.07)">
       <use xlink:href="#ArialMT-5b"/>
       <use xlink:href="#ArialMT-39" x="27.783203"/>
       <use xlink:href="#ArialMT-35" x="83.398438"/>
       <use xlink:href="#ArialMT-2c" x="139.013672"/>
       <use xlink:href="#ArialMT-39" x="166.796875"/>
       <use xlink:href="#ArialMT-36" x="222.412109"/>
       <use xlink:href="#ArialMT-29" x="278.027344"/>
      </g>
     </g>
    </g>
    <g id="xtick_7">
     <g id="line2d_19">
      <g>
       <use xlink:href="#m39a838264a" x="165.753759" y="65.618147" style="stroke: #000000; stroke-width: 0.8"/>
      </g>
     </g>
     <g id="text_13">
      <!-- [96,97) -->
      <g transform="translate(159.330301 91.629817) rotate(-45) scale(0.07 -0.07)">
       <use xlink:href="#ArialMT-5b"/>
       <use xlink:href="#ArialMT-39" x="27.783203"/>
       <use xlink:href="#ArialMT-36" x="83.398438"/>
       <use xlink:href="#ArialMT-2c" x="139.013672"/>
       <use xlink:href="#ArialMT-39" x="166.796875"/>
       <use xlink:href="#ArialMT-37" x="222.412109"/>
       <use xlink:href="#ArialMT-29" x="278.027344"/>
      </g>
     </g>
    </g>
    <g id="xtick_8">
     <g id="line2d_20">
      <g>
       <use xlink:href="#m39a838264a" x="181.516844" y="65.618147" style="stroke: #000000; stroke-width: 0.8"/>
      </g>
     </g>
     <g id="text_14">
      <!-- [97,98) -->
      <g transform="translate(175.093387 91.629817) rotate(-45) scale(0.07 -0.07)">
       <use xlink:href="#ArialMT-5b"/>
       <use xlink:href="#ArialMT-39" x="27.783203"/>
       <use xlink:href="#ArialMT-37" x="83.398438"/>
       <use xlink:href="#ArialMT-2c" x="139.013672"/>
       <use xlink:href="#ArialMT-39" x="166.796875"/>
       <use xlink:href="#ArialMT-38" x="222.412109"/>
       <use xlink:href="#ArialMT-29" x="278.027344"/>
      </g>
     </g>
    </g>
    <g id="xtick_9">
     <g id="line2d_21">
      <g>
       <use xlink:href="#m39a838264a" x="197.279929" y="65.618147" style="stroke: #000000; stroke-width: 0.8"/>
      </g>
     </g>
     <g id="text_15">
      <!-- [98,99) -->
      <g transform="translate(190.856472 91.629817) rotate(-45) scale(0.07 -0.07)">
       <use xlink:href="#ArialMT-5b"/>
       <use xlink:href="#ArialMT-39" x="27.783203"/>
       <use xlink:href="#ArialMT-38" x="83.398438"/>
       <use xlink:href="#ArialMT-2c" x="139.013672"/>
       <use xlink:href="#ArialMT-39" x="166.796875"/>
       <use xlink:href="#ArialMT-39" x="222.412109"/>
       <use xlink:href="#ArialMT-29" x="278.027344"/>
      </g>
     </g>
    </g>
    <g id="xtick_10">
     <g id="line2d_22">
      <g>
       <use xlink:href="#m39a838264a" x="213.043015" y="65.618147" style="stroke: #000000; stroke-width: 0.8"/>
      </g>
     </g>
     <g id="text_16">
      <!-- [99,100) -->
      <g transform="translate(205.243296 94.382341) rotate(-45) scale(0.07 -0.07)">
       <use xlink:href="#ArialMT-5b"/>
       <use xlink:href="#ArialMT-39" x="27.783203"/>
       <use xlink:href="#ArialMT-39" x="83.398438"/>
       <use xlink:href="#ArialMT-2c" x="139.013672"/>
       <use xlink:href="#ArialMT-31" x="166.796875"/>
       <use xlink:href="#ArialMT-30" x="222.412109"/>
       <use xlink:href="#ArialMT-30" x="278.027344"/>
       <use xlink:href="#ArialMT-29" x="333.642578"/>
      </g>
     </g>
    </g>
    <g id="text_17">
     <!-- ANI -->
     <g transform="translate(175.682235 104.434577) scale(0.07 -0.07)">
      <use xlink:href="#ArialMT-41"/>
      <use xlink:href="#ArialMT-4e" x="66.699219"/>
      <use xlink:href="#ArialMT-49" x="138.916016"/>
     </g>
    </g>
   </g>
   <g id="matplotlib.axis_4">
    <g id="ytick_5">
     <g id="line2d_23">
      <g>
       <use xlink:href="#m6a9be97d88" x="146.838056" y="65.378909" style="stroke: #000000; stroke-width: 0.8"/>
      </g>
     </g>
     <g id="text_18">
      <!-- 0.6 -->
      <g transform="translate(130.108056 67.884144) scale(0.07 -0.07)">
       <use xlink:href="#ArialMT-30"/>
       <use xlink:href="#ArialMT-2e" x="55.615234"/>
       <use xlink:href="#ArialMT-36" x="83.398438"/>
      </g>
     </g>
    </g>
    <g id="ytick_6">
     <g id="line2d_24">
      <g>
       <use xlink:href="#m6a9be97d88" x="146.838056" y="50.510073" style="stroke: #000000; stroke-width: 0.8"/>
      </g>
     </g>
     <g id="text_19">
      <!-- 0.7 -->
      <g transform="translate(130.108056 53.015308) scale(0.07 -0.07)">
       <use xlink:href="#ArialMT-30"/>
       <use xlink:href="#ArialMT-2e" x="55.615234"/>
       <use xlink:href="#ArialMT-37" x="83.398438"/>
      </g>
     </g>
    </g>
    <g id="ytick_7">
     <g id="line2d_25">
      <g>
       <use xlink:href="#m6a9be97d88" x="146.838056" y="35.641237" style="stroke: #000000; stroke-width: 0.8"/>
      </g>
     </g>
     <g id="text_20">
      <!-- 0.8 -->
      <g transform="translate(130.108056 38.146472) scale(0.07 -0.07)">
       <use xlink:href="#ArialMT-30"/>
       <use xlink:href="#ArialMT-2e" x="55.615234"/>
       <use xlink:href="#ArialMT-38" x="83.398438"/>
      </g>
     </g>
    </g>
    <g id="ytick_8">
     <g id="line2d_26">
      <g>
       <use xlink:href="#m6a9be97d88" x="146.838056" y="20.772401" style="stroke: #000000; stroke-width: 0.8"/>
      </g>
     </g>
     <g id="text_21">
      <!-- 0.9 -->
      <g transform="translate(130.108056 23.277636) scale(0.07 -0.07)">
       <use xlink:href="#ArialMT-30"/>
       <use xlink:href="#ArialMT-2e" x="55.615234"/>
       <use xlink:href="#ArialMT-39" x="83.398438"/>
      </g>
     </g>
    </g>
    <g id="text_22">
     <!-- Sensitivity -->
     <g transform="translate(124.634775 52.343995) rotate(-90) scale(0.07 -0.07)">
      <defs>
       <path id="ArialMT-53" d="M 288 1472 
L 859 1522 
Q 900 1178 1048 958 
Q 1197 738 1509 602 
Q 1822 466 2213 466 
Q 2559 466 2825 569 
Q 3091 672 3220 851 
Q 3350 1031 3350 1244 
Q 3350 1459 3225 1620 
Q 3100 1781 2813 1891 
Q 2628 1963 1997 2114 
Q 1366 2266 1113 2400 
Q 784 2572 623 2826 
Q 463 3081 463 3397 
Q 463 3744 659 4045 
Q 856 4347 1234 4503 
Q 1613 4659 2075 4659 
Q 2584 4659 2973 4495 
Q 3363 4331 3572 4012 
Q 3781 3694 3797 3291 
L 3216 3247 
Q 3169 3681 2898 3903 
Q 2628 4125 2100 4125 
Q 1550 4125 1298 3923 
Q 1047 3722 1047 3438 
Q 1047 3191 1225 3031 
Q 1400 2872 2139 2705 
Q 2878 2538 3153 2413 
Q 3553 2228 3743 1945 
Q 3934 1663 3934 1294 
Q 3934 928 3725 604 
Q 3516 281 3123 101 
Q 2731 -78 2241 -78 
Q 1619 -78 1198 103 
Q 778 284 539 648 
Q 300 1013 288 1472 
z
" transform="scale(0.015625)"/>
       <path id="ArialMT-74" d="M 1650 503 
L 1731 6 
Q 1494 -44 1306 -44 
Q 1000 -44 831 53 
Q 663 150 594 308 
Q 525 466 525 972 
L 525 2881 
L 113 2881 
L 113 3319 
L 525 3319 
L 525 4141 
L 1084 4478 
L 1084 3319 
L 1650 3319 
L 1650 2881 
L 1084 2881 
L 1084 941 
Q 1084 700 1114 631 
Q 1144 563 1211 522 
Q 1278 481 1403 481 
Q 1497 481 1650 503 
z
" transform="scale(0.015625)"/>
       <path id="ArialMT-76" d="M 1344 0 
L 81 3319 
L 675 3319 
L 1388 1331 
Q 1503 1009 1600 663 
Q 1675 925 1809 1294 
L 2547 3319 
L 3125 3319 
L 1869 0 
L 1344 0 
z
" transform="scale(0.015625)"/>
       <path id="ArialMT-79" d="M 397 -1278 
L 334 -750 
Q 519 -800 656 -800 
Q 844 -800 956 -737 
Q 1069 -675 1141 -563 
Q 1194 -478 1313 -144 
Q 1328 -97 1363 -6 
L 103 3319 
L 709 3319 
L 1400 1397 
Q 1534 1031 1641 628 
Q 1738 1016 1872 1384 
L 2581 3319 
L 3144 3319 
L 1881 -56 
Q 1678 -603 1566 -809 
Q 1416 -1088 1222 -1217 
Q 1028 -1347 759 -1347 
Q 597 -1347 397 -1278 
z
" transform="scale(0.015625)"/>
      </defs>
      <use xlink:href="#ArialMT-53"/>
      <use xlink:href="#ArialMT-65" x="66.699219"/>
      <use xlink:href="#ArialMT-6e" x="122.314453"/>
      <use xlink:href="#ArialMT-73" x="177.929688"/>
      <use xlink:href="#ArialMT-69" x="227.929688"/>
      <use xlink:href="#ArialMT-74" x="250.146484"/>
      <use xlink:href="#ArialMT-69" x="277.929688"/>
      <use xlink:href="#ArialMT-76" x="300.146484"/>
      <use xlink:href="#ArialMT-69" x="350.146484"/>
      <use xlink:href="#ArialMT-74" x="372.363281"/>
      <use xlink:href="#ArialMT-79" x="400.146484"/>
     </g>
    </g>
   </g>
   <g id="line2d_27">
    <path d="M 149.990673 46.937901 
L 165.753759 41.524149 
L 181.516844 23.41575 
L 197.279929 19.781145 
L 213.043015 20.111564 
" clip-path="url(#p5fa83b0f3a)" style="fill: none; stroke: #4878d0; stroke-width: 1.5; stroke-linecap: square"/>
   </g>
   <g id="line2d_28">
    <path d="M 149.990673 56.98086 
L 165.753759 43.154888 
L 181.516844 27.050354 
L 197.279929 21.763657 
L 213.043015 27.711191 
" clip-path="url(#p5fa83b0f3a)" style="fill: none; stroke: #ee854a; stroke-width: 1.5; stroke-linecap: square"/>
   </g>
   <g id="line2d_29">
    <path d="M 149.990673 50.185938 
L 165.753759 44.19419 
L 181.516844 23.41575 
L 197.279929 16.146541 
L 213.043015 14.824867 
" clip-path="url(#p5fa83b0f3a)" style="fill: none; stroke: #6acc64; stroke-width: 1.5; stroke-linecap: square"/>
   </g>
   <g id="line2d_30">
    <path d="M 149.990673 17.921295 
L 165.753759 20.013787 
L 181.516844 15.485704 
L 197.279929 15.485704 
L 213.043015 17.137797 
" clip-path="url(#p5fa83b0f3a)" style="fill: none; stroke: #d65f5f; stroke-width: 1.5; stroke-linecap: square"/>
   </g>
   <g id="line2d_31"/>
   <g id="line2d_32"/>
   <g id="line2d_33"/>
   <g id="line2d_34"/>
   <g id="patch_6">
    <path d="M 146.838056 65.618147 
L 146.838056 7.56 
" style="fill: none; stroke: #000000; stroke-width: 0.8; stroke-linejoin: miter; stroke-linecap: square"/>
   </g>
   <g id="patch_7">
    <path d="M 146.838056 65.618147 
L 216.195632 65.618147 
" style="fill: none; stroke: #000000; stroke-width: 0.8; stroke-linejoin: miter; stroke-linecap: square"/>
   </g>
   <g id="legend_2"/>
  </g>
  <g id="axes_3">
   <g id="patch_8">
    <path d="M 258.984394 65.618147 
L 328.34197 65.618147 
L 328.34197 7.56 
L 258.984394 7.56 
z
" style="fill: #ffffff"/>
   </g>
   <g id="PolyCollection_9">
    <defs>
     <path id="m8e7b77b45e" d="M 258.984394 -103.18682 
L 258.984394 -93.872679 
L 270.54399 -98.005948 
L 282.103586 -100.401202 
L 293.663182 -100.176955 
L 305.222778 -101.279104 
L 316.782374 -99.156337 
L 328.34197 -100.580394 
L 339.901565 -103.18682 
L 351.461161 -103.18682 
L 351.461161 -103.18682 
L 351.461161 -103.18682 
L 339.901565 -103.18682 
L 328.34197 -102.861017 
L 316.782374 -101.843326 
L 305.222778 -102.678096 
L 293.663182 -102.004373 
L 282.103586 -102.307151 
L 270.54399 -101.567798 
L 258.984394 -103.18682 
z
" style="stroke: #4878d0; stroke-opacity: 0.2"/>
    </defs>
    <g clip-path="url(#p311a635844)">
     <use xlink:href="#m8e7b77b45e" x="0" y="113.385827" style="fill: #4878d0; fill-opacity: 0.2; stroke: #4878d0; stroke-opacity: 0.2"/>
    </g>
   </g>
   <g id="PolyCollection_10">
    <defs>
     <path id="m6f90fecf4e" d="M 270.54399 -91.82907 
L 270.54399 -84.479937 
L 282.103586 -82.777236 
L 293.663182 -86.721275 
L 305.222778 -89.503082 
L 316.782374 -93.558012 
L 328.34197 -98.878238 
L 339.901565 -103.18682 
L 351.461161 -103.18682 
L 351.461161 -103.18682 
L 351.461161 -103.18682 
L 339.901565 -103.18682 
L 328.34197 -102.468723 
L 316.782374 -98.015794 
L 305.222778 -93.312408 
L 293.663182 -90.274249 
L 282.103586 -87.04901 
L 270.54399 -91.82907 
z
" style="stroke: #ee854a; stroke-opacity: 0.2"/>
    </defs>
    <g clip-path="url(#p311a635844)">
     <use xlink:href="#m6f90fecf4e" x="0" y="113.385827" style="fill: #ee854a; fill-opacity: 0.2; stroke: #ee854a; stroke-opacity: 0.2"/>
    </g>
   </g>
   <g id="PolyCollection_11">
    <defs>
     <path id="mcabf9c9fbe" d="M 258.984394 -71.429282 
L 258.984394 -62.930786 
L 270.54399 -63.725967 
L 282.103586 -69.461528 
L 293.663182 -80.585426 
L 305.222778 -84.588432 
L 316.782374 -92.300918 
L 328.34197 -96.823258 
L 339.901565 -103.18682 
L 351.461161 -103.18682 
L 351.461161 -103.18682 
L 351.461161 -103.18682 
L 339.901565 -103.18682 
L 328.34197 -101.315184 
L 316.782374 -96.589303 
L 305.222778 -88.603915 
L 293.663182 -84.243455 
L 282.103586 -72.812258 
L 270.54399 -67.801269 
L 258.984394 -71.429282 
z
" style="stroke: #6acc64; stroke-opacity: 0.2"/>
    </defs>
    <g clip-path="url(#p311a635844)">
     <use xlink:href="#mcabf9c9fbe" x="0" y="113.385827" style="fill: #6acc64; fill-opacity: 0.2; stroke: #6acc64; stroke-opacity: 0.2"/>
    </g>
   </g>
   <g id="PolyCollection_12">
    <defs>
     <path id="mb94981e02c" d="M 270.54399 -55.166279 
L 270.54399 -54.297207 
L 282.103586 -62.436254 
L 293.663182 -73.25692 
L 305.222778 -83.535568 
L 316.782374 -91.378384 
L 328.34197 -98.917839 
L 339.901565 -103.18682 
L 351.461161 -103.18682 
L 351.461161 -103.18682 
L 351.461161 -103.18682 
L 339.901565 -103.18682 
L 328.34197 -102.410642 
L 316.782374 -96.030192 
L 305.222778 -87.361475 
L 293.663182 -76.284088 
L 282.103586 -64.653085 
L 270.54399 -55.166279 
z
" style="stroke: #d65f5f; stroke-opacity: 0.2"/>
    </defs>
    <g clip-path="url(#p311a635844)">
     <use xlink:href="#mb94981e02c" x="0" y="113.385827" style="fill: #d65f5f; fill-opacity: 0.2; stroke: #d65f5f; stroke-opacity: 0.2"/>
    </g>
   </g>
   <g id="matplotlib.axis_5">
    <g id="xtick_11">
     <g id="line2d_35">
      <g>
       <use xlink:href="#m39a838264a" x="258.984394" y="65.618147" style="stroke: #000000; stroke-width: 0.8"/>
      </g>
     </g>
     <g id="text_23">
      <!-- $\mathdefault{10^{-2}}$ -->
      <g transform="translate(252.054394 79.836897) scale(0.07 -0.07)">
       <defs>
        <path id="ArialMT-2212" d="M 3381 1997 
L 356 1997 
L 356 2522 
L 3381 2522 
L 3381 1997 
z
" transform="scale(0.015625)"/>
       </defs>
       <use xlink:href="#ArialMT-31" transform="translate(0 0.99375)"/>
       <use xlink:href="#ArialMT-30" transform="translate(55.615234 0.99375)"/>
       <use xlink:href="#ArialMT-2212" transform="translate(112.972813 70.6875) scale(0.7)"/>
       <use xlink:href="#ArialMT-32" transform="translate(153.851719 70.6875) scale(0.7)"/>
      </g>
     </g>
    </g>
    <g id="xtick_12">
     <g id="line2d_36">
      <g>
       <use xlink:href="#m39a838264a" x="282.103586" y="65.618147" style="stroke: #000000; stroke-width: 0.8"/>
      </g>
     </g>
     <g id="text_24">
      <!-- $\mathdefault{10^{-1}}$ -->
      <g transform="translate(275.173586 79.836897) scale(0.07 -0.07)">
       <use xlink:href="#ArialMT-31" transform="translate(0 0.99375)"/>
       <use xlink:href="#ArialMT-30" transform="translate(55.615234 0.99375)"/>
       <use xlink:href="#ArialMT-2212" transform="translate(112.972813 70.6875) scale(0.7)"/>
       <use xlink:href="#ArialMT-31" transform="translate(153.851719 70.6875) scale(0.7)"/>
      </g>
     </g>
    </g>
    <g id="xtick_13">
     <g id="line2d_37">
      <g>
       <use xlink:href="#m39a838264a" x="305.222778" y="65.618147" style="stroke: #000000; stroke-width: 0.8"/>
      </g>
     </g>
     <g id="text_25">
      <!-- $\mathdefault{10^{0}}$ -->
      <g transform="translate(299.727778 79.836897) scale(0.07 -0.07)">
       <use xlink:href="#ArialMT-31" transform="translate(0 0.99375)"/>
       <use xlink:href="#ArialMT-30" transform="translate(55.615234 0.99375)"/>
       <use xlink:href="#ArialMT-30" transform="translate(112.972813 70.6875) scale(0.7)"/>
      </g>
     </g>
    </g>
    <g id="xtick_14">
     <g id="line2d_38">
      <g>
       <use xlink:href="#m39a838264a" x="328.34197" y="65.618147" style="stroke: #000000; stroke-width: 0.8"/>
      </g>
     </g>
     <g id="text_26">
      <!-- $\mathdefault{10^{1}}$ -->
      <g transform="translate(322.84697 79.836897) scale(0.07 -0.07)">
       <use xlink:href="#ArialMT-31" transform="translate(0 0.99375)"/>
       <use xlink:href="#ArialMT-30" transform="translate(55.615234 0.99375)"/>
       <use xlink:href="#ArialMT-31" transform="translate(112.972813 70.6875) scale(0.7)"/>
      </g>
     </g>
    </g>
    <g id="xtick_15">
     <g id="line2d_39">
      <defs>
       <path id="mb35471ec38" d="M 0 0 
L 0 2 
" style="stroke: #000000; stroke-width: 0.6"/>
      </defs>
      <g>
       <use xlink:href="#mb35471ec38" x="265.943964" y="65.618147" style="stroke: #000000; stroke-width: 0.6"/>
      </g>
     </g>
    </g>
    <g id="xtick_16">
     <g id="line2d_40">
      <g>
       <use xlink:href="#mb35471ec38" x="270.015052" y="65.618147" style="stroke: #000000; stroke-width: 0.6"/>
      </g>
     </g>
    </g>
    <g id="xtick_17">
     <g id="line2d_41">
      <g>
       <use xlink:href="#mb35471ec38" x="272.903534" y="65.618147" style="stroke: #000000; stroke-width: 0.6"/>
      </g>
     </g>
    </g>
    <g id="xtick_18">
     <g id="line2d_42">
      <g>
       <use xlink:href="#mb35471ec38" x="275.144016" y="65.618147" style="stroke: #000000; stroke-width: 0.6"/>
      </g>
     </g>
    </g>
    <g id="xtick_19">
     <g id="line2d_43">
      <g>
       <use xlink:href="#mb35471ec38" x="276.974622" y="65.618147" style="stroke: #000000; stroke-width: 0.6"/>
      </g>
     </g>
    </g>
    <g id="xtick_20">
     <g id="line2d_44">
      <g>
       <use xlink:href="#mb35471ec38" x="278.522378" y="65.618147" style="stroke: #000000; stroke-width: 0.6"/>
      </g>
     </g>
    </g>
    <g id="xtick_21">
     <g id="line2d_45">
      <g>
       <use xlink:href="#mb35471ec38" x="279.863105" y="65.618147" style="stroke: #000000; stroke-width: 0.6"/>
      </g>
     </g>
    </g>
    <g id="xtick_22">
     <g id="line2d_46">
      <g>
       <use xlink:href="#mb35471ec38" x="281.04571" y="65.618147" style="stroke: #000000; stroke-width: 0.6"/>
      </g>
     </g>
    </g>
    <g id="xtick_23">
     <g id="line2d_47">
      <g>
       <use xlink:href="#mb35471ec38" x="289.063156" y="65.618147" style="stroke: #000000; stroke-width: 0.6"/>
      </g>
     </g>
    </g>
    <g id="xtick_24">
     <g id="line2d_48">
      <g>
       <use xlink:href="#mb35471ec38" x="293.134244" y="65.618147" style="stroke: #000000; stroke-width: 0.6"/>
      </g>
     </g>
    </g>
    <g id="xtick_25">
     <g id="line2d_49">
      <g>
       <use xlink:href="#mb35471ec38" x="296.022726" y="65.618147" style="stroke: #000000; stroke-width: 0.6"/>
      </g>
     </g>
    </g>
    <g id="xtick_26">
     <g id="line2d_50">
      <g>
       <use xlink:href="#mb35471ec38" x="298.263207" y="65.618147" style="stroke: #000000; stroke-width: 0.6"/>
      </g>
     </g>
    </g>
    <g id="xtick_27">
     <g id="line2d_51">
      <g>
       <use xlink:href="#mb35471ec38" x="300.093814" y="65.618147" style="stroke: #000000; stroke-width: 0.6"/>
      </g>
     </g>
    </g>
    <g id="xtick_28">
     <g id="line2d_52">
      <g>
       <use xlink:href="#mb35471ec38" x="301.64157" y="65.618147" style="stroke: #000000; stroke-width: 0.6"/>
      </g>
     </g>
    </g>
    <g id="xtick_29">
     <g id="line2d_53">
      <g>
       <use xlink:href="#mb35471ec38" x="302.982296" y="65.618147" style="stroke: #000000; stroke-width: 0.6"/>
      </g>
     </g>
    </g>
    <g id="xtick_30">
     <g id="line2d_54">
      <g>
       <use xlink:href="#mb35471ec38" x="304.164901" y="65.618147" style="stroke: #000000; stroke-width: 0.6"/>
      </g>
     </g>
    </g>
    <g id="xtick_31">
     <g id="line2d_55">
      <g>
       <use xlink:href="#mb35471ec38" x="312.182348" y="65.618147" style="stroke: #000000; stroke-width: 0.6"/>
      </g>
     </g>
    </g>
    <g id="xtick_32">
     <g id="line2d_56">
      <g>
       <use xlink:href="#mb35471ec38" x="316.253435" y="65.618147" style="stroke: #000000; stroke-width: 0.6"/>
      </g>
     </g>
    </g>
    <g id="xtick_33">
     <g id="line2d_57">
      <g>
       <use xlink:href="#mb35471ec38" x="319.141918" y="65.618147" style="stroke: #000000; stroke-width: 0.6"/>
      </g>
     </g>
    </g>
    <g id="xtick_34">
     <g id="line2d_58">
      <g>
       <use xlink:href="#mb35471ec38" x="321.382399" y="65.618147" style="stroke: #000000; stroke-width: 0.6"/>
      </g>
     </g>
    </g>
    <g id="xtick_35">
     <g id="line2d_59">
      <g>
       <use xlink:href="#mb35471ec38" x="323.213006" y="65.618147" style="stroke: #000000; stroke-width: 0.6"/>
      </g>
     </g>
    </g>
    <g id="xtick_36">
     <g id="line2d_60">
      <g>
       <use xlink:href="#mb35471ec38" x="324.760761" y="65.618147" style="stroke: #000000; stroke-width: 0.6"/>
      </g>
     </g>
    </g>
    <g id="xtick_37">
     <g id="line2d_61">
      <g>
       <use xlink:href="#mb35471ec38" x="326.101488" y="65.618147" style="stroke: #000000; stroke-width: 0.6"/>
      </g>
     </g>
    </g>
    <g id="xtick_38">
     <g id="line2d_62">
      <g>
       <use xlink:href="#mb35471ec38" x="327.284093" y="65.618147" style="stroke: #000000; stroke-width: 0.6"/>
      </g>
     </g>
    </g>
    <g id="text_27">
     <!-- Abundance (est) -->
     <g transform="translate(267.982479 90.323928) scale(0.07 -0.07)">
      <defs>
       <path id="ArialMT-62" d="M 941 0 
L 419 0 
L 419 4581 
L 981 4581 
L 981 2947 
Q 1338 3394 1891 3394 
Q 2197 3394 2470 3270 
Q 2744 3147 2920 2923 
Q 3097 2700 3197 2384 
Q 3297 2069 3297 1709 
Q 3297 856 2875 390 
Q 2453 -75 1863 -75 
Q 1275 -75 941 416 
L 941 0 
z
M 934 1684 
Q 934 1088 1097 822 
Q 1363 388 1816 388 
Q 2184 388 2453 708 
Q 2722 1028 2722 1663 
Q 2722 2313 2464 2622 
Q 2206 2931 1841 2931 
Q 1472 2931 1203 2611 
Q 934 2291 934 1684 
z
" transform="scale(0.015625)"/>
       <path id="ArialMT-75" d="M 2597 0 
L 2597 488 
Q 2209 -75 1544 -75 
Q 1250 -75 995 37 
Q 741 150 617 320 
Q 494 491 444 738 
Q 409 903 409 1263 
L 409 3319 
L 972 3319 
L 972 1478 
Q 972 1038 1006 884 
Q 1059 663 1231 536 
Q 1403 409 1656 409 
Q 1909 409 2131 539 
Q 2353 669 2445 892 
Q 2538 1116 2538 1541 
L 2538 3319 
L 3100 3319 
L 3100 0 
L 2597 0 
z
" transform="scale(0.015625)"/>
       <path id="ArialMT-64" d="M 2575 0 
L 2575 419 
Q 2259 -75 1647 -75 
Q 1250 -75 917 144 
Q 584 363 401 755 
Q 219 1147 219 1656 
Q 219 2153 384 2558 
Q 550 2963 881 3178 
Q 1213 3394 1622 3394 
Q 1922 3394 2156 3267 
Q 2391 3141 2538 2938 
L 2538 4581 
L 3097 4581 
L 3097 0 
L 2575 0 
z
M 797 1656 
Q 797 1019 1065 703 
Q 1334 388 1700 388 
Q 2069 388 2326 689 
Q 2584 991 2584 1609 
Q 2584 2291 2321 2609 
Q 2059 2928 1675 2928 
Q 1300 2928 1048 2622 
Q 797 2316 797 1656 
z
" transform="scale(0.015625)"/>
       <path id="ArialMT-61" d="M 2588 409 
Q 2275 144 1986 34 
Q 1697 -75 1366 -75 
Q 819 -75 525 192 
Q 231 459 231 875 
Q 231 1119 342 1320 
Q 453 1522 633 1644 
Q 813 1766 1038 1828 
Q 1203 1872 1538 1913 
Q 2219 1994 2541 2106 
Q 2544 2222 2544 2253 
Q 2544 2597 2384 2738 
Q 2169 2928 1744 2928 
Q 1347 2928 1158 2789 
Q 969 2650 878 2297 
L 328 2372 
Q 403 2725 575 2942 
Q 747 3159 1072 3276 
Q 1397 3394 1825 3394 
Q 2250 3394 2515 3294 
Q 2781 3194 2906 3042 
Q 3031 2891 3081 2659 
Q 3109 2516 3109 2141 
L 3109 1391 
Q 3109 606 3145 398 
Q 3181 191 3288 0 
L 2700 0 
Q 2613 175 2588 409 
z
M 2541 1666 
Q 2234 1541 1622 1453 
Q 1275 1403 1131 1340 
Q 988 1278 909 1158 
Q 831 1038 831 891 
Q 831 666 1001 516 
Q 1172 366 1500 366 
Q 1825 366 2078 508 
Q 2331 650 2450 897 
Q 2541 1088 2541 1459 
L 2541 1666 
z
" transform="scale(0.015625)"/>
       <path id="ArialMT-20" transform="scale(0.015625)"/>
       <path id="ArialMT-28" d="M 1497 -1347 
Q 1031 -759 709 28 
Q 388 816 388 1659 
Q 388 2403 628 3084 
Q 909 3875 1497 4659 
L 1900 4659 
Q 1522 4009 1400 3731 
Q 1209 3300 1100 2831 
Q 966 2247 966 1656 
Q 966 153 1900 -1347 
L 1497 -1347 
z
" transform="scale(0.015625)"/>
      </defs>
      <use xlink:href="#ArialMT-41"/>
      <use xlink:href="#ArialMT-62" x="66.699219"/>
      <use xlink:href="#ArialMT-75" x="122.314453"/>
      <use xlink:href="#ArialMT-6e" x="177.929688"/>
      <use xlink:href="#ArialMT-64" x="233.544922"/>
      <use xlink:href="#ArialMT-61" x="289.160156"/>
      <use xlink:href="#ArialMT-6e" x="344.775391"/>
      <use xlink:href="#ArialMT-63" x="400.390625"/>
      <use xlink:href="#ArialMT-65" x="450.390625"/>
      <use xlink:href="#ArialMT-20" x="506.005859"/>
      <use xlink:href="#ArialMT-28" x="533.789062"/>
      <use xlink:href="#ArialMT-65" x="567.089844"/>
      <use xlink:href="#ArialMT-73" x="622.705078"/>
      <use xlink:href="#ArialMT-74" x="672.705078"/>
      <use xlink:href="#ArialMT-29" x="700.488281"/>
     </g>
    </g>
   </g>
   <g id="matplotlib.axis_6">
    <g id="ytick_9">
     <g id="line2d_63">
      <g>
       <use xlink:href="#m6a9be97d88" x="258.984394" y="62.97914" style="stroke: #000000; stroke-width: 0.8"/>
      </g>
     </g>
     <g id="text_28">
      <!-- 0.0 -->
      <g transform="translate(242.254394 65.484374) scale(0.07 -0.07)">
       <use xlink:href="#ArialMT-30"/>
       <use xlink:href="#ArialMT-2e" x="55.615234"/>
       <use xlink:href="#ArialMT-30" x="83.398438"/>
      </g>
     </g>
    </g>
    <g id="ytick_10">
     <g id="line2d_64">
      <g>
       <use xlink:href="#m6a9be97d88" x="258.984394" y="36.589073" style="stroke: #000000; stroke-width: 0.8"/>
      </g>
     </g>
     <g id="text_29">
      <!-- 0.5 -->
      <g transform="translate(242.254394 39.094308) scale(0.07 -0.07)">
       <use xlink:href="#ArialMT-30"/>
       <use xlink:href="#ArialMT-2e" x="55.615234"/>
       <use xlink:href="#ArialMT-35" x="83.398438"/>
      </g>
     </g>
    </g>
    <g id="ytick_11">
     <g id="line2d_65">
      <g>
       <use xlink:href="#m6a9be97d88" x="258.984394" y="10.199007" style="stroke: #000000; stroke-width: 0.8"/>
      </g>
     </g>
     <g id="text_30">
      <!-- 1.0 -->
      <g transform="translate(242.254394 12.704241) scale(0.07 -0.07)">
       <use xlink:href="#ArialMT-31"/>
       <use xlink:href="#ArialMT-2e" x="55.615234"/>
       <use xlink:href="#ArialMT-30" x="83.398438"/>
      </g>
     </g>
    </g>
    <g id="text_31">
     <!-- Precision -->
     <g transform="translate(236.863144 50.98337) rotate(-90) scale(0.07 -0.07)">
      <use xlink:href="#ArialMT-50"/>
      <use xlink:href="#ArialMT-72" x="66.699219"/>
      <use xlink:href="#ArialMT-65" x="100"/>
      <use xlink:href="#ArialMT-63" x="155.615234"/>
      <use xlink:href="#ArialMT-69" x="205.615234"/>
      <use xlink:href="#ArialMT-73" x="227.832031"/>
      <use xlink:href="#ArialMT-69" x="277.832031"/>
      <use xlink:href="#ArialMT-6f" x="300.048828"/>
      <use xlink:href="#ArialMT-6e" x="355.664062"/>
     </g>
    </g>
   </g>
   <g id="line2d_66">
    <path d="M 258.984394 13.30372 
L 270.54399 13.437052 
L 282.103586 11.958344 
L 293.663182 12.241415 
L 305.222778 11.343636 
L 316.782374 12.885995 
L 328.34197 11.50222 
L 339.901565 10.199007 
L 351.461161 10.199007 
" clip-path="url(#p311a635844)" style="fill: none; stroke: #4878d0; stroke-width: 1.5; stroke-linecap: square"/>
   </g>
   <g id="line2d_67">
    <path d="M 270.54399 25.231323 
L 282.103586 28.42524 
L 293.663182 24.96776 
L 305.222778 22.03081 
L 316.782374 17.509768 
L 328.34197 12.712346 
L 339.901565 10.199007 
L 351.461161 10.199007 
" clip-path="url(#p311a635844)" style="fill: none; stroke: #ee854a; stroke-width: 1.5; stroke-linecap: square"/>
   </g>
   <g id="line2d_68">
    <path d="M 247.424798 62.97914 
L 258.984394 46.429437 
L 270.54399 47.671907 
L 282.103586 42.305959 
L 293.663182 30.971386 
L 305.222778 26.789653 
L 316.782374 18.940716 
L 328.34197 14.316606 
L 339.901565 10.199007 
L 351.461161 10.199007 
" clip-path="url(#p311a635844)" style="fill: none; stroke: #6acc64; stroke-width: 1.5; stroke-linecap: square"/>
   </g>
   <g id="line2d_69">
    <path d="M 270.54399 58.647946 
L 282.103586 49.906358 
L 293.663182 38.566497 
L 305.222778 27.937305 
L 316.782374 19.681539 
L 328.34197 12.527542 
L 339.901565 10.199007 
L 351.461161 10.199007 
" clip-path="url(#p311a635844)" style="fill: none; stroke: #d65f5f; stroke-width: 1.5; stroke-linecap: square"/>
   </g>
   <g id="line2d_70"/>
   <g id="line2d_71"/>
   <g id="line2d_72"/>
   <g id="line2d_73"/>
   <g id="patch_9">
    <path d="M 258.984394 65.618147 
L 258.984394 7.56 
" style="fill: none; stroke: #000000; stroke-width: 0.8; stroke-linejoin: miter; stroke-linecap: square"/>
   </g>
   <g id="patch_10">
    <path d="M 258.984394 65.618147 
L 328.34197 65.618147 
" style="fill: none; stroke: #000000; stroke-width: 0.8; stroke-linejoin: miter; stroke-linecap: square"/>
   </g>
   <g id="legend_3"/>
  </g>
  <g id="axes_4">
   <g id="patch_11">
    <path d="M 371.130731 65.618147 
L 440.488307 65.618147 
L 440.488307 7.56 
L 371.130731 7.56 
z
" style="fill: #ffffff"/>
   </g>
   <g id="PolyCollection_13">
    <defs>
     <path id="m37bac124fc" d="M 336.451944 -50.406687 
L 336.451944 -50.406687 
L 348.01154 -50.406687 
L 359.571136 -50.406687 
L 371.130731 -52.195844 
L 382.690327 -81.041897 
L 394.249923 -95.40175 
L 405.809519 -98.823108 
L 417.369115 -100.382079 
L 428.928711 -99.38825 
L 440.488307 -99.624971 
L 452.047903 -94.976577 
L 463.607499 -103.18682 
L 463.607499 -103.18682 
L 463.607499 -103.18682 
L 452.047903 -103.18682 
L 440.488307 -102.539211 
L 428.928711 -101.987272 
L 417.369115 -102.294402 
L 405.809519 -100.901066 
L 394.249923 -98.571857 
L 382.690327 -87.17487 
L 371.130731 -57.116026 
L 359.571136 -50.406687 
L 348.01154 -50.406687 
L 336.451944 -50.406687 
z
" style="stroke: #4878d0; stroke-opacity: 0.2"/>
    </defs>
    <g clip-path="url(#pd70f9fc45e)">
     <use xlink:href="#m37bac124fc" x="0" y="113.385827" style="fill: #4878d0; fill-opacity: 0.2; stroke: #4878d0; stroke-opacity: 0.2"/>
    </g>
   </g>
   <g id="PolyCollection_14">
    <defs>
     <path id="m2e2281effd" d="M 336.451944 -50.406687 
L 336.451944 -50.406687 
L 348.01154 -50.406687 
L 359.571136 -50.406687 
L 371.130731 -50.406687 
L 382.690327 -70.960299 
L 394.249923 -96.985154 
L 405.809519 -97.991925 
L 417.369115 -98.979708 
L 428.928711 -97.988777 
L 440.488307 -97.358339 
L 452.047903 -97.322361 
L 463.607499 -103.18682 
L 463.607499 -103.18682 
L 463.607499 -103.18682 
L 452.047903 -103.18682 
L 440.488307 -101.243993 
L 428.928711 -100.987648 
L 417.369115 -101.274496 
L 405.809519 -100.277679 
L 394.249923 -100.151962 
L 382.690327 -77.093271 
L 371.130731 -50.406687 
L 359.571136 -50.406687 
L 348.01154 -50.406687 
L 336.451944 -50.406687 
z
" style="stroke: #ee854a; stroke-opacity: 0.2"/>
    </defs>
    <g clip-path="url(#pd70f9fc45e)">
     <use xlink:href="#m2e2281effd" x="0" y="113.385827" style="fill: #ee854a; fill-opacity: 0.2; stroke: #ee854a; stroke-opacity: 0.2"/>
    </g>
   </g>
   <g id="PolyCollection_15">
    <defs>
     <path id="m425250e064" d="M 336.451944 -50.406687 
L 336.451944 -50.406687 
L 348.01154 -50.406687 
L 359.571136 -50.406687 
L 371.130731 -59.352472 
L 382.690327 -76.500236 
L 394.249923 -91.047389 
L 405.809519 -99.862087 
L 417.369115 -102.294402 
L 428.928711 -103.18682 
L 440.488307 -103.18682 
L 452.047903 -103.18682 
L 463.607499 -103.18682 
L 463.607499 -103.18682 
L 463.607499 -103.18682 
L 452.047903 -103.18682 
L 440.488307 -103.18682 
L 428.928711 -103.18682 
L 417.369115 -103.18682 
L 405.809519 -101.73225 
L 394.249923 -95.40175 
L 382.690327 -82.628266 
L 371.130731 -67.850968 
L 359.571136 -50.406687 
L 348.01154 -50.406687 
L 336.451944 -50.406687 
z
" style="stroke: #6acc64; stroke-opacity: 0.2"/>
    </defs>
    <g clip-path="url(#pd70f9fc45e)">
     <use xlink:href="#m425250e064" x="0" y="113.385827" style="fill: #6acc64; fill-opacity: 0.2; stroke: #6acc64; stroke-opacity: 0.2"/>
    </g>
   </g>
   <g id="PolyCollection_16">
    <defs>
     <path id="mc4bb902a36" d="M 336.451944 -50.406687 
L 336.451944 -50.406687 
L 348.01154 -50.406687 
L 359.571136 -50.406687 
L 371.130731 -57.563315 
L 382.690327 -95.872719 
L 394.249923 -102.263168 
L 405.809519 -103.18682 
L 417.369115 -103.18682 
L 428.928711 -103.18682 
L 440.488307 -103.18682 
L 452.047903 -103.18682 
L 463.607499 -103.18682 
L 463.607499 -103.18682 
L 463.607499 -103.18682 
L 452.047903 -103.18682 
L 440.488307 -103.18682 
L 428.928711 -103.18682 
L 417.369115 -103.18682 
L 405.809519 -103.18682 
L 394.249923 -103.18682 
L 382.690327 -99.826287 
L 371.130731 -65.167233 
L 359.571136 -50.406687 
L 348.01154 -50.406687 
L 336.451944 -50.406687 
z
" style="stroke: #d65f5f; stroke-opacity: 0.2"/>
    </defs>
    <g clip-path="url(#pd70f9fc45e)">
     <use xlink:href="#mc4bb902a36" x="0" y="113.385827" style="fill: #d65f5f; fill-opacity: 0.2; stroke: #d65f5f; stroke-opacity: 0.2"/>
    </g>
   </g>
   <g id="matplotlib.axis_7">
    <g id="xtick_39">
     <g id="line2d_74">
      <g>
       <use xlink:href="#m39a838264a" x="371.130731" y="65.618147" style="stroke: #000000; stroke-width: 0.8"/>
      </g>
     </g>
     <g id="text_32">
      <!-- $\mathdefault{10^{-2}}$ -->
      <g transform="translate(364.200731 79.836897) scale(0.07 -0.07)">
       <use xlink:href="#ArialMT-31" transform="translate(0 0.99375)"/>
       <use xlink:href="#ArialMT-30" transform="translate(55.615234 0.99375)"/>
       <use xlink:href="#ArialMT-2212" transform="translate(112.972813 70.6875) scale(0.7)"/>
       <use xlink:href="#ArialMT-32" transform="translate(153.851719 70.6875) scale(0.7)"/>
      </g>
     </g>
    </g>
    <g id="xtick_40">
     <g id="line2d_75">
      <g>
       <use xlink:href="#m39a838264a" x="394.249923" y="65.618147" style="stroke: #000000; stroke-width: 0.8"/>
      </g>
     </g>
     <g id="text_33">
      <!-- $\mathdefault{10^{-1}}$ -->
      <g transform="translate(387.319923 79.836897) scale(0.07 -0.07)">
       <use xlink:href="#ArialMT-31" transform="translate(0 0.99375)"/>
       <use xlink:href="#ArialMT-30" transform="translate(55.615234 0.99375)"/>
       <use xlink:href="#ArialMT-2212" transform="translate(112.972813 70.6875) scale(0.7)"/>
       <use xlink:href="#ArialMT-31" transform="translate(153.851719 70.6875) scale(0.7)"/>
      </g>
     </g>
    </g>
    <g id="xtick_41">
     <g id="line2d_76">
      <g>
       <use xlink:href="#m39a838264a" x="417.369115" y="65.618147" style="stroke: #000000; stroke-width: 0.8"/>
      </g>
     </g>
     <g id="text_34">
      <!-- $\mathdefault{10^{0}}$ -->
      <g transform="translate(411.874115 79.836897) scale(0.07 -0.07)">
       <use xlink:href="#ArialMT-31" transform="translate(0 0.99375)"/>
       <use xlink:href="#ArialMT-30" transform="translate(55.615234 0.99375)"/>
       <use xlink:href="#ArialMT-30" transform="translate(112.972813 70.6875) scale(0.7)"/>
      </g>
     </g>
    </g>
    <g id="xtick_42">
     <g id="line2d_77">
      <g>
       <use xlink:href="#m39a838264a" x="440.488307" y="65.618147" style="stroke: #000000; stroke-width: 0.8"/>
      </g>
     </g>
     <g id="text_35">
      <!-- $\mathdefault{10^{1}}$ -->
      <g transform="translate(434.993307 79.836897) scale(0.07 -0.07)">
       <use xlink:href="#ArialMT-31" transform="translate(0 0.99375)"/>
       <use xlink:href="#ArialMT-30" transform="translate(55.615234 0.99375)"/>
       <use xlink:href="#ArialMT-31" transform="translate(112.972813 70.6875) scale(0.7)"/>
      </g>
     </g>
    </g>
    <g id="xtick_43">
     <g id="line2d_78">
      <g>
       <use xlink:href="#mb35471ec38" x="378.090302" y="65.618147" style="stroke: #000000; stroke-width: 0.6"/>
      </g>
     </g>
    </g>
    <g id="xtick_44">
     <g id="line2d_79">
      <g>
       <use xlink:href="#mb35471ec38" x="382.161389" y="65.618147" style="stroke: #000000; stroke-width: 0.6"/>
      </g>
     </g>
    </g>
    <g id="xtick_45">
     <g id="line2d_80">
      <g>
       <use xlink:href="#mb35471ec38" x="385.049872" y="65.618147" style="stroke: #000000; stroke-width: 0.6"/>
      </g>
     </g>
    </g>
    <g id="xtick_46">
     <g id="line2d_81">
      <g>
       <use xlink:href="#mb35471ec38" x="387.290353" y="65.618147" style="stroke: #000000; stroke-width: 0.6"/>
      </g>
     </g>
    </g>
    <g id="xtick_47">
     <g id="line2d_82">
      <g>
       <use xlink:href="#mb35471ec38" x="389.12096" y="65.618147" style="stroke: #000000; stroke-width: 0.6"/>
      </g>
     </g>
    </g>
    <g id="xtick_48">
     <g id="line2d_83">
      <g>
       <use xlink:href="#mb35471ec38" x="390.668715" y="65.618147" style="stroke: #000000; stroke-width: 0.6"/>
      </g>
     </g>
    </g>
    <g id="xtick_49">
     <g id="line2d_84">
      <g>
       <use xlink:href="#mb35471ec38" x="392.009442" y="65.618147" style="stroke: #000000; stroke-width: 0.6"/>
      </g>
     </g>
    </g>
    <g id="xtick_50">
     <g id="line2d_85">
      <g>
       <use xlink:href="#mb35471ec38" x="393.192047" y="65.618147" style="stroke: #000000; stroke-width: 0.6"/>
      </g>
     </g>
    </g>
    <g id="xtick_51">
     <g id="line2d_86">
      <g>
       <use xlink:href="#mb35471ec38" x="401.209494" y="65.618147" style="stroke: #000000; stroke-width: 0.6"/>
      </g>
     </g>
    </g>
    <g id="xtick_52">
     <g id="line2d_87">
      <g>
       <use xlink:href="#mb35471ec38" x="405.280581" y="65.618147" style="stroke: #000000; stroke-width: 0.6"/>
      </g>
     </g>
    </g>
    <g id="xtick_53">
     <g id="line2d_88">
      <g>
       <use xlink:href="#mb35471ec38" x="408.169064" y="65.618147" style="stroke: #000000; stroke-width: 0.6"/>
      </g>
     </g>
    </g>
    <g id="xtick_54">
     <g id="line2d_89">
      <g>
       <use xlink:href="#mb35471ec38" x="410.409545" y="65.618147" style="stroke: #000000; stroke-width: 0.6"/>
      </g>
     </g>
    </g>
    <g id="xtick_55">
     <g id="line2d_90">
      <g>
       <use xlink:href="#mb35471ec38" x="412.240151" y="65.618147" style="stroke: #000000; stroke-width: 0.6"/>
      </g>
     </g>
    </g>
    <g id="xtick_56">
     <g id="line2d_91">
      <g>
       <use xlink:href="#mb35471ec38" x="413.787907" y="65.618147" style="stroke: #000000; stroke-width: 0.6"/>
      </g>
     </g>
    </g>
    <g id="xtick_57">
     <g id="line2d_92">
      <g>
       <use xlink:href="#mb35471ec38" x="415.128634" y="65.618147" style="stroke: #000000; stroke-width: 0.6"/>
      </g>
     </g>
    </g>
    <g id="xtick_58">
     <g id="line2d_93">
      <g>
       <use xlink:href="#mb35471ec38" x="416.311239" y="65.618147" style="stroke: #000000; stroke-width: 0.6"/>
      </g>
     </g>
    </g>
    <g id="xtick_59">
     <g id="line2d_94">
      <g>
       <use xlink:href="#mb35471ec38" x="424.328685" y="65.618147" style="stroke: #000000; stroke-width: 0.6"/>
      </g>
     </g>
    </g>
    <g id="xtick_60">
     <g id="line2d_95">
      <g>
       <use xlink:href="#mb35471ec38" x="428.399773" y="65.618147" style="stroke: #000000; stroke-width: 0.6"/>
      </g>
     </g>
    </g>
    <g id="xtick_61">
     <g id="line2d_96">
      <g>
       <use xlink:href="#mb35471ec38" x="431.288256" y="65.618147" style="stroke: #000000; stroke-width: 0.6"/>
      </g>
     </g>
    </g>
    <g id="xtick_62">
     <g id="line2d_97">
      <g>
       <use xlink:href="#mb35471ec38" x="433.528737" y="65.618147" style="stroke: #000000; stroke-width: 0.6"/>
      </g>
     </g>
    </g>
    <g id="xtick_63">
     <g id="line2d_98">
      <g>
       <use xlink:href="#mb35471ec38" x="435.359343" y="65.618147" style="stroke: #000000; stroke-width: 0.6"/>
      </g>
     </g>
    </g>
    <g id="xtick_64">
     <g id="line2d_99">
      <g>
       <use xlink:href="#mb35471ec38" x="436.907099" y="65.618147" style="stroke: #000000; stroke-width: 0.6"/>
      </g>
     </g>
    </g>
    <g id="xtick_65">
     <g id="line2d_100">
      <g>
       <use xlink:href="#mb35471ec38" x="438.247826" y="65.618147" style="stroke: #000000; stroke-width: 0.6"/>
      </g>
     </g>
    </g>
    <g id="xtick_66">
     <g id="line2d_101">
      <g>
       <use xlink:href="#mb35471ec38" x="439.430431" y="65.618147" style="stroke: #000000; stroke-width: 0.6"/>
      </g>
     </g>
    </g>
    <g id="text_36">
     <!-- Abundance (true) -->
     <g transform="translate(378.767097 90.323928) scale(0.07 -0.07)">
      <use xlink:href="#ArialMT-41"/>
      <use xlink:href="#ArialMT-62" x="66.699219"/>
      <use xlink:href="#ArialMT-75" x="122.314453"/>
      <use xlink:href="#ArialMT-6e" x="177.929688"/>
      <use xlink:href="#ArialMT-64" x="233.544922"/>
      <use xlink:href="#ArialMT-61" x="289.160156"/>
      <use xlink:href="#ArialMT-6e" x="344.775391"/>
      <use xlink:href="#ArialMT-63" x="400.390625"/>
      <use xlink:href="#ArialMT-65" x="450.390625"/>
      <use xlink:href="#ArialMT-20" x="506.005859"/>
      <use xlink:href="#ArialMT-28" x="533.789062"/>
      <use xlink:href="#ArialMT-74" x="567.089844"/>
      <use xlink:href="#ArialMT-72" x="594.873047"/>
      <use xlink:href="#ArialMT-75" x="628.173828"/>
      <use xlink:href="#ArialMT-65" x="683.789062"/>
      <use xlink:href="#ArialMT-29" x="739.404297"/>
     </g>
    </g>
   </g>
   <g id="matplotlib.axis_8">
    <g id="ytick_12">
     <g id="line2d_102">
      <g>
       <use xlink:href="#m6a9be97d88" x="371.130731" y="62.97914" style="stroke: #000000; stroke-width: 0.8"/>
      </g>
     </g>
     <g id="text_37">
      <!-- 0.0 -->
      <g transform="translate(354.400731 65.484374) scale(0.07 -0.07)">
       <use xlink:href="#ArialMT-30"/>
       <use xlink:href="#ArialMT-2e" x="55.615234"/>
       <use xlink:href="#ArialMT-30" x="83.398438"/>
      </g>
     </g>
    </g>
    <g id="ytick_13">
     <g id="line2d_103">
      <g>
       <use xlink:href="#m6a9be97d88" x="371.130731" y="36.589073" style="stroke: #000000; stroke-width: 0.8"/>
      </g>
     </g>
     <g id="text_38">
      <!-- 0.5 -->
      <g transform="translate(354.400731 39.094308) scale(0.07 -0.07)">
       <use xlink:href="#ArialMT-30"/>
       <use xlink:href="#ArialMT-2e" x="55.615234"/>
       <use xlink:href="#ArialMT-35" x="83.398438"/>
      </g>
     </g>
    </g>
    <g id="ytick_14">
     <g id="line2d_104">
      <g>
       <use xlink:href="#m6a9be97d88" x="371.130731" y="10.199007" style="stroke: #000000; stroke-width: 0.8"/>
      </g>
     </g>
     <g id="text_39">
      <!-- 1.0 -->
      <g transform="translate(354.400731 12.704241) scale(0.07 -0.07)">
       <use xlink:href="#ArialMT-31"/>
       <use xlink:href="#ArialMT-2e" x="55.615234"/>
       <use xlink:href="#ArialMT-30" x="83.398438"/>
      </g>
     </g>
    </g>
    <g id="text_40">
     <!-- Sensitivity -->
     <g transform="translate(348.92745 52.343995) rotate(-90) scale(0.07 -0.07)">
      <use xlink:href="#ArialMT-53"/>
      <use xlink:href="#ArialMT-65" x="66.699219"/>
      <use xlink:href="#ArialMT-6e" x="122.314453"/>
      <use xlink:href="#ArialMT-73" x="177.929688"/>
      <use xlink:href="#ArialMT-69" x="227.929688"/>
      <use xlink:href="#ArialMT-74" x="250.146484"/>
      <use xlink:href="#ArialMT-69" x="277.929688"/>
      <use xlink:href="#ArialMT-76" x="300.146484"/>
      <use xlink:href="#ArialMT-69" x="350.146484"/>
      <use xlink:href="#ArialMT-74" x="372.363281"/>
      <use xlink:href="#ArialMT-79" x="400.146484"/>
     </g>
    </g>
   </g>
   <g id="line2d_105">
    <path d="M 336.451944 62.97914 
L 348.01154 62.97914 
L 359.571136 62.97914 
L 371.130731 58.953537 
L 382.690327 29.373812 
L 394.249923 16.268722 
L 405.809519 13.523739 
L 417.369115 11.983842 
L 428.928711 12.598104 
L 440.488307 12.141834 
L 452.047903 13.717682 
L 454.543307 12.958095 
" clip-path="url(#pd70f9fc45e)" style="fill: none; stroke: #4878d0; stroke-width: 1.5; stroke-linecap: square"/>
   </g>
   <g id="line2d_106">
    <path d="M 336.451944 62.97914 
L 348.01154 62.97914 
L 359.571136 62.97914 
L 371.130731 62.97914 
L 382.690327 39.257732 
L 394.249923 14.685318 
L 405.809519 14.251025 
L 417.369115 13.258725 
L 428.928711 13.797652 
L 440.488307 13.760856 
L 452.047903 12.54479 
L 454.543307 12.038399 
" clip-path="url(#pd70f9fc45e)" style="fill: none; stroke: #ee854a; stroke-width: 1.5; stroke-linecap: square"/>
   </g>
   <g id="line2d_107">
    <path d="M 336.451944 62.97914 
L 348.01154 62.97914 
L 359.571136 62.97914 
L 371.130731 50.007751 
L 382.690327 33.722736 
L 394.249923 20.095282 
L 405.809519 12.588658 
L 417.369115 10.581471 
L 428.928711 10.199007 
L 440.488307 10.199007 
L 452.047903 10.199007 
L 454.543307 10.199007 
" clip-path="url(#pd70f9fc45e)" style="fill: none; stroke: #6acc64; stroke-width: 1.5; stroke-linecap: square"/>
   </g>
   <g id="line2d_108">
    <path d="M 336.451944 62.97914 
L 348.01154 62.97914 
L 359.571136 62.97914 
L 371.130731 52.244198 
L 382.690327 15.536324 
L 394.249923 10.594858 
L 405.809519 10.199007 
L 417.369115 10.199007 
L 428.928711 10.199007 
L 440.488307 10.199007 
L 452.047903 10.199007 
L 454.543307 10.199007 
" clip-path="url(#pd70f9fc45e)" style="fill: none; stroke: #d65f5f; stroke-width: 1.5; stroke-linecap: square"/>
   </g>
   <g id="line2d_109"/>
   <g id="line2d_110"/>
   <g id="line2d_111"/>
   <g id="line2d_112"/>
   <g id="patch_12">
    <path d="M 371.130731 65.618147 
L 371.130731 7.56 
" style="fill: none; stroke: #000000; stroke-width: 0.8; stroke-linejoin: miter; stroke-linecap: square"/>
   </g>
   <g id="patch_13">
    <path d="M 371.130731 65.618147 
L 440.488307 65.618147 
" style="fill: none; stroke: #000000; stroke-width: 0.8; stroke-linejoin: miter; stroke-linecap: square"/>
   </g>
   <g id="legend_4"/>
  </g>
  <g id="legend_5">
   <g id="line2d_113">
    <path d="M 119.16306 1.919417 
L 126.16306 1.919417 
L 133.16306 1.919417 
" style="fill: none; stroke: #4878d0; stroke-width: 1.5; stroke-linecap: square"/>
   </g>
   <g id="text_41">
    <!-- sylph -->
    <g transform="translate(138.76306 4.369417) scale(0.07 -0.07)">
     <defs>
      <path id="ArialMT-6c" d="M 409 0 
L 409 4581 
L 972 4581 
L 972 0 
L 409 0 
z
" transform="scale(0.015625)"/>
      <path id="ArialMT-70" d="M 422 -1272 
L 422 3319 
L 934 3319 
L 934 2888 
Q 1116 3141 1344 3267 
Q 1572 3394 1897 3394 
Q 2322 3394 2647 3175 
Q 2972 2956 3137 2557 
Q 3303 2159 3303 1684 
Q 3303 1175 3120 767 
Q 2938 359 2589 142 
Q 2241 -75 1856 -75 
Q 1575 -75 1351 44 
Q 1128 163 984 344 
L 984 -1272 
L 422 -1272 
z
M 931 1641 
Q 931 1000 1190 694 
Q 1450 388 1819 388 
Q 2194 388 2461 705 
Q 2728 1022 2728 1688 
Q 2728 2322 2467 2637 
Q 2206 2953 1844 2953 
Q 1484 2953 1207 2617 
Q 931 2281 931 1641 
z
" transform="scale(0.015625)"/>
      <path id="ArialMT-68" d="M 422 0 
L 422 4581 
L 984 4581 
L 984 2938 
Q 1378 3394 1978 3394 
Q 2347 3394 2619 3248 
Q 2891 3103 3008 2847 
Q 3125 2591 3125 2103 
L 3125 0 
L 2563 0 
L 2563 2103 
Q 2563 2525 2380 2717 
Q 2197 2909 1863 2909 
Q 1613 2909 1392 2779 
Q 1172 2650 1078 2428 
Q 984 2206 984 1816 
L 984 0 
L 422 0 
z
" transform="scale(0.015625)"/>
     </defs>
     <use xlink:href="#ArialMT-73"/>
     <use xlink:href="#ArialMT-79" x="50"/>
     <use xlink:href="#ArialMT-6c" x="100"/>
     <use xlink:href="#ArialMT-70" x="122.216797"/>
     <use xlink:href="#ArialMT-68" x="177.832031"/>
    </g>
   </g>
   <g id="line2d_114">
    <path d="M 169.103685 1.919417 
L 176.103685 1.919417 
L 183.103685 1.919417 
" style="fill: none; stroke: #ee854a; stroke-width: 1.5; stroke-linecap: square"/>
   </g>
   <g id="text_42">
    <!-- KMCP -->
    <g transform="translate(188.703685 4.369417) scale(0.07 -0.07)">
     <defs>
      <path id="ArialMT-4b" d="M 469 0 
L 469 4581 
L 1075 4581 
L 1075 2309 
L 3350 4581 
L 4172 4581 
L 2250 2725 
L 4256 0 
L 3456 0 
L 1825 2319 
L 1075 1588 
L 1075 0 
L 469 0 
z
" transform="scale(0.015625)"/>
      <path id="ArialMT-4d" d="M 475 0 
L 475 4581 
L 1388 4581 
L 2472 1338 
Q 2622 884 2691 659 
Q 2769 909 2934 1394 
L 4031 4581 
L 4847 4581 
L 4847 0 
L 4263 0 
L 4263 3834 
L 2931 0 
L 2384 0 
L 1059 3900 
L 1059 0 
L 475 0 
z
" transform="scale(0.015625)"/>
      <path id="ArialMT-43" d="M 3763 1606 
L 4369 1453 
Q 4178 706 3683 314 
Q 3188 -78 2472 -78 
Q 1731 -78 1267 223 
Q 803 525 561 1097 
Q 319 1669 319 2325 
Q 319 3041 592 3573 
Q 866 4106 1370 4382 
Q 1875 4659 2481 4659 
Q 3169 4659 3637 4309 
Q 4106 3959 4291 3325 
L 3694 3184 
Q 3534 3684 3231 3912 
Q 2928 4141 2469 4141 
Q 1941 4141 1586 3887 
Q 1231 3634 1087 3207 
Q 944 2781 944 2328 
Q 944 1744 1114 1308 
Q 1284 872 1643 656 
Q 2003 441 2422 441 
Q 2931 441 3284 734 
Q 3638 1028 3763 1606 
z
" transform="scale(0.015625)"/>
     </defs>
     <use xlink:href="#ArialMT-4b"/>
     <use xlink:href="#ArialMT-4d" x="66.699219"/>
     <use xlink:href="#ArialMT-43" x="150"/>
     <use xlink:href="#ArialMT-50" x="222.216797"/>
    </g>
   </g>
   <g id="line2d_115">
    <path d="M 222.928216 1.919417 
L 229.928216 1.919417 
L 236.928216 1.919417 
" style="fill: none; stroke: #6acc64; stroke-width: 1.5; stroke-linecap: square"/>
   </g>
   <g id="text_43">
    <!-- ganon -->
    <g transform="translate(242.528216 4.369417) scale(0.07 -0.07)">
     <defs>
      <path id="ArialMT-67" d="M 319 -275 
L 866 -356 
Q 900 -609 1056 -725 
Q 1266 -881 1628 -881 
Q 2019 -881 2231 -725 
Q 2444 -569 2519 -288 
Q 2563 -116 2559 434 
Q 2191 0 1641 0 
Q 956 0 581 494 
Q 206 988 206 1678 
Q 206 2153 378 2554 
Q 550 2956 876 3175 
Q 1203 3394 1644 3394 
Q 2231 3394 2613 2919 
L 2613 3319 
L 3131 3319 
L 3131 450 
Q 3131 -325 2973 -648 
Q 2816 -972 2473 -1159 
Q 2131 -1347 1631 -1347 
Q 1038 -1347 672 -1080 
Q 306 -813 319 -275 
z
M 784 1719 
Q 784 1066 1043 766 
Q 1303 466 1694 466 
Q 2081 466 2343 764 
Q 2606 1063 2606 1700 
Q 2606 2309 2336 2618 
Q 2066 2928 1684 2928 
Q 1309 2928 1046 2623 
Q 784 2319 784 1719 
z
" transform="scale(0.015625)"/>
     </defs>
     <use xlink:href="#ArialMT-67"/>
     <use xlink:href="#ArialMT-61" x="55.615234"/>
     <use xlink:href="#ArialMT-6e" x="111.230469"/>
     <use xlink:href="#ArialMT-6f" x="166.845703"/>
     <use xlink:href="#ArialMT-6e" x="222.460938"/>
    </g>
   </g>
   <g id="line2d_116">
    <path d="M 275.991497 1.919417 
L 282.991497 1.919417 
L 289.991497 1.919417 
" style="fill: none; stroke: #d65f5f; stroke-width: 1.5; stroke-linecap: square"/>
   </g>
   <g id="text_44">
    <!-- Bracken -->
    <g transform="translate(295.591497 -0.028114) scale(0.07 -0.07)">
     <defs>
      <path id="ArialMT-42" d="M 469 0 
L 469 4581 
L 2188 4581 
Q 2713 4581 3030 4442 
Q 3347 4303 3526 4014 
Q 3706 3725 3706 3409 
Q 3706 3116 3547 2856 
Q 3388 2597 3066 2438 
Q 3481 2316 3704 2022 
Q 3928 1728 3928 1328 
Q 3928 1006 3792 729 
Q 3656 453 3456 303 
Q 3256 153 2954 76 
Q 2653 0 2216 0 
L 469 0 
z
M 1075 2656 
L 2066 2656 
Q 2469 2656 2644 2709 
Q 2875 2778 2992 2937 
Q 3109 3097 3109 3338 
Q 3109 3566 3000 3739 
Q 2891 3913 2687 3977 
Q 2484 4041 1991 4041 
L 1075 4041 
L 1075 2656 
z
M 1075 541 
L 2216 541 
Q 2509 541 2628 563 
Q 2838 600 2978 687 
Q 3119 775 3209 942 
Q 3300 1109 3300 1328 
Q 3300 1584 3169 1773 
Q 3038 1963 2805 2039 
Q 2572 2116 2134 2116 
L 1075 2116 
L 1075 541 
z
" transform="scale(0.015625)"/>
      <path id="ArialMT-6b" d="M 425 0 
L 425 4581 
L 988 4581 
L 988 1969 
L 2319 3319 
L 3047 3319 
L 1778 2088 
L 3175 0 
L 2481 0 
L 1384 1697 
L 988 1316 
L 988 0 
L 425 0 
z
" transform="scale(0.015625)"/>
     </defs>
     <use xlink:href="#ArialMT-42"/>
     <use xlink:href="#ArialMT-72" x="66.699219"/>
     <use xlink:href="#ArialMT-61" x="100"/>
     <use xlink:href="#ArialMT-63" x="155.615234"/>
     <use xlink:href="#ArialMT-6b" x="205.615234"/>
     <use xlink:href="#ArialMT-65" x="255.615234"/>
     <use xlink:href="#ArialMT-6e" x="311.230469"/>
    </g>
    <!-- 0.01% cutoff -->
    <g transform="translate(295.591497 7.375699) scale(0.07 -0.07)">
     <defs>
      <path id="ArialMT-25" d="M 372 3481 
Q 372 3972 619 4315 
Q 866 4659 1334 4659 
Q 1766 4659 2048 4351 
Q 2331 4044 2331 3447 
Q 2331 2866 2045 2552 
Q 1759 2238 1341 2238 
Q 925 2238 648 2547 
Q 372 2856 372 3481 
z
M 1350 4272 
Q 1141 4272 1002 4090 
Q 863 3909 863 3425 
Q 863 2984 1003 2804 
Q 1144 2625 1350 2625 
Q 1563 2625 1702 2806 
Q 1841 2988 1841 3469 
Q 1841 3913 1700 4092 
Q 1559 4272 1350 4272 
z
M 1353 -169 
L 3859 4659 
L 4316 4659 
L 1819 -169 
L 1353 -169 
z
M 3334 1075 
Q 3334 1569 3581 1911 
Q 3828 2253 4300 2253 
Q 4731 2253 5014 1945 
Q 5297 1638 5297 1041 
Q 5297 459 5011 145 
Q 4725 -169 4303 -169 
Q 3888 -169 3611 142 
Q 3334 453 3334 1075 
z
M 4316 1866 
Q 4103 1866 3964 1684 
Q 3825 1503 3825 1019 
Q 3825 581 3965 400 
Q 4106 219 4313 219 
Q 4528 219 4667 400 
Q 4806 581 4806 1063 
Q 4806 1506 4665 1686 
Q 4525 1866 4316 1866 
z
" transform="scale(0.015625)"/>
      <path id="ArialMT-66" d="M 556 0 
L 556 2881 
L 59 2881 
L 59 3319 
L 556 3319 
L 556 3672 
Q 556 4006 616 4169 
Q 697 4388 901 4523 
Q 1106 4659 1475 4659 
Q 1713 4659 2000 4603 
L 1916 4113 
Q 1741 4144 1584 4144 
Q 1328 4144 1222 4034 
Q 1116 3925 1116 3625 
L 1116 3319 
L 1763 3319 
L 1763 2881 
L 1116 2881 
L 1116 0 
L 556 0 
z
" transform="scale(0.015625)"/>
     </defs>
     <use xlink:href="#ArialMT-30"/>
     <use xlink:href="#ArialMT-2e" x="55.615234"/>
     <use xlink:href="#ArialMT-30" x="83.398438"/>
     <use xlink:href="#ArialMT-31" x="139.013672"/>
     <use xlink:href="#ArialMT-25" x="194.628906"/>
     <use xlink:href="#ArialMT-20" x="283.544922"/>
     <use xlink:href="#ArialMT-63" x="311.328125"/>
     <use xlink:href="#ArialMT-75" x="361.328125"/>
     <use xlink:href="#ArialMT-74" x="416.943359"/>
     <use xlink:href="#ArialMT-6f" x="444.726562"/>
     <use xlink:href="#ArialMT-66" x="500.341797"/>
     <use xlink:href="#ArialMT-66" x="526.375"/>
    </g>
   </g>
  </g>
 </g>
 <defs>
  <clipPath id="p298ba910af">
   <rect x="34.691719" y="7.56" width="69.357576" height="58.058147"/>
  </clipPath>
  <clipPath id="p5fa83b0f3a">
   <rect x="146.838056" y="7.56" width="69.357576" height="58.058147"/>
  </clipPath>
  <clipPath id="p311a635844">
   <rect x="258.984394" y="7.56" width="69.357576" height="58.058147"/>
  </clipPath>
  <clipPath id="pd70f9fc45e">
   <rect x="371.130731" y="7.56" width="69.357576" height="58.058147"/>
  </clipPath>
 </defs>
</svg>
