<?xml version="1.0" encoding="utf-8" standalone="no"?>
<!DOCTYPE svg PUBLIC "-//W3C//DTD SVG 1.1//EN"
  "http://www.w3.org/Graphics/SVG/1.1/DTD/svg11.dtd">
<svg xmlns:xlink="http://www.w3.org/1999/xlink" width="453.543307pt" height="141.732283pt" viewBox="0 0 453.543307 141.732283" xmlns="http://www.w3.org/2000/svg" version="1.1">
 <metadata>
  <rdf:RDF xmlns:dc="http://purl.org/dc/elements/1.1/" xmlns:cc="http://creativecommons.org/ns#" xmlns:rdf="http://www.w3.org/1999/02/22-rdf-syntax-ns#">
   <cc:Work>
    <dc:type rdf:resource="http://purl.org/dc/dcmitype/StillImage"/>
    <dc:date>2023-11-06T14:03:28.665958</dc:date>
    <dc:format>image/svg+xml</dc:format>
    <dc:creator>
     <cc:Agent>
      <dc:title>Matplotlib v3.8.0, https://matplotlib.org/</dc:title>
     </cc:Agent>
    </dc:creator>
   </cc:Work>
  </rdf:RDF>
 </metadata>
 <defs>
  <style type="text/css">*{stroke-linejoin: round; stroke-linecap: butt}</style>
 </defs>
 <g id="figure_1">
  <g id="patch_1">
   <path d="M 0 141.732283 
L 453.543307 141.732283 
L 453.543307 0 
L 0 0 
z
" style="fill: #ffffff"/>
  </g>
  <g id="axes_1">
   <g id="patch_2">
    <path d="M 34.691719 100.712384 
L 95.320974 100.712384 
L 95.320974 10.968447 
L 34.691719 10.968447 
z
" style="fill: #ffffff"/>
   </g>
   <g id="patch_3">
    <path d="M 36.20745 100.712384 
L 48.333301 100.712384 
L 48.333301 17.352349 
L 36.20745 17.352349 
z
" clip-path="url(#pcf01bc88be)" style="fill: #597dbf"/>
   </g>
   <g id="patch_4">
    <path d="M 51.364764 100.712384 
L 63.490615 100.712384 
L 63.490615 19.990325 
L 51.364764 19.990325 
z
" clip-path="url(#pcf01bc88be)" style="fill: #d98b5f"/>
   </g>
   <g id="patch_5">
    <path d="M 66.522078 100.712384 
L 78.647929 100.712384 
L 78.647929 20.26964 
L 66.522078 20.26964 
z
" clip-path="url(#pcf01bc88be)" style="fill: #75bf71"/>
   </g>
   <g id="patch_6">
    <path d="M 81.679392 100.712384 
L 93.805243 100.712384 
L 93.805243 34.448803 
L 81.679392 34.448803 
z
" clip-path="url(#pcf01bc88be)" style="fill: #c76e6e"/>
   </g>
   <g id="matplotlib.axis_1">
    <g id="xtick_1">
     <g id="line2d_1">
      <defs>
       <path id="m3dc5700ebd" d="M 0 0 
L 0 3.5 
" style="stroke: #000000; stroke-width: 0.8"/>
      </defs>
      <g>
       <use xlink:href="#m3dc5700ebd" x="42.270376" y="100.712384" style="stroke: #000000; stroke-width: 0.8"/>
      </g>
     </g>
     <g id="text_1">
      <!-- sylph -->
      <g transform="translate(41.864074 124.79302) rotate(-75) scale(0.07 -0.07)">
       <defs>
        <path id="ArialMT-73" d="M 197 991 
L 753 1078 
Q 800 744 1014 566 
Q 1228 388 1613 388 
Q 2000 388 2187 545 
Q 2375 703 2375 916 
Q 2375 1106 2209 1216 
Q 2094 1291 1634 1406 
Q 1016 1563 777 1677 
Q 538 1791 414 1992 
Q 291 2194 291 2438 
Q 291 2659 392 2848 
Q 494 3038 669 3163 
Q 800 3259 1026 3326 
Q 1253 3394 1513 3394 
Q 1903 3394 2198 3281 
Q 2494 3169 2634 2976 
Q 2775 2784 2828 2463 
L 2278 2388 
Q 2241 2644 2061 2787 
Q 1881 2931 1553 2931 
Q 1166 2931 1000 2803 
Q 834 2675 834 2503 
Q 834 2394 903 2306 
Q 972 2216 1119 2156 
Q 1203 2125 1616 2013 
Q 2213 1853 2448 1751 
Q 2684 1650 2818 1456 
Q 2953 1263 2953 975 
Q 2953 694 2789 445 
Q 2625 197 2315 61 
Q 2006 -75 1616 -75 
Q 969 -75 630 194 
Q 291 463 197 991 
z
" transform="scale(0.015625)"/>
        <path id="ArialMT-79" d="M 397 -1278 
L 334 -750 
Q 519 -800 656 -800 
Q 844 -800 956 -737 
Q 1069 -675 1141 -563 
Q 1194 -478 1313 -144 
Q 1328 -97 1363 -6 
L 103 3319 
L 709 3319 
L 1400 1397 
Q 1534 1031 1641 628 
Q 1738 1016 1872 1384 
L 2581 3319 
L 3144 3319 
L 1881 -56 
Q 1678 -603 1566 -809 
Q 1416 -1088 1222 -1217 
Q 1028 -1347 759 -1347 
Q 597 -1347 397 -1278 
z
" transform="scale(0.015625)"/>
        <path id="ArialMT-6c" d="M 409 0 
L 409 4581 
L 972 4581 
L 972 0 
L 409 0 
z
" transform="scale(0.015625)"/>
        <path id="ArialMT-70" d="M 422 -1272 
L 422 3319 
L 934 3319 
L 934 2888 
Q 1116 3141 1344 3267 
Q 1572 3394 1897 3394 
Q 2322 3394 2647 3175 
Q 2972 2956 3137 2557 
Q 3303 2159 3303 1684 
Q 3303 1175 3120 767 
Q 2938 359 2589 142 
Q 2241 -75 1856 -75 
Q 1575 -75 1351 44 
Q 1128 163 984 344 
L 984 -1272 
L 422 -1272 
z
M 931 1641 
Q 931 1000 1190 694 
Q 1450 388 1819 388 
Q 2194 388 2461 705 
Q 2728 1022 2728 1688 
Q 2728 2322 2467 2637 
Q 2206 2953 1844 2953 
Q 1484 2953 1207 2617 
Q 931 2281 931 1641 
z
" transform="scale(0.015625)"/>
        <path id="ArialMT-68" d="M 422 0 
L 422 4581 
L 984 4581 
L 984 2938 
Q 1378 3394 1978 3394 
Q 2347 3394 2619 3248 
Q 2891 3103 3008 2847 
Q 3125 2591 3125 2103 
L 3125 0 
L 2563 0 
L 2563 2103 
Q 2563 2525 2380 2717 
Q 2197 2909 1863 2909 
Q 1613 2909 1392 2779 
Q 1172 2650 1078 2428 
Q 984 2206 984 1816 
L 984 0 
L 422 0 
z
" transform="scale(0.015625)"/>
       </defs>
       <use xlink:href="#ArialMT-73"/>
       <use xlink:href="#ArialMT-79" x="50"/>
       <use xlink:href="#ArialMT-6c" x="100"/>
       <use xlink:href="#ArialMT-70" x="122.216797"/>
       <use xlink:href="#ArialMT-68" x="177.832031"/>
      </g>
     </g>
    </g>
    <g id="xtick_2">
     <g id="line2d_2">
      <g>
       <use xlink:href="#m3dc5700ebd" x="57.427689" y="100.712384" style="stroke: #000000; stroke-width: 0.8"/>
      </g>
     </g>
     <g id="text_2">
      <!-- KMCP -->
      <g transform="translate(56.558391 128.544585) rotate(-75) scale(0.07 -0.07)">
       <defs>
        <path id="ArialMT-4b" d="M 469 0 
L 469 4581 
L 1075 4581 
L 1075 2309 
L 3350 4581 
L 4172 4581 
L 2250 2725 
L 4256 0 
L 3456 0 
L 1825 2319 
L 1075 1588 
L 1075 0 
L 469 0 
z
" transform="scale(0.015625)"/>
        <path id="ArialMT-4d" d="M 475 0 
L 475 4581 
L 1388 4581 
L 2472 1338 
Q 2622 884 2691 659 
Q 2769 909 2934 1394 
L 4031 4581 
L 4847 4581 
L 4847 0 
L 4263 0 
L 4263 3834 
L 2931 0 
L 2384 0 
L 1059 3900 
L 1059 0 
L 475 0 
z
" transform="scale(0.015625)"/>
        <path id="ArialMT-43" d="M 3763 1606 
L 4369 1453 
Q 4178 706 3683 314 
Q 3188 -78 2472 -78 
Q 1731 -78 1267 223 
Q 803 525 561 1097 
Q 319 1669 319 2325 
Q 319 3041 592 3573 
Q 866 4106 1370 4382 
Q 1875 4659 2481 4659 
Q 3169 4659 3637 4309 
Q 4106 3959 4291 3325 
L 3694 3184 
Q 3534 3684 3231 3912 
Q 2928 4141 2469 4141 
Q 1941 4141 1586 3887 
Q 1231 3634 1087 3207 
Q 944 2781 944 2328 
Q 944 1744 1114 1308 
Q 1284 872 1643 656 
Q 2003 441 2422 441 
Q 2931 441 3284 734 
Q 3638 1028 3763 1606 
z
" transform="scale(0.015625)"/>
        <path id="ArialMT-50" d="M 494 0 
L 494 4581 
L 2222 4581 
Q 2678 4581 2919 4538 
Q 3256 4481 3484 4323 
Q 3713 4166 3852 3881 
Q 3991 3597 3991 3256 
Q 3991 2672 3619 2267 
Q 3247 1863 2275 1863 
L 1100 1863 
L 1100 0 
L 494 0 
z
M 1100 2403 
L 2284 2403 
Q 2872 2403 3119 2622 
Q 3366 2841 3366 3238 
Q 3366 3525 3220 3729 
Q 3075 3934 2838 4000 
Q 2684 4041 2272 4041 
L 1100 4041 
L 1100 2403 
z
" transform="scale(0.015625)"/>
       </defs>
       <use xlink:href="#ArialMT-4b"/>
       <use xlink:href="#ArialMT-4d" x="66.699219"/>
       <use xlink:href="#ArialMT-43" x="150"/>
       <use xlink:href="#ArialMT-50" x="222.216797"/>
      </g>
     </g>
    </g>
    <g id="xtick_3">
     <g id="line2d_3">
      <g>
       <use xlink:href="#m3dc5700ebd" x="72.585003" y="100.712384" style="stroke: #000000; stroke-width: 0.8"/>
      </g>
     </g>
     <g id="text_3">
      <!-- Ganon -->
      <g transform="translate(71.61337 129.308421) rotate(-75) scale(0.07 -0.07)">
       <defs>
        <path id="ArialMT-47" d="M 2638 1797 
L 2638 2334 
L 4578 2338 
L 4578 638 
Q 4131 281 3656 101 
Q 3181 -78 2681 -78 
Q 2006 -78 1454 211 
Q 903 500 622 1047 
Q 341 1594 341 2269 
Q 341 2938 620 3517 
Q 900 4097 1425 4378 
Q 1950 4659 2634 4659 
Q 3131 4659 3532 4498 
Q 3934 4338 4162 4050 
Q 4391 3763 4509 3300 
L 3963 3150 
Q 3859 3500 3706 3700 
Q 3553 3900 3268 4020 
Q 2984 4141 2638 4141 
Q 2222 4141 1919 4014 
Q 1616 3888 1430 3681 
Q 1244 3475 1141 3228 
Q 966 2803 966 2306 
Q 966 1694 1177 1281 
Q 1388 869 1791 669 
Q 2194 469 2647 469 
Q 3041 469 3416 620 
Q 3791 772 3984 944 
L 3984 1797 
L 2638 1797 
z
" transform="scale(0.015625)"/>
        <path id="ArialMT-61" d="M 2588 409 
Q 2275 144 1986 34 
Q 1697 -75 1366 -75 
Q 819 -75 525 192 
Q 231 459 231 875 
Q 231 1119 342 1320 
Q 453 1522 633 1644 
Q 813 1766 1038 1828 
Q 1203 1872 1538 1913 
Q 2219 1994 2541 2106 
Q 2544 2222 2544 2253 
Q 2544 2597 2384 2738 
Q 2169 2928 1744 2928 
Q 1347 2928 1158 2789 
Q 969 2650 878 2297 
L 328 2372 
Q 403 2725 575 2942 
Q 747 3159 1072 3276 
Q 1397 3394 1825 3394 
Q 2250 3394 2515 3294 
Q 2781 3194 2906 3042 
Q 3031 2891 3081 2659 
Q 3109 2516 3109 2141 
L 3109 1391 
Q 3109 606 3145 398 
Q 3181 191 3288 0 
L 2700 0 
Q 2613 175 2588 409 
z
M 2541 1666 
Q 2234 1541 1622 1453 
Q 1275 1403 1131 1340 
Q 988 1278 909 1158 
Q 831 1038 831 891 
Q 831 666 1001 516 
Q 1172 366 1500 366 
Q 1825 366 2078 508 
Q 2331 650 2450 897 
Q 2541 1088 2541 1459 
L 2541 1666 
z
" transform="scale(0.015625)"/>
        <path id="ArialMT-6e" d="M 422 0 
L 422 3319 
L 928 3319 
L 928 2847 
Q 1294 3394 1984 3394 
Q 2284 3394 2536 3286 
Q 2788 3178 2913 3003 
Q 3038 2828 3088 2588 
Q 3119 2431 3119 2041 
L 3119 0 
L 2556 0 
L 2556 2019 
Q 2556 2363 2490 2533 
Q 2425 2703 2258 2804 
Q 2091 2906 1866 2906 
Q 1506 2906 1245 2678 
Q 984 2450 984 1813 
L 984 0 
L 422 0 
z
" transform="scale(0.015625)"/>
        <path id="ArialMT-6f" d="M 213 1659 
Q 213 2581 725 3025 
Q 1153 3394 1769 3394 
Q 2453 3394 2887 2945 
Q 3322 2497 3322 1706 
Q 3322 1066 3130 698 
Q 2938 331 2570 128 
Q 2203 -75 1769 -75 
Q 1072 -75 642 372 
Q 213 819 213 1659 
z
M 791 1659 
Q 791 1022 1069 705 
Q 1347 388 1769 388 
Q 2188 388 2466 706 
Q 2744 1025 2744 1678 
Q 2744 2294 2464 2611 
Q 2184 2928 1769 2928 
Q 1347 2928 1069 2612 
Q 791 2297 791 1659 
z
" transform="scale(0.015625)"/>
       </defs>
       <use xlink:href="#ArialMT-47"/>
       <use xlink:href="#ArialMT-61" x="77.783203"/>
       <use xlink:href="#ArialMT-6e" x="133.398438"/>
       <use xlink:href="#ArialMT-6f" x="189.013672"/>
       <use xlink:href="#ArialMT-6e" x="244.628906"/>
      </g>
     </g>
    </g>
    <g id="xtick_4">
     <g id="line2d_4">
      <g>
       <use xlink:href="#m3dc5700ebd" x="87.742317" y="100.712384" style="stroke: #000000; stroke-width: 0.8"/>
      </g>
     </g>
     <g id="text_4">
      <!-- Bracken -->
      <g transform="translate(86.167292 133.812201) rotate(-75) scale(0.07 -0.07)">
       <defs>
        <path id="ArialMT-42" d="M 469 0 
L 469 4581 
L 2188 4581 
Q 2713 4581 3030 4442 
Q 3347 4303 3526 4014 
Q 3706 3725 3706 3409 
Q 3706 3116 3547 2856 
Q 3388 2597 3066 2438 
Q 3481 2316 3704 2022 
Q 3928 1728 3928 1328 
Q 3928 1006 3792 729 
Q 3656 453 3456 303 
Q 3256 153 2954 76 
Q 2653 0 2216 0 
L 469 0 
z
M 1075 2656 
L 2066 2656 
Q 2469 2656 2644 2709 
Q 2875 2778 2992 2937 
Q 3109 3097 3109 3338 
Q 3109 3566 3000 3739 
Q 2891 3913 2687 3977 
Q 2484 4041 1991 4041 
L 1075 4041 
L 1075 2656 
z
M 1075 541 
L 2216 541 
Q 2509 541 2628 563 
Q 2838 600 2978 687 
Q 3119 775 3209 942 
Q 3300 1109 3300 1328 
Q 3300 1584 3169 1773 
Q 3038 1963 2805 2039 
Q 2572 2116 2134 2116 
L 1075 2116 
L 1075 541 
z
" transform="scale(0.015625)"/>
        <path id="ArialMT-72" d="M 416 0 
L 416 3319 
L 922 3319 
L 922 2816 
Q 1116 3169 1280 3281 
Q 1444 3394 1641 3394 
Q 1925 3394 2219 3213 
L 2025 2691 
Q 1819 2813 1613 2813 
Q 1428 2813 1281 2702 
Q 1134 2591 1072 2394 
Q 978 2094 978 1738 
L 978 0 
L 416 0 
z
" transform="scale(0.015625)"/>
        <path id="ArialMT-63" d="M 2588 1216 
L 3141 1144 
Q 3050 572 2676 248 
Q 2303 -75 1759 -75 
Q 1078 -75 664 370 
Q 250 816 250 1647 
Q 250 2184 428 2587 
Q 606 2991 970 3192 
Q 1334 3394 1763 3394 
Q 2303 3394 2647 3120 
Q 2991 2847 3088 2344 
L 2541 2259 
Q 2463 2594 2264 2762 
Q 2066 2931 1784 2931 
Q 1359 2931 1093 2626 
Q 828 2322 828 1663 
Q 828 994 1084 691 
Q 1341 388 1753 388 
Q 2084 388 2306 591 
Q 2528 794 2588 1216 
z
" transform="scale(0.015625)"/>
        <path id="ArialMT-6b" d="M 425 0 
L 425 4581 
L 988 4581 
L 988 1969 
L 2319 3319 
L 3047 3319 
L 1778 2088 
L 3175 0 
L 2481 0 
L 1384 1697 
L 988 1316 
L 988 0 
L 425 0 
z
" transform="scale(0.015625)"/>
        <path id="ArialMT-65" d="M 2694 1069 
L 3275 997 
Q 3138 488 2766 206 
Q 2394 -75 1816 -75 
Q 1088 -75 661 373 
Q 234 822 234 1631 
Q 234 2469 665 2931 
Q 1097 3394 1784 3394 
Q 2450 3394 2872 2941 
Q 3294 2488 3294 1666 
Q 3294 1616 3291 1516 
L 816 1516 
Q 847 969 1125 678 
Q 1403 388 1819 388 
Q 2128 388 2347 550 
Q 2566 713 2694 1069 
z
M 847 1978 
L 2700 1978 
Q 2663 2397 2488 2606 
Q 2219 2931 1791 2931 
Q 1403 2931 1139 2672 
Q 875 2413 847 1978 
z
" transform="scale(0.015625)"/>
       </defs>
       <use xlink:href="#ArialMT-42"/>
       <use xlink:href="#ArialMT-72" x="66.699219"/>
       <use xlink:href="#ArialMT-61" x="100"/>
       <use xlink:href="#ArialMT-63" x="155.615234"/>
       <use xlink:href="#ArialMT-6b" x="205.615234"/>
       <use xlink:href="#ArialMT-65" x="255.615234"/>
       <use xlink:href="#ArialMT-6e" x="311.230469"/>
      </g>
     </g>
    </g>
   </g>
   <g id="matplotlib.axis_2">
    <g id="ytick_1">
     <g id="line2d_5">
      <defs>
       <path id="m70a62d07c2" d="M 0 0 
L -3.5 0 
" style="stroke: #000000; stroke-width: 0.8"/>
      </defs>
      <g>
       <use xlink:href="#m70a62d07c2" x="34.691719" y="100.712384" style="stroke: #000000; stroke-width: 0.8"/>
      </g>
     </g>
     <g id="text_5">
      <!-- 0.0 -->
      <g transform="translate(17.961719 103.217618) scale(0.07 -0.07)">
       <defs>
        <path id="ArialMT-30" d="M 266 2259 
Q 266 3072 433 3567 
Q 600 4063 929 4331 
Q 1259 4600 1759 4600 
Q 2128 4600 2406 4451 
Q 2684 4303 2865 4023 
Q 3047 3744 3150 3342 
Q 3253 2941 3253 2259 
Q 3253 1453 3087 958 
Q 2922 463 2592 192 
Q 2263 -78 1759 -78 
Q 1097 -78 719 397 
Q 266 969 266 2259 
z
M 844 2259 
Q 844 1131 1108 757 
Q 1372 384 1759 384 
Q 2147 384 2411 759 
Q 2675 1134 2675 2259 
Q 2675 3391 2411 3762 
Q 2147 4134 1753 4134 
Q 1366 4134 1134 3806 
Q 844 3388 844 2259 
z
" transform="scale(0.015625)"/>
        <path id="ArialMT-2e" d="M 581 0 
L 581 641 
L 1222 641 
L 1222 0 
L 581 0 
z
" transform="scale(0.015625)"/>
       </defs>
       <use xlink:href="#ArialMT-30"/>
       <use xlink:href="#ArialMT-2e" x="55.615234"/>
       <use xlink:href="#ArialMT-30" x="83.398438"/>
      </g>
     </g>
    </g>
    <g id="ytick_2">
     <g id="line2d_6">
      <g>
       <use xlink:href="#m70a62d07c2" x="34.691719" y="83.6183" style="stroke: #000000; stroke-width: 0.8"/>
      </g>
     </g>
     <g id="text_6">
      <!-- 0.2 -->
      <g transform="translate(17.961719 86.123535) scale(0.07 -0.07)">
       <defs>
        <path id="ArialMT-32" d="M 3222 541 
L 3222 0 
L 194 0 
Q 188 203 259 391 
Q 375 700 629 1000 
Q 884 1300 1366 1694 
Q 2113 2306 2375 2664 
Q 2638 3022 2638 3341 
Q 2638 3675 2398 3904 
Q 2159 4134 1775 4134 
Q 1369 4134 1125 3890 
Q 881 3647 878 3216 
L 300 3275 
Q 359 3922 746 4261 
Q 1134 4600 1788 4600 
Q 2447 4600 2831 4234 
Q 3216 3869 3216 3328 
Q 3216 3053 3103 2787 
Q 2991 2522 2730 2228 
Q 2469 1934 1863 1422 
Q 1356 997 1212 845 
Q 1069 694 975 541 
L 3222 541 
z
" transform="scale(0.015625)"/>
       </defs>
       <use xlink:href="#ArialMT-30"/>
       <use xlink:href="#ArialMT-2e" x="55.615234"/>
       <use xlink:href="#ArialMT-32" x="83.398438"/>
      </g>
     </g>
    </g>
    <g id="ytick_3">
     <g id="line2d_7">
      <g>
       <use xlink:href="#m70a62d07c2" x="34.691719" y="66.524217" style="stroke: #000000; stroke-width: 0.8"/>
      </g>
     </g>
     <g id="text_7">
      <!-- 0.4 -->
      <g transform="translate(17.961719 69.029452) scale(0.07 -0.07)">
       <defs>
        <path id="ArialMT-34" d="M 2069 0 
L 2069 1097 
L 81 1097 
L 81 1613 
L 2172 4581 
L 2631 4581 
L 2631 1613 
L 3250 1613 
L 3250 1097 
L 2631 1097 
L 2631 0 
L 2069 0 
z
M 2069 1613 
L 2069 3678 
L 634 1613 
L 2069 1613 
z
" transform="scale(0.015625)"/>
       </defs>
       <use xlink:href="#ArialMT-30"/>
       <use xlink:href="#ArialMT-2e" x="55.615234"/>
       <use xlink:href="#ArialMT-34" x="83.398438"/>
      </g>
     </g>
    </g>
    <g id="ytick_4">
     <g id="line2d_8">
      <g>
       <use xlink:href="#m70a62d07c2" x="34.691719" y="49.430134" style="stroke: #000000; stroke-width: 0.8"/>
      </g>
     </g>
     <g id="text_8">
      <!-- 0.6 -->
      <g transform="translate(17.961719 51.935369) scale(0.07 -0.07)">
       <defs>
        <path id="ArialMT-36" d="M 3184 3459 
L 2625 3416 
Q 2550 3747 2413 3897 
Q 2184 4138 1850 4138 
Q 1581 4138 1378 3988 
Q 1113 3794 959 3422 
Q 806 3050 800 2363 
Q 1003 2672 1297 2822 
Q 1591 2972 1913 2972 
Q 2475 2972 2870 2558 
Q 3266 2144 3266 1488 
Q 3266 1056 3080 686 
Q 2894 316 2569 119 
Q 2244 -78 1831 -78 
Q 1128 -78 684 439 
Q 241 956 241 2144 
Q 241 3472 731 4075 
Q 1159 4600 1884 4600 
Q 2425 4600 2770 4297 
Q 3116 3994 3184 3459 
z
M 888 1484 
Q 888 1194 1011 928 
Q 1134 663 1356 523 
Q 1578 384 1822 384 
Q 2178 384 2434 671 
Q 2691 959 2691 1453 
Q 2691 1928 2437 2201 
Q 2184 2475 1800 2475 
Q 1419 2475 1153 2201 
Q 888 1928 888 1484 
z
" transform="scale(0.015625)"/>
       </defs>
       <use xlink:href="#ArialMT-30"/>
       <use xlink:href="#ArialMT-2e" x="55.615234"/>
       <use xlink:href="#ArialMT-36" x="83.398438"/>
      </g>
     </g>
    </g>
    <g id="ytick_5">
     <g id="line2d_9">
      <g>
       <use xlink:href="#m70a62d07c2" x="34.691719" y="32.336051" style="stroke: #000000; stroke-width: 0.8"/>
      </g>
     </g>
     <g id="text_9">
      <!-- 0.8 -->
      <g transform="translate(17.961719 34.841286) scale(0.07 -0.07)">
       <defs>
        <path id="ArialMT-38" d="M 1131 2484 
Q 781 2613 612 2850 
Q 444 3088 444 3419 
Q 444 3919 803 4259 
Q 1163 4600 1759 4600 
Q 2359 4600 2725 4251 
Q 3091 3903 3091 3403 
Q 3091 3084 2923 2848 
Q 2756 2613 2416 2484 
Q 2838 2347 3058 2040 
Q 3278 1734 3278 1309 
Q 3278 722 2862 322 
Q 2447 -78 1769 -78 
Q 1091 -78 675 323 
Q 259 725 259 1325 
Q 259 1772 486 2073 
Q 713 2375 1131 2484 
z
M 1019 3438 
Q 1019 3113 1228 2906 
Q 1438 2700 1772 2700 
Q 2097 2700 2305 2904 
Q 2513 3109 2513 3406 
Q 2513 3716 2298 3927 
Q 2084 4138 1766 4138 
Q 1444 4138 1231 3931 
Q 1019 3725 1019 3438 
z
M 838 1322 
Q 838 1081 952 856 
Q 1066 631 1291 507 
Q 1516 384 1775 384 
Q 2178 384 2440 643 
Q 2703 903 2703 1303 
Q 2703 1709 2433 1975 
Q 2163 2241 1756 2241 
Q 1359 2241 1098 1978 
Q 838 1716 838 1322 
z
" transform="scale(0.015625)"/>
       </defs>
       <use xlink:href="#ArialMT-30"/>
       <use xlink:href="#ArialMT-2e" x="55.615234"/>
       <use xlink:href="#ArialMT-38" x="83.398438"/>
      </g>
     </g>
    </g>
    <g id="ytick_6">
     <g id="line2d_10">
      <g>
       <use xlink:href="#m70a62d07c2" x="34.691719" y="15.241968" style="stroke: #000000; stroke-width: 0.8"/>
      </g>
     </g>
     <g id="text_10">
      <!-- 1.0 -->
      <g transform="translate(17.961719 17.747202) scale(0.07 -0.07)">
       <defs>
        <path id="ArialMT-31" d="M 2384 0 
L 1822 0 
L 1822 3584 
Q 1619 3391 1289 3197 
Q 959 3003 697 2906 
L 697 3450 
Q 1169 3672 1522 3987 
Q 1875 4303 2022 4600 
L 2384 4600 
L 2384 0 
z
" transform="scale(0.015625)"/>
       </defs>
       <use xlink:href="#ArialMT-31"/>
       <use xlink:href="#ArialMT-2e" x="55.615234"/>
       <use xlink:href="#ArialMT-30" x="83.398438"/>
      </g>
     </g>
    </g>
    <g id="text_11">
     <!-- Precision -->
     <g transform="translate(12.570469 70.234712) rotate(-90) scale(0.07 -0.07)">
      <defs>
       <path id="ArialMT-69" d="M 425 3934 
L 425 4581 
L 988 4581 
L 988 3934 
L 425 3934 
z
M 425 0 
L 425 3319 
L 988 3319 
L 988 0 
L 425 0 
z
" transform="scale(0.015625)"/>
      </defs>
      <use xlink:href="#ArialMT-50"/>
      <use xlink:href="#ArialMT-72" x="66.699219"/>
      <use xlink:href="#ArialMT-65" x="100"/>
      <use xlink:href="#ArialMT-63" x="155.615234"/>
      <use xlink:href="#ArialMT-69" x="205.615234"/>
      <use xlink:href="#ArialMT-73" x="227.832031"/>
      <use xlink:href="#ArialMT-69" x="277.832031"/>
      <use xlink:href="#ArialMT-6f" x="300.048828"/>
      <use xlink:href="#ArialMT-6e" x="355.664062"/>
     </g>
    </g>
   </g>
   <g id="line2d_11">
    <path clip-path="url(#pcf01bc88be)" style="fill: none; stroke: #424242; stroke-width: 2.7; stroke-linecap: square"/>
   </g>
   <g id="line2d_12">
    <path clip-path="url(#pcf01bc88be)" style="fill: none; stroke: #424242; stroke-width: 2.7; stroke-linecap: square"/>
   </g>
   <g id="line2d_13">
    <path clip-path="url(#pcf01bc88be)" style="fill: none; stroke: #424242; stroke-width: 2.7; stroke-linecap: square"/>
   </g>
   <g id="line2d_14">
    <path clip-path="url(#pcf01bc88be)" style="fill: none; stroke: #424242; stroke-width: 2.7; stroke-linecap: square"/>
   </g>
   <g id="patch_7">
    <path d="M 34.691719 100.712384 
L 34.691719 10.968447 
" style="fill: none; stroke: #000000; stroke-width: 0.8; stroke-linejoin: miter; stroke-linecap: square"/>
   </g>
   <g id="patch_8">
    <path d="M 34.691719 100.712384 
L 95.320974 100.712384 
" style="fill: none; stroke: #000000; stroke-width: 0.8; stroke-linejoin: miter; stroke-linecap: square"/>
   </g>
   <g id="text_12">
    <!-- 0.98 -->
    <g transform="translate(36.432094 13.595736) scale(0.06 -0.06)">
     <defs>
      <path id="ArialMT-39" d="M 350 1059 
L 891 1109 
Q 959 728 1153 556 
Q 1347 384 1650 384 
Q 1909 384 2104 503 
Q 2300 622 2425 820 
Q 2550 1019 2634 1356 
Q 2719 1694 2719 2044 
Q 2719 2081 2716 2156 
Q 2547 1888 2255 1720 
Q 1963 1553 1622 1553 
Q 1053 1553 659 1965 
Q 266 2378 266 3053 
Q 266 3750 677 4175 
Q 1088 4600 1706 4600 
Q 2153 4600 2523 4359 
Q 2894 4119 3086 3673 
Q 3278 3228 3278 2384 
Q 3278 1506 3087 986 
Q 2897 466 2520 194 
Q 2144 -78 1638 -78 
Q 1100 -78 759 220 
Q 419 519 350 1059 
z
M 2653 3081 
Q 2653 3566 2395 3850 
Q 2138 4134 1775 4134 
Q 1400 4134 1122 3828 
Q 844 3522 844 3034 
Q 844 2597 1108 2323 
Q 1372 2050 1759 2050 
Q 2150 2050 2401 2323 
Q 2653 2597 2653 3081 
z
" transform="scale(0.015625)"/>
     </defs>
     <use xlink:href="#ArialMT-30"/>
     <use xlink:href="#ArialMT-2e" x="55.615234"/>
     <use xlink:href="#ArialMT-39" x="83.398438"/>
     <use xlink:href="#ArialMT-38" x="139.013672"/>
    </g>
   </g>
   <g id="text_13">
    <!-- 0.94 -->
    <g transform="translate(51.589408 16.233712) scale(0.06 -0.06)">
     <use xlink:href="#ArialMT-30"/>
     <use xlink:href="#ArialMT-2e" x="55.615234"/>
     <use xlink:href="#ArialMT-39" x="83.398438"/>
     <use xlink:href="#ArialMT-34" x="139.013672"/>
    </g>
   </g>
   <g id="text_14">
    <!-- 0.94 -->
    <g transform="translate(66.746722 16.513027) scale(0.06 -0.06)">
     <use xlink:href="#ArialMT-30"/>
     <use xlink:href="#ArialMT-2e" x="55.615234"/>
     <use xlink:href="#ArialMT-39" x="83.398438"/>
     <use xlink:href="#ArialMT-34" x="139.013672"/>
    </g>
   </g>
   <g id="text_15">
    <!-- 0.78 -->
    <g transform="translate(81.904036 30.692191) scale(0.06 -0.06)">
     <defs>
      <path id="ArialMT-37" d="M 303 3981 
L 303 4522 
L 3269 4522 
L 3269 4084 
Q 2831 3619 2401 2847 
Q 1972 2075 1738 1259 
Q 1569 684 1522 0 
L 944 0 
Q 953 541 1156 1306 
Q 1359 2072 1739 2783 
Q 2119 3494 2547 3981 
L 303 3981 
z
" transform="scale(0.015625)"/>
     </defs>
     <use xlink:href="#ArialMT-30"/>
     <use xlink:href="#ArialMT-2e" x="55.615234"/>
     <use xlink:href="#ArialMT-37" x="83.398438"/>
     <use xlink:href="#ArialMT-38" x="139.013672"/>
    </g>
   </g>
  </g>
  <g id="axes_2">
   <g id="patch_9">
    <path d="M 116.950036 100.712384 
L 177.579292 100.712384 
L 177.579292 10.968447 
L 116.950036 10.968447 
z
" style="fill: #ffffff"/>
   </g>
   <g id="patch_10">
    <path d="M 118.465768 100.712384 
L 130.591619 100.712384 
L 130.591619 22.198862 
L 118.465768 22.198862 
z
" clip-path="url(#p0e7b710c41)" style="fill: #597dbf"/>
   </g>
   <g id="patch_11">
    <path d="M 133.623082 100.712384 
L 145.748933 100.712384 
L 145.748933 33.131125 
L 133.623082 33.131125 
z
" clip-path="url(#p0e7b710c41)" style="fill: #d98b5f"/>
   </g>
   <g id="patch_12">
    <path d="M 148.780395 100.712384 
L 160.906246 100.712384 
L 160.906246 21.20502 
L 148.780395 21.20502 
z
" clip-path="url(#p0e7b710c41)" style="fill: #75bf71"/>
   </g>
   <g id="patch_13">
    <path d="M 163.937709 100.712384 
L 176.06356 100.712384 
L 176.06356 32.137283 
L 163.937709 32.137283 
z
" clip-path="url(#p0e7b710c41)" style="fill: #c76e6e"/>
   </g>
   <g id="matplotlib.axis_3">
    <g id="xtick_5">
     <g id="line2d_15">
      <g>
       <use xlink:href="#m3dc5700ebd" x="124.528693" y="100.712384" style="stroke: #000000; stroke-width: 0.8"/>
      </g>
     </g>
     <g id="text_16">
      <!-- sylph -->
      <g transform="translate(124.122391 124.79302) rotate(-75) scale(0.07 -0.07)">
       <use xlink:href="#ArialMT-73"/>
       <use xlink:href="#ArialMT-79" x="50"/>
       <use xlink:href="#ArialMT-6c" x="100"/>
       <use xlink:href="#ArialMT-70" x="122.216797"/>
       <use xlink:href="#ArialMT-68" x="177.832031"/>
      </g>
     </g>
    </g>
    <g id="xtick_6">
     <g id="line2d_16">
      <g>
       <use xlink:href="#m3dc5700ebd" x="139.686007" y="100.712384" style="stroke: #000000; stroke-width: 0.8"/>
      </g>
     </g>
     <g id="text_17">
      <!-- KMCP -->
      <g transform="translate(138.816709 128.544585) rotate(-75) scale(0.07 -0.07)">
       <use xlink:href="#ArialMT-4b"/>
       <use xlink:href="#ArialMT-4d" x="66.699219"/>
       <use xlink:href="#ArialMT-43" x="150"/>
       <use xlink:href="#ArialMT-50" x="222.216797"/>
      </g>
     </g>
    </g>
    <g id="xtick_7">
     <g id="line2d_17">
      <g>
       <use xlink:href="#m3dc5700ebd" x="154.843321" y="100.712384" style="stroke: #000000; stroke-width: 0.8"/>
      </g>
     </g>
     <g id="text_18">
      <!-- Ganon -->
      <g transform="translate(153.871688 129.308421) rotate(-75) scale(0.07 -0.07)">
       <use xlink:href="#ArialMT-47"/>
       <use xlink:href="#ArialMT-61" x="77.783203"/>
       <use xlink:href="#ArialMT-6e" x="133.398438"/>
       <use xlink:href="#ArialMT-6f" x="189.013672"/>
       <use xlink:href="#ArialMT-6e" x="244.628906"/>
      </g>
     </g>
    </g>
    <g id="xtick_8">
     <g id="line2d_18">
      <g>
       <use xlink:href="#m3dc5700ebd" x="170.000635" y="100.712384" style="stroke: #000000; stroke-width: 0.8"/>
      </g>
     </g>
     <g id="text_19">
      <!-- Bracken -->
      <g transform="translate(168.425609 133.812201) rotate(-75) scale(0.07 -0.07)">
       <use xlink:href="#ArialMT-42"/>
       <use xlink:href="#ArialMT-72" x="66.699219"/>
       <use xlink:href="#ArialMT-61" x="100"/>
       <use xlink:href="#ArialMT-63" x="155.615234"/>
       <use xlink:href="#ArialMT-6b" x="205.615234"/>
       <use xlink:href="#ArialMT-65" x="255.615234"/>
       <use xlink:href="#ArialMT-6e" x="311.230469"/>
      </g>
     </g>
    </g>
   </g>
   <g id="matplotlib.axis_4">
    <g id="ytick_7">
     <g id="line2d_19">
      <g>
       <use xlink:href="#m70a62d07c2" x="116.950036" y="100.712384" style="stroke: #000000; stroke-width: 0.8"/>
      </g>
     </g>
    </g>
    <g id="ytick_8">
     <g id="line2d_20">
      <g>
       <use xlink:href="#m70a62d07c2" x="116.950036" y="83.6183" style="stroke: #000000; stroke-width: 0.8"/>
      </g>
     </g>
    </g>
    <g id="ytick_9">
     <g id="line2d_21">
      <g>
       <use xlink:href="#m70a62d07c2" x="116.950036" y="66.524217" style="stroke: #000000; stroke-width: 0.8"/>
      </g>
     </g>
    </g>
    <g id="ytick_10">
     <g id="line2d_22">
      <g>
       <use xlink:href="#m70a62d07c2" x="116.950036" y="49.430134" style="stroke: #000000; stroke-width: 0.8"/>
      </g>
     </g>
    </g>
    <g id="ytick_11">
     <g id="line2d_23">
      <g>
       <use xlink:href="#m70a62d07c2" x="116.950036" y="32.336051" style="stroke: #000000; stroke-width: 0.8"/>
      </g>
     </g>
    </g>
    <g id="ytick_12">
     <g id="line2d_24">
      <g>
       <use xlink:href="#m70a62d07c2" x="116.950036" y="15.241968" style="stroke: #000000; stroke-width: 0.8"/>
      </g>
     </g>
    </g>
    <g id="text_20">
     <!-- Sensitivity -->
     <g transform="translate(107.976755 71.595337) rotate(-90) scale(0.07 -0.07)">
      <defs>
       <path id="ArialMT-53" d="M 288 1472 
L 859 1522 
Q 900 1178 1048 958 
Q 1197 738 1509 602 
Q 1822 466 2213 466 
Q 2559 466 2825 569 
Q 3091 672 3220 851 
Q 3350 1031 3350 1244 
Q 3350 1459 3225 1620 
Q 3100 1781 2813 1891 
Q 2628 1963 1997 2114 
Q 1366 2266 1113 2400 
Q 784 2572 623 2826 
Q 463 3081 463 3397 
Q 463 3744 659 4045 
Q 856 4347 1234 4503 
Q 1613 4659 2075 4659 
Q 2584 4659 2973 4495 
Q 3363 4331 3572 4012 
Q 3781 3694 3797 3291 
L 3216 3247 
Q 3169 3681 2898 3903 
Q 2628 4125 2100 4125 
Q 1550 4125 1298 3923 
Q 1047 3722 1047 3438 
Q 1047 3191 1225 3031 
Q 1400 2872 2139 2705 
Q 2878 2538 3153 2413 
Q 3553 2228 3743 1945 
Q 3934 1663 3934 1294 
Q 3934 928 3725 604 
Q 3516 281 3123 101 
Q 2731 -78 2241 -78 
Q 1619 -78 1198 103 
Q 778 284 539 648 
Q 300 1013 288 1472 
z
" transform="scale(0.015625)"/>
       <path id="ArialMT-74" d="M 1650 503 
L 1731 6 
Q 1494 -44 1306 -44 
Q 1000 -44 831 53 
Q 663 150 594 308 
Q 525 466 525 972 
L 525 2881 
L 113 2881 
L 113 3319 
L 525 3319 
L 525 4141 
L 1084 4478 
L 1084 3319 
L 1650 3319 
L 1650 2881 
L 1084 2881 
L 1084 941 
Q 1084 700 1114 631 
Q 1144 563 1211 522 
Q 1278 481 1403 481 
Q 1497 481 1650 503 
z
" transform="scale(0.015625)"/>
       <path id="ArialMT-76" d="M 1344 0 
L 81 3319 
L 675 3319 
L 1388 1331 
Q 1503 1009 1600 663 
Q 1675 925 1809 1294 
L 2547 3319 
L 3125 3319 
L 1869 0 
L 1344 0 
z
" transform="scale(0.015625)"/>
      </defs>
      <use xlink:href="#ArialMT-53"/>
      <use xlink:href="#ArialMT-65" x="66.699219"/>
      <use xlink:href="#ArialMT-6e" x="122.314453"/>
      <use xlink:href="#ArialMT-73" x="177.929688"/>
      <use xlink:href="#ArialMT-69" x="227.929688"/>
      <use xlink:href="#ArialMT-74" x="250.146484"/>
      <use xlink:href="#ArialMT-69" x="277.929688"/>
      <use xlink:href="#ArialMT-76" x="300.146484"/>
      <use xlink:href="#ArialMT-69" x="350.146484"/>
      <use xlink:href="#ArialMT-74" x="372.363281"/>
      <use xlink:href="#ArialMT-79" x="400.146484"/>
     </g>
    </g>
   </g>
   <g id="line2d_25">
    <path clip-path="url(#p0e7b710c41)" style="fill: none; stroke: #424242; stroke-width: 2.7; stroke-linecap: square"/>
   </g>
   <g id="line2d_26">
    <path clip-path="url(#p0e7b710c41)" style="fill: none; stroke: #424242; stroke-width: 2.7; stroke-linecap: square"/>
   </g>
   <g id="line2d_27">
    <path clip-path="url(#p0e7b710c41)" style="fill: none; stroke: #424242; stroke-width: 2.7; stroke-linecap: square"/>
   </g>
   <g id="line2d_28">
    <path clip-path="url(#p0e7b710c41)" style="fill: none; stroke: #424242; stroke-width: 2.7; stroke-linecap: square"/>
   </g>
   <g id="patch_14">
    <path d="M 116.950036 100.712384 
L 116.950036 10.968447 
" style="fill: none; stroke: #000000; stroke-width: 0.8; stroke-linejoin: miter; stroke-linecap: square"/>
   </g>
   <g id="patch_15">
    <path d="M 116.950036 100.712384 
L 177.579292 100.712384 
" style="fill: none; stroke: #000000; stroke-width: 0.8; stroke-linejoin: miter; stroke-linecap: square"/>
   </g>
   <g id="text_21">
    <!-- 0.92 -->
    <g transform="translate(118.690412 18.44225) scale(0.06 -0.06)">
     <use xlink:href="#ArialMT-30"/>
     <use xlink:href="#ArialMT-2e" x="55.615234"/>
     <use xlink:href="#ArialMT-39" x="83.398438"/>
     <use xlink:href="#ArialMT-32" x="139.013672"/>
    </g>
   </g>
   <g id="text_22">
    <!-- 0.79 -->
    <g transform="translate(133.847726 29.374512) scale(0.06 -0.06)">
     <use xlink:href="#ArialMT-30"/>
     <use xlink:href="#ArialMT-2e" x="55.615234"/>
     <use xlink:href="#ArialMT-37" x="83.398438"/>
     <use xlink:href="#ArialMT-39" x="139.013672"/>
    </g>
   </g>
   <g id="text_23">
    <!-- 0.93 -->
    <g transform="translate(149.00504 17.448408) scale(0.06 -0.06)">
     <defs>
      <path id="ArialMT-33" d="M 269 1209 
L 831 1284 
Q 928 806 1161 595 
Q 1394 384 1728 384 
Q 2125 384 2398 659 
Q 2672 934 2672 1341 
Q 2672 1728 2419 1979 
Q 2166 2231 1775 2231 
Q 1616 2231 1378 2169 
L 1441 2663 
Q 1497 2656 1531 2656 
Q 1891 2656 2178 2843 
Q 2466 3031 2466 3422 
Q 2466 3731 2256 3934 
Q 2047 4138 1716 4138 
Q 1388 4138 1169 3931 
Q 950 3725 888 3313 
L 325 3413 
Q 428 3978 793 4289 
Q 1159 4600 1703 4600 
Q 2078 4600 2393 4439 
Q 2709 4278 2876 4000 
Q 3044 3722 3044 3409 
Q 3044 3113 2884 2869 
Q 2725 2625 2413 2481 
Q 2819 2388 3044 2092 
Q 3269 1797 3269 1353 
Q 3269 753 2831 336 
Q 2394 -81 1725 -81 
Q 1122 -81 723 278 
Q 325 638 269 1209 
z
" transform="scale(0.015625)"/>
     </defs>
     <use xlink:href="#ArialMT-30"/>
     <use xlink:href="#ArialMT-2e" x="55.615234"/>
     <use xlink:href="#ArialMT-39" x="83.398438"/>
     <use xlink:href="#ArialMT-33" x="139.013672"/>
    </g>
   </g>
   <g id="text_24">
    <!-- 0.8 -->
    <g transform="translate(165.830635 28.38067) scale(0.06 -0.06)">
     <use xlink:href="#ArialMT-30"/>
     <use xlink:href="#ArialMT-2e" x="55.615234"/>
     <use xlink:href="#ArialMT-38" x="83.398438"/>
    </g>
   </g>
  </g>
  <g id="axes_3">
   <g id="patch_16">
    <path d="M 199.208354 100.712384 
L 229.522982 100.712384 
L 229.522982 10.968447 
L 199.208354 10.968447 
z
" style="fill: #ffffff"/>
   </g>
   <g id="patch_17">
    <path d="M 200.724085 100.712384 
L 212.849936 100.712384 
L 212.849936 17.999078 
L 200.724085 17.999078 
z
" clip-path="url(#p82dab64cde)" style="fill: #597dbf"/>
   </g>
   <g id="patch_18">
    <path d="M 215.881399 100.712384 
L 228.00725 100.712384 
L 228.00725 32.157988 
L 215.881399 32.157988 
z
" clip-path="url(#p82dab64cde)" style="fill: #c76e6e"/>
   </g>
   <g id="matplotlib.axis_5">
    <g id="xtick_9">
     <g id="line2d_29">
      <g>
       <use xlink:href="#m3dc5700ebd" x="206.787011" y="100.712384" style="stroke: #000000; stroke-width: 0.8"/>
      </g>
     </g>
     <g id="text_25">
      <!-- sylph -->
      <g transform="translate(206.380709 124.79302) rotate(-75) scale(0.07 -0.07)">
       <use xlink:href="#ArialMT-73"/>
       <use xlink:href="#ArialMT-79" x="50"/>
       <use xlink:href="#ArialMT-6c" x="100"/>
       <use xlink:href="#ArialMT-70" x="122.216797"/>
       <use xlink:href="#ArialMT-68" x="177.832031"/>
      </g>
     </g>
    </g>
    <g id="xtick_10">
     <g id="line2d_30">
      <g>
       <use xlink:href="#m3dc5700ebd" x="221.944325" y="100.712384" style="stroke: #000000; stroke-width: 0.8"/>
      </g>
     </g>
     <g id="text_26">
      <!-- Bracken -->
      <g transform="translate(220.3693 133.812201) rotate(-75) scale(0.07 -0.07)">
       <use xlink:href="#ArialMT-42"/>
       <use xlink:href="#ArialMT-72" x="66.699219"/>
       <use xlink:href="#ArialMT-61" x="100"/>
       <use xlink:href="#ArialMT-63" x="155.615234"/>
       <use xlink:href="#ArialMT-6b" x="205.615234"/>
       <use xlink:href="#ArialMT-65" x="255.615234"/>
       <use xlink:href="#ArialMT-6e" x="311.230469"/>
      </g>
     </g>
    </g>
   </g>
   <g id="matplotlib.axis_6">
    <g id="ytick_13">
     <g id="line2d_31">
      <g>
       <use xlink:href="#m70a62d07c2" x="199.208354" y="100.712384" style="stroke: #000000; stroke-width: 0.8"/>
      </g>
     </g>
    </g>
    <g id="ytick_14">
     <g id="line2d_32">
      <g>
       <use xlink:href="#m70a62d07c2" x="199.208354" y="83.6183" style="stroke: #000000; stroke-width: 0.8"/>
      </g>
     </g>
    </g>
    <g id="ytick_15">
     <g id="line2d_33">
      <g>
       <use xlink:href="#m70a62d07c2" x="199.208354" y="66.524217" style="stroke: #000000; stroke-width: 0.8"/>
      </g>
     </g>
    </g>
    <g id="ytick_16">
     <g id="line2d_34">
      <g>
       <use xlink:href="#m70a62d07c2" x="199.208354" y="49.430134" style="stroke: #000000; stroke-width: 0.8"/>
      </g>
     </g>
    </g>
    <g id="ytick_17">
     <g id="line2d_35">
      <g>
       <use xlink:href="#m70a62d07c2" x="199.208354" y="32.336051" style="stroke: #000000; stroke-width: 0.8"/>
      </g>
     </g>
    </g>
    <g id="ytick_18">
     <g id="line2d_36">
      <g>
       <use xlink:href="#m70a62d07c2" x="199.208354" y="15.241968" style="stroke: #000000; stroke-width: 0.8"/>
      </g>
     </g>
    </g>
    <g id="text_27">
     <!-- Precision -->
     <g transform="translate(190.317104 70.234712) rotate(-90) scale(0.07 -0.07)">
      <use xlink:href="#ArialMT-50"/>
      <use xlink:href="#ArialMT-72" x="66.699219"/>
      <use xlink:href="#ArialMT-65" x="100"/>
      <use xlink:href="#ArialMT-63" x="155.615234"/>
      <use xlink:href="#ArialMT-69" x="205.615234"/>
      <use xlink:href="#ArialMT-73" x="227.832031"/>
      <use xlink:href="#ArialMT-69" x="277.832031"/>
      <use xlink:href="#ArialMT-6f" x="300.048828"/>
      <use xlink:href="#ArialMT-6e" x="355.664062"/>
     </g>
    </g>
   </g>
   <g id="line2d_37">
    <path clip-path="url(#p82dab64cde)" style="fill: none; stroke: #424242; stroke-width: 2.7; stroke-linecap: square"/>
   </g>
   <g id="line2d_38">
    <path clip-path="url(#p82dab64cde)" style="fill: none; stroke: #424242; stroke-width: 2.7; stroke-linecap: square"/>
   </g>
   <g id="patch_19">
    <path d="M 199.208354 100.712384 
L 199.208354 10.968447 
" style="fill: none; stroke: #000000; stroke-width: 0.8; stroke-linejoin: miter; stroke-linecap: square"/>
   </g>
   <g id="patch_20">
    <path d="M 199.208354 100.712384 
L 229.522982 100.712384 
" style="fill: none; stroke: #000000; stroke-width: 0.8; stroke-linejoin: miter; stroke-linecap: square"/>
   </g>
   <g id="text_28">
    <!-- 0.97 -->
    <g transform="translate(200.94873 14.242466) scale(0.06 -0.06)">
     <use xlink:href="#ArialMT-30"/>
     <use xlink:href="#ArialMT-2e" x="55.615234"/>
     <use xlink:href="#ArialMT-39" x="83.398438"/>
     <use xlink:href="#ArialMT-37" x="139.013672"/>
    </g>
   </g>
   <g id="text_29">
    <!-- 0.8 -->
    <g transform="translate(217.774325 28.401375) scale(0.06 -0.06)">
     <use xlink:href="#ArialMT-30"/>
     <use xlink:href="#ArialMT-2e" x="55.615234"/>
     <use xlink:href="#ArialMT-38" x="83.398438"/>
    </g>
   </g>
  </g>
  <g id="axes_4">
   <g id="patch_21">
    <path d="M 251.152044 100.712384 
L 281.466672 100.712384 
L 281.466672 10.968447 
L 251.152044 10.968447 
z
" style="fill: #ffffff"/>
   </g>
   <g id="patch_22">
    <path d="M 252.667776 100.712384 
L 264.793627 100.712384 
L 264.793627 41.081861 
L 252.667776 41.081861 
z
" clip-path="url(#p3ad5a3f369)" style="fill: #597dbf"/>
   </g>
   <g id="patch_23">
    <path d="M 267.825089 100.712384 
L 279.95094 100.712384 
L 279.95094 24.186546 
L 267.825089 24.186546 
z
" clip-path="url(#p3ad5a3f369)" style="fill: #c76e6e"/>
   </g>
   <g id="matplotlib.axis_7">
    <g id="xtick_11">
     <g id="line2d_39">
      <g>
       <use xlink:href="#m3dc5700ebd" x="258.730701" y="100.712384" style="stroke: #000000; stroke-width: 0.8"/>
      </g>
     </g>
     <g id="text_30">
      <!-- sylph -->
      <g transform="translate(258.324399 124.79302) rotate(-75) scale(0.07 -0.07)">
       <use xlink:href="#ArialMT-73"/>
       <use xlink:href="#ArialMT-79" x="50"/>
       <use xlink:href="#ArialMT-6c" x="100"/>
       <use xlink:href="#ArialMT-70" x="122.216797"/>
       <use xlink:href="#ArialMT-68" x="177.832031"/>
      </g>
     </g>
    </g>
    <g id="xtick_12">
     <g id="line2d_40">
      <g>
       <use xlink:href="#m3dc5700ebd" x="273.888015" y="100.712384" style="stroke: #000000; stroke-width: 0.8"/>
      </g>
     </g>
     <g id="text_31">
      <!-- Bracken -->
      <g transform="translate(272.31299 133.812201) rotate(-75) scale(0.07 -0.07)">
       <use xlink:href="#ArialMT-42"/>
       <use xlink:href="#ArialMT-72" x="66.699219"/>
       <use xlink:href="#ArialMT-61" x="100"/>
       <use xlink:href="#ArialMT-63" x="155.615234"/>
       <use xlink:href="#ArialMT-6b" x="205.615234"/>
       <use xlink:href="#ArialMT-65" x="255.615234"/>
       <use xlink:href="#ArialMT-6e" x="311.230469"/>
      </g>
     </g>
    </g>
   </g>
   <g id="matplotlib.axis_8">
    <g id="ytick_19">
     <g id="line2d_41">
      <g>
       <use xlink:href="#m70a62d07c2" x="251.152044" y="100.712384" style="stroke: #000000; stroke-width: 0.8"/>
      </g>
     </g>
    </g>
    <g id="ytick_20">
     <g id="line2d_42">
      <g>
       <use xlink:href="#m70a62d07c2" x="251.152044" y="83.6183" style="stroke: #000000; stroke-width: 0.8"/>
      </g>
     </g>
    </g>
    <g id="ytick_21">
     <g id="line2d_43">
      <g>
       <use xlink:href="#m70a62d07c2" x="251.152044" y="66.524217" style="stroke: #000000; stroke-width: 0.8"/>
      </g>
     </g>
    </g>
    <g id="ytick_22">
     <g id="line2d_44">
      <g>
       <use xlink:href="#m70a62d07c2" x="251.152044" y="49.430134" style="stroke: #000000; stroke-width: 0.8"/>
      </g>
     </g>
    </g>
    <g id="ytick_23">
     <g id="line2d_45">
      <g>
       <use xlink:href="#m70a62d07c2" x="251.152044" y="32.336051" style="stroke: #000000; stroke-width: 0.8"/>
      </g>
     </g>
    </g>
    <g id="ytick_24">
     <g id="line2d_46">
      <g>
       <use xlink:href="#m70a62d07c2" x="251.152044" y="15.241968" style="stroke: #000000; stroke-width: 0.8"/>
      </g>
     </g>
    </g>
    <g id="text_32">
     <!-- Sensitivity -->
     <g transform="translate(242.178763 71.595337) rotate(-90) scale(0.07 -0.07)">
      <use xlink:href="#ArialMT-53"/>
      <use xlink:href="#ArialMT-65" x="66.699219"/>
      <use xlink:href="#ArialMT-6e" x="122.314453"/>
      <use xlink:href="#ArialMT-73" x="177.929688"/>
      <use xlink:href="#ArialMT-69" x="227.929688"/>
      <use xlink:href="#ArialMT-74" x="250.146484"/>
      <use xlink:href="#ArialMT-69" x="277.929688"/>
      <use xlink:href="#ArialMT-76" x="300.146484"/>
      <use xlink:href="#ArialMT-69" x="350.146484"/>
      <use xlink:href="#ArialMT-74" x="372.363281"/>
      <use xlink:href="#ArialMT-79" x="400.146484"/>
     </g>
    </g>
   </g>
   <g id="line2d_47">
    <path clip-path="url(#p3ad5a3f369)" style="fill: none; stroke: #424242; stroke-width: 2.7; stroke-linecap: square"/>
   </g>
   <g id="line2d_48">
    <path clip-path="url(#p3ad5a3f369)" style="fill: none; stroke: #424242; stroke-width: 2.7; stroke-linecap: square"/>
   </g>
   <g id="patch_24">
    <path d="M 251.152044 100.712384 
L 251.152044 10.968447 
" style="fill: none; stroke: #000000; stroke-width: 0.8; stroke-linejoin: miter; stroke-linecap: square"/>
   </g>
   <g id="patch_25">
    <path d="M 251.152044 100.712384 
L 281.466672 100.712384 
" style="fill: none; stroke: #000000; stroke-width: 0.8; stroke-linejoin: miter; stroke-linecap: square"/>
   </g>
   <g id="text_33">
    <!-- 0.7 -->
    <g transform="translate(254.560701 37.325249) scale(0.06 -0.06)">
     <use xlink:href="#ArialMT-30"/>
     <use xlink:href="#ArialMT-2e" x="55.615234"/>
     <use xlink:href="#ArialMT-37" x="83.398438"/>
    </g>
   </g>
   <g id="text_34">
    <!-- 0.9 -->
    <g transform="translate(269.718015 20.429934) scale(0.06 -0.06)">
     <use xlink:href="#ArialMT-30"/>
     <use xlink:href="#ArialMT-2e" x="55.615234"/>
     <use xlink:href="#ArialMT-39" x="83.398438"/>
    </g>
   </g>
  </g>
  <g id="axes_5">
   <g id="patch_26">
    <path d="M 303.095734 100.712384 
L 363.724989 100.712384 
L 363.724989 10.968447 
L 303.095734 10.968447 
z
" style="fill: #ffffff"/>
   </g>
   <g id="patch_27">
    <path d="M 304.611466 100.712384 
L 316.737317 100.712384 
L 316.737317 16.48067 
L 304.611466 16.48067 
z
" clip-path="url(#p61fc3cd20a)" style="fill: #597dbf"/>
   </g>
   <g id="patch_28">
    <path d="M 319.768779 100.712384 
L 331.89463 100.712384 
L 331.89463 15.241968 
L 319.768779 15.241968 
z
" clip-path="url(#p61fc3cd20a)" style="fill: #d98b5f"/>
   </g>
   <g id="patch_29">
    <path d="M 334.926093 100.712384 
L 347.051944 100.712384 
L 347.051944 18.48768 
L 334.926093 18.48768 
z
" clip-path="url(#p61fc3cd20a)" style="fill: #75bf71"/>
   </g>
   <g id="patch_30">
    <path d="M 350.083407 100.712384 
L 362.209258 100.712384 
L 362.209258 38.217886 
L 350.083407 38.217886 
z
" clip-path="url(#p61fc3cd20a)" style="fill: #c76e6e"/>
   </g>
   <g id="matplotlib.axis_9">
    <g id="xtick_13">
     <g id="line2d_49">
      <g>
       <use xlink:href="#m3dc5700ebd" x="310.674391" y="100.712384" style="stroke: #000000; stroke-width: 0.8"/>
      </g>
     </g>
     <g id="text_35">
      <!-- sylph -->
      <g transform="translate(310.268089 124.79302) rotate(-75) scale(0.07 -0.07)">
       <use xlink:href="#ArialMT-73"/>
       <use xlink:href="#ArialMT-79" x="50"/>
       <use xlink:href="#ArialMT-6c" x="100"/>
       <use xlink:href="#ArialMT-70" x="122.216797"/>
       <use xlink:href="#ArialMT-68" x="177.832031"/>
      </g>
     </g>
    </g>
    <g id="xtick_14">
     <g id="line2d_50">
      <g>
       <use xlink:href="#m3dc5700ebd" x="325.831705" y="100.712384" style="stroke: #000000; stroke-width: 0.8"/>
      </g>
     </g>
     <g id="text_36">
      <!-- KMCP -->
      <g transform="translate(324.962406 128.544585) rotate(-75) scale(0.07 -0.07)">
       <use xlink:href="#ArialMT-4b"/>
       <use xlink:href="#ArialMT-4d" x="66.699219"/>
       <use xlink:href="#ArialMT-43" x="150"/>
       <use xlink:href="#ArialMT-50" x="222.216797"/>
      </g>
     </g>
    </g>
    <g id="xtick_15">
     <g id="line2d_51">
      <g>
       <use xlink:href="#m3dc5700ebd" x="340.989019" y="100.712384" style="stroke: #000000; stroke-width: 0.8"/>
      </g>
     </g>
     <g id="text_37">
      <!-- Ganon -->
      <g transform="translate(340.017386 129.308421) rotate(-75) scale(0.07 -0.07)">
       <use xlink:href="#ArialMT-47"/>
       <use xlink:href="#ArialMT-61" x="77.783203"/>
       <use xlink:href="#ArialMT-6e" x="133.398438"/>
       <use xlink:href="#ArialMT-6f" x="189.013672"/>
       <use xlink:href="#ArialMT-6e" x="244.628906"/>
      </g>
     </g>
    </g>
    <g id="xtick_16">
     <g id="line2d_52">
      <g>
       <use xlink:href="#m3dc5700ebd" x="356.146333" y="100.712384" style="stroke: #000000; stroke-width: 0.8"/>
      </g>
     </g>
     <g id="text_38">
      <!-- Bracken -->
      <g transform="translate(354.571307 133.812201) rotate(-75) scale(0.07 -0.07)">
       <use xlink:href="#ArialMT-42"/>
       <use xlink:href="#ArialMT-72" x="66.699219"/>
       <use xlink:href="#ArialMT-61" x="100"/>
       <use xlink:href="#ArialMT-63" x="155.615234"/>
       <use xlink:href="#ArialMT-6b" x="205.615234"/>
       <use xlink:href="#ArialMT-65" x="255.615234"/>
       <use xlink:href="#ArialMT-6e" x="311.230469"/>
      </g>
     </g>
    </g>
   </g>
   <g id="matplotlib.axis_10">
    <g id="ytick_25">
     <g id="line2d_53">
      <g>
       <use xlink:href="#m70a62d07c2" x="303.095734" y="100.712384" style="stroke: #000000; stroke-width: 0.8"/>
      </g>
     </g>
    </g>
    <g id="ytick_26">
     <g id="line2d_54">
      <g>
       <use xlink:href="#m70a62d07c2" x="303.095734" y="83.6183" style="stroke: #000000; stroke-width: 0.8"/>
      </g>
     </g>
    </g>
    <g id="ytick_27">
     <g id="line2d_55">
      <g>
       <use xlink:href="#m70a62d07c2" x="303.095734" y="66.524217" style="stroke: #000000; stroke-width: 0.8"/>
      </g>
     </g>
    </g>
    <g id="ytick_28">
     <g id="line2d_56">
      <g>
       <use xlink:href="#m70a62d07c2" x="303.095734" y="49.430134" style="stroke: #000000; stroke-width: 0.8"/>
      </g>
     </g>
    </g>
    <g id="ytick_29">
     <g id="line2d_57">
      <g>
       <use xlink:href="#m70a62d07c2" x="303.095734" y="32.336051" style="stroke: #000000; stroke-width: 0.8"/>
      </g>
     </g>
    </g>
    <g id="ytick_30">
     <g id="line2d_58">
      <g>
       <use xlink:href="#m70a62d07c2" x="303.095734" y="15.241968" style="stroke: #000000; stroke-width: 0.8"/>
      </g>
     </g>
    </g>
    <g id="text_39">
     <!-- Precision -->
     <g transform="translate(294.204484 70.234712) rotate(-90) scale(0.07 -0.07)">
      <use xlink:href="#ArialMT-50"/>
      <use xlink:href="#ArialMT-72" x="66.699219"/>
      <use xlink:href="#ArialMT-65" x="100"/>
      <use xlink:href="#ArialMT-63" x="155.615234"/>
      <use xlink:href="#ArialMT-69" x="205.615234"/>
      <use xlink:href="#ArialMT-73" x="227.832031"/>
      <use xlink:href="#ArialMT-69" x="277.832031"/>
      <use xlink:href="#ArialMT-6f" x="300.048828"/>
      <use xlink:href="#ArialMT-6e" x="355.664062"/>
     </g>
    </g>
   </g>
   <g id="line2d_59">
    <path clip-path="url(#p61fc3cd20a)" style="fill: none; stroke: #424242; stroke-width: 2.7; stroke-linecap: square"/>
   </g>
   <g id="line2d_60">
    <path clip-path="url(#p61fc3cd20a)" style="fill: none; stroke: #424242; stroke-width: 2.7; stroke-linecap: square"/>
   </g>
   <g id="line2d_61">
    <path clip-path="url(#p61fc3cd20a)" style="fill: none; stroke: #424242; stroke-width: 2.7; stroke-linecap: square"/>
   </g>
   <g id="line2d_62">
    <path clip-path="url(#p61fc3cd20a)" style="fill: none; stroke: #424242; stroke-width: 2.7; stroke-linecap: square"/>
   </g>
   <g id="patch_31">
    <path d="M 303.095734 100.712384 
L 303.095734 10.968447 
" style="fill: none; stroke: #000000; stroke-width: 0.8; stroke-linejoin: miter; stroke-linecap: square"/>
   </g>
   <g id="patch_32">
    <path d="M 303.095734 100.712384 
L 363.724989 100.712384 
" style="fill: none; stroke: #000000; stroke-width: 0.8; stroke-linejoin: miter; stroke-linecap: square"/>
   </g>
   <g id="text_40">
    <!-- 0.99 -->
    <g transform="translate(304.83611 12.724057) scale(0.06 -0.06)">
     <use xlink:href="#ArialMT-30"/>
     <use xlink:href="#ArialMT-2e" x="55.615234"/>
     <use xlink:href="#ArialMT-39" x="83.398438"/>
     <use xlink:href="#ArialMT-39" x="139.013672"/>
    </g>
   </g>
   <g id="text_41">
    <!-- 1.0 -->
    <g transform="translate(321.661705 11.485356) scale(0.06 -0.06)">
     <use xlink:href="#ArialMT-31"/>
     <use xlink:href="#ArialMT-2e" x="55.615234"/>
     <use xlink:href="#ArialMT-30" x="83.398438"/>
    </g>
   </g>
   <g id="text_42">
    <!-- 0.96 -->
    <g transform="translate(335.150737 14.731068) scale(0.06 -0.06)">
     <use xlink:href="#ArialMT-30"/>
     <use xlink:href="#ArialMT-2e" x="55.615234"/>
     <use xlink:href="#ArialMT-39" x="83.398438"/>
     <use xlink:href="#ArialMT-36" x="139.013672"/>
    </g>
   </g>
   <g id="text_43">
    <!-- 0.73 -->
    <g transform="translate(350.308051 34.461274) scale(0.06 -0.06)">
     <use xlink:href="#ArialMT-30"/>
     <use xlink:href="#ArialMT-2e" x="55.615234"/>
     <use xlink:href="#ArialMT-37" x="83.398438"/>
     <use xlink:href="#ArialMT-33" x="139.013672"/>
    </g>
   </g>
  </g>
  <g id="axes_6">
   <g id="patch_33">
    <path d="M 385.354052 100.712384 
L 445.983307 100.712384 
L 445.983307 10.968447 
L 385.354052 10.968447 
z
" style="fill: #ffffff"/>
   </g>
   <g id="patch_34">
    <path d="M 386.869783 100.712384 
L 398.995634 100.712384 
L 398.995634 33.131125 
L 386.869783 33.131125 
z
" clip-path="url(#p85e13cdbc2)" style="fill: #597dbf"/>
   </g>
   <g id="patch_35">
    <path d="M 402.027097 100.712384 
L 414.152948 100.712384 
L 414.152948 70.897122 
L 402.027097 70.897122 
z
" clip-path="url(#p85e13cdbc2)" style="fill: #d98b5f"/>
   </g>
   <g id="patch_36">
    <path d="M 417.184411 100.712384 
L 429.310262 100.712384 
L 429.310262 25.180389 
L 417.184411 25.180389 
z
" clip-path="url(#p85e13cdbc2)" style="fill: #75bf71"/>
   </g>
   <g id="patch_37">
    <path d="M 432.341725 100.712384 
L 444.467576 100.712384 
L 444.467576 33.131125 
L 432.341725 33.131125 
z
" clip-path="url(#p85e13cdbc2)" style="fill: #c76e6e"/>
   </g>
   <g id="matplotlib.axis_11">
    <g id="xtick_17">
     <g id="line2d_63">
      <g>
       <use xlink:href="#m3dc5700ebd" x="392.932709" y="100.712384" style="stroke: #000000; stroke-width: 0.8"/>
      </g>
     </g>
     <g id="text_44">
      <!-- sylph -->
      <g transform="translate(392.526407 124.79302) rotate(-75) scale(0.07 -0.07)">
       <use xlink:href="#ArialMT-73"/>
       <use xlink:href="#ArialMT-79" x="50"/>
       <use xlink:href="#ArialMT-6c" x="100"/>
       <use xlink:href="#ArialMT-70" x="122.216797"/>
       <use xlink:href="#ArialMT-68" x="177.832031"/>
      </g>
     </g>
    </g>
    <g id="xtick_18">
     <g id="line2d_64">
      <g>
       <use xlink:href="#m3dc5700ebd" x="408.090023" y="100.712384" style="stroke: #000000; stroke-width: 0.8"/>
      </g>
     </g>
     <g id="text_45">
      <!-- KMCP -->
      <g transform="translate(407.220724 128.544585) rotate(-75) scale(0.07 -0.07)">
       <use xlink:href="#ArialMT-4b"/>
       <use xlink:href="#ArialMT-4d" x="66.699219"/>
       <use xlink:href="#ArialMT-43" x="150"/>
       <use xlink:href="#ArialMT-50" x="222.216797"/>
      </g>
     </g>
    </g>
    <g id="xtick_19">
     <g id="line2d_65">
      <g>
       <use xlink:href="#m3dc5700ebd" x="423.247336" y="100.712384" style="stroke: #000000; stroke-width: 0.8"/>
      </g>
     </g>
     <g id="text_46">
      <!-- Ganon -->
      <g transform="translate(422.275703 129.308421) rotate(-75) scale(0.07 -0.07)">
       <use xlink:href="#ArialMT-47"/>
       <use xlink:href="#ArialMT-61" x="77.783203"/>
       <use xlink:href="#ArialMT-6e" x="133.398438"/>
       <use xlink:href="#ArialMT-6f" x="189.013672"/>
       <use xlink:href="#ArialMT-6e" x="244.628906"/>
      </g>
     </g>
    </g>
    <g id="xtick_20">
     <g id="line2d_66">
      <g>
       <use xlink:href="#m3dc5700ebd" x="438.40465" y="100.712384" style="stroke: #000000; stroke-width: 0.8"/>
      </g>
     </g>
     <g id="text_47">
      <!-- Bracken -->
      <g transform="translate(436.829625 133.812201) rotate(-75) scale(0.07 -0.07)">
       <use xlink:href="#ArialMT-42"/>
       <use xlink:href="#ArialMT-72" x="66.699219"/>
       <use xlink:href="#ArialMT-61" x="100"/>
       <use xlink:href="#ArialMT-63" x="155.615234"/>
       <use xlink:href="#ArialMT-6b" x="205.615234"/>
       <use xlink:href="#ArialMT-65" x="255.615234"/>
       <use xlink:href="#ArialMT-6e" x="311.230469"/>
      </g>
     </g>
    </g>
   </g>
   <g id="matplotlib.axis_12">
    <g id="ytick_31">
     <g id="line2d_67">
      <g>
       <use xlink:href="#m70a62d07c2" x="385.354052" y="100.712384" style="stroke: #000000; stroke-width: 0.8"/>
      </g>
     </g>
    </g>
    <g id="ytick_32">
     <g id="line2d_68">
      <g>
       <use xlink:href="#m70a62d07c2" x="385.354052" y="83.6183" style="stroke: #000000; stroke-width: 0.8"/>
      </g>
     </g>
    </g>
    <g id="ytick_33">
     <g id="line2d_69">
      <g>
       <use xlink:href="#m70a62d07c2" x="385.354052" y="66.524217" style="stroke: #000000; stroke-width: 0.8"/>
      </g>
     </g>
    </g>
    <g id="ytick_34">
     <g id="line2d_70">
      <g>
       <use xlink:href="#m70a62d07c2" x="385.354052" y="49.430134" style="stroke: #000000; stroke-width: 0.8"/>
      </g>
     </g>
    </g>
    <g id="ytick_35">
     <g id="line2d_71">
      <g>
       <use xlink:href="#m70a62d07c2" x="385.354052" y="32.336051" style="stroke: #000000; stroke-width: 0.8"/>
      </g>
     </g>
    </g>
    <g id="ytick_36">
     <g id="line2d_72">
      <g>
       <use xlink:href="#m70a62d07c2" x="385.354052" y="15.241968" style="stroke: #000000; stroke-width: 0.8"/>
      </g>
     </g>
    </g>
    <g id="text_48">
     <!-- Sensitivity -->
     <g transform="translate(376.380771 71.595337) rotate(-90) scale(0.07 -0.07)">
      <use xlink:href="#ArialMT-53"/>
      <use xlink:href="#ArialMT-65" x="66.699219"/>
      <use xlink:href="#ArialMT-6e" x="122.314453"/>
      <use xlink:href="#ArialMT-73" x="177.929688"/>
      <use xlink:href="#ArialMT-69" x="227.929688"/>
      <use xlink:href="#ArialMT-74" x="250.146484"/>
      <use xlink:href="#ArialMT-69" x="277.929688"/>
      <use xlink:href="#ArialMT-76" x="300.146484"/>
      <use xlink:href="#ArialMT-69" x="350.146484"/>
      <use xlink:href="#ArialMT-74" x="372.363281"/>
      <use xlink:href="#ArialMT-79" x="400.146484"/>
     </g>
    </g>
   </g>
   <g id="line2d_73">
    <path clip-path="url(#p85e13cdbc2)" style="fill: none; stroke: #424242; stroke-width: 2.7; stroke-linecap: square"/>
   </g>
   <g id="line2d_74">
    <path clip-path="url(#p85e13cdbc2)" style="fill: none; stroke: #424242; stroke-width: 2.7; stroke-linecap: square"/>
   </g>
   <g id="line2d_75">
    <path clip-path="url(#p85e13cdbc2)" style="fill: none; stroke: #424242; stroke-width: 2.7; stroke-linecap: square"/>
   </g>
   <g id="line2d_76">
    <path clip-path="url(#p85e13cdbc2)" style="fill: none; stroke: #424242; stroke-width: 2.7; stroke-linecap: square"/>
   </g>
   <g id="patch_38">
    <path d="M 385.354052 100.712384 
L 385.354052 10.968447 
" style="fill: none; stroke: #000000; stroke-width: 0.8; stroke-linejoin: miter; stroke-linecap: square"/>
   </g>
   <g id="patch_39">
    <path d="M 385.354052 100.712384 
L 445.983307 100.712384 
" style="fill: none; stroke: #000000; stroke-width: 0.8; stroke-linejoin: miter; stroke-linecap: square"/>
   </g>
   <g id="text_49">
    <!-- 0.79 -->
    <g transform="translate(387.094428 29.374512) scale(0.06 -0.06)">
     <use xlink:href="#ArialMT-30"/>
     <use xlink:href="#ArialMT-2e" x="55.615234"/>
     <use xlink:href="#ArialMT-37" x="83.398438"/>
     <use xlink:href="#ArialMT-39" x="139.013672"/>
    </g>
   </g>
   <g id="text_50">
    <!-- 0.35 -->
    <g transform="translate(402.251741 67.14051) scale(0.06 -0.06)">
     <defs>
      <path id="ArialMT-35" d="M 266 1200 
L 856 1250 
Q 922 819 1161 601 
Q 1400 384 1738 384 
Q 2144 384 2425 690 
Q 2706 997 2706 1503 
Q 2706 1984 2436 2262 
Q 2166 2541 1728 2541 
Q 1456 2541 1237 2417 
Q 1019 2294 894 2097 
L 366 2166 
L 809 4519 
L 3088 4519 
L 3088 3981 
L 1259 3981 
L 1013 2750 
Q 1425 3038 1878 3038 
Q 2478 3038 2890 2622 
Q 3303 2206 3303 1553 
Q 3303 931 2941 478 
Q 2500 -78 1738 -78 
Q 1113 -78 717 272 
Q 322 622 266 1200 
z
" transform="scale(0.015625)"/>
     </defs>
     <use xlink:href="#ArialMT-30"/>
     <use xlink:href="#ArialMT-2e" x="55.615234"/>
     <use xlink:href="#ArialMT-33" x="83.398438"/>
     <use xlink:href="#ArialMT-35" x="139.013672"/>
    </g>
   </g>
   <g id="text_51">
    <!-- 0.88 -->
    <g transform="translate(417.409055 21.423776) scale(0.06 -0.06)">
     <use xlink:href="#ArialMT-30"/>
     <use xlink:href="#ArialMT-2e" x="55.615234"/>
     <use xlink:href="#ArialMT-38" x="83.398438"/>
     <use xlink:href="#ArialMT-38" x="139.013672"/>
    </g>
   </g>
   <g id="text_52">
    <!-- 0.79 -->
    <g transform="translate(432.566369 29.374512) scale(0.06 -0.06)">
     <use xlink:href="#ArialMT-30"/>
     <use xlink:href="#ArialMT-2e" x="55.615234"/>
     <use xlink:href="#ArialMT-37" x="83.398438"/>
     <use xlink:href="#ArialMT-39" x="139.013672"/>
    </g>
   </g>
  </g>
  <g id="text_53">
   <!-- Illumina -->
   <g transform="translate(101.326139 -1.39125) scale(0.07 -0.07)">
    <defs>
     <path id="ArialMT-49" d="M 597 0 
L 597 4581 
L 1203 4581 
L 1203 0 
L 597 0 
z
" transform="scale(0.015625)"/>
     <path id="ArialMT-75" d="M 2597 0 
L 2597 488 
Q 2209 -75 1544 -75 
Q 1250 -75 995 37 
Q 741 150 617 320 
Q 494 491 444 738 
Q 409 903 409 1263 
L 409 3319 
L 972 3319 
L 972 1478 
Q 972 1038 1006 884 
Q 1059 663 1231 536 
Q 1403 409 1656 409 
Q 1909 409 2131 539 
Q 2353 669 2445 892 
Q 2538 1116 2538 1541 
L 2538 3319 
L 3100 3319 
L 3100 0 
L 2597 0 
z
" transform="scale(0.015625)"/>
     <path id="ArialMT-6d" d="M 422 0 
L 422 3319 
L 925 3319 
L 925 2853 
Q 1081 3097 1340 3245 
Q 1600 3394 1931 3394 
Q 2300 3394 2536 3241 
Q 2772 3088 2869 2813 
Q 3263 3394 3894 3394 
Q 4388 3394 4653 3120 
Q 4919 2847 4919 2278 
L 4919 0 
L 4359 0 
L 4359 2091 
Q 4359 2428 4304 2576 
Q 4250 2725 4106 2815 
Q 3963 2906 3769 2906 
Q 3419 2906 3187 2673 
Q 2956 2441 2956 1928 
L 2956 0 
L 2394 0 
L 2394 2156 
Q 2394 2531 2256 2718 
Q 2119 2906 1806 2906 
Q 1569 2906 1367 2781 
Q 1166 2656 1075 2415 
Q 984 2175 984 1722 
L 984 0 
L 422 0 
z
" transform="scale(0.015625)"/>
    </defs>
    <use xlink:href="#ArialMT-49"/>
    <use xlink:href="#ArialMT-6c" x="27.783203"/>
    <use xlink:href="#ArialMT-6c" x="50"/>
    <use xlink:href="#ArialMT-75" x="72.216797"/>
    <use xlink:href="#ArialMT-6d" x="127.832031"/>
    <use xlink:href="#ArialMT-69" x="211.132812"/>
    <use xlink:href="#ArialMT-6e" x="233.349609"/>
    <use xlink:href="#ArialMT-61" x="288.964844"/>
   </g>
  </g>
  <g id="text_54">
   <!-- Nanopore-old -->
   <g transform="translate(235.04525 -1.39125) scale(0.07 -0.07)">
    <defs>
     <path id="ArialMT-4e" d="M 488 0 
L 488 4581 
L 1109 4581 
L 3516 984 
L 3516 4581 
L 4097 4581 
L 4097 0 
L 3475 0 
L 1069 3600 
L 1069 0 
L 488 0 
z
" transform="scale(0.015625)"/>
     <path id="ArialMT-2d" d="M 203 1375 
L 203 1941 
L 1931 1941 
L 1931 1375 
L 203 1375 
z
" transform="scale(0.015625)"/>
     <path id="ArialMT-64" d="M 2575 0 
L 2575 419 
Q 2259 -75 1647 -75 
Q 1250 -75 917 144 
Q 584 363 401 755 
Q 219 1147 219 1656 
Q 219 2153 384 2558 
Q 550 2963 881 3178 
Q 1213 3394 1622 3394 
Q 1922 3394 2156 3267 
Q 2391 3141 2538 2938 
L 2538 4581 
L 3097 4581 
L 3097 0 
L 2575 0 
z
M 797 1656 
Q 797 1019 1065 703 
Q 1334 388 1700 388 
Q 2069 388 2326 689 
Q 2584 991 2584 1609 
Q 2584 2291 2321 2609 
Q 2059 2928 1675 2928 
Q 1300 2928 1048 2622 
Q 797 2316 797 1656 
z
" transform="scale(0.015625)"/>
    </defs>
    <use xlink:href="#ArialMT-4e"/>
    <use xlink:href="#ArialMT-61" x="72.216797"/>
    <use xlink:href="#ArialMT-6e" x="127.832031"/>
    <use xlink:href="#ArialMT-6f" x="183.447266"/>
    <use xlink:href="#ArialMT-70" x="239.0625"/>
    <use xlink:href="#ArialMT-6f" x="294.677734"/>
    <use xlink:href="#ArialMT-72" x="350.292969"/>
    <use xlink:href="#ArialMT-65" x="383.59375"/>
    <use xlink:href="#ArialMT-2d" x="439.208984"/>
    <use xlink:href="#ArialMT-6f" x="472.509766"/>
    <use xlink:href="#ArialMT-6c" x="528.125"/>
    <use xlink:href="#ArialMT-64" x="550.341797"/>
   </g>
  </g>
  <g id="text_55">
   <!-- PacBio -->
   <g transform="translate(365.351414 -1.39125) scale(0.07 -0.07)">
    <use xlink:href="#ArialMT-50"/>
    <use xlink:href="#ArialMT-61" x="66.699219"/>
    <use xlink:href="#ArialMT-63" x="122.314453"/>
    <use xlink:href="#ArialMT-42" x="172.314453"/>
    <use xlink:href="#ArialMT-69" x="239.013672"/>
    <use xlink:href="#ArialMT-6f" x="261.230469"/>
   </g>
  </g>
 </g>
 <defs>
  <clipPath id="pcf01bc88be">
   <rect x="34.691719" y="10.968447" width="60.629255" height="89.743936"/>
  </clipPath>
  <clipPath id="p0e7b710c41">
   <rect x="116.950036" y="10.968447" width="60.629255" height="89.743936"/>
  </clipPath>
  <clipPath id="p82dab64cde">
   <rect x="199.208354" y="10.968447" width="30.314628" height="89.743936"/>
  </clipPath>
  <clipPath id="p3ad5a3f369">
   <rect x="251.152044" y="10.968447" width="30.314628" height="89.743936"/>
  </clipPath>
  <clipPath id="p61fc3cd20a">
   <rect x="303.095734" y="10.968447" width="60.629255" height="89.743936"/>
  </clipPath>
  <clipPath id="p85e13cdbc2">
   <rect x="385.354052" y="10.968447" width="60.629255" height="89.743936"/>
  </clipPath>
 </defs>
</svg>
