<?xml version="1.0" encoding="utf-8" standalone="no"?>
<!DOCTYPE svg PUBLIC "-//W3C//DTD SVG 1.1//EN"
  "http://www.w3.org/Graphics/SVG/1.1/DTD/svg11.dtd">
<svg xmlns:xlink="http://www.w3.org/1999/xlink" width="453.543307pt" height="113.385827pt" viewBox="0 0 453.543307 113.385827" xmlns="http://www.w3.org/2000/svg" version="1.1">
 <metadata>
  <rdf:RDF xmlns:dc="http://purl.org/dc/elements/1.1/" xmlns:cc="http://creativecommons.org/ns#" xmlns:rdf="http://www.w3.org/1999/02/22-rdf-syntax-ns#">
   <cc:Work>
    <dc:type rdf:resource="http://purl.org/dc/dcmitype/StillImage"/>
    <dc:date>2023-11-04T14:44:36.670062</dc:date>
    <dc:format>image/svg+xml</dc:format>
    <dc:creator>
     <cc:Agent>
      <dc:title>Matplotlib v3.8.0, https://matplotlib.org/</dc:title>
     </cc:Agent>
    </dc:creator>
   </cc:Work>
  </rdf:RDF>
 </metadata>
 <defs>
  <style type="text/css">*{stroke-linejoin: round; stroke-linecap: butt}</style>
 </defs>
 <g id="figure_1">
  <g id="patch_1">
   <path d="M 0 113.385827 
L 453.543307 113.385827 
L 453.543307 0 
L 0 0 
z
" style="fill: #ffffff"/>
  </g>
  <g id="axes_1">
   <g id="patch_2">
    <path d="M 34.691719 65.618147 
L 104.936462 65.618147 
L 104.936462 8.954299 
L 34.691719 8.954299 
z
" style="fill: #ffffff"/>
   </g>
   <g id="PolyCollection_1">
    <defs>
     <path id="mfc98c3cddf" d="M 37.884662 -97.899214 
L 37.884662 -94.961135 
L 53.849376 -96.910022 
L 69.814091 -100.240831 
L 85.778805 -100.741385 
L 101.743519 -100.529952 
L 101.743519 -101.740085 
L 101.743519 -101.740085 
L 85.778805 -101.855899 
L 69.814091 -101.852986 
L 53.849376 -99.71033 
L 37.884662 -97.899214 
z
" style="stroke: #4878d0; stroke-opacity: 0.2"/>
    </defs>
    <g clip-path="url(#pd360f5fff0)">
     <use xlink:href="#mfc98c3cddf" x="0" y="113.385827" style="fill: #4878d0; fill-opacity: 0.2; stroke: #4878d0; stroke-opacity: 0.2"/>
    </g>
   </g>
   <g id="PolyCollection_2">
    <defs>
     <path id="mb9338455ec" d="M 37.884662 -81.260438 
L 37.884662 -75.967705 
L 53.849376 -77.976219 
L 69.814091 -87.818701 
L 85.778805 -92.040222 
L 101.743519 -96.701189 
L 101.743519 -99.290915 
L 101.743519 -99.290915 
L 85.778805 -96.445703 
L 69.814091 -93.819364 
L 53.849376 -81.652059 
L 37.884662 -81.260438 
z
" style="stroke: #ee854a; stroke-opacity: 0.2"/>
    </defs>
    <g clip-path="url(#pd360f5fff0)">
     <use xlink:href="#mb9338455ec" x="0" y="113.385827" style="fill: #ee854a; fill-opacity: 0.2; stroke: #ee854a; stroke-opacity: 0.2"/>
    </g>
   </g>
   <g id="PolyCollection_3">
    <defs>
     <path id="m63867b8a9c" d="M 37.884662 -68.159699 
L 37.884662 -63.662148 
L 53.849376 -65.586897 
L 69.814091 -76.001165 
L 85.778805 -79.1435 
L 101.743519 -84.814622 
L 101.743519 -89.736714 
L 101.743519 -89.736714 
L 85.778805 -86.369056 
L 69.814091 -82.758099 
L 53.849376 -70.779436 
L 37.884662 -68.159699 
z
" style="stroke: #6acc64; stroke-opacity: 0.2"/>
    </defs>
    <g clip-path="url(#pd360f5fff0)">
     <use xlink:href="#m63867b8a9c" x="0" y="113.385827" style="fill: #6acc64; fill-opacity: 0.2; stroke: #6acc64; stroke-opacity: 0.2"/>
    </g>
   </g>
   <g id="PolyCollection_4">
    <defs>
     <path id="mec5514f769" d="M 37.884662 -52.20949 
L 37.884662 -50.34331 
L 53.849376 -51.524049 
L 69.814091 -54.396439 
L 85.778805 -58.263256 
L 101.743519 -65.319471 
L 101.743519 -69.757533 
L 101.743519 -69.757533 
L 85.778805 -62.111024 
L 69.814091 -58.164355 
L 53.849376 -54.584274 
L 37.884662 -52.20949 
z
" style="stroke: #d65f5f; stroke-opacity: 0.2"/>
    </defs>
    <g clip-path="url(#pd360f5fff0)">
     <use xlink:href="#mec5514f769" x="0" y="113.385827" style="fill: #d65f5f; fill-opacity: 0.2; stroke: #d65f5f; stroke-opacity: 0.2"/>
    </g>
   </g>
   <g id="matplotlib.axis_1">
    <g id="xtick_1">
     <g id="line2d_1">
      <defs>
       <path id="mc650eb1c51" d="M 0 0 
L 0 3.5 
" style="stroke: #000000; stroke-width: 0.8"/>
      </defs>
      <g>
       <use xlink:href="#mc650eb1c51" x="37.884662" y="65.618147" style="stroke: #000000; stroke-width: 0.8"/>
      </g>
     </g>
     <g id="text_1">
      <!-- [95,96) -->
      <g transform="translate(31.461204 91.629817) rotate(-45) scale(0.07 -0.07)">
       <defs>
        <path id="ArialMT-5b" d="M 434 -1272 
L 434 4581 
L 1675 4581 
L 1675 4116 
L 997 4116 
L 997 -806 
L 1675 -806 
L 1675 -1272 
L 434 -1272 
z
" transform="scale(0.015625)"/>
        <path id="ArialMT-39" d="M 350 1059 
L 891 1109 
Q 959 728 1153 556 
Q 1347 384 1650 384 
Q 1909 384 2104 503 
Q 2300 622 2425 820 
Q 2550 1019 2634 1356 
Q 2719 1694 2719 2044 
Q 2719 2081 2716 2156 
Q 2547 1888 2255 1720 
Q 1963 1553 1622 1553 
Q 1053 1553 659 1965 
Q 266 2378 266 3053 
Q 266 3750 677 4175 
Q 1088 4600 1706 4600 
Q 2153 4600 2523 4359 
Q 2894 4119 3086 3673 
Q 3278 3228 3278 2384 
Q 3278 1506 3087 986 
Q 2897 466 2520 194 
Q 2144 -78 1638 -78 
Q 1100 -78 759 220 
Q 419 519 350 1059 
z
M 2653 3081 
Q 2653 3566 2395 3850 
Q 2138 4134 1775 4134 
Q 1400 4134 1122 3828 
Q 844 3522 844 3034 
Q 844 2597 1108 2323 
Q 1372 2050 1759 2050 
Q 2150 2050 2401 2323 
Q 2653 2597 2653 3081 
z
" transform="scale(0.015625)"/>
        <path id="ArialMT-35" d="M 266 1200 
L 856 1250 
Q 922 819 1161 601 
Q 1400 384 1738 384 
Q 2144 384 2425 690 
Q 2706 997 2706 1503 
Q 2706 1984 2436 2262 
Q 2166 2541 1728 2541 
Q 1456 2541 1237 2417 
Q 1019 2294 894 2097 
L 366 2166 
L 809 4519 
L 3088 4519 
L 3088 3981 
L 1259 3981 
L 1013 2750 
Q 1425 3038 1878 3038 
Q 2478 3038 2890 2622 
Q 3303 2206 3303 1553 
Q 3303 931 2941 478 
Q 2500 -78 1738 -78 
Q 1113 -78 717 272 
Q 322 622 266 1200 
z
" transform="scale(0.015625)"/>
        <path id="ArialMT-2c" d="M 569 0 
L 569 641 
L 1209 641 
L 1209 0 
Q 1209 -353 1084 -570 
Q 959 -788 688 -906 
L 531 -666 
Q 709 -588 793 -436 
Q 878 -284 888 0 
L 569 0 
z
" transform="scale(0.015625)"/>
        <path id="ArialMT-36" d="M 3184 3459 
L 2625 3416 
Q 2550 3747 2413 3897 
Q 2184 4138 1850 4138 
Q 1581 4138 1378 3988 
Q 1113 3794 959 3422 
Q 806 3050 800 2363 
Q 1003 2672 1297 2822 
Q 1591 2972 1913 2972 
Q 2475 2972 2870 2558 
Q 3266 2144 3266 1488 
Q 3266 1056 3080 686 
Q 2894 316 2569 119 
Q 2244 -78 1831 -78 
Q 1128 -78 684 439 
Q 241 956 241 2144 
Q 241 3472 731 4075 
Q 1159 4600 1884 4600 
Q 2425 4600 2770 4297 
Q 3116 3994 3184 3459 
z
M 888 1484 
Q 888 1194 1011 928 
Q 1134 663 1356 523 
Q 1578 384 1822 384 
Q 2178 384 2434 671 
Q 2691 959 2691 1453 
Q 2691 1928 2437 2201 
Q 2184 2475 1800 2475 
Q 1419 2475 1153 2201 
Q 888 1928 888 1484 
z
" transform="scale(0.015625)"/>
        <path id="ArialMT-29" d="M 791 -1347 
L 388 -1347 
Q 1322 153 1322 1656 
Q 1322 2244 1188 2822 
Q 1081 3291 891 3722 
Q 769 4003 388 4659 
L 791 4659 
Q 1378 3875 1659 3084 
Q 1900 2403 1900 1659 
Q 1900 816 1576 28 
Q 1253 -759 791 -1347 
z
" transform="scale(0.015625)"/>
       </defs>
       <use xlink:href="#ArialMT-5b"/>
       <use xlink:href="#ArialMT-39" x="27.783203"/>
       <use xlink:href="#ArialMT-35" x="83.398438"/>
       <use xlink:href="#ArialMT-2c" x="139.013672"/>
       <use xlink:href="#ArialMT-39" x="166.796875"/>
       <use xlink:href="#ArialMT-36" x="222.412109"/>
       <use xlink:href="#ArialMT-29" x="278.027344"/>
      </g>
     </g>
    </g>
    <g id="xtick_2">
     <g id="line2d_2">
      <g>
       <use xlink:href="#mc650eb1c51" x="53.849376" y="65.618147" style="stroke: #000000; stroke-width: 0.8"/>
      </g>
     </g>
     <g id="text_2">
      <!-- [96,97) -->
      <g transform="translate(47.425919 91.629817) rotate(-45) scale(0.07 -0.07)">
       <defs>
        <path id="ArialMT-37" d="M 303 3981 
L 303 4522 
L 3269 4522 
L 3269 4084 
Q 2831 3619 2401 2847 
Q 1972 2075 1738 1259 
Q 1569 684 1522 0 
L 944 0 
Q 953 541 1156 1306 
Q 1359 2072 1739 2783 
Q 2119 3494 2547 3981 
L 303 3981 
z
" transform="scale(0.015625)"/>
       </defs>
       <use xlink:href="#ArialMT-5b"/>
       <use xlink:href="#ArialMT-39" x="27.783203"/>
       <use xlink:href="#ArialMT-36" x="83.398438"/>
       <use xlink:href="#ArialMT-2c" x="139.013672"/>
       <use xlink:href="#ArialMT-39" x="166.796875"/>
       <use xlink:href="#ArialMT-37" x="222.412109"/>
       <use xlink:href="#ArialMT-29" x="278.027344"/>
      </g>
     </g>
    </g>
    <g id="xtick_3">
     <g id="line2d_3">
      <g>
       <use xlink:href="#mc650eb1c51" x="69.814091" y="65.618147" style="stroke: #000000; stroke-width: 0.8"/>
      </g>
     </g>
     <g id="text_3">
      <!-- [97,98) -->
      <g transform="translate(63.390633 91.629817) rotate(-45) scale(0.07 -0.07)">
       <defs>
        <path id="ArialMT-38" d="M 1131 2484 
Q 781 2613 612 2850 
Q 444 3088 444 3419 
Q 444 3919 803 4259 
Q 1163 4600 1759 4600 
Q 2359 4600 2725 4251 
Q 3091 3903 3091 3403 
Q 3091 3084 2923 2848 
Q 2756 2613 2416 2484 
Q 2838 2347 3058 2040 
Q 3278 1734 3278 1309 
Q 3278 722 2862 322 
Q 2447 -78 1769 -78 
Q 1091 -78 675 323 
Q 259 725 259 1325 
Q 259 1772 486 2073 
Q 713 2375 1131 2484 
z
M 1019 3438 
Q 1019 3113 1228 2906 
Q 1438 2700 1772 2700 
Q 2097 2700 2305 2904 
Q 2513 3109 2513 3406 
Q 2513 3716 2298 3927 
Q 2084 4138 1766 4138 
Q 1444 4138 1231 3931 
Q 1019 3725 1019 3438 
z
M 838 1322 
Q 838 1081 952 856 
Q 1066 631 1291 507 
Q 1516 384 1775 384 
Q 2178 384 2440 643 
Q 2703 903 2703 1303 
Q 2703 1709 2433 1975 
Q 2163 2241 1756 2241 
Q 1359 2241 1098 1978 
Q 838 1716 838 1322 
z
" transform="scale(0.015625)"/>
       </defs>
       <use xlink:href="#ArialMT-5b"/>
       <use xlink:href="#ArialMT-39" x="27.783203"/>
       <use xlink:href="#ArialMT-37" x="83.398438"/>
       <use xlink:href="#ArialMT-2c" x="139.013672"/>
       <use xlink:href="#ArialMT-39" x="166.796875"/>
       <use xlink:href="#ArialMT-38" x="222.412109"/>
       <use xlink:href="#ArialMT-29" x="278.027344"/>
      </g>
     </g>
    </g>
    <g id="xtick_4">
     <g id="line2d_4">
      <g>
       <use xlink:href="#mc650eb1c51" x="85.778805" y="65.618147" style="stroke: #000000; stroke-width: 0.8"/>
      </g>
     </g>
     <g id="text_4">
      <!-- [98,99) -->
      <g transform="translate(79.355348 91.629817) rotate(-45) scale(0.07 -0.07)">
       <use xlink:href="#ArialMT-5b"/>
       <use xlink:href="#ArialMT-39" x="27.783203"/>
       <use xlink:href="#ArialMT-38" x="83.398438"/>
       <use xlink:href="#ArialMT-2c" x="139.013672"/>
       <use xlink:href="#ArialMT-39" x="166.796875"/>
       <use xlink:href="#ArialMT-39" x="222.412109"/>
       <use xlink:href="#ArialMT-29" x="278.027344"/>
      </g>
     </g>
    </g>
    <g id="xtick_5">
     <g id="line2d_5">
      <g>
       <use xlink:href="#mc650eb1c51" x="101.743519" y="65.618147" style="stroke: #000000; stroke-width: 0.8"/>
      </g>
     </g>
     <g id="text_5">
      <!-- [99,100) -->
      <g transform="translate(93.9438 94.382341) rotate(-45) scale(0.07 -0.07)">
       <defs>
        <path id="ArialMT-31" d="M 2384 0 
L 1822 0 
L 1822 3584 
Q 1619 3391 1289 3197 
Q 959 3003 697 2906 
L 697 3450 
Q 1169 3672 1522 3987 
Q 1875 4303 2022 4600 
L 2384 4600 
L 2384 0 
z
" transform="scale(0.015625)"/>
        <path id="ArialMT-30" d="M 266 2259 
Q 266 3072 433 3567 
Q 600 4063 929 4331 
Q 1259 4600 1759 4600 
Q 2128 4600 2406 4451 
Q 2684 4303 2865 4023 
Q 3047 3744 3150 3342 
Q 3253 2941 3253 2259 
Q 3253 1453 3087 958 
Q 2922 463 2592 192 
Q 2263 -78 1759 -78 
Q 1097 -78 719 397 
Q 266 969 266 2259 
z
M 844 2259 
Q 844 1131 1108 757 
Q 1372 384 1759 384 
Q 2147 384 2411 759 
Q 2675 1134 2675 2259 
Q 2675 3391 2411 3762 
Q 2147 4134 1753 4134 
Q 1366 4134 1134 3806 
Q 844 3388 844 2259 
z
" transform="scale(0.015625)"/>
       </defs>
       <use xlink:href="#ArialMT-5b"/>
       <use xlink:href="#ArialMT-39" x="27.783203"/>
       <use xlink:href="#ArialMT-39" x="83.398438"/>
       <use xlink:href="#ArialMT-2c" x="139.013672"/>
       <use xlink:href="#ArialMT-31" x="166.796875"/>
       <use xlink:href="#ArialMT-30" x="222.412109"/>
       <use xlink:href="#ArialMT-30" x="278.027344"/>
       <use xlink:href="#ArialMT-29" x="333.642578"/>
      </g>
     </g>
    </g>
    <g id="text_6">
     <!-- ANI -->
     <g transform="translate(63.979481 104.434577) scale(0.07 -0.07)">
      <defs>
       <path id="ArialMT-41" d="M -9 0 
L 1750 4581 
L 2403 4581 
L 4278 0 
L 3588 0 
L 3053 1388 
L 1138 1388 
L 634 0 
L -9 0 
z
M 1313 1881 
L 2866 1881 
L 2388 3150 
Q 2169 3728 2063 4100 
Q 1975 3659 1816 3225 
L 1313 1881 
z
" transform="scale(0.015625)"/>
       <path id="ArialMT-4e" d="M 488 0 
L 488 4581 
L 1109 4581 
L 3516 984 
L 3516 4581 
L 4097 4581 
L 4097 0 
L 3475 0 
L 1069 3600 
L 1069 0 
L 488 0 
z
" transform="scale(0.015625)"/>
       <path id="ArialMT-49" d="M 597 0 
L 597 4581 
L 1203 4581 
L 1203 0 
L 597 0 
z
" transform="scale(0.015625)"/>
      </defs>
      <use xlink:href="#ArialMT-41"/>
      <use xlink:href="#ArialMT-4e" x="66.699219"/>
      <use xlink:href="#ArialMT-49" x="138.916016"/>
     </g>
    </g>
   </g>
   <g id="matplotlib.axis_2">
    <g id="ytick_1">
     <g id="line2d_6">
      <defs>
       <path id="m1796a5221e" d="M 0 0 
L -3.5 0 
" style="stroke: #000000; stroke-width: 0.8"/>
      </defs>
      <g>
       <use xlink:href="#m1796a5221e" x="34.691719" y="55.738979" style="stroke: #000000; stroke-width: 0.8"/>
      </g>
     </g>
     <g id="text_7">
      <!-- 0.25 -->
      <g transform="translate(14.069063 58.244213) scale(0.07 -0.07)">
       <defs>
        <path id="ArialMT-2e" d="M 581 0 
L 581 641 
L 1222 641 
L 1222 0 
L 581 0 
z
" transform="scale(0.015625)"/>
        <path id="ArialMT-32" d="M 3222 541 
L 3222 0 
L 194 0 
Q 188 203 259 391 
Q 375 700 629 1000 
Q 884 1300 1366 1694 
Q 2113 2306 2375 2664 
Q 2638 3022 2638 3341 
Q 2638 3675 2398 3904 
Q 2159 4134 1775 4134 
Q 1369 4134 1125 3890 
Q 881 3647 878 3216 
L 300 3275 
Q 359 3922 746 4261 
Q 1134 4600 1788 4600 
Q 2447 4600 2831 4234 
Q 3216 3869 3216 3328 
Q 3216 3053 3103 2787 
Q 2991 2522 2730 2228 
Q 2469 1934 1863 1422 
Q 1356 997 1212 845 
Q 1069 694 975 541 
L 3222 541 
z
" transform="scale(0.015625)"/>
       </defs>
       <use xlink:href="#ArialMT-30"/>
       <use xlink:href="#ArialMT-2e" x="55.615234"/>
       <use xlink:href="#ArialMT-32" x="83.398438"/>
       <use xlink:href="#ArialMT-35" x="139.013672"/>
      </g>
     </g>
    </g>
    <g id="ytick_2">
     <g id="line2d_7">
      <g>
       <use xlink:href="#m1796a5221e" x="34.691719" y="40.957005" style="stroke: #000000; stroke-width: 0.8"/>
      </g>
     </g>
     <g id="text_8">
      <!-- 0.50 -->
      <g transform="translate(14.069063 43.46224) scale(0.07 -0.07)">
       <use xlink:href="#ArialMT-30"/>
       <use xlink:href="#ArialMT-2e" x="55.615234"/>
       <use xlink:href="#ArialMT-35" x="83.398438"/>
       <use xlink:href="#ArialMT-30" x="139.013672"/>
      </g>
     </g>
    </g>
    <g id="ytick_3">
     <g id="line2d_8">
      <g>
       <use xlink:href="#m1796a5221e" x="34.691719" y="26.175032" style="stroke: #000000; stroke-width: 0.8"/>
      </g>
     </g>
     <g id="text_9">
      <!-- 0.75 -->
      <g transform="translate(14.069063 28.680266) scale(0.07 -0.07)">
       <use xlink:href="#ArialMT-30"/>
       <use xlink:href="#ArialMT-2e" x="55.615234"/>
       <use xlink:href="#ArialMT-37" x="83.398438"/>
       <use xlink:href="#ArialMT-35" x="139.013672"/>
      </g>
     </g>
    </g>
    <g id="ytick_4">
     <g id="line2d_9">
      <g>
       <use xlink:href="#m1796a5221e" x="34.691719" y="11.393058" style="stroke: #000000; stroke-width: 0.8"/>
      </g>
     </g>
     <g id="text_10">
      <!-- 1.00 -->
      <g transform="translate(14.069063 13.898292) scale(0.07 -0.07)">
       <use xlink:href="#ArialMT-31"/>
       <use xlink:href="#ArialMT-2e" x="55.615234"/>
       <use xlink:href="#ArialMT-30" x="83.398438"/>
       <use xlink:href="#ArialMT-30" x="139.013672"/>
      </g>
     </g>
    </g>
    <g id="text_11">
     <!-- Precision -->
     <g transform="translate(8.677813 51.68052) rotate(-90) scale(0.07 -0.07)">
      <defs>
       <path id="ArialMT-50" d="M 494 0 
L 494 4581 
L 2222 4581 
Q 2678 4581 2919 4538 
Q 3256 4481 3484 4323 
Q 3713 4166 3852 3881 
Q 3991 3597 3991 3256 
Q 3991 2672 3619 2267 
Q 3247 1863 2275 1863 
L 1100 1863 
L 1100 0 
L 494 0 
z
M 1100 2403 
L 2284 2403 
Q 2872 2403 3119 2622 
Q 3366 2841 3366 3238 
Q 3366 3525 3220 3729 
Q 3075 3934 2838 4000 
Q 2684 4041 2272 4041 
L 1100 4041 
L 1100 2403 
z
" transform="scale(0.015625)"/>
       <path id="ArialMT-72" d="M 416 0 
L 416 3319 
L 922 3319 
L 922 2816 
Q 1116 3169 1280 3281 
Q 1444 3394 1641 3394 
Q 1925 3394 2219 3213 
L 2025 2691 
Q 1819 2813 1613 2813 
Q 1428 2813 1281 2702 
Q 1134 2591 1072 2394 
Q 978 2094 978 1738 
L 978 0 
L 416 0 
z
" transform="scale(0.015625)"/>
       <path id="ArialMT-65" d="M 2694 1069 
L 3275 997 
Q 3138 488 2766 206 
Q 2394 -75 1816 -75 
Q 1088 -75 661 373 
Q 234 822 234 1631 
Q 234 2469 665 2931 
Q 1097 3394 1784 3394 
Q 2450 3394 2872 2941 
Q 3294 2488 3294 1666 
Q 3294 1616 3291 1516 
L 816 1516 
Q 847 969 1125 678 
Q 1403 388 1819 388 
Q 2128 388 2347 550 
Q 2566 713 2694 1069 
z
M 847 1978 
L 2700 1978 
Q 2663 2397 2488 2606 
Q 2219 2931 1791 2931 
Q 1403 2931 1139 2672 
Q 875 2413 847 1978 
z
" transform="scale(0.015625)"/>
       <path id="ArialMT-63" d="M 2588 1216 
L 3141 1144 
Q 3050 572 2676 248 
Q 2303 -75 1759 -75 
Q 1078 -75 664 370 
Q 250 816 250 1647 
Q 250 2184 428 2587 
Q 606 2991 970 3192 
Q 1334 3394 1763 3394 
Q 2303 3394 2647 3120 
Q 2991 2847 3088 2344 
L 2541 2259 
Q 2463 2594 2264 2762 
Q 2066 2931 1784 2931 
Q 1359 2931 1093 2626 
Q 828 2322 828 1663 
Q 828 994 1084 691 
Q 1341 388 1753 388 
Q 2084 388 2306 591 
Q 2528 794 2588 1216 
z
" transform="scale(0.015625)"/>
       <path id="ArialMT-69" d="M 425 3934 
L 425 4581 
L 988 4581 
L 988 3934 
L 425 3934 
z
M 425 0 
L 425 3319 
L 988 3319 
L 988 0 
L 425 0 
z
" transform="scale(0.015625)"/>
       <path id="ArialMT-73" d="M 197 991 
L 753 1078 
Q 800 744 1014 566 
Q 1228 388 1613 388 
Q 2000 388 2187 545 
Q 2375 703 2375 916 
Q 2375 1106 2209 1216 
Q 2094 1291 1634 1406 
Q 1016 1563 777 1677 
Q 538 1791 414 1992 
Q 291 2194 291 2438 
Q 291 2659 392 2848 
Q 494 3038 669 3163 
Q 800 3259 1026 3326 
Q 1253 3394 1513 3394 
Q 1903 3394 2198 3281 
Q 2494 3169 2634 2976 
Q 2775 2784 2828 2463 
L 2278 2388 
Q 2241 2644 2061 2787 
Q 1881 2931 1553 2931 
Q 1166 2931 1000 2803 
Q 834 2675 834 2503 
Q 834 2394 903 2306 
Q 972 2216 1119 2156 
Q 1203 2125 1616 2013 
Q 2213 1853 2448 1751 
Q 2684 1650 2818 1456 
Q 2953 1263 2953 975 
Q 2953 694 2789 445 
Q 2625 197 2315 61 
Q 2006 -75 1616 -75 
Q 969 -75 630 194 
Q 291 463 197 991 
z
" transform="scale(0.015625)"/>
       <path id="ArialMT-6f" d="M 213 1659 
Q 213 2581 725 3025 
Q 1153 3394 1769 3394 
Q 2453 3394 2887 2945 
Q 3322 2497 3322 1706 
Q 3322 1066 3130 698 
Q 2938 331 2570 128 
Q 2203 -75 1769 -75 
Q 1072 -75 642 372 
Q 213 819 213 1659 
z
M 791 1659 
Q 791 1022 1069 705 
Q 1347 388 1769 388 
Q 2188 388 2466 706 
Q 2744 1025 2744 1678 
Q 2744 2294 2464 2611 
Q 2184 2928 1769 2928 
Q 1347 2928 1069 2612 
Q 791 2297 791 1659 
z
" transform="scale(0.015625)"/>
       <path id="ArialMT-6e" d="M 422 0 
L 422 3319 
L 928 3319 
L 928 2847 
Q 1294 3394 1984 3394 
Q 2284 3394 2536 3286 
Q 2788 3178 2913 3003 
Q 3038 2828 3088 2588 
Q 3119 2431 3119 2041 
L 3119 0 
L 2556 0 
L 2556 2019 
Q 2556 2363 2490 2533 
Q 2425 2703 2258 2804 
Q 2091 2906 1866 2906 
Q 1506 2906 1245 2678 
Q 984 2450 984 1813 
L 984 0 
L 422 0 
z
" transform="scale(0.015625)"/>
      </defs>
      <use xlink:href="#ArialMT-50"/>
      <use xlink:href="#ArialMT-72" x="66.699219"/>
      <use xlink:href="#ArialMT-65" x="100"/>
      <use xlink:href="#ArialMT-63" x="155.615234"/>
      <use xlink:href="#ArialMT-69" x="205.615234"/>
      <use xlink:href="#ArialMT-73" x="227.832031"/>
      <use xlink:href="#ArialMT-69" x="277.832031"/>
      <use xlink:href="#ArialMT-6f" x="300.048828"/>
      <use xlink:href="#ArialMT-6e" x="355.664062"/>
     </g>
    </g>
   </g>
   <g id="line2d_10">
    <path d="M 37.884662 16.855662 
L 53.849376 15.010649 
L 69.814091 12.120138 
L 85.778805 11.988769 
L 101.743519 12.194309 
" clip-path="url(#pd360f5fff0)" style="fill: none; stroke: #4878d0; stroke-width: 1.5; stroke-linecap: square"/>
   </g>
   <g id="line2d_11">
    <path d="M 37.884662 34.767166 
L 53.849376 33.640539 
L 69.814091 22.77146 
L 85.778805 19.203236 
L 101.743519 15.39605 
" clip-path="url(#pd360f5fff0)" style="fill: none; stroke: #ee854a; stroke-width: 1.5; stroke-linecap: square"/>
   </g>
   <g id="line2d_12">
    <path d="M 37.884662 47.545502 
L 53.849376 45.361752 
L 69.814091 34.123715 
L 85.778805 30.782643 
L 101.743519 25.915808 
" clip-path="url(#pd360f5fff0)" style="fill: none; stroke: #6acc64; stroke-width: 1.5; stroke-linecap: square"/>
   </g>
   <g id="line2d_13">
    <path d="M 37.884662 62.022904 
L 53.849376 60.561267 
L 69.814091 57.066331 
L 85.778805 53.433369 
L 101.743519 45.993718 
" clip-path="url(#pd360f5fff0)" style="fill: none; stroke: #d65f5f; stroke-width: 1.5; stroke-linecap: square"/>
   </g>
   <g id="line2d_14"/>
   <g id="line2d_15"/>
   <g id="line2d_16"/>
   <g id="line2d_17"/>
   <g id="patch_3">
    <path d="M 34.691719 65.618147 
L 34.691719 8.954299 
" style="fill: none; stroke: #000000; stroke-width: 0.8; stroke-linejoin: miter; stroke-linecap: square"/>
   </g>
   <g id="patch_4">
    <path d="M 34.691719 65.618147 
L 104.936462 65.618147 
" style="fill: none; stroke: #000000; stroke-width: 0.8; stroke-linejoin: miter; stroke-linecap: square"/>
   </g>
   <g id="legend_1"/>
  </g>
  <g id="axes_2">
   <g id="patch_5">
    <path d="M 147.725224 65.618147 
L 217.969968 65.618147 
L 217.969968 8.954299 
L 147.725224 8.954299 
z
" style="fill: #ffffff"/>
   </g>
   <g id="PolyCollection_5">
    <defs>
     <path id="mabb8c45018" d="M 150.918167 -70.665685 
L 150.918167 -60.947452 
L 166.882882 -65.929556 
L 182.847596 -83.309774 
L 198.812311 -86.091693 
L 214.777025 -82.69157 
L 214.777025 -96.601163 
L 214.777025 -96.601163 
L 198.812311 -94.437449 
L 182.847596 -91.65553 
L 166.882882 -74.801581 
L 150.918167 -70.665685 
z
" style="stroke: #4878d0; stroke-opacity: 0.2"/>
    </defs>
    <g clip-path="url(#pfdce518030)">
     <use xlink:href="#mabb8c45018" x="0" y="113.385827" style="fill: #4878d0; fill-opacity: 0.2; stroke: #4878d0; stroke-opacity: 0.2"/>
    </g>
   </g>
   <g id="PolyCollection_6">
    <defs>
     <path id="m06b5e90124" d="M 150.918167 -61.439411 
L 150.918167 -50.34331 
L 166.882882 -63.292983 
L 182.847596 -78.055038 
L 198.812311 -83.618876 
L 214.777025 -74.028984 
L 214.777025 -90.728224 
L 214.777025 -90.728224 
L 198.812311 -93.51787 
L 182.847596 -88.873611 
L 166.882882 -73.700576 
L 150.918167 -61.439411 
z
" style="stroke: #ee854a; stroke-opacity: 0.2"/>
    </defs>
    <g clip-path="url(#pfdce518030)">
     <use xlink:href="#m06b5e90124" x="0" y="113.385827" style="fill: #ee854a; fill-opacity: 0.2; stroke: #ee854a; stroke-opacity: 0.2"/>
    </g>
   </g>
   <g id="PolyCollection_7">
    <defs>
     <path id="mf86e711987" d="M 150.918167 -67.361015 
L 150.918167 -57.293972 
L 166.882882 -63.814527 
L 182.847596 -83.000672 
L 198.812311 -91.964632 
L 214.777025 -90.11002 
L 214.777025 -99.692184 
L 214.777025 -99.692184 
L 198.812311 -96.601163 
L 182.847596 -91.346428 
L 166.882882 -71.844485 
L 150.918167 -67.361015 
z
" style="stroke: #6acc64; stroke-opacity: 0.2"/>
    </defs>
    <g clip-path="url(#pfdce518030)">
     <use xlink:href="#mf86e711987" x="0" y="113.385827" style="fill: #6acc64; fill-opacity: 0.2; stroke: #6acc64; stroke-opacity: 0.2"/>
    </g>
   </g>
   <g id="PolyCollection_8">
    <defs>
     <path id="m9f835ce2a5" d="M 150.918167 -98.552746 
L 150.918167 -93.082676 
L 166.882882 -91.43724 
L 182.847596 -95.364755 
L 198.812311 -95.364755 
L 214.777025 -95.364755 
L 214.777025 -101.855899 
L 214.777025 -101.855899 
L 198.812311 -100.310388 
L 182.847596 -100.001286 
L 166.882882 -95.571664 
L 150.918167 -98.552746 
z
" style="stroke: #d65f5f; stroke-opacity: 0.2"/>
    </defs>
    <g clip-path="url(#pfdce518030)">
     <use xlink:href="#m9f835ce2a5" x="0" y="113.385827" style="fill: #d65f5f; fill-opacity: 0.2; stroke: #d65f5f; stroke-opacity: 0.2"/>
    </g>
   </g>
   <g id="matplotlib.axis_3">
    <g id="xtick_6">
     <g id="line2d_18">
      <g>
       <use xlink:href="#mc650eb1c51" x="150.918167" y="65.618147" style="stroke: #000000; stroke-width: 0.8"/>
      </g>
     </g>
     <g id="text_12">
      <!-- [95,96) -->
      <g transform="translate(144.49471 91.629817) rotate(-45) scale(0.07 -0.07)">
       <use xlink:href="#ArialMT-5b"/>
       <use xlink:href="#ArialMT-39" x="27.783203"/>
       <use xlink:href="#ArialMT-35" x="83.398438"/>
       <use xlink:href="#ArialMT-2c" x="139.013672"/>
       <use xlink:href="#ArialMT-39" x="166.796875"/>
       <use xlink:href="#ArialMT-36" x="222.412109"/>
       <use xlink:href="#ArialMT-29" x="278.027344"/>
      </g>
     </g>
    </g>
    <g id="xtick_7">
     <g id="line2d_19">
      <g>
       <use xlink:href="#mc650eb1c51" x="166.882882" y="65.618147" style="stroke: #000000; stroke-width: 0.8"/>
      </g>
     </g>
     <g id="text_13">
      <!-- [96,97) -->
      <g transform="translate(160.459424 91.629817) rotate(-45) scale(0.07 -0.07)">
       <use xlink:href="#ArialMT-5b"/>
       <use xlink:href="#ArialMT-39" x="27.783203"/>
       <use xlink:href="#ArialMT-36" x="83.398438"/>
       <use xlink:href="#ArialMT-2c" x="139.013672"/>
       <use xlink:href="#ArialMT-39" x="166.796875"/>
       <use xlink:href="#ArialMT-37" x="222.412109"/>
       <use xlink:href="#ArialMT-29" x="278.027344"/>
      </g>
     </g>
    </g>
    <g id="xtick_8">
     <g id="line2d_20">
      <g>
       <use xlink:href="#mc650eb1c51" x="182.847596" y="65.618147" style="stroke: #000000; stroke-width: 0.8"/>
      </g>
     </g>
     <g id="text_14">
      <!-- [97,98) -->
      <g transform="translate(176.424139 91.629817) rotate(-45) scale(0.07 -0.07)">
       <use xlink:href="#ArialMT-5b"/>
       <use xlink:href="#ArialMT-39" x="27.783203"/>
       <use xlink:href="#ArialMT-37" x="83.398438"/>
       <use xlink:href="#ArialMT-2c" x="139.013672"/>
       <use xlink:href="#ArialMT-39" x="166.796875"/>
       <use xlink:href="#ArialMT-38" x="222.412109"/>
       <use xlink:href="#ArialMT-29" x="278.027344"/>
      </g>
     </g>
    </g>
    <g id="xtick_9">
     <g id="line2d_21">
      <g>
       <use xlink:href="#mc650eb1c51" x="198.812311" y="65.618147" style="stroke: #000000; stroke-width: 0.8"/>
      </g>
     </g>
     <g id="text_15">
      <!-- [98,99) -->
      <g transform="translate(192.388853 91.629817) rotate(-45) scale(0.07 -0.07)">
       <use xlink:href="#ArialMT-5b"/>
       <use xlink:href="#ArialMT-39" x="27.783203"/>
       <use xlink:href="#ArialMT-38" x="83.398438"/>
       <use xlink:href="#ArialMT-2c" x="139.013672"/>
       <use xlink:href="#ArialMT-39" x="166.796875"/>
       <use xlink:href="#ArialMT-39" x="222.412109"/>
       <use xlink:href="#ArialMT-29" x="278.027344"/>
      </g>
     </g>
    </g>
    <g id="xtick_10">
     <g id="line2d_22">
      <g>
       <use xlink:href="#mc650eb1c51" x="214.777025" y="65.618147" style="stroke: #000000; stroke-width: 0.8"/>
      </g>
     </g>
     <g id="text_16">
      <!-- [99,100) -->
      <g transform="translate(206.977306 94.382341) rotate(-45) scale(0.07 -0.07)">
       <use xlink:href="#ArialMT-5b"/>
       <use xlink:href="#ArialMT-39" x="27.783203"/>
       <use xlink:href="#ArialMT-39" x="83.398438"/>
       <use xlink:href="#ArialMT-2c" x="139.013672"/>
       <use xlink:href="#ArialMT-31" x="166.796875"/>
       <use xlink:href="#ArialMT-30" x="222.412109"/>
       <use xlink:href="#ArialMT-30" x="278.027344"/>
       <use xlink:href="#ArialMT-29" x="333.642578"/>
      </g>
     </g>
    </g>
    <g id="text_17">
     <!-- ANI -->
     <g transform="translate(177.012987 104.434577) scale(0.07 -0.07)">
      <use xlink:href="#ArialMT-41"/>
      <use xlink:href="#ArialMT-4e" x="66.699219"/>
      <use xlink:href="#ArialMT-49" x="138.916016"/>
     </g>
    </g>
   </g>
   <g id="matplotlib.axis_4">
    <g id="ytick_5">
     <g id="line2d_23">
      <g>
       <use xlink:href="#m1796a5221e" x="147.725224" y="65.31369" style="stroke: #000000; stroke-width: 0.8"/>
      </g>
     </g>
     <g id="text_18">
      <!-- 0.6 -->
      <g transform="translate(130.995224 67.818925) scale(0.07 -0.07)">
       <use xlink:href="#ArialMT-30"/>
       <use xlink:href="#ArialMT-2e" x="55.615234"/>
       <use xlink:href="#ArialMT-36" x="83.398438"/>
      </g>
     </g>
    </g>
    <g id="ytick_6">
     <g id="line2d_24">
      <g>
       <use xlink:href="#m1796a5221e" x="147.725224" y="37.494503" style="stroke: #000000; stroke-width: 0.8"/>
      </g>
     </g>
     <g id="text_19">
      <!-- 0.8 -->
      <g transform="translate(130.995224 39.999737) scale(0.07 -0.07)">
       <use xlink:href="#ArialMT-30"/>
       <use xlink:href="#ArialMT-2e" x="55.615234"/>
       <use xlink:href="#ArialMT-38" x="83.398438"/>
      </g>
     </g>
    </g>
    <g id="ytick_7">
     <g id="line2d_25">
      <g>
       <use xlink:href="#m1796a5221e" x="147.725224" y="9.675316" style="stroke: #000000; stroke-width: 0.8"/>
      </g>
     </g>
     <g id="text_20">
      <!-- 1.0 -->
      <g transform="translate(130.995224 12.18055) scale(0.07 -0.07)">
       <use xlink:href="#ArialMT-31"/>
       <use xlink:href="#ArialMT-2e" x="55.615234"/>
       <use xlink:href="#ArialMT-30" x="83.398438"/>
      </g>
     </g>
    </g>
    <g id="text_21">
     <!-- Sensitivity -->
     <g transform="translate(125.521943 53.041145) rotate(-90) scale(0.07 -0.07)">
      <defs>
       <path id="ArialMT-53" d="M 288 1472 
L 859 1522 
Q 900 1178 1048 958 
Q 1197 738 1509 602 
Q 1822 466 2213 466 
Q 2559 466 2825 569 
Q 3091 672 3220 851 
Q 3350 1031 3350 1244 
Q 3350 1459 3225 1620 
Q 3100 1781 2813 1891 
Q 2628 1963 1997 2114 
Q 1366 2266 1113 2400 
Q 784 2572 623 2826 
Q 463 3081 463 3397 
Q 463 3744 659 4045 
Q 856 4347 1234 4503 
Q 1613 4659 2075 4659 
Q 2584 4659 2973 4495 
Q 3363 4331 3572 4012 
Q 3781 3694 3797 3291 
L 3216 3247 
Q 3169 3681 2898 3903 
Q 2628 4125 2100 4125 
Q 1550 4125 1298 3923 
Q 1047 3722 1047 3438 
Q 1047 3191 1225 3031 
Q 1400 2872 2139 2705 
Q 2878 2538 3153 2413 
Q 3553 2228 3743 1945 
Q 3934 1663 3934 1294 
Q 3934 928 3725 604 
Q 3516 281 3123 101 
Q 2731 -78 2241 -78 
Q 1619 -78 1198 103 
Q 778 284 539 648 
Q 300 1013 288 1472 
z
" transform="scale(0.015625)"/>
       <path id="ArialMT-74" d="M 1650 503 
L 1731 6 
Q 1494 -44 1306 -44 
Q 1000 -44 831 53 
Q 663 150 594 308 
Q 525 466 525 972 
L 525 2881 
L 113 2881 
L 113 3319 
L 525 3319 
L 525 4141 
L 1084 4478 
L 1084 3319 
L 1650 3319 
L 1650 2881 
L 1084 2881 
L 1084 941 
Q 1084 700 1114 631 
Q 1144 563 1211 522 
Q 1278 481 1403 481 
Q 1497 481 1650 503 
z
" transform="scale(0.015625)"/>
       <path id="ArialMT-76" d="M 1344 0 
L 81 3319 
L 675 3319 
L 1388 1331 
Q 1503 1009 1600 663 
Q 1675 925 1809 1294 
L 2547 3319 
L 3125 3319 
L 1869 0 
L 1344 0 
z
" transform="scale(0.015625)"/>
       <path id="ArialMT-79" d="M 397 -1278 
L 334 -750 
Q 519 -800 656 -800 
Q 844 -800 956 -737 
Q 1069 -675 1141 -563 
Q 1194 -478 1313 -144 
Q 1328 -97 1363 -6 
L 103 3319 
L 709 3319 
L 1400 1397 
Q 1534 1031 1641 628 
Q 1738 1016 1872 1384 
L 2581 3319 
L 3144 3319 
L 1881 -56 
Q 1678 -603 1566 -809 
Q 1416 -1088 1222 -1217 
Q 1028 -1347 759 -1347 
Q 597 -1347 397 -1278 
z
" transform="scale(0.015625)"/>
      </defs>
      <use xlink:href="#ArialMT-53"/>
      <use xlink:href="#ArialMT-65" x="66.699219"/>
      <use xlink:href="#ArialMT-6e" x="122.314453"/>
      <use xlink:href="#ArialMT-73" x="177.929688"/>
      <use xlink:href="#ArialMT-69" x="227.929688"/>
      <use xlink:href="#ArialMT-74" x="250.146484"/>
      <use xlink:href="#ArialMT-69" x="277.929688"/>
      <use xlink:href="#ArialMT-76" x="300.146484"/>
      <use xlink:href="#ArialMT-69" x="350.146484"/>
      <use xlink:href="#ArialMT-74" x="372.363281"/>
      <use xlink:href="#ArialMT-79" x="400.146484"/>
     </g>
    </g>
   </g>
   <g id="line2d_26">
    <path d="M 150.918167 48.062378 
L 166.882882 42.997887 
L 182.847596 26.057726 
L 198.812311 22.657603 
L 214.777025 22.966705 
" clip-path="url(#pfdce518030)" style="fill: none; stroke: #4878d0; stroke-width: 1.5; stroke-linecap: square"/>
   </g>
   <g id="line2d_27">
    <path d="M 150.918167 57.457429 
L 166.882882 44.523421 
L 182.847596 29.457849 
L 198.812311 24.512216 
L 214.777025 30.076053 
" clip-path="url(#pfdce518030)" style="fill: none; stroke: #ee854a; stroke-width: 1.5; stroke-linecap: square"/>
   </g>
   <g id="line2d_28">
    <path d="M 150.918167 51.100872 
L 166.882882 45.495673 
L 182.847596 26.057726 
L 198.812311 19.25748 
L 214.777025 18.021072 
" clip-path="url(#pfdce518030)" style="fill: none; stroke: #6acc64; stroke-width: 1.5; stroke-linecap: square"/>
   </g>
   <g id="line2d_29">
    <path d="M 150.918167 17.714541 
L 166.882882 19.74584 
L 182.847596 15.548255 
L 198.812311 15.548255 
L 214.777025 14.311847 
" clip-path="url(#pfdce518030)" style="fill: none; stroke: #d65f5f; stroke-width: 1.5; stroke-linecap: square"/>
   </g>
   <g id="line2d_30"/>
   <g id="line2d_31"/>
   <g id="line2d_32"/>
   <g id="line2d_33"/>
   <g id="patch_6">
    <path d="M 147.725224 65.618147 
L 147.725224 8.954299 
" style="fill: none; stroke: #000000; stroke-width: 0.8; stroke-linejoin: miter; stroke-linecap: square"/>
   </g>
   <g id="patch_7">
    <path d="M 147.725224 65.618147 
L 217.969968 65.618147 
" style="fill: none; stroke: #000000; stroke-width: 0.8; stroke-linejoin: miter; stroke-linecap: square"/>
   </g>
   <g id="legend_2"/>
  </g>
  <g id="axes_3">
   <g id="patch_8">
    <path d="M 260.75873 65.618147 
L 331.003473 65.618147 
L 331.003473 8.954299 
L 260.75873 8.954299 
z
" style="fill: #ffffff"/>
   </g>
   <g id="PolyCollection_9">
    <defs>
     <path id="ma22a395198" d="M 260.75873 -101.855899 
L 260.75873 -92.765442 
L 272.466187 -96.799448 
L 284.173644 -99.091099 
L 295.881102 -99.028988 
L 307.588559 -99.930194 
L 319.296016 -98.068208 
L 331.003473 -99.231053 
L 342.710931 -101.855899 
L 354.418388 -101.855899 
L 354.418388 -101.855899 
L 354.418388 -101.855899 
L 342.710931 -101.855899 
L 331.003473 -101.527793 
L 319.296016 -100.530207 
L 307.588559 -101.374473 
L 295.881102 -100.704194 
L 284.173644 -100.982804 
L 272.466187 -100.591786 
L 260.75873 -101.855899 
z
" style="stroke: #4878d0; stroke-opacity: 0.2"/>
    </defs>
    <g clip-path="url(#p444a4aa999)">
     <use xlink:href="#ma22a395198" x="0" y="113.385827" style="fill: #4878d0; fill-opacity: 0.2; stroke: #4878d0; stroke-opacity: 0.2"/>
    </g>
   </g>
   <g id="PolyCollection_10">
    <defs>
     <path id="mf548f70498" d="M 272.466187 -91.09694 
L 272.466187 -83.272243 
L 284.173644 -82.064706 
L 295.881102 -85.526487 
L 307.588559 -88.598687 
L 319.296016 -92.632361 
L 331.003473 -97.650789 
L 342.710931 -101.855899 
L 354.418388 -101.855899 
L 354.418388 -101.855899 
L 354.418388 -101.855899 
L 342.710931 -101.855899 
L 331.003473 -100.813382 
L 319.296016 -96.635028 
L 307.588559 -92.115701 
L 295.881102 -89.157217 
L 284.173644 -86.136236 
L 272.466187 -91.09694 
z
" style="stroke: #ee854a; stroke-opacity: 0.2"/>
    </defs>
    <g clip-path="url(#p444a4aa999)">
     <use xlink:href="#mf548f70498" x="0" y="113.385827" style="fill: #ee854a; fill-opacity: 0.2; stroke: #ee854a; stroke-opacity: 0.2"/>
    </g>
   </g>
   <g id="PolyCollection_11">
    <defs>
     <path id="md06d3ba264" d="M 260.75873 -70.861036 
L 260.75873 -62.130088 
L 272.466187 -63.24571 
L 284.173644 -68.940538 
L 295.881102 -79.923203 
L 307.588559 -83.526225 
L 319.296016 -91.07045 
L 331.003473 -95.279823 
L 342.710931 -101.855899 
L 354.418388 -101.855899 
L 354.418388 -101.855899 
L 354.418388 -101.855899 
L 342.710931 -101.855899 
L 331.003473 -100.029211 
L 319.296016 -95.416825 
L 307.588559 -87.709955 
L 295.881102 -83.30531 
L 284.173644 -72.04172 
L 272.466187 -67.223141 
L 260.75873 -70.861036 
z
" style="stroke: #6acc64; stroke-opacity: 0.2"/>
    </defs>
    <g clip-path="url(#p444a4aa999)">
     <use xlink:href="#md06d3ba264" x="0" y="113.385827" style="fill: #6acc64; fill-opacity: 0.2; stroke: #6acc64; stroke-opacity: 0.2"/>
    </g>
   </g>
   <g id="PolyCollection_12">
    <defs>
     <path id="meda61211a9" d="M 260.75873 -52.558772 
L 260.75873 -51.844387 
L 272.466187 -54.229658 
L 284.173644 -61.844644 
L 295.881102 -72.776561 
L 307.588559 -82.623402 
L 319.296016 -90.25238 
L 331.003473 -97.689439 
L 342.710931 -101.855899 
L 354.418388 -101.855899 
L 354.418388 -101.855899 
L 354.418388 -101.855899 
L 342.710931 -101.855899 
L 331.003473 -101.098361 
L 319.296016 -94.999274 
L 307.588559 -86.353405 
L 295.881102 -75.810749 
L 284.173644 -64.006469 
L 272.466187 -55.20494 
L 260.75873 -52.558772 
z
" style="stroke: #d65f5f; stroke-opacity: 0.2"/>
    </defs>
    <g clip-path="url(#p444a4aa999)">
     <use xlink:href="#meda61211a9" x="0" y="113.385827" style="fill: #d65f5f; fill-opacity: 0.2; stroke: #d65f5f; stroke-opacity: 0.2"/>
    </g>
   </g>
   <g id="matplotlib.axis_5">
    <g id="xtick_11">
     <g id="line2d_34">
      <g>
       <use xlink:href="#mc650eb1c51" x="260.75873" y="65.618147" style="stroke: #000000; stroke-width: 0.8"/>
      </g>
     </g>
     <g id="text_22">
      <!-- −2 -->
      <g transform="translate(256.768183 77.628615) scale(0.07 -0.07)">
       <defs>
        <path id="ArialMT-2212" d="M 3381 1997 
L 356 1997 
L 356 2522 
L 3381 2522 
L 3381 1997 
z
" transform="scale(0.015625)"/>
       </defs>
       <use xlink:href="#ArialMT-2212"/>
       <use xlink:href="#ArialMT-32" x="58.398438"/>
      </g>
     </g>
    </g>
    <g id="xtick_12">
     <g id="line2d_35">
      <g>
       <use xlink:href="#mc650eb1c51" x="284.173644" y="65.618147" style="stroke: #000000; stroke-width: 0.8"/>
      </g>
     </g>
     <g id="text_23">
      <!-- −1 -->
      <g transform="translate(280.183097 77.628615) scale(0.07 -0.07)">
       <use xlink:href="#ArialMT-2212"/>
       <use xlink:href="#ArialMT-31" x="58.398438"/>
      </g>
     </g>
    </g>
    <g id="xtick_13">
     <g id="line2d_36">
      <g>
       <use xlink:href="#mc650eb1c51" x="307.588559" y="65.618147" style="stroke: #000000; stroke-width: 0.8"/>
      </g>
     </g>
     <g id="text_24">
      <!-- 0 -->
      <g transform="translate(305.642231 77.628615) scale(0.07 -0.07)">
       <use xlink:href="#ArialMT-30"/>
      </g>
     </g>
    </g>
    <g id="xtick_14">
     <g id="line2d_37">
      <g>
       <use xlink:href="#mc650eb1c51" x="331.003473" y="65.618147" style="stroke: #000000; stroke-width: 0.8"/>
      </g>
     </g>
     <g id="text_25">
      <!-- 1 -->
      <g transform="translate(329.057145 77.628615) scale(0.07 -0.07)">
       <use xlink:href="#ArialMT-31"/>
      </g>
     </g>
    </g>
    <g id="text_26">
     <!-- Log10 abundance (est) -->
     <g transform="translate(259.884695 88.115647) scale(0.07 -0.07)">
      <defs>
       <path id="ArialMT-4c" d="M 469 0 
L 469 4581 
L 1075 4581 
L 1075 541 
L 3331 541 
L 3331 0 
L 469 0 
z
" transform="scale(0.015625)"/>
       <path id="ArialMT-67" d="M 319 -275 
L 866 -356 
Q 900 -609 1056 -725 
Q 1266 -881 1628 -881 
Q 2019 -881 2231 -725 
Q 2444 -569 2519 -288 
Q 2563 -116 2559 434 
Q 2191 0 1641 0 
Q 956 0 581 494 
Q 206 988 206 1678 
Q 206 2153 378 2554 
Q 550 2956 876 3175 
Q 1203 3394 1644 3394 
Q 2231 3394 2613 2919 
L 2613 3319 
L 3131 3319 
L 3131 450 
Q 3131 -325 2973 -648 
Q 2816 -972 2473 -1159 
Q 2131 -1347 1631 -1347 
Q 1038 -1347 672 -1080 
Q 306 -813 319 -275 
z
M 784 1719 
Q 784 1066 1043 766 
Q 1303 466 1694 466 
Q 2081 466 2343 764 
Q 2606 1063 2606 1700 
Q 2606 2309 2336 2618 
Q 2066 2928 1684 2928 
Q 1309 2928 1046 2623 
Q 784 2319 784 1719 
z
" transform="scale(0.015625)"/>
       <path id="ArialMT-20" transform="scale(0.015625)"/>
       <path id="ArialMT-61" d="M 2588 409 
Q 2275 144 1986 34 
Q 1697 -75 1366 -75 
Q 819 -75 525 192 
Q 231 459 231 875 
Q 231 1119 342 1320 
Q 453 1522 633 1644 
Q 813 1766 1038 1828 
Q 1203 1872 1538 1913 
Q 2219 1994 2541 2106 
Q 2544 2222 2544 2253 
Q 2544 2597 2384 2738 
Q 2169 2928 1744 2928 
Q 1347 2928 1158 2789 
Q 969 2650 878 2297 
L 328 2372 
Q 403 2725 575 2942 
Q 747 3159 1072 3276 
Q 1397 3394 1825 3394 
Q 2250 3394 2515 3294 
Q 2781 3194 2906 3042 
Q 3031 2891 3081 2659 
Q 3109 2516 3109 2141 
L 3109 1391 
Q 3109 606 3145 398 
Q 3181 191 3288 0 
L 2700 0 
Q 2613 175 2588 409 
z
M 2541 1666 
Q 2234 1541 1622 1453 
Q 1275 1403 1131 1340 
Q 988 1278 909 1158 
Q 831 1038 831 891 
Q 831 666 1001 516 
Q 1172 366 1500 366 
Q 1825 366 2078 508 
Q 2331 650 2450 897 
Q 2541 1088 2541 1459 
L 2541 1666 
z
" transform="scale(0.015625)"/>
       <path id="ArialMT-62" d="M 941 0 
L 419 0 
L 419 4581 
L 981 4581 
L 981 2947 
Q 1338 3394 1891 3394 
Q 2197 3394 2470 3270 
Q 2744 3147 2920 2923 
Q 3097 2700 3197 2384 
Q 3297 2069 3297 1709 
Q 3297 856 2875 390 
Q 2453 -75 1863 -75 
Q 1275 -75 941 416 
L 941 0 
z
M 934 1684 
Q 934 1088 1097 822 
Q 1363 388 1816 388 
Q 2184 388 2453 708 
Q 2722 1028 2722 1663 
Q 2722 2313 2464 2622 
Q 2206 2931 1841 2931 
Q 1472 2931 1203 2611 
Q 934 2291 934 1684 
z
" transform="scale(0.015625)"/>
       <path id="ArialMT-75" d="M 2597 0 
L 2597 488 
Q 2209 -75 1544 -75 
Q 1250 -75 995 37 
Q 741 150 617 320 
Q 494 491 444 738 
Q 409 903 409 1263 
L 409 3319 
L 972 3319 
L 972 1478 
Q 972 1038 1006 884 
Q 1059 663 1231 536 
Q 1403 409 1656 409 
Q 1909 409 2131 539 
Q 2353 669 2445 892 
Q 2538 1116 2538 1541 
L 2538 3319 
L 3100 3319 
L 3100 0 
L 2597 0 
z
" transform="scale(0.015625)"/>
       <path id="ArialMT-64" d="M 2575 0 
L 2575 419 
Q 2259 -75 1647 -75 
Q 1250 -75 917 144 
Q 584 363 401 755 
Q 219 1147 219 1656 
Q 219 2153 384 2558 
Q 550 2963 881 3178 
Q 1213 3394 1622 3394 
Q 1922 3394 2156 3267 
Q 2391 3141 2538 2938 
L 2538 4581 
L 3097 4581 
L 3097 0 
L 2575 0 
z
M 797 1656 
Q 797 1019 1065 703 
Q 1334 388 1700 388 
Q 2069 388 2326 689 
Q 2584 991 2584 1609 
Q 2584 2291 2321 2609 
Q 2059 2928 1675 2928 
Q 1300 2928 1048 2622 
Q 797 2316 797 1656 
z
" transform="scale(0.015625)"/>
       <path id="ArialMT-28" d="M 1497 -1347 
Q 1031 -759 709 28 
Q 388 816 388 1659 
Q 388 2403 628 3084 
Q 909 3875 1497 4659 
L 1900 4659 
Q 1522 4009 1400 3731 
Q 1209 3300 1100 2831 
Q 966 2247 966 1656 
Q 966 153 1900 -1347 
L 1497 -1347 
z
" transform="scale(0.015625)"/>
      </defs>
      <use xlink:href="#ArialMT-4c"/>
      <use xlink:href="#ArialMT-6f" x="55.615234"/>
      <use xlink:href="#ArialMT-67" x="111.230469"/>
      <use xlink:href="#ArialMT-31" x="166.845703"/>
      <use xlink:href="#ArialMT-30" x="222.460938"/>
      <use xlink:href="#ArialMT-20" x="278.076172"/>
      <use xlink:href="#ArialMT-61" x="305.859375"/>
      <use xlink:href="#ArialMT-62" x="361.474609"/>
      <use xlink:href="#ArialMT-75" x="417.089844"/>
      <use xlink:href="#ArialMT-6e" x="472.705078"/>
      <use xlink:href="#ArialMT-64" x="528.320312"/>
      <use xlink:href="#ArialMT-61" x="583.935547"/>
      <use xlink:href="#ArialMT-6e" x="639.550781"/>
      <use xlink:href="#ArialMT-63" x="695.166016"/>
      <use xlink:href="#ArialMT-65" x="745.166016"/>
      <use xlink:href="#ArialMT-20" x="800.78125"/>
      <use xlink:href="#ArialMT-28" x="828.564453"/>
      <use xlink:href="#ArialMT-65" x="861.865234"/>
      <use xlink:href="#ArialMT-73" x="917.480469"/>
      <use xlink:href="#ArialMT-74" x="967.480469"/>
      <use xlink:href="#ArialMT-29" x="995.263672"/>
     </g>
    </g>
   </g>
   <g id="matplotlib.axis_6">
    <g id="ytick_8">
     <g id="line2d_38">
      <g>
       <use xlink:href="#m1796a5221e" x="260.75873" y="63.042517" style="stroke: #000000; stroke-width: 0.8"/>
      </g>
     </g>
     <g id="text_27">
      <!-- 0.0 -->
      <g transform="translate(244.02873 65.547751) scale(0.07 -0.07)">
       <use xlink:href="#ArialMT-30"/>
       <use xlink:href="#ArialMT-2e" x="55.615234"/>
       <use xlink:href="#ArialMT-30" x="83.398438"/>
      </g>
     </g>
    </g>
    <g id="ytick_9">
     <g id="line2d_39">
      <g>
       <use xlink:href="#m1796a5221e" x="260.75873" y="37.286223" style="stroke: #000000; stroke-width: 0.8"/>
      </g>
     </g>
     <g id="text_28">
      <!-- 0.5 -->
      <g transform="translate(244.02873 39.791457) scale(0.07 -0.07)">
       <use xlink:href="#ArialMT-30"/>
       <use xlink:href="#ArialMT-2e" x="55.615234"/>
       <use xlink:href="#ArialMT-35" x="83.398438"/>
      </g>
     </g>
    </g>
    <g id="ytick_10">
     <g id="line2d_40">
      <g>
       <use xlink:href="#m1796a5221e" x="260.75873" y="11.529928" style="stroke: #000000; stroke-width: 0.8"/>
      </g>
     </g>
     <g id="text_29">
      <!-- 1.0 -->
      <g transform="translate(244.02873 14.035163) scale(0.07 -0.07)">
       <use xlink:href="#ArialMT-31"/>
       <use xlink:href="#ArialMT-2e" x="55.615234"/>
       <use xlink:href="#ArialMT-30" x="83.398438"/>
      </g>
     </g>
    </g>
    <g id="text_30">
     <!-- Precision -->
     <g transform="translate(238.63748 51.68052) rotate(-90) scale(0.07 -0.07)">
      <use xlink:href="#ArialMT-50"/>
      <use xlink:href="#ArialMT-72" x="66.699219"/>
      <use xlink:href="#ArialMT-65" x="100"/>
      <use xlink:href="#ArialMT-63" x="155.615234"/>
      <use xlink:href="#ArialMT-69" x="205.615234"/>
      <use xlink:href="#ArialMT-73" x="227.832031"/>
      <use xlink:href="#ArialMT-69" x="277.832031"/>
      <use xlink:href="#ArialMT-6f" x="300.048828"/>
      <use xlink:href="#ArialMT-6e" x="355.664062"/>
     </g>
    </g>
   </g>
   <g id="line2d_41">
    <path d="M 260.75873 14.56008 
L 272.466187 14.69021 
L 284.173644 13.276118 
L 295.881102 13.519235 
L 307.588559 12.733493 
L 319.296016 13.991927 
L 331.003473 12.842351 
L 342.710931 11.529928 
L 354.418388 11.529928 
" clip-path="url(#p444a4aa999)" style="fill: none; stroke: #4878d0; stroke-width: 1.5; stroke-linecap: square"/>
   </g>
   <g id="line2d_42">
    <path d="M 272.466187 26.201235 
L 284.173644 29.286512 
L 295.881102 25.966075 
L 307.588559 23.077585 
L 319.296016 18.665118 
L 331.003473 13.982909 
L 342.710931 11.529928 
L 354.418388 11.529928 
" clip-path="url(#p444a4aa999)" style="fill: none; stroke: #ee854a; stroke-width: 1.5; stroke-linecap: square"/>
   </g>
   <g id="line2d_43">
    <path d="M 249.051273 63.042517 
L 260.75873 46.890265 
L 272.466187 48.102896 
L 284.173644 42.865814 
L 295.881102 31.803447 
L 307.588559 27.722141 
L 319.296016 20.061701 
L 331.003473 15.548641 
L 342.710931 11.529928 
L 354.418388 11.529928 
" clip-path="url(#p444a4aa999)" style="fill: none; stroke: #6acc64; stroke-width: 1.5; stroke-linecap: square"/>
   </g>
   <g id="line2d_44">
    <path d="M 260.75873 61.211935 
L 272.466187 58.698082 
L 284.173644 50.476245 
L 295.881102 39.115642 
L 307.588559 28.813757 
L 319.296016 20.672094 
L 331.003473 13.802542 
L 342.710931 11.529928 
L 354.418388 11.529928 
" clip-path="url(#p444a4aa999)" style="fill: none; stroke: #d65f5f; stroke-width: 1.5; stroke-linecap: square"/>
   </g>
   <g id="line2d_45"/>
   <g id="line2d_46"/>
   <g id="line2d_47"/>
   <g id="line2d_48"/>
   <g id="line2d_49"/>
   <g id="patch_9">
    <path d="M 260.75873 65.618147 
L 260.75873 8.954299 
" style="fill: none; stroke: #000000; stroke-width: 0.8; stroke-linejoin: miter; stroke-linecap: square"/>
   </g>
   <g id="patch_10">
    <path d="M 260.75873 65.618147 
L 331.003473 65.618147 
" style="fill: none; stroke: #000000; stroke-width: 0.8; stroke-linejoin: miter; stroke-linecap: square"/>
   </g>
   <g id="legend_3"/>
  </g>
  <g id="axes_4">
   <g id="patch_11">
    <path d="M 373.792235 65.618147 
L 444.036979 65.618147 
L 444.036979 8.954299 
L 373.792235 8.954299 
z
" style="fill: #ffffff"/>
   </g>
   <g id="PolyCollection_13">
    <defs>
     <path id="me76641d037" d="M 338.669864 -50.34331 
L 338.669864 -50.34331 
L 350.377321 -50.34331 
L 362.084778 -50.34331 
L 373.792235 -52.089499 
L 385.499693 -80.054691 
L 397.20715 -94.257792 
L 408.914607 -97.495581 
L 420.622064 -99.118515 
L 432.329522 -98.148553 
L 444.036979 -98.379589 
L 455.744436 -93.842829 
L 467.451893 -101.855899 
L 467.451893 -101.855899 
L 467.451893 -101.855899 
L 455.744436 -101.855899 
L 444.036979 -101.223842 
L 432.329522 -100.685158 
L 420.622064 -100.984913 
L 408.914607 -99.726441 
L 397.20715 -97.477329 
L 385.499693 -86.035553 
L 373.792235 -56.89152 
L 362.084778 -50.34331 
L 350.377321 -50.34331 
L 338.669864 -50.34331 
z
" style="stroke: #4878d0; stroke-opacity: 0.2"/>
    </defs>
    <g clip-path="url(#pe47afb140b)">
     <use xlink:href="#me76641d037" x="0" y="113.385827" style="fill: #4878d0; fill-opacity: 0.2; stroke: #4878d0; stroke-opacity: 0.2"/>
    </g>
   </g>
   <g id="PolyCollection_14">
    <defs>
     <path id="m7841e365a2" d="M 338.669864 -50.34331 
L 338.669864 -50.34331 
L 350.377321 -50.34331 
L 362.084778 -50.34331 
L 373.792235 -50.34331 
L 385.499693 -70.596246 
L 397.20715 -95.931951 
L 408.914607 -96.785762 
L 420.622064 -97.625396 
L 432.329522 -96.782689 
L 444.036979 -96.48342 
L 455.744436 -96.132278 
L 467.451893 -101.855899 
L 467.451893 -101.855899 
L 467.451893 -101.855899 
L 455.744436 -101.855899 
L 444.036979 -100.275758 
L 432.329522 -99.904664 
L 420.622064 -99.9895 
L 408.914607 -99.118025 
L 397.20715 -98.893925 
L 385.499693 -76.774863 
L 373.792235 -50.34331 
L 362.084778 -50.34331 
L 350.377321 -50.34331 
L 338.669864 -50.34331 
z
" style="stroke: #ee854a; stroke-opacity: 0.2"/>
    </defs>
    <g clip-path="url(#pe47afb140b)">
     <use xlink:href="#m7841e365a2" x="0" y="113.385827" style="fill: #ee854a; fill-opacity: 0.2; stroke: #ee854a; stroke-opacity: 0.2"/>
    </g>
   </g>
   <g id="PolyCollection_15">
    <defs>
     <path id="m9a9abd5ac4" d="M 338.669864 -50.34331 
L 338.669864 -50.34331 
L 350.377321 -50.34331 
L 362.084778 -50.34331 
L 373.792235 -59.074257 
L 385.499693 -75.810208 
L 397.20715 -90.008003 
L 408.914607 -98.611011 
L 420.622064 -101.109339 
L 432.329522 -101.855899 
L 444.036979 -101.855899 
L 455.744436 -101.855899 
L 467.451893 -101.855899 
L 467.451893 -101.855899 
L 467.451893 -101.855899 
L 455.744436 -101.855899 
L 444.036979 -101.855899 
L 432.329522 -101.855899 
L 420.622064 -101.855899 
L 408.914607 -100.43626 
L 397.20715 -94.257792 
L 385.499693 -81.984001 
L 373.792235 -66.495562 
L 362.084778 -50.34331 
L 350.377321 -50.34331 
L 338.669864 -50.34331 
z
" style="stroke: #6acc64; stroke-opacity: 0.2"/>
    </defs>
    <g clip-path="url(#pe47afb140b)">
     <use xlink:href="#m9a9abd5ac4" x="0" y="113.385827" style="fill: #6acc64; fill-opacity: 0.2; stroke: #6acc64; stroke-opacity: 0.2"/>
    </g>
   </g>
   <g id="PolyCollection_16">
    <defs>
     <path id="m73321a7945" d="M 338.669864 -50.34331 
L 338.669864 -50.34331 
L 350.377321 -50.34331 
L 362.084778 -50.34331 
L 373.792235 -73.916867 
L 385.499693 -98.190209 
L 397.20715 -101.855899 
L 408.914607 -101.855899 
L 420.622064 -101.855899 
L 432.329522 -101.855899 
L 444.036979 -101.855899 
L 455.744436 -101.855899 
L 467.451893 -101.855899 
L 467.451893 -101.855899 
L 467.451893 -101.855899 
L 455.744436 -101.855899 
L 444.036979 -101.855899 
L 432.329522 -101.855899 
L 420.622064 -101.855899 
L 408.914607 -101.855899 
L 397.20715 -101.855899 
L 385.499693 -100.698312 
L 373.792235 -83.520909 
L 362.084778 -50.34331 
L 350.377321 -50.34331 
L 338.669864 -50.34331 
z
" style="stroke: #d65f5f; stroke-opacity: 0.2"/>
    </defs>
    <g clip-path="url(#pe47afb140b)">
     <use xlink:href="#m73321a7945" x="0" y="113.385827" style="fill: #d65f5f; fill-opacity: 0.2; stroke: #d65f5f; stroke-opacity: 0.2"/>
    </g>
   </g>
   <g id="matplotlib.axis_7">
    <g id="xtick_15">
     <g id="line2d_50">
      <g>
       <use xlink:href="#mc650eb1c51" x="373.792235" y="65.618147" style="stroke: #000000; stroke-width: 0.8"/>
      </g>
     </g>
     <g id="text_31">
      <!-- −2 -->
      <g transform="translate(369.801689 77.628615) scale(0.07 -0.07)">
       <use xlink:href="#ArialMT-2212"/>
       <use xlink:href="#ArialMT-32" x="58.398438"/>
      </g>
     </g>
    </g>
    <g id="xtick_16">
     <g id="line2d_51">
      <g>
       <use xlink:href="#mc650eb1c51" x="397.20715" y="65.618147" style="stroke: #000000; stroke-width: 0.8"/>
      </g>
     </g>
     <g id="text_32">
      <!-- −1 -->
      <g transform="translate(393.216603 77.628615) scale(0.07 -0.07)">
       <use xlink:href="#ArialMT-2212"/>
       <use xlink:href="#ArialMT-31" x="58.398438"/>
      </g>
     </g>
    </g>
    <g id="xtick_17">
     <g id="line2d_52">
      <g>
       <use xlink:href="#mc650eb1c51" x="420.622064" y="65.618147" style="stroke: #000000; stroke-width: 0.8"/>
      </g>
     </g>
     <g id="text_33">
      <!-- 0 -->
      <g transform="translate(418.675736 77.628615) scale(0.07 -0.07)">
       <use xlink:href="#ArialMT-30"/>
      </g>
     </g>
    </g>
    <g id="xtick_18">
     <g id="line2d_53">
      <g>
       <use xlink:href="#mc650eb1c51" x="444.036979" y="65.618147" style="stroke: #000000; stroke-width: 0.8"/>
      </g>
     </g>
     <g id="text_34">
      <!-- 1 -->
      <g transform="translate(442.090651 77.628615) scale(0.07 -0.07)">
       <use xlink:href="#ArialMT-31"/>
      </g>
     </g>
    </g>
    <g id="text_35">
     <!-- Log10 abundance (true) -->
     <g transform="translate(371.556482 88.115647) scale(0.07 -0.07)">
      <use xlink:href="#ArialMT-4c"/>
      <use xlink:href="#ArialMT-6f" x="55.615234"/>
      <use xlink:href="#ArialMT-67" x="111.230469"/>
      <use xlink:href="#ArialMT-31" x="166.845703"/>
      <use xlink:href="#ArialMT-30" x="222.460938"/>
      <use xlink:href="#ArialMT-20" x="278.076172"/>
      <use xlink:href="#ArialMT-61" x="305.859375"/>
      <use xlink:href="#ArialMT-62" x="361.474609"/>
      <use xlink:href="#ArialMT-75" x="417.089844"/>
      <use xlink:href="#ArialMT-6e" x="472.705078"/>
      <use xlink:href="#ArialMT-64" x="528.320312"/>
      <use xlink:href="#ArialMT-61" x="583.935547"/>
      <use xlink:href="#ArialMT-6e" x="639.550781"/>
      <use xlink:href="#ArialMT-63" x="695.166016"/>
      <use xlink:href="#ArialMT-65" x="745.166016"/>
      <use xlink:href="#ArialMT-20" x="800.78125"/>
      <use xlink:href="#ArialMT-28" x="828.564453"/>
      <use xlink:href="#ArialMT-74" x="861.865234"/>
      <use xlink:href="#ArialMT-72" x="889.648438"/>
      <use xlink:href="#ArialMT-75" x="922.949219"/>
      <use xlink:href="#ArialMT-65" x="978.564453"/>
      <use xlink:href="#ArialMT-29" x="1034.179688"/>
     </g>
    </g>
   </g>
   <g id="matplotlib.axis_8">
    <g id="ytick_11">
     <g id="line2d_54">
      <g>
       <use xlink:href="#m1796a5221e" x="373.792235" y="63.042517" style="stroke: #000000; stroke-width: 0.8"/>
      </g>
     </g>
     <g id="text_36">
      <!-- 0.0 -->
      <g transform="translate(357.062235 65.547751) scale(0.07 -0.07)">
       <use xlink:href="#ArialMT-30"/>
       <use xlink:href="#ArialMT-2e" x="55.615234"/>
       <use xlink:href="#ArialMT-30" x="83.398438"/>
      </g>
     </g>
    </g>
    <g id="ytick_12">
     <g id="line2d_55">
      <g>
       <use xlink:href="#m1796a5221e" x="373.792235" y="37.286223" style="stroke: #000000; stroke-width: 0.8"/>
      </g>
     </g>
     <g id="text_37">
      <!-- 0.5 -->
      <g transform="translate(357.062235 39.791457) scale(0.07 -0.07)">
       <use xlink:href="#ArialMT-30"/>
       <use xlink:href="#ArialMT-2e" x="55.615234"/>
       <use xlink:href="#ArialMT-35" x="83.398438"/>
      </g>
     </g>
    </g>
    <g id="ytick_13">
     <g id="line2d_56">
      <g>
       <use xlink:href="#m1796a5221e" x="373.792235" y="11.529928" style="stroke: #000000; stroke-width: 0.8"/>
      </g>
     </g>
     <g id="text_38">
      <!-- 1.0 -->
      <g transform="translate(357.062235 14.035163) scale(0.07 -0.07)">
       <use xlink:href="#ArialMT-31"/>
       <use xlink:href="#ArialMT-2e" x="55.615234"/>
       <use xlink:href="#ArialMT-30" x="83.398438"/>
      </g>
     </g>
    </g>
    <g id="text_39">
     <!-- Sensitivity -->
     <g transform="translate(351.588954 53.041145) rotate(-90) scale(0.07 -0.07)">
      <use xlink:href="#ArialMT-53"/>
      <use xlink:href="#ArialMT-65" x="66.699219"/>
      <use xlink:href="#ArialMT-6e" x="122.314453"/>
      <use xlink:href="#ArialMT-73" x="177.929688"/>
      <use xlink:href="#ArialMT-69" x="227.929688"/>
      <use xlink:href="#ArialMT-74" x="250.146484"/>
      <use xlink:href="#ArialMT-69" x="277.929688"/>
      <use xlink:href="#ArialMT-76" x="300.146484"/>
      <use xlink:href="#ArialMT-69" x="350.146484"/>
      <use xlink:href="#ArialMT-74" x="372.363281"/>
      <use xlink:href="#ArialMT-79" x="400.146484"/>
     </g>
    </g>
   </g>
   <g id="line2d_57">
    <path d="M 338.669864 63.042517 
L 350.377321 63.042517 
L 362.084778 63.042517 
L 373.792235 59.113591 
L 385.499693 30.244239 
L 397.20715 17.453876 
L 408.914607 14.774816 
L 420.622064 13.2719 
L 432.329522 13.871409 
L 444.036979 13.426097 
L 454.543307 14.806309 
" clip-path="url(#pe47afb140b)" style="fill: none; stroke: #4878d0; stroke-width: 1.5; stroke-linecap: square"/>
   </g>
   <g id="line2d_58">
    <path d="M 338.669864 63.042517 
L 350.377321 63.042517 
L 362.084778 63.042517 
L 373.792235 63.042517 
L 385.499693 39.890792 
L 397.20715 15.908498 
L 408.914607 15.484635 
L 420.622064 14.516165 
L 432.329522 15.04215 
L 444.036979 15.006238 
L 454.543307 13.941143 
" clip-path="url(#pe47afb140b)" style="fill: none; stroke: #ee854a; stroke-width: 1.5; stroke-linecap: square"/>
   </g>
   <g id="line2d_59">
    <path d="M 338.669864 63.042517 
L 350.377321 63.042517 
L 362.084778 63.042517 
L 373.792235 50.382644 
L 385.499693 34.488722 
L 397.20715 21.188539 
L 408.914607 13.862191 
L 420.622064 11.903208 
L 432.329522 11.529928 
L 444.036979 11.529928 
L 454.543307 11.529928 
" clip-path="url(#pe47afb140b)" style="fill: none; stroke: #6acc64; stroke-width: 1.5; stroke-linecap: square"/>
   </g>
   <g id="line2d_60">
    <path d="M 338.669864 63.042517 
L 350.377321 63.042517 
L 362.084778 63.042517 
L 373.792235 34.666938 
L 385.499693 13.845101 
L 397.20715 11.529928 
L 408.914607 11.529928 
L 420.622064 11.529928 
L 432.329522 11.529928 
L 444.036979 11.529928 
L 454.543307 11.529928 
" clip-path="url(#pe47afb140b)" style="fill: none; stroke: #d65f5f; stroke-width: 1.5; stroke-linecap: square"/>
   </g>
   <g id="line2d_61"/>
   <g id="line2d_62"/>
   <g id="line2d_63"/>
   <g id="line2d_64"/>
   <g id="line2d_65"/>
   <g id="patch_12">
    <path d="M 373.792235 65.618147 
L 373.792235 8.954299 
" style="fill: none; stroke: #000000; stroke-width: 0.8; stroke-linejoin: miter; stroke-linecap: square"/>
   </g>
   <g id="patch_13">
    <path d="M 373.792235 65.618147 
L 444.036979 65.618147 
" style="fill: none; stroke: #000000; stroke-width: 0.8; stroke-linejoin: miter; stroke-linecap: square"/>
   </g>
   <g id="legend_4"/>
  </g>
  <g id="legend_5">
   <g id="line2d_66">
    <path d="M 119.16306 1.919417 
L 126.16306 1.919417 
L 133.16306 1.919417 
" style="fill: none; stroke: #4878d0; stroke-width: 1.5; stroke-linecap: square"/>
   </g>
   <g id="text_40">
    <!-- sylph -->
    <g transform="translate(138.76306 4.369417) scale(0.07 -0.07)">
     <defs>
      <path id="ArialMT-6c" d="M 409 0 
L 409 4581 
L 972 4581 
L 972 0 
L 409 0 
z
" transform="scale(0.015625)"/>
      <path id="ArialMT-70" d="M 422 -1272 
L 422 3319 
L 934 3319 
L 934 2888 
Q 1116 3141 1344 3267 
Q 1572 3394 1897 3394 
Q 2322 3394 2647 3175 
Q 2972 2956 3137 2557 
Q 3303 2159 3303 1684 
Q 3303 1175 3120 767 
Q 2938 359 2589 142 
Q 2241 -75 1856 -75 
Q 1575 -75 1351 44 
Q 1128 163 984 344 
L 984 -1272 
L 422 -1272 
z
M 931 1641 
Q 931 1000 1190 694 
Q 1450 388 1819 388 
Q 2194 388 2461 705 
Q 2728 1022 2728 1688 
Q 2728 2322 2467 2637 
Q 2206 2953 1844 2953 
Q 1484 2953 1207 2617 
Q 931 2281 931 1641 
z
" transform="scale(0.015625)"/>
      <path id="ArialMT-68" d="M 422 0 
L 422 4581 
L 984 4581 
L 984 2938 
Q 1378 3394 1978 3394 
Q 2347 3394 2619 3248 
Q 2891 3103 3008 2847 
Q 3125 2591 3125 2103 
L 3125 0 
L 2563 0 
L 2563 2103 
Q 2563 2525 2380 2717 
Q 2197 2909 1863 2909 
Q 1613 2909 1392 2779 
Q 1172 2650 1078 2428 
Q 984 2206 984 1816 
L 984 0 
L 422 0 
z
" transform="scale(0.015625)"/>
     </defs>
     <use xlink:href="#ArialMT-73"/>
     <use xlink:href="#ArialMT-79" x="50"/>
     <use xlink:href="#ArialMT-6c" x="100"/>
     <use xlink:href="#ArialMT-70" x="122.216797"/>
     <use xlink:href="#ArialMT-68" x="177.832031"/>
    </g>
   </g>
   <g id="line2d_67">
    <path d="M 169.103685 1.919417 
L 176.103685 1.919417 
L 183.103685 1.919417 
" style="fill: none; stroke: #ee854a; stroke-width: 1.5; stroke-linecap: square"/>
   </g>
   <g id="text_41">
    <!-- KMCP -->
    <g transform="translate(188.703685 4.369417) scale(0.07 -0.07)">
     <defs>
      <path id="ArialMT-4b" d="M 469 0 
L 469 4581 
L 1075 4581 
L 1075 2309 
L 3350 4581 
L 4172 4581 
L 2250 2725 
L 4256 0 
L 3456 0 
L 1825 2319 
L 1075 1588 
L 1075 0 
L 469 0 
z
" transform="scale(0.015625)"/>
      <path id="ArialMT-4d" d="M 475 0 
L 475 4581 
L 1388 4581 
L 2472 1338 
Q 2622 884 2691 659 
Q 2769 909 2934 1394 
L 4031 4581 
L 4847 4581 
L 4847 0 
L 4263 0 
L 4263 3834 
L 2931 0 
L 2384 0 
L 1059 3900 
L 1059 0 
L 475 0 
z
" transform="scale(0.015625)"/>
      <path id="ArialMT-43" d="M 3763 1606 
L 4369 1453 
Q 4178 706 3683 314 
Q 3188 -78 2472 -78 
Q 1731 -78 1267 223 
Q 803 525 561 1097 
Q 319 1669 319 2325 
Q 319 3041 592 3573 
Q 866 4106 1370 4382 
Q 1875 4659 2481 4659 
Q 3169 4659 3637 4309 
Q 4106 3959 4291 3325 
L 3694 3184 
Q 3534 3684 3231 3912 
Q 2928 4141 2469 4141 
Q 1941 4141 1586 3887 
Q 1231 3634 1087 3207 
Q 944 2781 944 2328 
Q 944 1744 1114 1308 
Q 1284 872 1643 656 
Q 2003 441 2422 441 
Q 2931 441 3284 734 
Q 3638 1028 3763 1606 
z
" transform="scale(0.015625)"/>
     </defs>
     <use xlink:href="#ArialMT-4b"/>
     <use xlink:href="#ArialMT-4d" x="66.699219"/>
     <use xlink:href="#ArialMT-43" x="150"/>
     <use xlink:href="#ArialMT-50" x="222.216797"/>
    </g>
   </g>
   <g id="line2d_68">
    <path d="M 222.928216 1.919417 
L 229.928216 1.919417 
L 236.928216 1.919417 
" style="fill: none; stroke: #6acc64; stroke-width: 1.5; stroke-linecap: square"/>
   </g>
   <g id="text_42">
    <!-- ganon -->
    <g transform="translate(242.528216 4.369417) scale(0.07 -0.07)">
     <use xlink:href="#ArialMT-67"/>
     <use xlink:href="#ArialMT-61" x="55.615234"/>
     <use xlink:href="#ArialMT-6e" x="111.230469"/>
     <use xlink:href="#ArialMT-6f" x="166.845703"/>
     <use xlink:href="#ArialMT-6e" x="222.460938"/>
    </g>
   </g>
   <g id="line2d_69">
    <path d="M 275.991497 1.919417 
L 282.991497 1.919417 
L 289.991497 1.919417 
" style="fill: none; stroke: #d65f5f; stroke-width: 1.5; stroke-linecap: square"/>
   </g>
   <g id="text_43">
    <!-- Bracken -->
    <g transform="translate(295.591497 -0.028114) scale(0.07 -0.07)">
     <defs>
      <path id="ArialMT-42" d="M 469 0 
L 469 4581 
L 2188 4581 
Q 2713 4581 3030 4442 
Q 3347 4303 3526 4014 
Q 3706 3725 3706 3409 
Q 3706 3116 3547 2856 
Q 3388 2597 3066 2438 
Q 3481 2316 3704 2022 
Q 3928 1728 3928 1328 
Q 3928 1006 3792 729 
Q 3656 453 3456 303 
Q 3256 153 2954 76 
Q 2653 0 2216 0 
L 469 0 
z
M 1075 2656 
L 2066 2656 
Q 2469 2656 2644 2709 
Q 2875 2778 2992 2937 
Q 3109 3097 3109 3338 
Q 3109 3566 3000 3739 
Q 2891 3913 2687 3977 
Q 2484 4041 1991 4041 
L 1075 4041 
L 1075 2656 
z
M 1075 541 
L 2216 541 
Q 2509 541 2628 563 
Q 2838 600 2978 687 
Q 3119 775 3209 942 
Q 3300 1109 3300 1328 
Q 3300 1584 3169 1773 
Q 3038 1963 2805 2039 
Q 2572 2116 2134 2116 
L 1075 2116 
L 1075 541 
z
" transform="scale(0.015625)"/>
      <path id="ArialMT-6b" d="M 425 0 
L 425 4581 
L 988 4581 
L 988 1969 
L 2319 3319 
L 3047 3319 
L 1778 2088 
L 3175 0 
L 2481 0 
L 1384 1697 
L 988 1316 
L 988 0 
L 425 0 
z
" transform="scale(0.015625)"/>
     </defs>
     <use xlink:href="#ArialMT-42"/>
     <use xlink:href="#ArialMT-72" x="66.699219"/>
     <use xlink:href="#ArialMT-61" x="100"/>
     <use xlink:href="#ArialMT-63" x="155.615234"/>
     <use xlink:href="#ArialMT-6b" x="205.615234"/>
     <use xlink:href="#ArialMT-65" x="255.615234"/>
     <use xlink:href="#ArialMT-6e" x="311.230469"/>
    </g>
    <!-- 0.01% cutoff -->
    <g transform="translate(295.591497 7.375699) scale(0.07 -0.07)">
     <defs>
      <path id="ArialMT-25" d="M 372 3481 
Q 372 3972 619 4315 
Q 866 4659 1334 4659 
Q 1766 4659 2048 4351 
Q 2331 4044 2331 3447 
Q 2331 2866 2045 2552 
Q 1759 2238 1341 2238 
Q 925 2238 648 2547 
Q 372 2856 372 3481 
z
M 1350 4272 
Q 1141 4272 1002 4090 
Q 863 3909 863 3425 
Q 863 2984 1003 2804 
Q 1144 2625 1350 2625 
Q 1563 2625 1702 2806 
Q 1841 2988 1841 3469 
Q 1841 3913 1700 4092 
Q 1559 4272 1350 4272 
z
M 1353 -169 
L 3859 4659 
L 4316 4659 
L 1819 -169 
L 1353 -169 
z
M 3334 1075 
Q 3334 1569 3581 1911 
Q 3828 2253 4300 2253 
Q 4731 2253 5014 1945 
Q 5297 1638 5297 1041 
Q 5297 459 5011 145 
Q 4725 -169 4303 -169 
Q 3888 -169 3611 142 
Q 3334 453 3334 1075 
z
M 4316 1866 
Q 4103 1866 3964 1684 
Q 3825 1503 3825 1019 
Q 3825 581 3965 400 
Q 4106 219 4313 219 
Q 4528 219 4667 400 
Q 4806 581 4806 1063 
Q 4806 1506 4665 1686 
Q 4525 1866 4316 1866 
z
" transform="scale(0.015625)"/>
      <path id="ArialMT-66" d="M 556 0 
L 556 2881 
L 59 2881 
L 59 3319 
L 556 3319 
L 556 3672 
Q 556 4006 616 4169 
Q 697 4388 901 4523 
Q 1106 4659 1475 4659 
Q 1713 4659 2000 4603 
L 1916 4113 
Q 1741 4144 1584 4144 
Q 1328 4144 1222 4034 
Q 1116 3925 1116 3625 
L 1116 3319 
L 1763 3319 
L 1763 2881 
L 1116 2881 
L 1116 0 
L 556 0 
z
" transform="scale(0.015625)"/>
     </defs>
     <use xlink:href="#ArialMT-30"/>
     <use xlink:href="#ArialMT-2e" x="55.615234"/>
     <use xlink:href="#ArialMT-30" x="83.398438"/>
     <use xlink:href="#ArialMT-31" x="139.013672"/>
     <use xlink:href="#ArialMT-25" x="194.628906"/>
     <use xlink:href="#ArialMT-20" x="283.544922"/>
     <use xlink:href="#ArialMT-63" x="311.328125"/>
     <use xlink:href="#ArialMT-75" x="361.328125"/>
     <use xlink:href="#ArialMT-74" x="416.943359"/>
     <use xlink:href="#ArialMT-6f" x="444.726562"/>
     <use xlink:href="#ArialMT-66" x="500.341797"/>
     <use xlink:href="#ArialMT-66" x="526.375"/>
    </g>
   </g>
  </g>
 </g>
 <defs>
  <clipPath id="pd360f5fff0">
   <rect x="34.691719" y="8.954299" width="70.244744" height="56.663848"/>
  </clipPath>
  <clipPath id="pfdce518030">
   <rect x="147.725224" y="8.954299" width="70.244744" height="56.663848"/>
  </clipPath>
  <clipPath id="p444a4aa999">
   <rect x="260.75873" y="8.954299" width="70.244744" height="56.663848"/>
  </clipPath>
  <clipPath id="pe47afb140b">
   <rect x="373.792235" y="8.954299" width="70.244744" height="56.663848"/>
  </clipPath>
 </defs>
</svg>
